<svg width="1826" height="21" fill="none" xmlns="http://www.w3.org/2000/svg"><path d="M11.707.295A1 1 0 0010 1.002v6a1 1 0 002 0v-6a1 1 0 00-.293-.707zm3 2A1 1 0 0013 3.002v6a1 1 0 002 0v-6a1 1 0 00-.293-.707zm-6 0A1 1 0 007 3.002v5a1 1 0 002 0v-5a1 1 0 00-.293-.707zm-3 2A1 1 0 004 5.002v4a1 1 0 002 0v-4a1 1 0 00-.293-.707zM17 15.51v-4.508H4.21c-.132.49-.202.993-.21 1.5v1a6.5 6.5 0 006.5 6.5h1a6.48 6.48 0 004.625-1.951c.65-.665.875-1.61.875-2.54z" fill="#F9C0B0"/><g clip-path="url(#clip0_4273_82255)"><path d="M19 6H1a1 1 0 00-1 1v7a1 1 0 001 1h18a1 1 0 001-1V7a1 1 0 00-1-1z" fill="#0D8F1F"/><g filter="url(#filter0_f_4273_82255)"><circle cx="2" cy="24" r="13" fill="#53E267"/></g><g filter="url(#filter1_f_4273_82255)"><circle cx="22" cy="-3" r="13" fill="#53E267"/></g></g><path fill-rule="evenodd" clip-rule="evenodd" d="M17 15.051a1.95 1.95 0 01-1.95 1.951h-3.705a3.496 3.496 0 01.343-3.597c.38-.51.89-.902 1.477-1.136a3.378 3.378 0 011.845-.188V9.01c0-.267.105-.523.292-.712a.989.989 0 011.407 0c.186.189.291.445.291.712v6.042z" fill="#F9C0B0"/><g clip-path="url(#clip1_4273_82255)"><path d="M31 18.002h16a3 3 0 003-3v-10a3 3 0 00-3-3H31a3 3 0 00-3 3v10a3 3 0 003 3z" fill="#0D8F1F"/><path d="M31 18.002h16a3 3 0 003-3v-10a3 3 0 00-3-3H31a3 3 0 00-3 3v10a3 3 0 003 3z" fill="#1596ED"/><path d="M31 18.002h16a3 3 0 003-3v-10a3 3 0 00-3-3H31a3 3 0 00-3 3v10a3 3 0 003 3z" fill="url(#paint0_radial_4273_82255)"/><g filter="url(#filter2_i_4273_82255)"><rect x="44" y="13.002" width="4" height="3" rx="1" fill="#70C5FF"/></g><path fill="#000" d="M28 5.002h22v3H28z"/><path fill="#fff" fill-opacity=".24" d="M28 8h22v1H28z"/></g><path d="M58 6.002v-2h20v2H58zm1 11v-1h18v1H59zm-1 2v-1h20v1H58z" fill="#E0E0E2"/><path d="M68 .002l-10 4h20l-10-4zm-9 17v1h18v-1H59zm-1 2v1h20v-1H58zm3-13h-2v10h2v-10zm5 0h-2v10h2v-10zm3 0h2v10h-2v-10zm7 0h-2v10h2v-10z" fill="#C6C5CA"/><path d="M59 6.002v2h2v8h1v-10h-3zm5 0v2h2v8h1v-10h-3zm5 0h3v10h-1v-8h-2v-2zm5 0v2h2v8h1v-10h-3z" fill="#ACAAB3"/><circle cx="77" cy="15.002" r="5" fill="url(#paint1_linear_4273_82255)"/><path fill-rule="evenodd" clip-rule="evenodd" d="M121.09 13.25c.083.35.33 1.742.33 1.742l.002.004H124l-2.267-9.983h-2.148c-.339 0-.619.03-.881.183a1.288 1.288 0 00-.565.653l-4.111 9.143h2.907s.493-1.47.592-1.743h3.563zm-2.112-3.415c.285-.696.57-1.392.815-2.1.155.666.303 1.334.45 2.002.128.577.255 1.155.388 1.732h-2.3c.203-.549.425-1.091.647-1.634z" fill="#3156FF"/><path d="M110.33 7.939c.017-.425.51-.85 1.611-.85.821-.025 1.574.177 2.312.48l.378-2.156a7.575 7.575 0 00-2.497-.409c-2.744 0-4.665 1.356-4.682 3.283-.016 1.354 1.239 1.91 2.266 2.363l.165.074c1.085.486 1.446.805 1.446 1.245-.096.723-.884.958-1.657.958-1.039 0-2.289-.374-2.993-.685l-.377 2.232a9.088 9.088 0 003.088.53c2.928 0 4.817-1.334 4.833-3.383.016-1.138-.723-1.756-2.316-2.452-.985-.456-1.577-.759-1.577-1.23zm-6.8-2.895l-1.742 9.948h2.778l1.741-9.948h-2.777zM92.64 6.41l2.463 8.582h2.94l4.37-9.948h-2.94l-2.725 6.774c-.436-2.009-.878-4.016-1.324-6.022a.983.983 0 00-.393-.566 1.232 1.232 0 00-.711-.222H90v.296c.884.23 1.804.556 2.599.967l.04.138z" fill="#3156FF"/><path d="M140 18.002a8 8 0 100-16 8 8 0 000 16z" fill="#E70025"/><path d="M148 18.002a8 8 0 100-16 8 8 0 000 16z" fill="#F59E2D"/><path fill-rule="evenodd" clip-rule="evenodd" d="M144.001 3.072a7.998 7.998 0 00-4 6.93 7.998 7.998 0 004 6.931 7.997 7.997 0 004.001-6.93 7.997 7.997 0 00-4.001-6.93z" fill="#FC5D1D"/><path d="M172 18.002a8 8 0 100-16 8 8 0 000 16z" fill="#D2181C"/><path d="M180 18.002a8 8 0 100-16 8 8 0 000 16z" fill="#179ADC"/><path fill-rule="evenodd" clip-rule="evenodd" d="M176.001 3.072a7.998 7.998 0 00-4 6.93 7.998 7.998 0 004 6.931 7.997 7.997 0 004.001-6.93 7.997 7.997 0 00-4.001-6.93z" fill="#6C6BBB"/><mask id="mask0_4273_82255" style="mask-type:alpha" maskUnits="userSpaceOnUse" x="196" y="0" width="32" height="21"><path d="M226.42.008c1.093 0 1.777.867 1.528 1.935l-3.727 16.133c-.241 1.035-1.27 1.875-2.328 1.926H197.54c-1.01-.015-1.72-.96-1.496-1.933l3.727-16.133c.25-1.069 1.649-1.934 2.741-1.934l23.908.006z" fill="#DD0228"/></mask><g mask="url(#mask0_4273_82255)"><path d="M226.42.008c1.093 0 1.777.867 1.528 1.935l-3.727 16.133c-.241 1.035-1.27 1.875-2.328 1.926H197.54c-1.01-.015-1.72-.96-1.496-1.933l3.727-16.133c.25-1.069 1.649-1.934 2.741-1.934l23.908.006z" fill="#DD0228"/><g filter="url(#filter3_f_4273_82255)"><path d="M241.076-1.993c1.332 0 2.166 1.04 1.861 2.322l-4.542 19.36c-.294 1.242-1.548 2.25-2.837 2.311h-29.684a1.889 1.889 0 01-1.824-2.32L208.594.321c.304-1.283 2.01-2.321 3.34-2.321l29.142.007z" fill="#023C81"/></g><g filter="url(#filter4_f_4273_82255)"><path d="M252.125-1.993c1.298 0 2.11 1.04 1.814 2.322l-4.426 19.36c-.286 1.242-1.508 2.25-2.765 2.311h-28.922c-1.199-.018-2.043-1.152-1.777-2.32L220.476.321C220.772-.962 222.434-2 223.731-2l28.394.007z" fill="#049BB0"/></g></g><path fill-rule="evenodd" clip-rule="evenodd" d="M207.501 7.433c-.157.752-.52 1.33-1.084 1.74-.56.403-1.281.606-2.164.606-.831 0-1.44-.207-1.828-.621-.27-.295-.404-.669-.404-1.121 0-.187.023-.388.068-.604l.941-4.438h1.421l-.928 4.387a1.41 1.41 0 00-.038.337.84.84 0 00.171.552c.168.214.441.32.821.32.438 0 .798-.105 1.077-.316.28-.209.463-.506.545-.893l.93-4.388h1.414l-.942 4.439zm5.967-1.746h1.113l-.872 3.96h-1.11l.869-3.96zm1.473-1.443h-1.123l-.209.961h1.122l.21-.961zm.625 5.102c-.291-.272-.438-.64-.44-1.105 0-.08.005-.17.016-.27s.024-.198.044-.289c.132-.643.413-1.154.846-1.53.432-.379.953-.569 1.564-.569.5 0 .896.137 1.187.41.29.276.435.647.435 1.119 0 .08-.006.174-.017.275a4.93 4.93 0 01-.046.295c-.129.634-.409 1.14-.842 1.51-.433.372-.953.557-1.56.557-.502 0-.897-.134-1.187-.403zm2.12-.784c.197-.208.337-.524.423-.944a1.806 1.806 0 00.041-.39c0-.243-.064-.433-.191-.567-.127-.135-.308-.202-.541-.202a.984.984 0 00-.756.318c-.198.212-.339.533-.427.96-.012.066-.022.131-.032.195-.007.066-.009.127-.007.183 0 .243.063.43.191.563.127.132.306.198.543.198.309 0 .56-.105.756-.314zm-7.872-2.877h-1.004L208 9.65h1.034l.46-2.276c.059-.286.18-.511.362-.673a.977.977 0 01.671-.242c.216 0 .366.06.444.182.079.121.094.31.042.562l-.499 2.447h1.031l.553-2.7c.089-.428.038-.761-.15-1.003-.192-.241-.496-.361-.918-.361-.467 0-.862.169-1.187.51l-.144.163.115-.573zm10.504 0h1.004l-.114.573.143-.164a1.58 1.58 0 011.187-.51c.422 0 .727.12.917.362.187.242.241.575.15 1.004l-.551 2.699h-1.033l.5-2.447c.051-.252.037-.44-.042-.562-.081-.122-.228-.181-.443-.181a.983.983 0 00-.672.24c-.183.163-.304.388-.361.674l-.462 2.276h-1.033l.81-3.964zm-15.958 4.87h-2.916l-1.347 6.42h1.354l.484-2.32h1.563c.631 0 1.178-.188 1.641-.559.46-.372.758-.864.887-1.475.023-.108.042-.216.057-.325a4.09 4.09 0 00.014-.295v-.014c0-.462-.148-.816-.445-1.063-.298-.244-.732-.369-1.292-.369zm-.89 2.983h-1.297l.395-1.883h1.101c.36 0 .619.05.785.155.165.103.248.268.248.496 0 .035-.004.072-.007.11l-.003.026-.01.059-.017.102c-.071.318-.199.553-.394.706-.195.152-.463.23-.801.23zm7.611 5.854c.24-.24.648-.76 1.076-1.65l2.384-4.729h-1.186l-1.171 2.676-.067-2.676h-.625l-.745.01.354 4.265c-.036.07-.076.152-.119.241-.311.642-.816 1.681-1.661 1.936l-.099.68c1.079.04 1.563-.452 1.816-.708l.043-.045zm-2.239-6.056l-.471.316c-.492-.376-1.028-.639-1.809-.216-.613.333-1.159 1.51-1.133 2.424.025.898.605 1.54 2.218.869l.185.214 1.279.033.841-3.735-1.11.095zm-.728 2.041c-.205.594-.664.986-1.024.874-.359-.109-.488-.681-.279-1.276.205-.594.667-.985 1.024-.873.359.109.489.68.279 1.275z" fill="#fff"/><path fill-rule="evenodd" clip-rule="evenodd" d="M245.021 15V9.061h-.245L243.034 15h-2.074l-1.738-5.939h-.243V15H236V5h2.979c.368-.005.727.12 1.026.357.299.237.522.574.636.961l1.225 4.622h.257l1.227-4.622c.115-.389.339-.726.64-.964A1.613 1.613 0 01245.021 5H248v10h-2.979zm10.284-.004V9.059h-.202l-1.673 4.981a1.569 1.569 0 01-.479.696c-.21.17-.455.26-.705.26H250V5h2.668v5.936h.212l1.694-4.986.013-.038c.107-.273.274-.502.48-.663.206-.16.444-.245.687-.245H258V15h-2.693l-.002-.004zm10.598-3.574h-3.19V15H260V9h9c-.28.762-.722 1.398-1.273 1.829-.551.43-1.185.637-1.824.593z" fill="#00B557"/><path fill-rule="evenodd" clip-rule="evenodd" d="M268.931 8h-5.181c-2.367 0-4.335-1.297-4.75-3h6.724C267.533 5 269 6.115 269 7.489c0 .173-.023.345-.069.511z" fill="url(#paint2_linear_4273_82255)"/><path fill-rule="evenodd" clip-rule="evenodd" d="M280.467 1.002h4.532V16.46a3.433 3.433 0 01-.981 2.471 3.555 3.555 0 01-1.133.777 3.628 3.628 0 01-1.352.294h-4.532V4.544a3.433 3.433 0 01.981-2.471 3.554 3.554 0 011.133-.777 3.627 3.627 0 011.352-.294z" fill="#1060AC"/><path fill-rule="evenodd" clip-rule="evenodd" d="M289.467 1.002h4.532V16.46c.012.454-.069.906-.237 1.33a3.45 3.45 0 01-.742 1.139 3.557 3.557 0 01-1.134.777 3.643 3.643 0 01-1.354.296h-4.531V4.544a3.401 3.401 0 01.978-2.469 3.604 3.604 0 012.488-1.073z" fill="#DF003F"/><path fill-rule="evenodd" clip-rule="evenodd" d="M298.475 1.002h4.509V16.46c.093.852-.216 1.7-.862 2.362-.645.663-1.576 1.087-2.591 1.18h-4.515V4.544c-.093-.853.217-1.702.864-2.364.647-.663 1.579-1.086 2.595-1.178z" fill="#48A83B"/><path fill-rule="evenodd" clip-rule="evenodd" d="M289.394 12.737a5.004 5.004 0 002.606-.78v1.537a7.484 7.484 0 01-2.733.508 7.121 7.121 0 01-3.267-.758V7.76a7.134 7.134 0 013.267-.758 7.48 7.48 0 012.733.509v1.518a5.028 5.028 0 00-2.606-.786 1.975 1.975 0 00-1.3.736 2.406 2.406 0 00-.522 1.51c0 .558.186 1.096.522 1.511a1.98 1.98 0 001.3.737zm-8.367 1.265h-.993a11.561 11.561 0 01-3.034-.58v-1.6a6.378 6.378 0 003.071 1.013h.249a1.448 1.448 0 001.16-.31 1.485 1.485 0 00.543-1.083v-4.44H285v4.164c-.005 1.57-1.66 2.836-3.973 2.836zM302 12.252c0 .722-.295 1.037-.687 1.362-.393.325-.902.402-1.425.386H295V7.01h4.2c.258-.022.519.007.765.085s.472.203.664.368c.192.164.345.364.45.587.104.223.159.464.159.708 0 .243-.055.484-.159.707a1.763 1.763 0 01-.45.588c-.192.164-.418.29-.664.367-.124.04-.159.048-.334.082l.334.028c.256.02 1.013.127 1.406.452.392.324.629.726.629 1.271z" fill="#fff"/><path fill-rule="evenodd" clip-rule="evenodd" d="M298.333 10.002L297 9.997v-1.99l1.333-.005c.37 0 .668.463.667 1.002-.001.539-.298.998-.667.998zm.81 3H297v-2h2.143c.478 0 .858.487.857 1-.001.512-.381 1-.857 1z" fill="#30993D"/><path fill-rule="evenodd" clip-rule="evenodd" d="M315.433 3.131a9.9 9.9 0 00-2.476 4.24 1.277 1.277 0 00-1.468.026 1.177 1.177 0 00-.231 1.688c.4.492.97.864 1.536 1.153.996.509 2.487.964 4.608.964 2.378 0 4.608-1.243 6.474-2.283 2.096-1.169 3.78-2.095 5.424-2.117 2.362.002 3.646.914 3.692.948a1.27 1.27 0 001.734-.202c.465-.6.287-1.334-.249-1.721-.227-.164-1.152-.778-2.702-1.144a1.365 1.365 0 00-.081-.138 10.267 10.267 0 00-4.064-3.488 10.757 10.757 0 00-6.454-.903 10.52 10.52 0 00-5.743 2.977zm11.092.075a8.2 8.2 0 00-4.919-.688 8.013 8.013 0 00-4.374 2.266 7.5 7.5 0 00-2.017 3.784 9.401 9.401 0 002.187.234c1.633 0 3.3-.885 5.341-2.022l.249-.139c1.676-.936 3.465-1.935 5.406-2.181a7.913 7.913 0 00-1.873-1.254z" fill="#2D927D"/><path fill-rule="evenodd" clip-rule="evenodd" d="M314.065 15.108a9.7 9.7 0 01-2.561-1.323 1.174 1.174 0 01-.261-1.679 1.27 1.27 0 011.736-.252c1.417 1.013 2.805 1.348 4.226 1.348 1.551 0 3.16-.846 4.581-1.593.303-.16.598-.315.882-.456l.518-.26c1.991-1 4.164-2.091 6.43-2.091 1.672 0 3.515.458 4.879 1.438.284.205.826.848.251 1.682-.356.517-1.089.625-1.631.31a9.884 9.884 0 01-2.452 4.507 10.51 10.51 0 01-5.789 3.096 10.76 10.76 0 01-6.555-.896 10.266 10.266 0 01-4.047-3.48 1.129 1.129 0 01-.083-.143l-.124-.208zm15.551-3.906c.374 0 .769.031 1.162.097a7.489 7.489 0 01-1.945 3.819 8.004 8.004 0 01-4.409 2.356 8.201 8.201 0 01-4.996-.682 7.946 7.946 0 01-1.811-1.204c1.864-.121 3.672-1.04 5.329-1.88.222-.113.441-.224.657-.332.262-.13.531-.27.806-.411 1.61-.831 3.416-1.763 5.207-1.763z" fill="#2D927D"/><path fill-rule="evenodd" clip-rule="evenodd" d="M357.981 13.825a3.285 3.285 0 00-.975-1.81 2.532 2.532 0 00-.59-.452 2.163 2.163 0 00-.345-.173 1.955 1.955 0 00-.976-.17c.26-.1.537-.137.812-.11.235.036.466.093.691.173.18.106.367.214.549.323a7.575 7.575 0 00-.223-4.589 8.249 8.249 0 00-2.094-3.231 6.833 6.833 0 00-3.395-1.853 5.286 5.286 0 00-2.237.022 4.9 4.9 0 00-1.728.882 5.35 5.35 0 00-1.2 1.466c-.092.136-.174.28-.244.43a7.26 7.26 0 01-.203.474 7.667 7.667 0 00-.361 3.491 8.39 8.39 0 00.549 2.133c.148.302.283.619.446.904.163.276.339.543.53.798.405.48.862.906 1.362 1.271a7.171 7.171 0 003.863 1.357.723.723 0 00-.062-.301c-.024-.104-.033-.223-.061-.323a3.445 3.445 0 010-.733c.048.038.083.09.102.151a.329.329 0 00.102.129c.053.105.113.206.18.302.136.186.293.352.468.495.35.304.74.551 1.159.732.473.21.974.34 1.485.384.542.078 1.067.175 1.564.301.454.139.891.334 1.302.582.197.115.387.243.569.383.095.062.184.134.265.216.106.045.153.153.263.192.323.313.623.652.896 1.013.131.199.246.408.345.626.074.086.096.228.163.323a.467.467 0 01.02.367c-.151.023-.12-.146-.181-.216a1.306 1.306 0 01-.143-.258c-.238-.266-.451-.557-.711-.797a5.628 5.628 0 00-.813-.672 5.969 5.969 0 00-1.993-.97 7.102 7.102 0 00-2.581-.26 5.544 5.544 0 00-1.2.28c-.41.097-.824.169-1.24.217a9.805 9.805 0 01-4.758-.948 7.483 7.483 0 01-1.789-1.185 5.737 5.737 0 01-.751-.754 4.942 4.942 0 01-.611-.884 8.805 8.805 0 01-.528-.991 9.044 9.044 0 01-.366-1.142 6.018 6.018 0 01-.244-1.292c-.007-.13-.062-.38-.061-.582a.297.297 0 00.02-.065 2.253 2.253 0 010-.625c.003-.456.051-.911.142-1.357a8.43 8.43 0 01.305-1.207c.121-.384.281-.735.427-1.098.098-.155.172-.335.264-.495.078-.17.195-.297.265-.48a2.13 2.13 0 00.163-.215c.031-.096.115-.136.141-.237a.703.703 0 00.163-.216.663.663 0 00.163-.215c.243-.253.459-.533.711-.775.252-.242.534-.469.794-.71.165-.084.284-.217.446-.303.124-.12.305-.18.428-.301.322-.184.654-.35.993-.496.343-.163.696-.3 1.058-.41a8.104 8.104 0 012.541-.322c.035 0 .052-.038.06 0a7.673 7.673 0 014.335 1.439 8.005 8.005 0 012.643 3.21 8.919 8.919 0 01.671 5.02 8.813 8.813 0 01-1.179 3.275 2.78 2.78 0 01-.285.453.895.895 0 01-.142.215.973.973 0 01-.081.108.067.067 0 01-.015.027.06.06 0 01-.026.016c0 .059-.019.067-.026.043zm-.487.56a1.073 1.073 0 01-.387-.646.57.57 0 010-.301.127.127 0 01.041-.022.22.22 0 01.203.043c.119.157.202.341.245.538a.386.386 0 01-.102.389zm-1.789-.366c0-.024.02-.012.02 0a.606.606 0 01.412.236.682.682 0 01.137.475.466.466 0 01-.109.266.423.423 0 01-.237.143.592.592 0 01-.309-.072.645.645 0 01-.237-.225.699.699 0 01-.044-.65.427.427 0 01.163-.136.39.39 0 01.204-.037z" fill="#F78300"/><path fill-rule="evenodd" clip-rule="evenodd" d="M376.005 5.98c.096-.534.402-.977 1.592-.977h4.251c1.007 0 3.419-.107 4.496 1.258 1.246 1.58.43 4.493-.104 5.503-1.138 2.132-3.27 2.883-5.545 2.882-1.2.015-1.515-.126-1.716 1.06-.2 1.187-.635 3.288-.672 3.55-.133.628-.543.744-1.034.744h-3.014c-.403 0-.791.072-.682-.692.808-4.474 1.612-8.8 2.428-13.327z" fill="#009DDF"/><path fill-rule="evenodd" clip-rule="evenodd" d="M370.55 8.685c.435-2.5 1.171-6.781 1.325-7.652.1-.573.445-1.031 1.758-1.031h6.123c1.111 0 3.979.123 5.215 1.399.768.794 1.211 1.814 1.211 3.047 0 .823-.141 2.004-.57 3.013-.626 1.621-2.027 2.707-3.712 3.403a14.733 14.733 0 01-5.115.58c-1.325.016-1.746-.115-1.968 1.139-.252 1.29-.88 4.696-.92 4.975-.065.313-.016.773-1.102.773h-3.038c-.446 0-.872.085-.729-.718.208-1.177 1.26-7.417 1.522-8.928z" fill="#0048A0"/><path fill-rule="evenodd" clip-rule="evenodd" d="M385.529 7.472a5.9 5.9 0 01-1.407 2.05 6.78 6.78 0 01-2.198 1.39 16.35 16.35 0 01-5.234.545c-1.305.015-1.607-.108-1.827 1.069 0 0-.04.011-.04.016h.009l.134-.81c.4-2.377.941-4.892 1.086-5.721.092-.538.409-.981 1.618-.981h4.414a7.507 7.507 0 013.985.745 7.21 7.21 0 01-.54 1.697z" fill="#003172"/><path fill-rule="evenodd" clip-rule="evenodd" d="M404.987.002c1.51-.001 3 .346 4.354 1.015.206.099.412.207.619.327l-.914.825-1.375-1.43-2.321 2.08-1.378-1.512-4.326 3.918 2.773 3.074-1.089.963 2.729 3.077-1.083.961 3.899 4.368 2.315-2.144 1.996 2.297c-.413.324-.851.616-1.308.875a9.81 9.81 0 01-4.891 1.306 9.98 9.98 0 01-7.062-2.929 10.006 10.006 0 010-14.142 9.98 9.98 0 017.062-2.929zm-1.811 9.369l2.362-2.142 2.129 2.378-2.363 2.14-2.128-2.376zm1.68 4.109l2.363-2.143 2.128 2.379-2.363 2.142-2.128-2.378zm-3.371-8.17l2.363-2.142 2.127 2.378-2.362 2.14-2.128-2.376zm4.336-1.153l1.775-1.605 1.595 1.783-1.775 1.607-1.596-1.785h.001zm3.149 7.355l1.775-1.606 1.595 1.784-1.775 1.605-1.595-1.783zm1.553 3.602l1.775-1.606 1.596 1.784-1.775 1.604-1.596-1.782zm.714-8.255l1.182-1.07 1.064 1.188-1.182 1.07-1.064-1.188zm-1.509-3.534l1.181-1.07 1.064 1.189-1.181 1.07-1.064-1.189zm3.019 7.065l1.183-1.07 1.07 1.189-1.181 1.07-1.064-1.189h-.008zm-5.298-2.647l1.775-1.606 1.596 1.783-1.774 1.607-1.597-1.784z" fill="#0083DE"/><mask id="mask1_4273_82255" style="mask-type:alpha" maskUnits="userSpaceOnUse" x="423" y="0" width="20" height="21"><path fill-rule="evenodd" clip-rule="evenodd" d="M440.89 9.729a7.895 7.895 0 11-3.548-6.322l1.718-1.36A9.958 9.958 0 00433 .002c-5.523 0-10 4.477-10 10s4.477 10 10 10 10-4.477 10-10c0-.618-.056-1.223-.163-1.81l-1.947 1.537z" fill="#C4C4C4"/></mask><g mask="url(#mask1_4273_82255)"><path d="M440.889 9.69a7.895 7.895 0 11-3.548-6.282l1.719-1.361A9.958 9.958 0 00433 .002c-5.523 0-10 4.477-10 10s4.477 10 10 10 10-4.477 10-10c0-.637-.06-1.26-.173-1.864l-1.938 1.551z" fill="#24A236"/><circle cx="431.549" cy="-.365" fill="#008ACB" r="8.437"/><g filter="url(#filter5_f_4273_82255)"><circle cx="430.448" cy="19.81" fill="#77F628" r="7.336"/></g><g filter="url(#filter6_f_4273_82255)"><circle cx="423.845" cy="5.871" fill="#19E7E8" r="7.336"/></g><g filter="url(#filter7_f_4273_82255)"><circle cx="423.112" cy="13.207" fill="#DEFA1B" r="5.869"/></g></g><path d="M442.167 5.188c-.323-.66-.713-1.28-1.162-1.853l-8.298 6.417-3.874-2.407v2.742l3.874 2.415 9.46-7.314z" fill="#24A236"/><path fill-rule="evenodd" clip-rule="evenodd" d="M467.702 14.464l-2.318.865a.297.297 0 01-.227-.012.312.312 0 01-.156-.17l-1.201-3.335h-5.625l-1.198 3.329a.308.308 0 01-.155.17.295.295 0 01-.226.012l-2.315-.864a.28.28 0 01-.17-.148.276.276 0 01-.03-.113.284.284 0 01.015-.115l4.681-12.604c.188-.44.497-.813.889-1.075a2.364 2.364 0 012.634 0c.392.262.7.636.889 1.075l4.698 12.61a.282.282 0 01.015.116.289.289 0 01-.2.26zm-6.347-9.805l-.369-1.06v-.008l-2.118 5.846h4.238l-1.751-4.778zm-7.26 13.024h13.81c.294.01.572.136.777.352.204.216.318.506.318.807 0 .302-.114.591-.318.808a1.12 1.12 0 01-.777.352h-13.81a1.12 1.12 0 01-.777-.352 1.178 1.178 0 01-.318-.808c0-.301.114-.59.318-.807a1.12 1.12 0 01.777-.352z" fill="#FC0018"/><path d="M479 .002h20V10.06c0 2.579-1.391 4.956-3.654 6.25L489 20.003l-6.339-3.691a7.19 7.19 0 01-3.651-6.252V.002H479z" fill="#FFDD2D"/><path fill-rule="evenodd" clip-rule="evenodd" d="M484 5.002v3.036c.473-.466 1.325-.782 2.293-.782h1.062v3.53c0 .94-.284 1.76-.715 2.216h4.718c-.431-.456-.691-1.276-.691-2.216v-3.53h1.033c.978 0 1.837.316 2.3.782V5.002h-10z" fill="#333"/><path fill-rule="evenodd" clip-rule="evenodd" d="M523 19.002a9 9 0 009-9 9 9 0 00-9-9 9 9 0 00-9 9 9 9 0 009 9zm0-5.5a3.5 3.5 0 100-7 3.5 3.5 0 000 7z" fill="#8A42F9"/><path d="M514 4.002h-7l3.733 12H514v-12z" fill="#8A42F9"/><path fill-rule="evenodd" clip-rule="evenodd" d="M556 19.002a9 9 0 009-9 9 9 0 00-9-9 9 9 0 00-9 9 9 9 0 009 9zm0-5.5a3.5 3.5 0 100-7 3.5 3.5 0 000 7z" fill="#0F72ED"/><path d="M547 4.002h-7l3.733 12H547v-12z" fill="#0F72ED"/><path fill-rule="evenodd" clip-rule="evenodd" d="M587.352 2.595a.376.376 0 01-.167.629l-2.218.605a.375.375 0 00-.167.097l-.058.058a.373.373 0 01.146-.03h6.051c.208 0 .376.169.376.377v3.51c0 .29-.312.47-.563.328l-1.996-1.141a.376.376 0 00-.186-.05h-.083a.38.38 0 01.124.083l4.279 4.278a.376.376 0 010 .532l-2.483 2.483a.376.376 0 01-.629-.167l-.605-2.218a.368.368 0 00-.097-.167l-.058-.058a.375.375 0 01.029.146v6.05a.376.376 0 01-.376.377h-4.159l1.462-2.559a.372.372 0 00.05-.187v-.082a.382.382 0 01-.083.124l-4.279 4.279a.376.376 0 01-.532 0l-2.482-2.483a.376.376 0 01.167-.629l2.218-.605a.376.376 0 00.167-.097l.058-.058a.373.373 0 01-.146.03h-6.051a.376.376 0 01-.376-.377v-3.511c0-.289.312-.47.563-.327l1.996 1.141c.057.032.121.05.187.05h.082a.38.38 0 01-.124-.083l-4.279-4.279a.376.376 0 010-.532l2.483-2.482a.376.376 0 01.629.167l.605 2.218c.017.063.05.12.097.167l.058.058a.374.374 0 01-.029-.146V2.063c0-.208.168-.376.376-.376h4.159l-1.462 2.559a.371.371 0 00-.05.186v.083a.381.381 0 01.083-.124l4.279-4.279a.376.376 0 01.532 0l2.482 2.483zm-9.681 5.895l1.896.316c.077.013.149.05.204.105l.825.825a.376.376 0 010 .532l-2.434 2.433 1.565-1.117a.377.377 0 01.219-.07h1.166c.208 0 .376.168.376.376v3.441l.316-1.896a.38.38 0 01.105-.204l.825-.825a.376.376 0 01.532 0l2.434 2.434-1.118-1.565a.373.373 0 01-.07-.219V11.89c0-.208.168-.376.376-.376h3.441l-1.896-.316a.376.376 0 01-.204-.105l-.825-.825a.376.376 0 010-.532l2.434-2.433-1.565 1.117a.376.376 0 01-.219.07h-1.166a.376.376 0 01-.376-.376V4.672l-.316 1.897a.38.38 0 01-.105.204l-.825.825a.376.376 0 01-.532 0L580.3 5.164l1.118 1.565c.046.064.07.14.07.219v1.166a.376.376 0 01-.376.376h-3.441z" fill="#005995"/><path fill-rule="evenodd" clip-rule="evenodd" d="M614.877 2.005H619v1.684a8.17 8.17 0 01-.776 3.498 8.081 8.081 0 01-2.192 2.815 8.11 8.11 0 012.19 2.816 8.214 8.214 0 01.778 3.498V18h-4.123v-2.108a3.956 3.956 0 00-1.135-2.778 3.853 3.853 0 00-2.742-1.15 3.853 3.853 0 00-2.742 1.15 3.954 3.954 0 00-1.135 2.778V18H603v-1.684a8.186 8.186 0 01.778-3.498 8.092 8.092 0 012.19-2.816 8.095 8.095 0 01-2.191-2.817A8.203 8.203 0 01603 3.687V2h4.123v2.11c0 1.041.408 2.04 1.135 2.777A3.853 3.853 0 00611 8.037a3.853 3.853 0 002.742-1.15 3.954 3.954 0 001.135-2.777V2v.005z" fill="#FF4E50"/><path d="M647 4.004v11.793h1.984v-4.032h2.746c2.508 0 4.27-1.589 4.27-3.888 0-2.3-1.73-3.873-4.205-3.873H647zm1.984 1.543h2.286c1.722 0 2.705.847 2.705 2.337 0 1.49-.983 2.345-2.713 2.345h-2.278V5.547zm10.639 10.34c1.246 0 2.402-.582 2.926-1.505h.041v1.415h1.836v-5.87c0-1.702-1.475-2.799-3.746-2.799-2.106 0-3.664 1.112-3.721 2.64h1.787c.147-.726.877-1.203 1.877-1.203 1.213 0 1.893.522 1.893 1.483v.65l-2.475.136c-2.303.13-3.549.999-3.549 2.512 0 1.528 1.287 2.541 3.131 2.541zm.533-1.399c-1.058 0-1.73-.469-1.73-1.188 0-.74.648-1.172 1.885-1.24l2.205-.129v.666c0 1.104-1.016 1.891-2.36 1.891zm6.721 4.516c1.934 0 2.844-.68 3.639-2.746L674 7.241h-2.016l-2.336 6.967h-.041l-2.337-6.967h-2.073l3.36 8.586-.18.522c-.303.885-.795 1.225-1.672 1.225-.156 0-.459-.015-.582-.03v1.415c.115.03.607.045.754.045zM637.841 3.408c-.567.63-1.474 1.126-2.382 1.055-.113-.851.331-1.756.851-2.315.567-.647 1.56-1.109 2.363-1.144.095.887-.274 1.756-.832 2.404zm.823 1.224c-1.314-.071-2.439.7-3.063.7-.633 0-1.588-.665-2.627-.647a3.924 3.924 0 00-3.299 1.88c-1.418 2.289-.369 5.677 1.002 7.54.671.922 1.474 1.933 2.533 1.898 1.002-.036 1.399-.612 2.609-.612 1.219 0 1.569.612 2.627.594 1.097-.018 1.787-.922 2.458-1.845.765-1.046 1.077-2.066 1.096-2.12-.019-.017-2.117-.771-2.136-3.042-.019-1.898 1.654-2.803 1.73-2.856-.946-1.313-2.42-1.455-2.93-1.49z" fill="#777"/><path d="M703.757 10.804v5.276h-1.699V3.05h4.506a4.127 4.127 0 011.573.276 4.07 4.07 0 011.344.852c.391.346.702.77.912 1.245.21.474.315.987.307 1.505a3.572 3.572 0 01-1.219 2.765c-.787.74-1.76 1.11-2.917 1.11h-2.807zm0-6.15v4.548h2.849a2.249 2.249 0 001.681-.674 2.216 2.216 0 00.683-1.591 2.198 2.198 0 00-.683-1.593 2.22 2.22 0 00-1.681-.691h-2.849zm10.858 2.22c1.255 0 2.247.33 2.973.991.727.662 1.09 1.568 1.089 2.72v5.495h-1.625v-1.237h-.074c-.703 1.019-1.639 1.528-2.806 1.528-.997 0-1.831-.291-2.502-.873a2.764 2.764 0 01-1.007-2.183c0-.923.354-1.657 1.062-2.202.707-.544 1.652-.817 2.834-.819 1.009 0 1.839.182 2.492.546v-.383a1.886 1.886 0 00-.702-1.481 2.424 2.424 0 00-1.639-.61c-.949 0-1.7.394-2.253 1.183l-1.496-.929c.823-1.164 2.041-1.746 3.654-1.746zm-2.198 6.477a1.322 1.322 0 00.563 1.091c.376.292.842.446 1.32.437a2.73 2.73 0 001.911-.782c.563-.522.844-1.134.844-1.837-.529-.416-1.268-.624-2.216-.624-.69 0-1.265.164-1.726.492-.465.333-.696.737-.696 1.223zm15.588-6.186l-5.673 12.845h-1.753l2.105-4.495-3.73-8.35h1.846l2.696 6.404h.037l2.622-6.404h1.85z" fill="#5F6368"/><path d="M696.892 9.666a8.728 8.728 0 00-.131-1.522h-7.164v2.883h4.103c-.084.46-.261.9-.522 1.29a3.49 3.49 0 01-.995.985v1.871h2.449c1.434-1.303 2.26-3.23 2.26-5.507z" fill="#4285F4"/><path d="M689.597 16.981c2.05 0 3.776-.663 5.035-1.807l-2.449-1.871c-.682.455-1.559.715-2.586.715-1.982 0-3.664-1.316-4.265-3.09h-2.523v1.929a7.524 7.524 0 002.801 3.01 7.68 7.68 0 003.987 1.114z" fill="#34A853"/><path d="M685.333 10.928a4.422 4.422 0 010-2.865V6.134h-2.524a7.395 7.395 0 000 6.723l2.524-1.929z" fill="#FBBC04"/><path d="M689.597 4.973a4.158 4.158 0 012.914 1.123l2.169-2.137a7.361 7.361 0 00-5.083-1.95 7.68 7.68 0 00-3.987 1.115 7.525 7.525 0 00-2.801 3.01l2.523 1.929c.601-1.774 2.283-3.09 4.265-3.09z" fill="#EA4335"/><path d="M762.809 5.002v10.487h-1.824V6.42h-3.254v9.069h-1.823V5.002h6.901zm3.053 10.638c-.804 0-1.422-.156-1.854-.468V13.71c.231.16.482.286.754.377.281.09.612.136.994.136.573 0 1.005-.166 1.296-.498.291-.342.472-.81.542-1.404h-2.636v-1.418h2.621c-.17-1.157-.763-1.735-1.778-1.735-.311 0-.622.05-.934.15a3.655 3.655 0 00-.723.317V8.11c.191-.1.447-.186.768-.256a5.53 5.53 0 011.161-.106c.562 0 1.054.1 1.476.302.432.191.789.463 1.07.815.291.342.507.76.648 1.252.151.483.226 1.011.226 1.585 0 1.277-.301 2.253-.904 2.927-.593.674-1.502 1.01-2.727 1.01zm7.892-8.737c-.723 0-1.27-.18-1.642-.543-.362-.362-.542-.815-.542-1.358h1.506c0 .261.061.453.181.573a.703.703 0 00.497.181c.191 0 .342-.06.452-.18.111-.131.166-.323.166-.574h1.507c0 .261-.045.508-.136.74-.09.23-.226.432-.407.603-.17.17-.391.307-.662.407a2.57 2.57 0 01-.92.151zm-1.326.996v4.708l2.743-4.708h1.597v7.59h-1.733v-4.693l-2.742 4.693h-1.597v-7.59h1.732z" fill="#000" fill-opacity=".86"/><circle cx="744" cy="10.002" r="8" fill="#FC3F1D"/><path d="M745.167 15.002H747v-10h-2.667c-2.681 0-4.091 1.31-4.091 3.237 0 1.54.773 2.446 2.152 3.382L740 15.002h1.985l2.667-3.784-.925-.59c-1.121-.72-1.666-1.28-1.666-2.49 0-1.064.787-1.784 2.287-1.784h.819v8.648z" fill="#fff"/><path d="M804.839 7.012c-.237-1.85-.902-3.536-2.064-4.77-1.234-1.162-2.918-1.827-4.769-2.064-1.779-.237-2.989-.166-2.989-.166s-1.21-.047-2.99.166c-1.85.237-3.535.902-4.769 2.065-1.162 1.233-1.826 2.918-2.064 4.77-.237 1.779-.19 2.989-.19 2.989s-.047 1.21.167 2.99c.237 1.85.901 3.535 2.064 4.77 1.233 1.162 2.918 1.826 4.768 2.064 1.78.237 2.99.166 2.99.166s1.21.047 2.989-.166c1.851-.238 3.535-.902 4.769-2.064 1.163-1.234 1.827-2.92 2.064-4.77.237-1.78.166-2.99.166-2.99s.095-1.21-.142-2.99z" fill="#1E4BC6"/><path d="M788.333 9.169h1.86c.293 0 .538.044.783.132.244.088.44.22.611.375.171.155.318.332.416.552.098.221.147.442.147.685 0 .242-.049.463-.147.684-.098.22-.245.398-.416.552a2.1 2.1 0 01-.611.375 2.14 2.14 0 01-.783.133h-.832v1.39h-1.003V9.17h-.025zm1.003.839v1.788h.783c.147 0 .294-.022.416-.066a.933.933 0 00.318-.199.77.77 0 00.196-.287.836.836 0 00.073-.353.836.836 0 00-.073-.353 1.222 1.222 0 00-.196-.287.935.935 0 00-.318-.2 1.253 1.253 0 00-.416-.065h-.783v.022zm5.138 4.04a2.44 2.44 0 01-.783-.133 2.512 2.512 0 01-.685-.375 2.111 2.111 0 01-.489-.618 1.871 1.871 0 01-.196-.84c0-.308.049-.595.171-.838.123-.243.294-.442.49-.618.195-.177.44-.287.685-.376a2.47 2.47 0 01.807-.132c.294 0 .563.044.783.132.245.089.44.221.612.376v-.508h1.003v3.93h-1.003v-.553c-.147.177-.367.31-.612.42a2.212 2.212 0 01-.783.132zm.171-.817c.196 0 .367-.022.514-.089.147-.066.294-.132.416-.242.122-.11.196-.221.269-.354a.912.912 0 00.098-.441.91.91 0 00-.098-.442c-.073-.132-.147-.264-.269-.353a1.24 1.24 0 00-.416-.243 1.08 1.08 0 00-.514-.11 1.4 1.4 0 00-.513.088 1.232 1.232 0 00-.416.243c-.123.11-.221.22-.27.353a.91.91 0 00-.097.442c0 .154.024.309.097.441.074.133.172.265.27.376.122.11.269.176.416.242.146.044.318.089.513.089zm3.621-3.091l1.223 2.671 1.126-2.671h1.052l-2.569 5.695h-1.028l.906-1.964-1.762-3.731h1.052zm1.548-4.696v1.877h-.68l-.467-1.544h-.012l.025 1.544h-.466V5.444h.705l.441 1.488h.007l-.025-1.488h.472zm-9.792 1.896l.353-1.896h.844l.353 1.896h-.51l-.259-1.726h-.006l-.265 1.726h-.51zm4.008-1.896l.044 1.896h-.479l-.013-1.707h-.012l-.315 1.707h-.486l-.315-1.707h-.012l-.013 1.707h-.479l.044-1.896h.782l.233 1.45h.006l.24-1.45h.775zm2.98 1.607c.132 0 .177-.088.183-.138a.292.292 0 00.006-.075V5.444h.485v1.362c0 .038-.006.107-.006.126-.031.352-.315.47-.668.47-.353 0-.63-.112-.662-.47 0-.019-.006-.088-.006-.126V5.444h.485V6.85c0 .025 0 .05.007.076.006.037.044.125.176.125zm-7.794-.25a.275.275 0 01.006.137c-.019.063-.057.126-.189.126-.12 0-.189-.07-.189-.17v-.182h-.511v.145c0 .427.334.552.693.552.347 0 .631-.12.675-.433.025-.163.006-.27 0-.314-.082-.395-.807-.515-.857-.74a.24.24 0 010-.101c.012-.063.056-.126.176-.126.114 0 .177.07.177.17v.12h.472v-.133c0-.414-.372-.477-.643-.477-.34 0-.617.113-.667.42a.704.704 0 00.006.258c.075.396.756.502.851.747zm6.194 0c.018.043.012.1.006.137-.013.063-.057.126-.183.126-.12 0-.189-.07-.189-.17v-.182h-.504v.145c0 .42.334.546.687.546.34 0 .624-.113.668-.427.025-.163.006-.27 0-.308-.082-.395-.794-.508-.845-.728a.189.189 0 010-.1c.013-.063.057-.126.171-.126.113 0 .176.07.176.17v.119h.473v-.132c0-.408-.372-.47-.637-.47-.334 0-.611.106-.661.414a.564.564 0 00.006.25c.069.384.737.49.832.735zm5.576.231c.139 0 .183-.087.195-.138a.232.232 0 00.007-.069V6.55h-.196v-.276h.675v.508c0 .038 0 .063-.007.126-.031.345-.334.47-.674.47-.334 0-.636-.125-.668-.47-.006-.063-.006-.088-.006-.126v-.797c0-.031.006-.094.006-.125.044-.358.328-.471.668-.471s.637.113.668.47c.006.057.006.126.006.126v.063h-.479V5.94s0-.044-.006-.075c-.006-.044-.044-.138-.189-.138a.18.18 0 00-.189.138c-.006.025-.006.056-.006.088v.866c0 .025 0 .05.006.069 0 .063.051.144.189.144z" fill="#fff"/><path d="M814 19h18L814 1v18z" fill="#5D9ADC"/><path d="M814 1h18l-18 18V1z" fill="#2077CF"/><path fill-rule="evenodd" clip-rule="evenodd" d="M860.505.685a2 2 0 01-.188 2.822l-8 7a2 2 0 11-2.634-3.01l8-7a2 2 0 012.822.188z" fill="#EC5886"/><path fill-rule="evenodd" clip-rule="evenodd" d="M860.505.685a2 2 0 01-.188 2.822l-8 7a2 2 0 11-2.634-3.01l8-7a2 2 0 012.822.188z" fill="#EC5886"/><path fill-rule="evenodd" clip-rule="evenodd" d="M841.495.685a2 2 0 00.188 2.822l8 7a2 2 0 102.634-3.01l-8-7a2 2 0 00-2.822.188z" fill="#EC5886"/><path fill-rule="evenodd" clip-rule="evenodd" d="M841.495.685a2 2 0 00.188 2.822l8 7a2 2 0 102.634-3.01l-8-7a2 2 0 00-2.822.188z" fill="#FAC65C"/><path fill-rule="evenodd" clip-rule="evenodd" d="M851 7.002a2 2 0 012 2v9a2 2 0 11-4 0v-9a2 2 0 012-2z" fill="#94C753"/><path d="M869 4.355l2.241 4.33v2.64l-2.238 4.32L869 4.356z" fill="#5B57A2"/><path d="M877.603 7.11l2.1-1.392L884 5.714l-6.397 4.236V7.11z" fill="#D90751"/><path d="M877.592 4.33l.011 5.732-2.246-1.492V.002l2.235 4.328z" fill="#FAB718"/><path d="M884 5.714l-4.297.004-2.111-1.388-2.235-4.328L884 5.714z" fill="#ED6F26"/><path d="M877.603 15.67v-2.781l-2.246-1.463.002 8.576 2.244-4.332z" fill="#63B22F"/><path d="M879.698 14.291l-8.457-5.607L869 4.355l14.991 9.93-4.293.006z" fill="#1487C9"/><path d="M875.359 20.002l2.244-4.332 2.095-1.378 4.293-.006-8.632 5.716z" fill="#017F36"/><path d="M869.003 15.646l6.373-4.22-2.143-1.421-1.992 1.32-2.238 4.32z" fill="#984995"/><g clip-path="url(#clip2_4273_82255)"><path d="M892 10.002c0-4.97 4.148-9 9.265-9h18.529c5.117 0 9.265 4.03 9.265 9s-4.148 9-9.265 9h-18.529c-5.117 0-9.265-4.03-9.265-9z" fill="url(#paint3_linear_4273_82255)"/><path d="M892 10.002c0-4.97 4.148-9 9.265-9h18.529c5.117 0 9.265 4.03 9.265 9s-4.148 9-9.265 9h-18.529c-5.117 0-9.265-4.03-9.265-9z" fill="url(#paint4_radial_4273_82255)" fill-opacity=".2"/><path d="M892 10.002c0-4.97 4.148-9 9.265-9h18.529c5.117 0 9.265 4.03 9.265 9s-4.148 9-9.265 9h-18.529c-5.117 0-9.265-4.03-9.265-9z" fill="url(#paint5_radial_4273_82255)"/><path d="M892 10.002c0-4.97 4.148-9 9.265-9h18.529c5.117 0 9.265 4.03 9.265 9s-4.148 9-9.265 9h-18.529c-5.117 0-9.265-4.03-9.265-9z" fill="url(#paint6_radial_4273_82255)"/><path d="M910.481 10.979v2.054h-1.212V6.438h2.259c2.143 0 3.054.745 3.054 2.234 0 1.535-1.067 2.307-3.054 2.307h-1.047zm0-3.457v2.373h1.139c1.125 0 1.707-.358 1.707-1.253 0-.81-.506-1.121-1.687-1.121l-1.159.001zm4.741 1.131c.319-.232.901-.424 1.735-.424 1.416 0 2.115.472 2.115 1.696v3.11h-1.067v-.849c-.233.546-.824.923-1.6.923-.98 0-1.56-.537-1.56-1.46 0-1.075.804-1.376 1.996-1.376h1.096v-.206c0-.669-.329-.877-.98-.877-.891 0-1.405.34-1.734.839l-.001-1.376zm2.713 2.718v-.381h-.958c-.67 0-.99.123-.99.546 0 .357.271.584.776.584.765 0 1.124-.424 1.172-.749zm1.697-3.048h1.265l1.329 3.23 1.085-3.23h1.202l-1.938 5.21c-.428 1.13-.863 1.384-1.503 1.384-.301 0-.633-.085-.776-.206v-1.028a.868.868 0 00.582.236c.348 0 .61-.226.795-.86l-2.041-4.736zm-20.341.334v1.447l1.974 1.202 4.725-3.378a5.02 5.02 0 00-.623-1.001l-4.102 2.933-1.974-1.203z" fill="#fff"/><path d="M905.251 9.895v.104a3.81 3.81 0 01-.845 2.392 3.998 3.998 0 01-2.182 1.378 4.097 4.097 0 01-2.592-.223 3.947 3.947 0 01-1.901-1.727 3.78 3.78 0 01-.4-2.5 3.855 3.855 0 011.27-2.206 4.082 4.082 0 014.911-.31l1.012-.721a5.283 5.283 0 00-3.231-1.12 5.285 5.285 0 00-3.244 1.084 5.03 5.03 0 00-1.838 2.814 4.913 4.913 0 00.372 3.314 5.117 5.117 0 002.418 2.363 5.326 5.326 0 003.408.38 5.206 5.206 0 002.907-1.77 4.952 4.952 0 001.051-4.049l-1.116.797z" fill="#fff"/></g><path d="M937 10c0-4.97 4.25-9 9.492-9h28.016C979.75 1 984 5.03 984 10s-4.25 9-9.492 9h-28.016C941.25 19 937 14.97 937 10z" fill="#000"/><path d="M943 5h11v5.532a3.962 3.962 0 01-2.01 3.438L948.5 16l-3.487-2.03a3.956 3.956 0 01-2.008-3.438V5H943z" fill="#FFDD2D"/><path fill-rule="evenodd" clip-rule="evenodd" d="M945 7v1.822c.331-.28.928-.47 1.605-.47h.744v2.318c0 .564-.199 1.056-.501 1.33h3.303c-.302-.274-.484-.766-.484-1.33V8.352h.723c.685 0 1.286.19 1.61.47V7h-7z" fill="#333"/><path d="M961.979 6.967h-3.972v6.07h1.933v-1.633h2.039c.48 0 .947-.012 1.4-.153.88-.268 1.533-1.02 1.533-2.04s-.64-1.76-1.506-2.052c-.48-.166-.933-.192-1.427-.192zm-2.039 3.01V8.433h1.759c.374 0 .587.038.76.102a.684.684 0 01.453.663.71.71 0 01-.506.7c-.16.052-.347.077-.707.077h-1.759zm7.742.841l.92-2.448h.146l.92 2.448h-1.986zm-.48 1.338h2.932l.373.88h2.173l-2.599-6.069h-2.825l-2.599 6.07h2.185l.36-.88zm10.182-5.189l-1.572 2.767h-.067l-1.586-2.767h-2.253l2.866 4.463v1.606h1.999v-1.76l2.719-4.309h-2.106z" fill="#fff"/><g clip-path="url(#clip3_4273_82255)"><path d="M1012 10.002c0-5.523-4.48-10-10-10-5.523 0-10 4.477-10 10s4.477 10 10 10c5.52 0 10-4.477 10-10z" fill="#EE3124"/><path fill-rule="evenodd" clip-rule="evenodd" d="M1002 15.002A5 5 0 101001.998 5a5 5 0 00.002 10.002zm0 2c3.87 0 7-3.134 7-7s-3.13-7-7-7a7 7 0 000 14z" fill="#fff"/><path d="M1008 10.002c.55 0 1.01-.45.93-.997a6.98 6.98 0 00-1.98-3.953 6.988 6.988 0 00-3.95-1.979c-.55-.078-1 .377-1 .929v.353c0 .552.45.99.99 1.107.27.059.53.141.79.247a4.79 4.79 0 011.51 1.007 4.6 4.6 0 011 1.508c.11.254.19.518.25.786.12.54.55.992 1.11.992h.35z" fill="#000"/></g><g clip-path="url(#clip4_4273_82255)"><path d="M1040 10.002c0-5.523-4.48-10-10-10s-10 4.477-10 10 4.48 10 10 10 10-4.477 10-10z" fill="#000"/><path fill-rule="evenodd" clip-rule="evenodd" d="M1036 5.002h-1.5v7h1.5v-7zm-5 1h1.5v7h-1.5v-7zm-2 1h-1.5v7h1.5v-7zm-3.5 1h-1.5v7h1.5v-7z" fill="#fff"/></g><g clip-path="url(#clip5_4273_82255)"><path d="M1068 10c0-5.523-4.48-10-10-10s-10 4.477-10 10 4.48 10 10 10 10-4.477 10-10z" fill="#000"/><path d="M1068 10c0-5.523-4.48-10-10-10s-10 4.477-10 10 4.48 10 10 10 10-4.477 10-10z" fill="url(#paint7_linear_4273_82255)"/><path fill-rule="evenodd" clip-rule="evenodd" d="M1057.5 6.748a2.748 2.748 0 01-2.75 2.749 2.748 2.748 0 110-5.497c1.52 0 2.75 1.23 2.75 2.748zm.05 6.489a2.748 2.748 0 01-2.75 2.748 2.748 2.748 0 110-5.497c1.52 0 2.75 1.23 2.75 2.749zm3.7 2.763a2.748 2.748 0 100-5.497 2.748 2.748 0 100 5.497z" fill="#fff"/><path d="M1064 6.752a2.75 2.75 0 11-5.5 0 2.75 2.75 0 115.5 0zm-4.44 0c0 .934.75 1.692 1.69 1.692a1.693 1.693 0 000-3.383c-.94 0-1.69.757-1.69 1.691z" fill="#fff"/></g><g clip-path="url(#clip6_4273_82255)"><path fill-rule="evenodd" clip-rule="evenodd" d="M1090.09 7.63c.02.054.06.1.1.145 3.4 3.892 5.1 7.863 3.98 9.337-.09.123-.22.214-.33.32a10.042 10.042 0 01-5.66 2.498c-3.08.367-6.28-.66-8.54-3.097a10.062 10.062 0 01-2.63-7.2c.09-2.202.89-4.3 2.27-5.986.33-.417.7-.81 1.11-1.17a10.123 10.123 0 0114.02.73s.56.56-4.32 4.423z" fill="#84EEB1"/><path d="M1087.02 10.05l7.02 7.194-.14.13-.06.058a10.053 10.053 0 01-13.64-14.767 10.095 10.095 0 0114.17.538l-7.35 6.847z" fill="#01B94F"/><path d="M1080.2 2.662a10.096 10.096 0 0114.17.541s-5.84 5.471-5.96 5.567c0 0-1.31 1.232-1.3 1.251.01.02 6.92 7.194 6.92 7.194l-.14.134-.06.057c-4.13 3.63-10.45 3.465-14.19-.573a10.062 10.062 0 01-2.63-7.2c.1-2.655 1.25-5.16 3.19-6.971z" fill="url(#paint8_radial_4273_82255)"/><path d="M1080.21 2.656a10.086 10.086 0 0114.16.547s-5.68 5.35-5.92 5.538c0 0-1.27 1.217-1.25 1.255.05.115 6.82 7.187 6.82 7.187l-.14.134-.06.058c-4.12 3.624-10.44 3.445-14.17-.58a10.065 10.065 0 01-2.63-7.184c.1-2.648 1.25-5.148 3.19-6.955z" fill="url(#paint9_radial_4273_82255)"/><path d="M1080.21 2.653a10.113 10.113 0 017.2-2.626 10.07 10.07 0 016.96 3.176s-5.52 5.226-5.88 5.51c0 0-1.23 1.197-1.21 1.254.08.172 6.73 7.188 6.73 7.188l-.14.134-.06.054c-4.11 3.614-10.43 3.43-14.15-.586a10.019 10.019 0 01.55-14.104z" fill="url(#paint10_radial_4273_82255)"/><path d="M1080.22 2.649a10.09 10.09 0 0114.15.554s-5.36 5.095-5.84 5.48c0 0-1.19 1.182-1.16 1.258.1.23 6.63 7.185 6.63 7.185l-.14.13s-.06.055-.06.058c-4.1 3.601-10.42 3.404-14.13-.596a9.98 9.98 0 01-2.63-7.148 10.027 10.027 0 013.18-6.921z" fill="url(#paint11_radial_4273_82255)"/><path d="M1080.22 2.643a10.107 10.107 0 017.19-2.617c2.65.105 5.15 1.246 6.96 3.177 0 0-5.2 4.98-5.8 5.452 0 0-1.15 1.162-1.11 1.258.12.287 6.53 7.181 6.52 7.184l-.14.13-.06.058c-4.08 3.586-10.4 3.385-14.1-.605a9.934 9.934 0 01-2.62-7.13 9.974 9.974 0 013.16-6.907z" fill="url(#paint12_radial_4273_82255)"/><path d="M1080.23 2.64a10.084 10.084 0 0114.14.564s-5.04 4.859-5.75 5.413c0 0-1.12 1.143-1.07 1.258.14.344 6.42 7.178 6.42 7.178l-.14.162-.06.055c-4.08 3.56-10.39 3.353-14.08-.628a9.893 9.893 0 01-2.62-7.113 9.896 9.896 0 013.16-6.89z" fill="url(#paint13_radial_4273_82255)"/><path d="M1080.23 2.637a10.109 10.109 0 017.19-2.61c2.65.105 5.14 1.246 6.96 3.176 0 0-4.89 4.74-5.72 5.414 0 0-1.08 1.124-1.03 1.258.19.386 6.34 7.162 6.33 7.162l-.14.13-.06.058c-4.06 3.563-10.38 3.347-14.06-.621a9.893 9.893 0 01-2.62-7.095 9.89 9.89 0 013.15-6.872z" fill="url(#paint14_radial_4273_82255)"/><path d="M1080.24 2.63a10.1 10.1 0 0114.14.573s-4.73 4.614-5.68 5.37c0 0-1.04 1.107-.98 1.273.19.459 6.23 7.175 6.23 7.175s-.13.124-.14.13l-.06.054c-4.06 3.542-10.38 3.319-14.05-.627a9.866 9.866 0 01.54-13.948z" fill="url(#paint15_radial_4273_82255)"/><path d="M1080.24 2.627a10.103 10.103 0 0114.14.576s-4.57 4.494-5.64 5.34c0 0-1 1.09-.93 1.275.22.516 6.13 7.171 6.13 7.174l-.14.13-.06.055c-4.05 3.541-10.37 3.309-14.01-.637a9.865 9.865 0 01-2.63-7.063 9.874 9.874 0 013.14-6.85z" fill="url(#paint16_radial_4273_82255)"/><path d="M1080.25 2.624a10.088 10.088 0 017.18-2.598 10.11 10.11 0 016.95 3.177s-4.41 4.37-5.61 5.312c0 0-.95 1.073-.88 1.274.24.564 6.04 7.159 6.04 7.162l-.14.127s-.06.052-.06.058c-4.04 3.528-10.36 3.286-14.02-.637a9.949 9.949 0 01-2-3.264 9.757 9.757 0 01-.6-3.784 9.804 9.804 0 013.14-6.827z" fill="url(#paint17_radial_4273_82255)"/><path d="M1080.25 2.617a10.105 10.105 0 0114.13.586s-4.25 4.248-5.55 5.283c0 0-.93 1.057-.84 1.274.26.637 5.93 7.168 5.93 7.171l-.14.128-.06.054c-4.03 3.51-10.35 3.26-13.99-.66a9.762 9.762 0 01-2.6-7.027 9.767 9.767 0 013.12-6.81z" fill="url(#paint18_radial_4273_82255)"/><path d="M1080.26 2.614a10.098 10.098 0 0114.12.59s-4.09 4.14-5.51 5.257c0 0-.89 1.035-.8 1.274.29.678 5.84 7.162 5.84 7.162l-.15.13-.06.054c-4.01 3.503-10.33 3.249-13.96-.659a9.554 9.554 0 01-2-3.246 9.862 9.862 0 01-.61-3.765 9.73 9.73 0 01.89-3.71 9.556 9.556 0 012.24-3.087z" fill="url(#paint19_radial_4273_82255)"/><path d="M1080.26 2.61a10.105 10.105 0 0114.12.592s-3.92 4.004-5.47 5.23c0 0-.85 1.019-.75 1.274.32.745 5.73 7.162 5.73 7.165l-.14.13s-.05.048-.05.055c-4.01 3.503-10.32 3.226-13.95-.67-3.63-3.894-3.45-10.18.51-13.775z" fill="url(#paint20_radial_4273_82255)"/><path d="M1080.27 2.604a10.084 10.084 0 017.17-2.579c2.64.112 5.13 1.253 6.94 3.178 0 0-3.76 3.876-5.41 5.194 0 0-.82 1-.7 1.274.33.802 5.63 7.159 5.63 7.162l-.14.127-.07.054c-4.01 3.481-10.33 3.21-13.94-.675-3.6-3.885-3.44-10.149.52-13.735z" fill="url(#paint21_radial_4273_82255)"/><path d="M1080.27 2.601a10.111 10.111 0 017.18-2.574c2.64.112 5.12 1.252 6.93 3.176 0 0-3.6 3.758-5.39 5.172 0 0-.77.984-.65 1.274.36.857 5.53 7.152 5.53 7.156l-.14.127-.06.054c-3.99 3.468-10.31 3.188-13.91-.685-3.6-3.872-3.44-10.126.51-13.7z" fill="url(#paint22_radial_4273_82255)"/><path d="M1080.28 2.598a10.072 10.072 0 017.17-2.571 10.1 10.1 0 016.93 3.177s-3.44 3.636-5.34 5.143c0 0-.74.955-.61 1.273.38.908 5.44 7.153 5.44 7.156l-.14.128-.06.053c-3.99 3.443-10.31 3.17-13.9-.697-3.59-3.866-3.44-10.098.51-13.662z" fill="url(#paint23_radial_4273_82255)"/><path d="M1080.28 2.591a10.115 10.115 0 017.18-2.564c2.63.114 5.12 1.254 6.92 3.176 0 0-3.28 3.503-5.29 5.114 0 0-.7.956-.56 1.274.39.975 5.34 7.15 5.32 7.153l-.14.127a.888.888 0 01-.06.054c-3.97 3.446-10.29 3.156-13.87-.7-3.58-3.857-3.43-10.08.5-13.634z" fill="url(#paint24_radial_4273_82255)"/><path d="M1080.28 2.589a10.112 10.112 0 017.18-2.553c2.64.119 5.12 1.264 6.92 3.19 0 0-3.12 3.369-5.26 5.073 0 0-.66.93-.52 1.274.43 1.035 5.24 7.152 5.23 7.155 0 .003-.11.112-.14.128l-.05.054c-3.97 3.42-10.28 3.114-13.86-.723-3.57-3.837-3.43-10.057.5-13.598z" fill="url(#paint25_radial_4273_82255)"/><path d="M1080.29 2.585a10.1 10.1 0 017.18-2.55 10.08 10.08 0 016.91 3.187s-2.96 3.258-5.22 5.05c0 0-.62.912-.47 1.275.45 1.092 5.14 7.149 5.13 7.152l-.14.128-.06.054c-3.95 3.407-10.26 3.095-13.83-.733-3.56-3.828-3.42-10.034.5-13.563z" fill="url(#paint26_radial_4273_82255)"/><path d="M1080.29 2.566a10.12 10.12 0 017.18-2.548 10.09 10.09 0 016.91 3.185s-2.8 3.137-5.18 5.022c0 0-.58.892-.42 1.274.48 1.15 5.04 7.15 5.03 7.153l-.14.127-.06.051c-3.94 3.417-10.25 3.095-13.81-.716-3.56-3.812-3.42-10.016.49-13.548z" fill="url(#paint27_radial_4273_82255)"/><path d="M1080.3 2.566a10.093 10.093 0 0114.08.637 47.535 47.535 0 01-5.13 5.003s-.55.876-.38 1.274c.5 1.207 4.93 7.143 4.93 7.149l-.14.124-.06.054c-3.93 3.398-10.24 3.07-13.79-.732-3.55-3.802-3.42-10.006.49-13.509z" fill="url(#paint28_radial_4273_82255)"/><path d="M1080.3 2.567a10.103 10.103 0 017.17-2.546c2.63.12 5.12 1.261 6.92 3.182a44.594 44.594 0 01-5.1 4.965s-.51.857-.32 1.274c.53 1.274 4.84 7.143 4.84 7.146l-.14.127-.06.055c-3.94 3.391-10.25 3.057-13.79-.733-3.54-3.79-3.42-9.967.48-13.47z" fill="url(#paint29_radial_4273_82255)"/><path d="M1080.31 2.566a10.111 10.111 0 017.17-2.54c2.63.118 5.1 1.258 6.91 3.177a40.074 40.074 0 01-5.06 4.936s-.47.84-.29 1.274c.55 1.334 4.74 7.165 4.74 7.165-.01 0-.11.105-.14.128l-.06.05c-3.92 3.363-10.22 3.007-13.75-.758-3.54-3.764-3.42-9.929.48-13.432z" fill="url(#paint30_radial_4273_82255)"/><path d="M1080.31 2.566a10.114 10.114 0 0114.08.637 37.669 37.669 0 01-5.02 4.917s-.43.822-.24 1.274c.57 1.379 4.64 7.14 4.64 7.143l-.14.124-.06.054c-3.91 3.366-10.21 3.013-13.73-.755-3.53-3.767-3.41-9.923.47-13.394z" fill="url(#paint31_radial_4273_82255)"/><path d="M1080.32 2.566a10.077 10.077 0 017.16-2.537c2.63.119 5.1 1.258 6.91 3.174a34.181 34.181 0 01-4.98 4.892s-.39.802-.2 1.274c.6 1.436 4.55 7.133 4.54 7.14l-.14.123-.06.055c-3.89 3.35-10.19 2.99-13.7-.765-3.5-3.754-3.41-9.9.47-13.356z" fill="url(#paint32_radial_4273_82255)"/><path d="M1080.32 2.567a10.115 10.115 0 017.16-2.535 10.13 10.13 0 016.91 3.171 31.694 31.694 0 01-4.93 4.863s-.36.787-.15 1.274c.63 1.494 4.45 7.133 4.43 7.14l-.13.124-.07.05c-3.88 3.341-10.18 2.972-13.69-.77-3.5-3.742-3.4-9.878.47-13.317z" fill="url(#paint33_radial_4273_82255)"/><path d="M1080.33 2.566a10.08 10.08 0 017.15-2.532c2.63.12 5.1 1.256 6.91 3.17a28.535 28.535 0 01-4.89 4.833s-.32.768-.11 1.274c.64 1.55 4.35 7.13 4.34 7.133-.01.004-.11.1-.14.125l-.06.054c-3.87 3.33-10.17 2.955-13.68-.777-3.5-3.733-3.39-9.856.48-13.28z" fill="url(#paint34_radial_4273_82255)"/><path d="M1080.33 2.547a10.11 10.11 0 0114.06.656s-1.52 2.165-4.85 4.805c0 0-.28.752-.06 1.274.67 1.592 4.24 7.13 4.24 7.134l-.14.124-.06.054c-3.87 3.318-10.16 2.933-13.67-.787-3.5-3.72-3.38-9.834.48-13.26z" fill="url(#paint35_radial_4273_82255)"/><path d="M1080.34 2.54a10.095 10.095 0 017.16-2.515c2.62.124 5.09 1.263 6.89 3.178 0 0-1.36 2.031-4.81 4.776-.13.415-.13.86 0 1.274.69 1.666 4.14 7.124 4.14 7.13l-.14.125-.06.05c-3.87 3.313-10.16 2.92-13.64-.786-3.48-3.707-3.4-9.812.46-13.232z" fill="url(#paint36_radial_4273_82255)"/><path d="M1080.34 2.538a10.11 10.11 0 017.16-2.513c2.62.124 5.09 1.264 6.89 3.178 0 0-1.2 1.911-4.78 4.736-.11.419-.1.861.04 1.274.71 1.745 4.05 7.146 4.04 7.152l-.13.124-.06.051c-3.85 3.29-10.14 2.904-13.62-.805-3.47-3.71-3.39-9.79.46-13.197z" fill="url(#paint37_radial_4273_82255)"/><path d="M1080.35 2.535a10.071 10.071 0 017.15-2.51c2.62.125 5.09 1.265 6.89 3.179 0 0-1.04 1.799-4.73 4.722a2.4 2.4 0 00.08 1.274c.74 1.78 3.95 7.12 3.95 7.127l-.14.121-.06.054c-3.84 3.287-10.13 2.876-13.6-.805-3.52-3.733-3.39-9.768.46-13.162z" fill="url(#paint38_radial_4273_82255)"/><path d="M1080.35 2.528a10.109 10.109 0 0114.04.675s-.88 1.666-4.69 4.681c-.06.429-.02.867.13 1.274.77 1.838 3.85 7.12 3.84 7.124l-.13.124-.07.051c-3.82 3.264-10.11 2.866-13.57-.821-3.47-3.688-3.38-9.723.45-13.108z" fill="url(#paint39_radial_4273_82255)"/><path d="M1080.36 2.525a10.091 10.091 0 017.15-2.5c2.62.127 5.09 1.266 6.88 3.178 0 0-.72 1.542-4.64 4.653-.04.432.02.868.17 1.274.79 1.92 3.75 7.13 3.74 7.146l-.14.124-.05.05c-3.83 3.252-10.11 2.829-13.56-.827-3.5-3.713-3.38-9.726.45-13.098z" fill="url(#paint40_radial_4273_82255)"/><path d="M1080.36 2.522a10.108 10.108 0 017.15-2.497c2.62.127 5.09 1.267 6.88 3.178 0 0-.56 1.433-4.6 4.637-.02.435.06.869.22 1.274.81 1.964 3.65 7.127 3.64 7.146l-.14.12-.06.052c-3.81 3.229-10.09 2.799-13.54-.85-3.49-3.701-3.37-9.7.45-13.06z" fill="url(#paint41_radial_4273_82255)"/><path d="M1080.36 2.515a10.134 10.134 0 017.16-2.49c2.61.128 5.08 1.268 6.87 3.178 0 0-.4 1.309-4.56 4.608.01.443.1.88.27 1.29.83 2.01 3.54 7.111 3.54 7.117l-.14.121-.06.051c-3.8 3.23-10.08 2.79-13.51-.847-3.49-3.688-3.38-9.678.43-13.028z" fill="url(#paint42_radial_4273_82255)"/><path d="M1080.37 2.513a10.104 10.104 0 0114.01.704s-.24 1.175-4.52 4.566c.04.444.15.88.32 1.29.87 2.07 3.45 7.11 3.45 7.117l-.14.121a.773.773 0 00-.06.051c-3.79 3.217-10.07 2.764-13.5-.856-3.48-3.679-3.37-9.653.44-12.993z" fill="url(#paint43_radial_4273_82255)"/><path d="M1080.37 2.509a10.125 10.125 0 017.15-2.475 10.11 10.11 0 016.87 3.182s-.08 1.054-4.48 4.538c.06.445.18.88.36 1.293.89 2.118 3.35 7.105 3.35 7.111l-.14.121c-.02 0-.04.038-.06.051-3.79 3.207-10.06 2.751-13.48-.863-3.47-3.665-3.37-9.63.43-12.958z" fill="url(#paint44_radial_4273_82255)"/><path d="M1080.38 2.503a10.11 10.11 0 0114.01.713s.08.943-4.43 4.513c.09.442.23.874.4 1.29.91 2.184 3.26 7.104 3.25 7.11-.01.007-.1.087-.14.122l-.06.05c-3.77 3.201-10.05 2.73-13.46-.872-3.47-3.656-3.36-9.608.43-12.926z" fill="url(#paint45_radial_4273_82255)"/><path d="M1080.38 2.5a10.118 10.118 0 0114.02.72s.24.805-4.4 4.48c.12.44.27.873.45 1.293.93 2.23 3.15 7.101 3.14 7.108l-.13.12-.06.052c-3.77 3.172-10.04 2.707-13.44-.88-3.46-3.649-3.36-9.588.42-12.893z" fill="url(#paint46_radial_4273_82255)"/><path d="M1080.39 2.497a10.1 10.1 0 017.15-2.466c2.61.135 5.07 1.278 6.86 3.189 0 0 .4.681-4.35 4.442 0 0 .17.535.49 1.293.95 2.3 3.05 7.101 3.04 7.108l-.13.12-.06.049c-3.76 3.181-10.03 2.7-13.42-.876-3.46-3.64-3.36-9.566.42-12.86z" fill="url(#paint47_radial_4273_82255)"/><path d="M1093.57 16.043c-3.72 3.344-10.15 2.901-13.6-.739-3.44-3.64-3.35-9.553.42-12.827a10.123 10.123 0 017.16-2.461c2.61.136 5.07 1.28 6.85 3.19 0 0 .57.56-4.31 4.424-.01.012 3.49 8.404 3.48 8.413z" fill="url(#paint48_radial_4273_82255)"/><path d="M1089.94 7.75a181.11 181.11 0 01-5.58 4.379 22.909 22.909 0 005.59 4.41c1.78.956 3.18 1.134 3.87.529.68-.605.6-2-.2-3.822a21.857 21.857 0 00-3.68-5.496z" fill="url(#paint49_linear_4273_82255)"/><path d="M1090.08 7.626l-.76.637a21.015 21.015 0 013.45 5.155c.78 1.796.76 2.698.51 2.924-.25.226-1.34.283-3.08-.637a21.058 21.058 0 01-5.15-4.108l-.85.637.2.194c3.61 3.735 7.52 5.863 9.24 5.089.05-.026.11-.051.15-.08h.02a1.273 1.273 0 00.36-.325c1.12-1.474-.58-5.445-3.98-9.337l-.11-.15z" fill="#84EEB1"/></g><g clip-path="url(#clip7_4273_82255)"><path fill="#6867FB" d="M1104 .002h20v20h-20z"/><path d="M1121 13.002h-3.07c0-1.043-.41-2.043-1.15-2.78A3.94 3.94 0 001114 9.07a3.94 3.94 0 00-2.78 1.152 3.919 3.919 0 00-1.15 2.78H1107c0-1.857.74-3.637 2.05-4.95a6.99 6.99 0 014.95-2.05c1.86 0 3.64.737 4.95 2.05a7.012 7.012 0 012.05 4.95z" fill="#B8F803"/></g><path fill-rule="evenodd" clip-rule="evenodd" d="M1139.06 13.09h-2c-3.13 0-.86-6.188 1.77-6.188h3.17c.5 0 1.4.087 1.84-1.083l.68-1.817h-4.34c-2.35 0-4.18.772-5.5 2.066-2.28 2.216-3.06 5.677-2.51 7.332.52 1.531 1.93 2.54 4.15 2.564l3.85.013.52-1.456c.39-1.034-.48-1.432-1.63-1.432zm24.38-2.565l.66-1.98h-6.99c-1.16 0-1.68.3-1.88.922l-.65 1.979h6.98c1.16 0 1.68-.299 1.88-.921zm-9.9 3.485l-.66 1.98h6.98c1.15 0 1.69-.3 1.89-.922l.65-1.979h-6.98c-1.15 0-1.67.299-1.88.921zm11.53-8.016l.66-1.98h-6.99c-1.16 0-1.68.3-1.88.921l-.65 1.98h6.98c1.15 0 1.67-.299 1.88-.921zm-10.55.398c-.29-1.842-1.35-2.378-3.91-2.378h-4.67l-2.73 7.432h1.73c1.02 0 1.54.012 2.09-1.357l1.14-3.187h1.73c1.49 0 1.15 1.73.4 3.411-.66 1.481-1.83 2.788-3.23 2.788h-2.9c-1.16 0-1.69.3-1.91.922l-.72 1.979 4.21-.013c1.84-.012 3.35-.136 5.11-1.618 1.87-1.58 4.04-5.639 3.66-7.979zm23.48-2.39h-4.05l-3.8 3.772c-.44.435-.9.871-1.34 1.381h-.04l1.9-5.153h-3.3l-4.45 11.987h3.3l1.42-3.771 1.47-1.158 1.16 3.41c.36 1.059.73 1.52 1.53 1.52h2.53l-2.59-6.698 6.26-5.29z" fill="#00B33C"/><g clip-path="url(#clip8_4273_82255)" fill-rule="evenodd" clip-rule="evenodd"><path d="M1235 4.425s-.91-.106-1.99-.106c-1.05 0-1.93.106-1.93.106v3.293h3.92V4.425zm0 7.773h-3.92v3.347s1.1.105 1.99.105c.88 0 1.93-.131 1.93-.131v-3.32z" fill="#E4003E"/><path d="M1228.73 4.425h-4.83l-3.37 4.031h-1.57V4.425h-4.17V15.57h4.17v-4.19h1.52l3.39 4.19h5.17l-5.05-5.929 4.74-5.217zm-29.56 0H1186V15.57h4.22V7.587h4.72v7.984h4.23V4.425zm2.04 2.951l-.61-2.951s3.95-.29 6.41-.29c2.45 0 5.41.29 5.41.29s.91 2.266.91 5.454c0 3.189-.94 5.693-.94 5.693s-2.81.29-5.41.29c-2.59 0-6.38-.29-6.38-.29l.61-2.952s2.65.185 4.91.185c2.27 0 3.15-.185 3.15-.185s.11-.553.17-1.186h-5.41V8.588h5.43a7.654 7.654 0 00-.16-1.186s-1.85-.184-3.42-.184c-1.61-.026-4.67.158-4.67.158z" fill="#3E3AB0"/></g><g clip-path="url(#clip9_4273_82255)" fill="#DC0032"><path fill-rule="evenodd" clip-rule="evenodd" d="M1271.07 14.772c-.86.255-1.97.361-2.93.361-2.5 0-4.14-1.382-4.14-3.914 0-2.405 1.54-3.958 3.78-3.958.5 0 1.04.064 1.36.234v-3.49h1.93v10.767zm-1.93-5.49c-.3-.148-.72-.234-1.2-.234-1.18 0-1.96.766-1.96 2.107 0 1.425.84 2.234 2.22 2.234.24 0 .62 0 .94-.085V9.282zm17.86 5.49c-.86.255-1.98.361-2.96.361-2.48 0-4.13-1.382-4.13-3.914 0-2.405 1.53-3.958 3.77-3.958.52 0 1.04.064 1.36.234v-3.49h1.96v10.767zm-1.96-5.49c-.3-.148-.7-.234-1.18-.234-1.2 0-1.98.766-1.98 2.107 0 1.425.86 2.234 2.24 2.234.24 0 .6 0 .92-.085V9.282zm-10.91 0c.32-.148.78-.191 1.16-.191 1.2 0 2.02.723 2.02 2.021 0 1.532-.92 2.234-2.14 2.256v1.765h.1c2.52 0 4.02-1.468 4.02-4.085 0-2.383-1.6-3.787-3.96-3.787-1.2 0-2.38.298-3.16.638v10.107h1.96V9.282z"/><path d="M1259.29 4.507l-7.31-4.368a.933.933 0 00-.96 0l-7.3 4.357 8.49 4.937v7.004c0 .395-.32.715-.71.715-.39 0-.7-.32-.7-.715V10.26l-7.8-4.534v8.815c0 .337.18.648.46.82l7.56 4.513c.3.177.66.177.96 0l7.56-4.513a.967.967 0 00.46-.82V5.746l-5 2.939a.707.707 0 01-.97-.258.72.72 0 01.25-.977l5.01-2.943z"/></g><g clip-path="url(#clip10_4273_82255)"><path d="M1311.29 4.509L1303.98.14a.933.933 0 00-.96 0l-7.3 4.357 8.49 4.937v7.004c0 .395-.32.715-.71.715-.39 0-.7-.32-.7-.715V10.26l-7.8-4.534v8.815c0 .337.18.648.46.82l7.56 4.513c.3.177.66.177.96 0l7.56-4.513a.967.967 0 00.46-.82V5.747l-5 2.94a.707.707 0 01-.97-.258.72.72 0 01.25-.977l5.01-2.943z" fill="#DC0032"/></g><path fill-rule="evenodd" clip-rule="evenodd" d="M1327.44 8.882c-.4-.37-.7-.843-.85-1.369a7.296 7.296 0 01-.31-2.274c-.02-.79.09-1.58.31-2.339.15-.543.44-1.035.85-1.425a1.978 1.978 0 012.56 0c.41.387.71.879.85 1.422.22.76.33 1.55.31 2.342.02.77-.09 1.539-.31 2.277-.15.526-.44 1-.84 1.37-.37.29-.82.45-1.29.45-.47 0-.92-.16-1.28-.45v-.004zm.33-2.04c.06.351.19.687.38.982a.716.716 0 00.57.311c.33 0 .6-.242.79-.727.23-.704.32-1.44.29-2.178a9.38 9.38 0 00-.13-1.674 2.506 2.506 0 00-.38-1.02.682.682 0 00-.24-.244.64.64 0 00-.33-.09c-.11 0-.23.03-.33.09a.682.682 0 00-.24.244c-.19.31-.32.656-.38 1.017a9.349 9.349 0 00-.13 1.67c-.01.543.03 1.085.13 1.618z" fill="#1928DC"/><path d="M1325 1.138V9.2h-1.35V2.298h-2.3v6.903H1320V1.138h5zm10.63 3.092V1.138h1.35V9.2h-1.35V5.43h-.99a2.203 2.203 0 01-1.78-.716 2.979 2.979 0 01-.59-1.953V1.138h1.35v1.63a2.3 2.3 0 00.13.861c.07.2.21.365.4.464.24.104.5.151.76.137h.72zm7.27-1.932h-1.58v6.903h-1.35V2.298h-1.59v-1.16h4.52v1.16z" fill="#1928DC"/><path fill-rule="evenodd" clip-rule="evenodd" d="M1346.71 1.136h-2.44V9.2h1.35V5.423h2.29l.44 3.76h1.35l-.63-5.384c-.04-.494-.16-.98-.34-1.44a2.034 2.034 0 00-.75-.912 2.259 2.259 0 00-1.27-.31zm1.07 3.142h-2.16V2.346h.81c.26-.014.51.035.73.144.18.1.31.26.38.45.1.283.16.577.19.875l.05.463zm-26.29 6.528c.45-.012.89.104 1.28.333.38.24.68.591.85 1.005.22.527.32 1.094.31 1.664a3.87 3.87 0 01-.28 1.577c-.15.385-.39.728-.71.999a1.23 1.23 0 01-.77.335c-.15.011-.3-.011-.44-.065a1.116 1.116 0 01-.38-.245v2.46H1320v-8.063h1.49zm-.06 4.175c.03.144.1.277.2.389.03.039.07.07.12.093a.31.31 0 00.14.037.456.456 0 00.31-.143c.13-.13.22-.291.27-.467.07-.268.11-.546.1-.824 0-.753-.09-1.285-.28-1.596a.875.875 0 00-.8-.463h-.14v2.351c0 .21.03.42.08.623zm3.14 2.194c.15.527.45 1.002.85 1.372l.02.003c.36.293.81.454 1.28.454s.92-.16 1.28-.454c.41-.369.7-.843.85-1.37.21-.738.32-1.506.3-2.276a8.07 8.07 0 00-.32-2.342 2.986 2.986 0 00-.85-1.419 1.978 1.978 0 00-2.56 0c-.41.388-.7.88-.85 1.422a8.02 8.02 0 00-.31 2.336c-.02.77.09 1.536.31 2.274zm1.57.292a2.25 2.25 0 01-.38-.958c-.1-.53-.14-1.07-.14-1.608 0-.56.04-1.12.14-1.67.05-.371.17-.728.37-1.046a.683.683 0 01.24-.244.64.64 0 01.33-.09.656.656 0 01.57.334c.19.307.32.653.37 1.014.1.553.14 1.113.14 1.674.03.737-.07 1.475-.3 2.177-.19.486-.45.728-.78.728a.695.695 0 01-.56-.31z" fill="#1928DC"/><path d="M1330.07 12.627c.33-.608.85-1.092 1.48-1.381a5.44 5.44 0 012.34-.442v1.21c-.96 0-1.7.24-2.21.725s-.76 1.204-.76 2.177c0 .974.25 1.618.76 2.072.51.454 1.25.684 2.21.684v1.195c-1.38 0-2.45-.332-3.2-.995-.75-.664-1.13-1.654-1.13-2.971-.02-.788.15-1.571.51-2.274zm6.03-1.379a3.2 3.2 0 00-1.48 1.38 4.507 4.507 0 00-.52 2.275c0 1.317.37 2.307 1.13 2.97.75.664 1.81.996 3.2.996v-1.21c-.96 0-1.7-.23-2.21-.684-.51-.455-.77-1.114-.77-2.072s.26-1.69.77-2.175c.51-.485 1.25-.724 2.21-.724v-1.21c-.8-.023-1.6.132-2.33.454zm4.31-.442v2.877l3.65-3.058v8.244h-1.35v-5.487l-2.3 1.925v3.562h-1.35v-8.063h1.35zm5.64 2.875v-2.877h-1.35v8.063h1.34v-3.562l2.3-1.925v5.487h1.35V10.63l-3.64 3.051z" fill="#1928DC"/><path fill-rule="evenodd" clip-rule="evenodd" d="M1370 15.002V8.82a6.007 6.007 0 00-6-5.818c-3.31 0-6 2.686-6 6a6.001 6.001 0 005.82 5.997v.003h6.18zm-6-9.091c1.71 0 3.09 1.384 3.09 3.091 0 1.707-1.38 3.09-3.09 3.09a3.088 3.088 0 01-3.09-3.09 3.088 3.088 0 013.09-3.091z" fill="#D76443"/><circle cx="2" cy="2" r="2" transform="matrix(1 0 0 -1 1362 11.002)" fill="#D76443"/><path d="M1376.78 5.002c-.53 0-1.57.014-2.26.028-.3 0-.52.238-.52.519v8.78c0 .28.24.519.52.519h.68c.28 0 .52-.239.52-.52V11.3c.42.042.98.042 1.27.042 2.33 0 3.57-1.514 3.57-3.183 0-1.613-.9-3.156-3.78-3.156zm-1.06 1.64c.46-.013.88-.027 1.23-.027 1.17 0 1.8.505 1.8 1.529 0 1.094-.8 1.584-1.82 1.584-.39 0-.81-.028-1.21-.07V6.643zm6.43 1.894c-.28 0-.52.239-.52.52v5.273c0 .28.24.519.52.519h.57a.52.52 0 00.51-.52V9.056a.52.52 0 00-.51-.519h-.57zm.32-3.211c-.55 0-1.01.364-1.01.94 0 .644.46 1.009 1.01 1.009.46 0 .92-.365.92-1.01 0-.575-.46-.94-.92-.94zm6.54 4.88c.19 0 .36-.112.47-.294l.21-.365c.04-.07.06-.14.06-.224 0-.183-.1-.379-.25-.463-.62-.337-1.23-.477-2.07-.477-1.91 0-3.26 1.473-3.26 3.31 0 1.992 1.37 3.31 3.45 3.31.79 0 1.46-.14 2.21-.743.13-.099.2-.28.2-.45 0-.097-.03-.21-.1-.28l-.24-.294a.53.53 0 00-.43-.21c-.11 0-.23.041-.34.112a2.03 2.03 0 01-1.21.364c-.95 0-1.82-.687-1.82-1.809 0-1.108.85-1.795 1.75-1.795.42 0 .74.07 1.12.252a.6.6 0 00.25.056zm5.59 4.306c.15.21.41.337.67.337h.62c.3 0 .51-.239.51-.505a.57.57 0 00-.12-.309l-2.01-2.609 1.71-2.09a.488.488 0 00-.37-.8h-.58a.898.898 0 00-.67.338l-1.69 2.272a.672.672 0 00-.14.407c0 .14.05.294.14.407l1.93 2.552zm-3.36-9.481a.52.52 0 00-.51.519v8.78c0 .28.23.519.51.519h.58a.52.52 0 00.51-.52v-8.78a.52.52 0 00-.51-.518h-.58zm9.11-.028c-.53 0-1.57.014-2.27.028-.29 0-.51.238-.51.519v8.78c0 .28.23.519.51.519h.69a.52.52 0 00.51-.52V11.3c.42.042.98.042 1.28.042 2.33 0 3.57-1.514 3.57-3.183 0-1.613-.91-3.156-3.78-3.156zm-1.07 1.64c.47-.013.88-.027 1.23-.027 1.18 0 1.81.505 1.81 1.529 0 1.094-.8 1.584-1.82 1.584-.39 0-.81-.028-1.22-.07V6.643zm7.88 8.36c2.08 0 3.42-1.417 3.42-3.31s-1.34-3.31-3.42-3.31-3.42 1.417-3.42 3.31 1.34 3.31 3.42 3.31zm0-5.105c.97 0 1.71.73 1.71 1.795 0 1.094-.72 1.81-1.71 1.81-.98 0-1.71-.758-1.71-1.81 0-1.094.76-1.795 1.71-1.795zm4.86-1.361a.52.52 0 00-.51.52v5.273c0 .28.23.519.51.519h.58a.52.52 0 00.51-.52V9.056a.52.52 0 00-.51-.519h-.58zm.33-3.211c-.55 0-1.01.364-1.01.94 0 .644.46 1.009 1.01 1.009.46 0 .92-.365.92-1.01 0-.575-.46-.94-.92-.94zm6.48 6.1v2.904c0 .28.24.519.52.519h.57c.28 0 .52-.239.52-.52v-3.183c0-1.978-1.05-2.72-2.59-2.72-.75 0-1.42.336-1.8.686 0-.336-.24-.575-.52-.575h-.57c-.28 0-.52.239-.52.52v5.273c0 .28.24.519.52.519h.57c.28 0 .52-.239.52-.52v-3.786c.38-.379.82-.603 1.37-.603.89 0 1.41.477 1.41 1.486zm5.96 2.202c-.11-.196-.25-.28-.43-.28-.1 0-.2.028-.32.07-.13.042-.28.07-.45.07-.53 0-.75-.449-.75-1.136v-2.3h1.5c.28 0 .52-.238.52-.519v-.477c0-.28-.24-.519-.52-.519h-1.5V7.302c0-.28-.24-.519-.52-.519h-.57c-.28 0-.52.239-.52.52v5.146c0 1.613.53 2.539 1.95 2.539.63 0 1.11-.14 1.58-.42.16-.085.24-.267.24-.45a.495.495 0 00-.07-.238l-.14-.253z" fill="#D76443"/><path fill-rule="evenodd" clip-rule="evenodd" d="M1452 19.004V9.73c-.15-4.844-4.12-8.727-9-8.727a9 9 0 00-9 9c0 4.88 3.88 8.852 8.73 8.996v.004h9.27zm-9-13.636a4.64 4.64 0 014.64 4.636 4.64 4.64 0 01-9.28 0 4.64 4.64 0 014.64-4.636z" fill="#CA4A26"/><circle cx="3" cy="3" r="3" transform="matrix(1 0 0 -1 1440 13.004)" fill="#F4805F"/><path d="M1463 18.004c-1.1 0-2-.896-2-2v-11c0-1.105.9-2 2-2h56c1.1 0 2 .895 2 2v11c0 1.104-.9 2-2 2h-56z" fill="#FECC00"/><path d="M1479.28 9.35c-.29.377-.77 1.032-1.06 1.414-.15.194-.42.547.47.547h4.7s.76-.993 1.39-1.824c.87-1.13.08-3.483-3.01-3.483h-12.16l-2.11 2.762h11.49c.58 0 .57.213.29.584zm-3.45 2.643c-.9 0-.63-.354-.48-.548.3-.383.79-1.03 1.08-1.407.28-.37.29-.584-.29-.584h-5.26l-4.24 5.55h10.33c3.41 0 5.31-2.237 5.9-3.01l-7.04-.001zm6.72 3.01h6.05l2.3-3.01h-6.06l-2.29 3.01zm15.63-9l-2.33 3.044h-2.7l2.32-3.043h-6.05l-4.06 5.307h14.82l4.05-5.307h-6.05zm-6.87 9h6.05l2.3-3.01h-6.05c-.01 0-2.3 3.01-2.3 3.01zM1461 13.182v.64h5.44l.49-.64H1461zm6.83-1.188H1461v.639h6.34l.49-.64zm-6.83 3.01h4.53l.49-.635H1461v.636zm54.11-1.183h5.89v-.64h-5.4l-.49.64zm-.9 1.184h6.79v-.636h-6.31l-.48.636zm2.29-3.011l-.48.64h4.98v-.64h-4.5zm-7.93-.682l4.05-5.307h-6.41c-.01 0-4.06 5.307-4.06 5.307h6.42zm-6.94.682s-.44.583-.66.864c-.76.991-.08 2.147 2.4 2.147h9.73l2.29-3.01-13.76-.001z" fill="#D50029"/><path d="M1548.69 13.482c2.05 0 3.13-1.267 3.13-3.24 0-1.773-1.04-3.053-2.78-3.053-.62 0-1.18.226-1.55.52V5.36c0-.331-.05-1.358-1.49-1.358v6.758c0 1.902 1.7 2.722 2.69 2.722zm0-4.853c.84 0 1.53.573 1.53 1.72 0 1.08-.6 1.706-1.53 1.706-.41 0-1.2-.407-1.2-1.295V9.202c.25-.293.68-.573 1.2-.573zm3.8 1.706c0 1.8 1.25 3.147 3.19 3.147 1.93 0 3.18-1.347 3.18-3.147 0-1.8-1.25-3.146-3.18-3.146-1.94 0-3.19 1.346-3.19 3.146zm1.6 0c0-1.04.7-1.706 1.59-1.706.9 0 1.59.693 1.59 1.706 0 1.04-.67 1.72-1.59 1.72-.91 0-1.59-.72-1.59-1.72zm11.03-3h-1.73l-1.27 1.987-1.23-1.987h-1.83l1.94 2.947-2.07 3.053h1.72l1.42-2.16 1.36 2.16h1.82l-2.08-3.133 1.95-2.867zm3.63 6.147c2.05 0 3.13-1.267 3.13-3.24 0-1.773-1.04-3.053-2.78-3.053-.62 0-1.18.226-1.54.52V5.4c0-.573-.03-1.399-1.5-1.399v6.28c0 2.166 1.32 3.2 2.69 3.2zm0-4.853c.85 0 1.53.573 1.53 1.72 0 1.08-.59 1.706-1.53 1.706-.93 0-1.19-.777-1.19-1.813v-1.04c.24-.293.67-.573 1.19-.573zm8.75 3.026c-.33.28-.93.547-1.64.547-.93 0-1.63-.493-1.76-1.4h4.22c.07-.227.09-.453.09-.827 0-1.68-1.26-2.786-2.76-2.786-1.93 0-3.09 1.4-3.09 3.146 0 1.894 1.26 3.147 3.14 3.147.82 0 1.65-.24 2.23-.747l-.43-1.08zm-1.92-3.186c.86 0 1.35.573 1.34 1.306h-2.87c.16-.786.64-1.306 1.53-1.306zm3.78 4.866h1.49V9.31c.17-.347.44-.64.96-.64.31 0 .47.053.76.226l.53-1.44c-.2-.146-.43-.226-.91-.226-.7 0-1.07.306-1.34.693 0 0 .03-.175-.18-.412-.2-.237-1.31-.175-1.31-.175v6zm4.33 0h1.49V9.31c.17-.347.45-.64.97-.64.31 0 .46.053.75.226l.53-1.44c-.19-.146-.43-.226-.91-.226-.7 0-1.06.306-1.34.693 0 0-.05-.183-.27-.412-.22-.23-1.22-.175-1.22-.175v6zm10.31-6c-1.36 0-1.63-.236-2.05 1.094-.28.848-.7 2.173-.7 2.173-.11.307-.16.6-.21.88-.09-.293-.17-.573-.29-.867 0 0-.55-1.332-.91-2.186-.55-1.322-.85-1.094-2.24-1.094l2.7 6-.13.32c-.25.627-.52.934-.9.934-.23 0-.45-.12-.61-.214l-.48 1.16c.34.254.73.467 1.26.467.86 0 1.4-.52 2.26-2.667l2.3-6z" fill="#ED1651"/><path fill-rule="evenodd" clip-rule="evenodd" d="M1535.02 7.326c0 .91-.74 1.647-1.66 1.647-.92 0-1.66-.738-1.66-1.647 0-.91.74-1.648 1.66-1.648.92 0 1.66.738 1.66 1.648zm1.04 4.323c.91 0 1.66-.737 1.66-1.647s-.75-1.647-1.66-1.647c-.92 0-1.66.737-1.66 1.647s.74 1.647 1.66 1.647zm0 2.059c.91 0 1.66.737 1.66 1.647s-.75 1.647-1.66 1.647c-.92 0-1.66-.737-1.66-1.647s.74-1.647 1.66-1.647zm-2.7-2.677c.92 0 1.66.738 1.66 1.647 0 .91-.74 1.647-1.66 1.647-.92 0-1.66-.737-1.66-1.646 0-.91.74-1.648 1.66-1.648zm-1.04-1.029c0 .91-.74 1.647-1.66 1.647-.92 0-1.66-.737-1.66-1.647s.74-1.647 1.66-1.647c.92 0 1.66.737 1.66 1.647zm6.44-1.03c.91 0 1.66-.737 1.66-1.646 0-.91-.75-1.648-1.66-1.648-.92 0-1.67.738-1.67 1.648 0 .91.75 1.647 1.67 1.647zm1.66 3.707c0-.91-.75-1.648-1.66-1.648-.92 0-1.67.738-1.67 1.647 0 .91.75 1.647 1.67 1.647.91 0 1.66-.737 1.66-1.646zm1.03-1.03c.92 0 1.66-.737 1.66-1.647s-.74-1.647-1.66-1.647c-.91 0-1.66.737-1.66 1.647s.75 1.647 1.66 1.647z" fill="#ED1651"/><ellipse cx="1536.06" cy="4.649" rx="1.66" ry="1.647" fill="#A6CE39"/><path fill-rule="evenodd" clip-rule="evenodd" d="M1610.5 6.183a2.35 2.35 0 11-4.7 0 2.35 2.35 0 114.7 0zm1.48 6.176a2.35 2.35 0 002.35-2.353 2.35 2.35 0 00-2.35-2.353c-1.3 0-2.36 1.054-2.36 2.353 0 1.3 1.06 2.353 2.36 2.353zm0 2.941a2.35 2.35 0 012.35 2.353 2.35 2.35 0 01-2.35 2.353c-1.3 0-2.36-1.054-2.36-2.353 0-1.3 1.06-2.353 2.36-2.353zm-3.83-3.824a2.35 2.35 0 012.35 2.353 2.35 2.35 0 11-4.7 0 2.35 2.35 0 012.35-2.353zm-1.47-1.47a2.35 2.35 0 11-4.7 0 2.35 2.35 0 114.7 0zm9.12-1.47a2.35 2.35 0 002.35-2.353 2.35 2.35 0 10-4.7 0 2.35 2.35 0 002.35 2.352zm2.35 5.293a2.35 2.35 0 10-4.7 0 2.35 2.35 0 104.7 0zm1.47-1.47c1.3 0 2.36-1.053 2.36-2.353 0-1.3-1.06-2.353-2.36-2.353a2.35 2.35 0 00-2.35 2.353 2.35 2.35 0 002.35 2.353z" fill="#ED1651"/><circle cx="1611.98" cy="2.359" fill="#A6CE39" r="2.353"/><g clip-path="url(#clip11_4273_82255)"><path d="M1630 17.959l.55-12.786c0-.334.11-.658.31-.926.19-.267.47-.463.79-.56l8.88-2.924 2.09-.7c.25-.081.53-.081.78 0l3.31 1.107 7.64 2.518c.18.055.34.14.49.251.25.168.43.417.52.705.06.17.09.348.09.529l.55 12.786c0 .403-.16.79-.44 1.079-.28.29-.65.46-1.05.476-.06.002-5.98.488-11.51.488-5.57 0-11.45-.486-11.51-.488-.4-.016-.77-.187-1.05-.476-.28-.29-.44-.676-.44-1.08" fill="#EEC306"/><path d="M1635 15.642V7.36c0-.092.03-.181.1-.248a.386.386 0 01.26-.109h1.17c.09.003.18.042.25.109s.1.156.1.248l-.01 8.282a.3.3 0 01-.1.248.345.345 0 01-.25.108h-1.16a.387.387 0 01-.26-.108.378.378 0 01-.1-.248zm9.65.002v-4.105c.01-.022 0-.044-.01-.062a.158.158 0 00-.06-.036.114.114 0 00-.07.005c-.02.009-.03.024-.05.044l-1.85 3.438a.23.23 0 01-.07.078.214.214 0 01-.11.03h-.4a.222.222 0 01-.1-.028.132.132 0 01-.06-.072l-1.86-3.456a.103.103 0 00-.05-.043.087.087 0 00-.06-.005c-.03.006-.04.018-.06.035a.125.125 0 00-.02.06v4.117c.01.045 0 .09-.02.133a.447.447 0 01-.07.113.566.566 0 01-.12.078.364.364 0 01-.14.03h-1.13a.345.345 0 01-.25-.108.331.331 0 01-.1-.246l.01-8.29a.298.298 0 01.1-.246.346.346 0 01.25-.108h1.27a.356.356 0 01.31.191l2.29 4.449c.01.017.02.031.04.041.02.01.04.015.06.015.02 0 .03-.006.05-.016.02-.01.03-.025.04-.043l2.15-4.434a.338.338 0 01.13-.144.344.344 0 01.19-.056h1.25c.1.003.19.041.25.108.07.066.11.154.1.246v8.287c.01.045 0 .09-.02.133a.447.447 0 01-.07.113.566.566 0 01-.12.078.364.364 0 01-.14.03H1645a.347.347 0 01-.25-.108.478.478 0 01-.08-.114.581.581 0 01-.02-.132zm7.35-.967v.964a.34.34 0 01-.1.25.385.385 0 01-.26.109h-3.69a.385.385 0 01-.26-.11.383.383 0 01-.1-.25V7.363c0-.093.04-.183.1-.25a.385.385 0 01.26-.109h1.15c.1.003.19.042.26.11.07.066.1.156.1.249v6.795c0 .042.02.082.05.112.03.03.07.048.11.05h2.02c.1.002.19.041.26.108s.1.157.1.25" fill="#21367F"/></g><path d="M1666.51 15.626l9.92 1.916.77-1.338-8.81-3.833-1.88 3.255zm4.6-7.986l7.71 5.751.78-1.339-6.62-7.667-1.87 3.255zm-2.31 4.008l8.82 3.834.79-1.368-7.72-5.75-1.89 3.284zm6.7-11.646l-2.08 3.624 6.61 7.668.99-1.7-5.52-9.592zm-11.5 20h11.02l.98-1.7-9.92-1.916-2.08 3.616zm17.49-4.477l2.58 4.477h2.93l-5.51-9.584-5.51 9.584h2.93l2.58-4.477z" fill="#FCAF17"/><path d="M1702.12 17.004c3.87 0 7-3.134 7-7s-3.13-7-7-7c-3.86 0-7 3.134-7 7s3.14 7 7 7z" fill="#FC3F1D"/><path d="M1703.19 6.789h-.78c-1.34 0-2.01.632-2.01 1.58 0 1.055.45 1.582 1.45 2.215l.78.527-2.23 3.268h-1.78l2.12-2.952c-1.23-.843-1.9-1.581-1.9-2.952 0-1.686 1.23-2.846 3.57-2.846h2.34v8.75h-1.56v-7.59z" fill="#fff"/><path fill-rule="evenodd" clip-rule="evenodd" d="M1713.78 14.825v2.123h-1.66V13.45h.66c.47-.776.66-2.196.73-4.612l.15-4.187h5.93v8.8h.95v3.498h-1.65v-2.123h-5.11zm1.39-8.799l-.1 3.045c-.08 2.416-.31 3.675-.62 4.378h3.37V6.026h-2.65zm5.88 5.124c0-2.474 1.34-3.836 3.25-3.836 1.92 0 3.25 1.362 3.25 3.822 0 2.474-1.33 3.836-3.25 3.836-1.91 0-3.25-1.362-3.25-3.822zm1.81 0c0 1.699.48 2.446 1.44 2.446.97 0 1.45-.747 1.45-2.46 0-1.699-.48-2.445-1.45-2.445-.96 0-1.44.746-1.44 2.46z" fill="#000"/><path d="M1731.89 14.972c.8 0 1.37-.146 1.8-.454v-1.42c-.44.307-.97.498-1.7.498-1.24 0-1.76-.967-1.76-2.49 0-1.595.63-2.415 1.77-2.415.68 0 1.34.234 1.69.454v-1.48c-.37-.204-1.01-.35-1.88-.35-2.22 0-3.38 1.595-3.38 3.835 0 2.46 1.13 3.822 3.46 3.822zm8.3-7.512v1.377h-2.05v5.988h-1.74V8.837h-2.05V7.461h5.84z" fill="#000"/><path fill-rule="evenodd" clip-rule="evenodd" d="M1746.28 9.803c0-1.786-.9-2.46-2.75-2.46-1.16 0-2.06.367-2.59.674v1.45c.47-.352 1.49-.732 2.39-.732.83 0 1.21.292 1.21 1.083v.41h-.28c-2.66 0-3.85.879-3.85 2.372 0 1.493.91 2.328 2.26 2.328 1.02 0 1.46-.337 1.8-.688h.07c.02.19.07.439.13.585h1.7c-.06-.6-.09-1.2-.09-1.8V9.803zm-1.74 3.265c-.22.323-.63.586-1.24.586-.74 0-1.1-.44-1.1-1.098 0-.864.6-1.171 2.09-1.171h.25v1.683zm8.8-.38c0 1.405-1.03 2.137-2.76 2.137h-2.9V7.461h2.93c1.61 0 2.45.615 2.45 1.874 0 .878-.5 1.435-1.29 1.654.98.176 1.57.732 1.57 1.699zm-2-3.09c0-.556-.35-.82-.98-.82h-.93v1.64h.88c.65 0 1.03-.307 1.03-.82zm.2 2.973c0-.615-.4-.879-1.15-.879h-.96v1.816h.96c.71 0 1.15-.264 1.15-.937z" fill="#000"/><path d="M1758.82 14.825h1.98l-2.8-3.967 2.46-3.397h-1.75l-2.46 3.397V7.46h-1.75v7.364h1.75V11.21l2.57 3.616z" fill="#000"/><path fill-rule="evenodd" clip-rule="evenodd" d="M1763.98 7.344c1.84 0 2.75.673 2.75 2.46v3.22c0 .6.03 1.201.09 1.801h-1.7a2.064 2.064 0 01-.13-.585h-.08c-.33.351-.77.688-1.8.688-1.34 0-2.25-.835-2.25-2.328 0-1.493 1.18-2.372 3.85-2.372h.28v-.41c0-.79-.38-1.083-1.22-1.083-.89 0-1.92.38-2.38.732v-1.45c.52-.307 1.43-.673 2.59-.673zm-.24 6.31c.62 0 1.03-.263 1.25-.586v-1.683h-.25c-1.49 0-2.1.307-2.1 1.171 0 .659.37 1.098 1.1 1.098z" fill="#000"/><path fill-rule="evenodd" clip-rule="evenodd" d="M1790.43 5l.57-2h-16l1.71 2h13.72zm-.29 1h-12.57l1.72 2h10.28l.57-2zm-.85 3h-9.15l1.72 2h6.85l.58-2zm-.86 3h-5.72l1.72 2h3.43l.57-2zm-.86 3h-2.28l1.71 2 .57-2z" fill="#FF8400"/><path d="M1800.27 6.584c.23-.818.72-2.619.99-3.582h-7.39l-3.87 14h7.39c.33-1.219.69-2.501.99-3.58H1795l.48-1.71h3.37c.42-1.5.75-2.702.95-3.417h-3.38l.48-1.71h3.37zm25.04.618l.69-2.489-2.06-1.711h-4.13l-2.64 1.711-1.49 5.368 1.61 1.476h3.12l-.56 2.023h-1.44l.22-.778h-3.69l-.69 2.429 2.05 1.771h4.29l2.65-1.714 1.47-5.318-2.02-1.68h-2.66l.52-1.866h1.28l-.21.778h3.69zm-9.28-4.2l-3.87 14h-3.69l2.25-8.123c-.94 1.799-3.27 6.266-4.25 8.123h-1.58l.33-7.987-2.21 7.987h-3.7l3.88-14h4.78l-.03 5.894 3.27-5.894h4.82z" fill="#0033A1"/><defs><radialGradient id="paint0_radial_4273_82255" cx="0" cy="0" r="1" gradientUnits="userSpaceOnUse" gradientTransform="matrix(13.49997 -10.49998 14.4375 18.56248 28.5 18)"><stop stop-color="#75C7FF"/><stop offset="1" stop-color="#1596ED"/></radialGradient><radialGradient id="paint4_radial_4273_82255" cx="0" cy="0" r="1" gradientUnits="userSpaceOnUse" gradientTransform="matrix(-19.7646 -19.2001 23.21612 -23.89869 920.103 19.002)"><stop stop-color="#00A7FA"/><stop offset="1" stop-color="#00A7FA" stop-opacity="0"/></radialGradient><radialGradient id="paint5_radial_4273_82255" cx="0" cy="0" r="1" gradientUnits="userSpaceOnUse" gradientTransform="matrix(-14.8853 0 0 -18.059 921.771 18.702)"><stop stop-color="#00A7FA"/><stop offset="1" stop-color="#00A7FA" stop-opacity="0"/></radialGradient><radialGradient id="paint6_radial_4273_82255" cx="0" cy="0" r="1" gradientUnits="userSpaceOnUse" gradientTransform="rotate(44.17 443.494 1105.27) scale(15.3275 18.4901)"><stop stop-color="#FAED01"/><stop offset="1" stop-color="#FAED01" stop-opacity="0"/></radialGradient><radialGradient id="paint8_radial_4273_82255" cx="0" cy="0" r="1" gradientUnits="userSpaceOnUse" gradientTransform="matrix(45.80957 -1.83238 1.356 33.8999 1089.56 1.135)"><stop stop-color="#03BA50"/><stop offset=".8" stop-color="#01B64E"/></radialGradient><radialGradient id="paint9_radial_4273_82255" cx="0" cy="0" r="1" gradientUnits="userSpaceOnUse" gradientTransform="rotate(-2.291 573.075 -27249.076) scale(45.7506 33.8563)"><stop stop-color="#04BC50"/><stop offset=".8" stop-color="#01B34D"/></radialGradient><radialGradient id="paint10_radial_4273_82255" cx="0" cy="0" r="1" gradientUnits="userSpaceOnUse" gradientTransform="matrix(45.61852 -1.82474 1.35034 33.7584 1089.54 1.14)"><stop stop-color="#06BD51"/><stop offset=".72" stop-color="#02B24C"/><stop offset=".8" stop-color="#01B04B"/></radialGradient><radialGradient id="paint11_radial_4273_82255" cx="0" cy="0" r="1" gradientUnits="userSpaceOnUse" gradientTransform="matrix(45.5231 -1.82092 1.34751 33.68786 1089.52 1.154)"><stop stop-color="#08BF52"/><stop offset=".56" stop-color="#04B44D"/><stop offset=".8" stop-color="#01AD4A"/></radialGradient><radialGradient id="paint12_radial_4273_82255" cx="0" cy="0" r="1" gradientUnits="userSpaceOnUse" gradientTransform="matrix(45.42747 -1.8171 1.34468 33.61702 1089.51 1.168)"><stop stop-color="#0AC053"/><stop offset=".48" stop-color="#05B54E"/><stop offset=".8" stop-color="#01AA49"/></radialGradient><radialGradient id="paint13_radial_4273_82255" cx="0" cy="0" r="1" gradientUnits="userSpaceOnUse" gradientTransform="matrix(45.3287 -1.35986 1.00662 33.5539 1089.49 1.203)"><stop stop-color="#0BC253"/><stop offset=".42" stop-color="#07B74E"/><stop offset=".8" stop-color="#01A848"/></radialGradient><radialGradient id="paint14_radial_4273_82255" cx="0" cy="0" r="1" gradientUnits="userSpaceOnUse" gradientTransform="matrix(45.23325 -1.357 1.0045 33.48314 1089.46 1.212)"><stop stop-color="#0DC354"/><stop offset=".37" stop-color="#08B84F"/><stop offset=".8" stop-color="#01A546"/></radialGradient><radialGradient id="paint15_radial_4273_82255" cx="0" cy="0" r="1" gradientUnits="userSpaceOnUse" gradientTransform="matrix(45.1377 -1.35413 1.00197 33.39887 1089.8 1.22)"><stop stop-color="#0FC555"/><stop offset=".33" stop-color="#0ABA50"/><stop offset=".8" stop-color="#01A245"/></radialGradient><radialGradient id="paint16_radial_4273_82255" cx="0" cy="0" r="1" gradientUnits="userSpaceOnUse" gradientTransform="matrix(45.49254 -1.35127 .98996 33.3286 1089.76 1.236)"><stop stop-color="#11C656"/><stop offset=".3" stop-color="#0CBB51"/><stop offset=".8" stop-color="#019F44"/></radialGradient><radialGradient id="paint17_radial_4273_82255" cx="0" cy="0" r="1" gradientUnits="userSpaceOnUse" gradientTransform="matrix(45.39608 -1.3484 .98785 33.25783 1089.75 1.253)"><stop stop-color="#12C856"/><stop offset=".28" stop-color="#0EBD51"/><stop offset=".77" stop-color="#029E44"/><stop offset=".8" stop-color="#019C43"/></radialGradient><radialGradient id="paint18_radial_4273_82255" cx="0" cy="0" r="1" gradientUnits="userSpaceOnUse" gradientTransform="rotate(-1.701 587.78 -36695.466) scale(45.3164 33.1994)"><stop stop-color="#14C957"/><stop offset=".26" stop-color="#0FBE52"/><stop offset=".72" stop-color="#049F44"/><stop offset=".8" stop-color="#019941"/></radialGradient><radialGradient id="paint19_radial_4273_82255" cx="0" cy="0" r="1" gradientUnits="userSpaceOnUse" gradientTransform="matrix(45.19987 -1.34257 .9836 33.1142 1089.72 1.302)"><stop stop-color="#16CB58"/><stop offset=".24" stop-color="#11C053"/><stop offset=".66" stop-color="#06A145"/><stop offset=".8" stop-color="#019640"/></radialGradient><radialGradient id="paint20_radial_4273_82255" cx="0" cy="0" r="1" gradientUnits="userSpaceOnUse" gradientTransform="matrix(45.1034 -1.3397 .98149 33.04343 1089.7 1.33)"><stop stop-color="#18CC59"/><stop offset=".23" stop-color="#13C154"/><stop offset=".62" stop-color="#07A246"/><stop offset=".8" stop-color="#01933F"/></radialGradient><radialGradient id="paint21_radial_4273_82255" cx="0" cy="0" r="1" gradientUnits="userSpaceOnUse" gradientTransform="matrix(45.00365 -1.33674 .97931 32.97036 1089.67 1.366)"><stop stop-color="#19CD59"/><stop offset=".21" stop-color="#15C254"/><stop offset=".59" stop-color="#09A347"/><stop offset=".8" stop-color="#01903E"/></radialGradient><radialGradient id="paint22_radial_4273_82255" cx="0" cy="0" r="1" gradientUnits="userSpaceOnUse" gradientTransform="matrix(44.9073 -1.33388 .97722 32.89969 1089.64 1.405)"><stop stop-color="#1BCF5A"/><stop offset=".2" stop-color="#17C455"/><stop offset=".56" stop-color="#0BA547"/><stop offset=".8" stop-color="#018D3C"/></radialGradient><radialGradient id="paint23_radial_4273_82255" cx="0" cy="0" r="1" gradientUnits="userSpaceOnUse" gradientTransform="matrix(44.81072 -.88734 .65022 32.83626 1089.61 1.266)"><stop stop-color="#1DD05B"/><stop offset=".19" stop-color="#18C556"/><stop offset=".54" stop-color="#0CA648"/><stop offset=".8" stop-color="#018B3B"/></radialGradient><radialGradient id="paint24_radial_4273_82255" cx="0" cy="0" r="1" gradientUnits="userSpaceOnUse" gradientTransform="matrix(44.71093 -.88536 .64878 32.76328 1089.57 1.294)"><stop stop-color="#1ED25B"/><stop offset=".18" stop-color="#1AC756"/><stop offset=".51" stop-color="#0EA848"/><stop offset=".8" stop-color="#01883A"/></radialGradient><radialGradient id="paint25_radial_4273_82255" cx="0" cy="0" r="1" gradientUnits="userSpaceOnUse" gradientTransform="matrix(44.61445 -.88345 .64738 32.6925 1089.54 1.323)"><stop stop-color="#20D35C"/><stop offset=".18" stop-color="#1BC857"/><stop offset=".49" stop-color="#0FA949"/><stop offset=".8" stop-color="#018539"/></radialGradient><radialGradient id="paint26_radial_4273_82255" cx="0" cy="0" r="1" gradientUnits="userSpaceOnUse" gradientTransform="matrix(44.51797 -.88154 .64598 32.6218 1089.49 1.362)"><stop stop-color="#22D55D"/><stop offset=".17" stop-color="#1DCA58"/><stop offset=".47" stop-color="#11AB4A"/><stop offset=".8" stop-color="#018237"/></radialGradient><radialGradient id="paint27_radial_4273_82255" cx="0" cy="0" r="1" gradientUnits="userSpaceOnUse" gradientTransform="matrix(44.4183 -.87957 .64453 32.54882 1089.44 1.398)"><stop stop-color="#24D65E"/><stop offset=".16" stop-color="#1FCB59"/><stop offset=".45" stop-color="#13AC4B"/><stop offset=".8" stop-color="#017F36"/></radialGradient><radialGradient id="paint28_radial_4273_82255" cx="0" cy="0" r="1" gradientUnits="userSpaceOnUse" gradientTransform="matrix(44.32181 -.87766 .64313 32.47803 1089.39 1.442)"><stop stop-color="#25D85E"/><stop offset=".15" stop-color="#20CD59"/><stop offset=".43" stop-color="#14AE4B"/><stop offset=".79" stop-color="#017D36"/><stop offset=".8" stop-color="#007C35"/></radialGradient><radialGradient id="paint29_radial_4273_82255" cx="0" cy="0" r="1" gradientUnits="userSpaceOnUse" gradientTransform="matrix(44.22533 -.87575 .64156 32.39865 1090.36 1.492)"><stop stop-color="#27D95F"/><stop offset=".15" stop-color="#22CE5A"/><stop offset=".42" stop-color="#16AF4C"/><stop offset=".77" stop-color="#027E36"/><stop offset=".8" stop-color="#007934"/></radialGradient><radialGradient id="paint30_radial_4273_82255" cx="0" cy="0" r="1" gradientUnits="userSpaceOnUse" gradientTransform="matrix(44.56253 -.87377 .63384 32.32579 1090.03 1.543)"><stop stop-color="#29DB60"/><stop offset=".14" stop-color="#24D05B"/><stop offset=".4" stop-color="#18B14D"/><stop offset=".74" stop-color="#048037"/><stop offset=".8" stop-color="#007632"/></radialGradient><radialGradient id="paint31_radial_4273_82255" cx="0" cy="0" r="1" gradientUnits="userSpaceOnUse" gradientTransform="matrix(44.46505 -.87186 .63245 32.2552 1089.99 1.6)"><stop stop-color="#2BDC61"/><stop offset=".14" stop-color="#26D15C"/><stop offset=".39" stop-color="#1AB24E"/><stop offset=".71" stop-color="#068138"/><stop offset=".8" stop-color="#007331"/></radialGradient><radialGradient id="paint32_radial_4273_82255" cx="0" cy="0" r="1" gradientUnits="userSpaceOnUse" gradientTransform="matrix(44.36437 -.86989 .63102 32.18211 1089.95 1.664)"><stop stop-color="#2CDE61"/><stop offset=".13" stop-color="#27D35C"/><stop offset=".37" stop-color="#1BB44E"/><stop offset=".69" stop-color="#088339"/><stop offset=".8" stop-color="#007030"/></radialGradient><radialGradient id="paint33_radial_4273_82255" cx="0" cy="0" r="1" gradientUnits="userSpaceOnUse" gradientTransform="matrix(44.26687 -.43399 .31487 32.11636 1089.91 1.345)"><stop stop-color="#2EDF62"/><stop offset=".13" stop-color="#29D45D"/><stop offset=".37" stop-color="#1DB54F"/><stop offset=".67" stop-color="#098439"/><stop offset=".8" stop-color="#006E2F"/></radialGradient><radialGradient id="paint34_radial_4273_82255" cx="0" cy="0" r="1" gradientUnits="userSpaceOnUse" gradientTransform="matrix(44.16948 -.43303 .31417 32.04576 1089.86 1.394)"><stop stop-color="#30E163"/><stop offset=".13" stop-color="#2BD65E"/><stop offset=".35" stop-color="#1FB750"/><stop offset=".65" stop-color="#0B8639"/><stop offset=".8" stop-color="#006B2D"/></radialGradient><radialGradient id="paint35_radial_4273_82255" cx="0" cy="0" r="1" gradientUnits="userSpaceOnUse" gradientTransform="matrix(44.06878 -.43205 .31346 31.97266 1089.81 1.45)"><stop stop-color="#31E263"/><stop offset=".12" stop-color="#2CD75E"/><stop offset=".34" stop-color="#20B850"/><stop offset=".63" stop-color="#0D873A"/><stop offset=".8" stop-color="#00682C"/></radialGradient><radialGradient id="paint36_radial_4273_82255" cx="0" cy="0" r="1" gradientUnits="userSpaceOnUse" gradientTransform="matrix(43.97139 -.4311 .31276 31.90187 1089.75 1.507)"><stop stop-color="#33E364"/><stop offset=".12" stop-color="#2ED85F"/><stop offset=".34" stop-color="#22B951"/><stop offset=".62" stop-color="#0E883B"/><stop offset=".8" stop-color="#00652B"/></radialGradient><radialGradient id="paint37_radial_4273_82255" cx="0" cy="0" r="1" gradientUnits="userSpaceOnUse" gradientTransform="matrix(43.8706 -.4301 .31205 31.82887 1089.7 1.57)"><stop stop-color="#35E565"/><stop offset=".12" stop-color="#30DA60"/><stop offset=".33" stop-color="#24BB52"/><stop offset=".6" stop-color="#108A3C"/><stop offset=".8" stop-color="#00622A"/></radialGradient><radialGradient id="paint38_radial_4273_82255" cx="0" cy="0" r="1" gradientUnits="userSpaceOnUse" gradientTransform="matrix(43.7732 -.42915 .31135 31.75817 1089.64 1.636)"><stop stop-color="#37E666"/><stop offset=".11" stop-color="#32DB61"/><stop offset=".32" stop-color="#26BC53"/><stop offset=".59" stop-color="#128B3C"/><stop offset=".8" stop-color="#005F28"/></radialGradient><radialGradient id="paint39_radial_4273_82255" cx="0" cy="0" r="1" gradientUnits="userSpaceOnUse" gradientTransform="matrix(43.6725 -.42816 .31064 31.68508 1089.57 1.706)"><stop stop-color="#38E866"/><stop offset=".11" stop-color="#33DD61"/><stop offset=".31" stop-color="#27BE53"/><stop offset=".57" stop-color="#148D3D"/><stop offset=".8" stop-color="#005C27"/></radialGradient><radialGradient id="paint40_radial_4273_82255" cx="0" cy="0" r="1" gradientUnits="userSpaceOnUse" gradientTransform="matrix(43.575 -.4272 .30994 31.61438 1089.5 1.781)"><stop stop-color="#3AE967"/><stop offset=".11" stop-color="#35DE62"/><stop offset=".3" stop-color="#29BF54"/><stop offset=".56" stop-color="#158E3E"/><stop offset=".8" stop-color="#005926"/></radialGradient><radialGradient id="paint41_radial_4273_82255" cx="0" cy="0" r="1" gradientUnits="userSpaceOnUse" gradientTransform="matrix(43.47761 -.42625 .30925 31.54378 1089.44 1.86)"><stop stop-color="#3CEB68"/><stop offset=".11" stop-color="#37E063"/><stop offset=".29" stop-color="#2BC155"/><stop offset=".54" stop-color="#17903F"/><stop offset=".8" stop-color="#005625"/></radialGradient><radialGradient id="paint42_radial_4273_82255" cx="0" cy="0" r="1" gradientUnits="userSpaceOnUse" gradientTransform="matrix(43.37692 -.42526 .30854 31.47069 1089.36 1.943)"><stop stop-color="#3EEC69"/><stop offset=".1" stop-color="#39E164"/><stop offset=".29" stop-color="#2DC256"/><stop offset=".53" stop-color="#19913F"/><stop offset=".8" stop-color="#005323"/></radialGradient><radialGradient id="paint43_radial_4273_82255" cx="0" cy="0" r="1" gradientUnits="userSpaceOnUse" gradientTransform="matrix(43.2795 0 0 31.3988 1089.28 1.448)"><stop stop-color="#3FEE69"/><stop offset=".1" stop-color="#3AE364"/><stop offset=".28" stop-color="#2EC456"/><stop offset=".52" stop-color="#1A9340"/><stop offset=".8" stop-color="#005122"/></radialGradient><radialGradient id="paint44_radial_4273_82255" cx="0" cy="0" r="1" gradientUnits="userSpaceOnUse" gradientTransform="matrix(43.6021 0 0 31.3258 1090.3 1.517)"><stop stop-color="#41EF6A"/><stop offset=".1" stop-color="#3CE465"/><stop offset=".28" stop-color="#30C557"/><stop offset=".51" stop-color="#1C9441"/><stop offset=".79" stop-color="#015022"/><stop offset=".8" stop-color="#004E21"/></radialGradient><radialGradient id="paint45_radial_4273_82255" cx="0" cy="0" r="1" gradientUnits="userSpaceOnUse" gradientTransform="matrix(43.507 0 0 31.2574 1090.24 1.592)"><stop stop-color="#43F16B"/><stop offset=".1" stop-color="#3EE666"/><stop offset=".27" stop-color="#32C758"/><stop offset=".5" stop-color="#1E9642"/><stop offset=".77" stop-color="#035223"/><stop offset=".8" stop-color="#004B20"/></radialGradient><radialGradient id="paint46_radial_4273_82255" cx="0" cy="0" r="1" gradientUnits="userSpaceOnUse" gradientTransform="matrix(43.4085 0 0 31.1868 1090.18 1.672)"><stop stop-color="#45F26C"/><stop offset=".1" stop-color="#40E767"/><stop offset=".27" stop-color="#34C859"/><stop offset=".49" stop-color="#209742"/><stop offset=".76" stop-color="#055323"/><stop offset=".8" stop-color="#00481E"/></radialGradient><radialGradient id="paint47_radial_4273_82255" cx="0" cy="0" r="1" gradientUnits="userSpaceOnUse" gradientTransform="matrix(43.3069 0 0 31.1137 1090.12 1.758)"><stop stop-color="#46F46C"/><stop offset=".09" stop-color="#41E967"/><stop offset=".26" stop-color="#35CA59"/><stop offset=".48" stop-color="#229943"/><stop offset=".74" stop-color="#065524"/><stop offset=".8" stop-color="#00451D"/></radialGradient><radialGradient id="paint48_radial_4273_82255" cx="0" cy="0" r="1" gradientUnits="userSpaceOnUse" gradientTransform="matrix(43.2051 0 0 31.0406 1090.06 1.848)"><stop stop-color="#48F56D"/><stop offset=".09" stop-color="#43EA68"/><stop offset=".25" stop-color="#37CB5A"/><stop offset=".47" stop-color="#239A44"/><stop offset=".73" stop-color="#085625"/><stop offset=".8" stop-color="#00421C"/></radialGradient><clipPath id="clip0_4273_82255"><rect y="6" width="20" height="9" rx="1" fill="#fff"/></clipPath><clipPath id="clip1_4273_82255"><rect x="28" y="2.002" width="22" height="16" rx="3" fill="#fff"/></clipPath><clipPath id="clip2_4273_82255"><path fill="#fff" transform="translate(892 .002)" d="M0 0h37v20H0z"/></clipPath><clipPath id="clip3_4273_82255"><path fill="#fff" transform="translate(992 .002)" d="M0 0h20v20H0z"/></clipPath><clipPath id="clip4_4273_82255"><path fill="#fff" transform="translate(1020 .002)" d="M0 0h20v20H0z"/></clipPath><clipPath id="clip5_4273_82255"><path fill="#fff" transform="translate(1048 .002)" d="M0 0h20v20H0z"/></clipPath><clipPath id="clip6_4273_82255"><path fill="#fff" transform="translate(1076 .002)" d="M0 0h20v20H0z"/></clipPath><clipPath id="clip7_4273_82255"><rect x="1104" y=".002" width="20" height="20" rx="10" fill="#fff"/></clipPath><clipPath id="clip8_4273_82255"><path fill="#fff" transform="translate(1186 .002)" d="M0 0h49v20H0z"/></clipPath><clipPath id="clip9_4273_82255"><path fill="#fff" transform="translate(1243 .002)" d="M0 0h44v20H0z"/></clipPath><clipPath id="clip10_4273_82255"><path fill="#fff" transform="translate(1295 .002)" d="M0 0h17v20H0z"/></clipPath><clipPath id="clip11_4273_82255"><path fill="#fff" transform="translate(1630 .002)" d="M0 0h26v20H0z"/></clipPath><filter id="filter0_f_4273_82255" x="-19" y="3" width="42" height="42" filterUnits="userSpaceOnUse" color-interpolation-filters="sRGB"><feFlood flood-opacity="0" result="BackgroundImageFix"/><feBlend in="SourceGraphic" in2="BackgroundImageFix" result="shape"/><feGaussianBlur stdDeviation="4" result="effect1_foregroundBlur_4273_82255"/></filter><filter id="filter1_f_4273_82255" x="1" y="-24" width="42" height="42" filterUnits="userSpaceOnUse" color-interpolation-filters="sRGB"><feFlood flood-opacity="0" result="BackgroundImageFix"/><feBlend in="SourceGraphic" in2="BackgroundImageFix" result="shape"/><feGaussianBlur stdDeviation="4" result="effect1_foregroundBlur_4273_82255"/></filter><filter id="filter2_i_4273_82255" x="44" y="13.002" width="4" height="3" filterUnits="userSpaceOnUse" color-interpolation-filters="sRGB"><feFlood flood-opacity="0" result="BackgroundImageFix"/><feBlend in="SourceGraphic" in2="BackgroundImageFix" result="shape"/><feColorMatrix in="SourceAlpha" values="0 0 0 0 0 0 0 0 0 0 0 0 0 0 0 0 0 0 127 0" result="hardAlpha"/><feOffset dy="1"/><feComposite in2="hardAlpha" operator="arithmetic" k2="-1" k3="1"/><feColorMatrix values="0 0 0 0 1 0 0 0 0 1 0 0 0 0 1 0 0 0 0.25 0"/><feBlend in2="shape" result="effect1_innerShadow_4273_82255"/></filter><filter id="filter3_f_4273_82255" x="196" y="-10" width="55" height="40" filterUnits="userSpaceOnUse" color-interpolation-filters="sRGB"><feFlood flood-opacity="0" result="BackgroundImageFix"/><feBlend in="SourceGraphic" in2="BackgroundImageFix" result="shape"/><feGaussianBlur stdDeviation="4" result="effect1_foregroundBlur_4273_82255"/></filter><filter id="filter4_f_4273_82255" x="208" y="-10" width="54" height="40" filterUnits="userSpaceOnUse" color-interpolation-filters="sRGB"><feFlood flood-opacity="0" result="BackgroundImageFix"/><feBlend in="SourceGraphic" in2="BackgroundImageFix" result="shape"/><feGaussianBlur stdDeviation="4" result="effect1_foregroundBlur_4273_82255"/></filter><filter id="filter5_f_4273_82255" x="413.474" y="2.836" width="33.949" height="33.948" filterUnits="userSpaceOnUse" color-interpolation-filters="sRGB"><feFlood flood-opacity="0" result="BackgroundImageFix"/><feBlend in="SourceGraphic" in2="BackgroundImageFix" result="shape"/><feGaussianBlur stdDeviation="4.819" result="effect1_foregroundBlur_4273_82255"/></filter><filter id="filter6_f_4273_82255" x="406.871" y="-11.103" width="33.949" height="33.948" filterUnits="userSpaceOnUse" color-interpolation-filters="sRGB"><feFlood flood-opacity="0" result="BackgroundImageFix"/><feBlend in="SourceGraphic" in2="BackgroundImageFix" result="shape"/><feGaussianBlur stdDeviation="4.819" result="effect1_foregroundBlur_4273_82255"/></filter><filter id="filter7_f_4273_82255" x="410.014" y=".11" width="26.195" height="26.195" filterUnits="userSpaceOnUse" color-interpolation-filters="sRGB"><feFlood flood-opacity="0" result="BackgroundImageFix"/><feBlend in="SourceGraphic" in2="BackgroundImageFix" result="shape"/><feGaussianBlur stdDeviation="3.614" result="effect1_foregroundBlur_4273_82255"/></filter><linearGradient id="paint1_linear_4273_82255" x1="81" y1="18.5" x2="74.5" y2="12.5" gradientUnits="userSpaceOnUse"><stop stop-color="#FFD784"/><stop offset="1" stop-color="#FFAC00"/></linearGradient><linearGradient id="paint2_linear_4273_82255" x1="269.009" y1="6.497" x2="258.986" y2="6.497" gradientUnits="userSpaceOnUse"><stop stop-color="#198ECA"/><stop offset="1" stop-color="#1DB5E4"/></linearGradient><linearGradient id="paint3_linear_4273_82255" x1="892.604" y1="1.002" x2="929.141" y2="1.228" gradientUnits="userSpaceOnUse"><stop stop-color="#1EDB01"/><stop offset="1" stop-color="#00C746"/></linearGradient><linearGradient id="paint7_linear_4273_82255" x1="1048" y1="17.846" x2="1067.91" y2="11.91" gradientUnits="userSpaceOnUse"><stop stop-color="#F8EC4F"/><stop offset=".568" stop-color="#4DE544"/><stop offset="1" stop-color="#49C8FF"/></linearGradient><linearGradient id="paint49_linear_4273_82255" x1="1090.76" y1="24.166" x2="1087.03" y2="-2.552" gradientUnits="userSpaceOnUse"><stop offset=".1" stop-color="#FF8475"/><stop offset=".37" stop-color="#E84E43"/><stop offset=".6" stop-color="#D6261F"/><stop offset=".79" stop-color="#CC0E08"/><stop offset=".9" stop-color="#C80500"/></linearGradient></defs></svg>