<svg width="1592" height="24" fill="none" xmlns="http://www.w3.org/2000/svg"><path fill-rule="evenodd" clip-rule="evenodd" d="M0 24l1.695-6.163A11.828 11.828 0 01.1 11.892C.103 5.335 5.464 0 12.05 0c1.57 0 3.124.308 4.575.907a11.957 11.957 0 013.877 2.58 11.892 11.892 0 012.59 3.86c.6 1.445.909 2.992.908 4.554-.003 6.558-5.364 11.893-11.95 11.893h-.005a11.98 11.98 0 01-5.71-1.448L0 24z" fill="#26E67A"/><path fill-rule="evenodd" clip-rule="evenodd" d="M17.96 14.429c-.067-.11-.248-.177-.518-.31s-1.601-.774-1.85-.862c-.248-.089-.428-.133-.608.133-.18.265-.7.862-.857 1.039-.158.177-.316.199-.587.066-.27-.133-1.142-.412-2.176-1.315-.805-.703-1.348-1.57-1.506-1.836-.158-.266-.017-.409.119-.541.122-.119.27-.31.406-.464.135-.155.18-.266.27-.443.09-.176.046-.331-.022-.464s-.609-1.437-.834-1.968c-.22-.516-.443-.447-.61-.455A12.033 12.033 0 008.67 7a1.011 1.011 0 00-.722.332C7.7 7.597 7 8.238 7 9.542c0 1.305.97 2.565 1.105 2.742.135.177 1.909 2.854 4.623 4.002.504.212 1.02.399 1.543.558.649.202 1.239.173 1.705.105.52-.076 1.601-.641 1.827-1.26.225-.62.225-1.15.158-1.26z" fill="#fff"/><path d="M53.31 2.656C52.684 2.03 50.143.045 44.486.02c0 0-6.675-.437-9.951 2.776-1.814 1.953-2.45 4.804-2.519 8.338-.005.272-.01.561-.013.866.003.305.008.594.013.866.07 3.534.705 6.385 2.519 8.338 3.276 3.213 9.95 2.776 9.95 2.776 5.658-.025 8.2-2.01 8.827-2.636C54.982 19.783 56.057 16.692 56 12c.057-4.692-1.018-7.783-2.69-9.344z" fill="#7362EF"/><path d="M45.952 12.448a.354.354 0 01-.348-.322 1.565 1.565 0 00-.087-.68 1.603 1.603 0 00-.37-.584 1.663 1.663 0 00-.587-.382 1.702 1.702 0 00-.697-.11.352.352 0 01-.327-.357.355.355 0 01.368-.318 2.381 2.381 0 011.75.691c.226.228.4.499.511.796a2.2 2.2 0 01.135.928c.01.19-.152.362-.348.338z" fill="#fff"/><path d="M47.84 12.464c.172 0 .324-.16.308-.325A4.01 4.01 0 0047.06 9.19a4.626 4.626 0 00-3.146-1.337c-.176-.036-.366.102-.38.275-.012.173.156.336.335.325a3.97 3.97 0 012.727 1.15c.65.686.993 1.622.936 2.55-.004.16.142.307.307.31z" fill="#fff"/><path d="M49.316 13.06c.096-1.722-.583-3.454-1.838-4.69-1.195-1.118-2.853-1.746-4.524-1.713-.181 0-.343-.154-.343-.328 0-.174.162-.328.343-.328 1.846-.03 3.677.666 4.998 1.9 1.373 1.353 2.125 3.242 2.042 5.127 0 .174-.161.328-.343.328-.183 0-.335-.102-.335-.297zm-4.706 1.912a5.47 5.47 0 01-2.3-1.358 5.37 5.37 0 01-1.367-2.276c-.038-.5.409-.744.755-1.011.411-.375.32-.885.057-1.314-.394-.645-.862-1.213-1.338-1.8a.824.824 0 00-1.045-.166c-.66.51-1.616 1.472-1.315 2.382.543 1.577 1.414 3.076 2.461 4.378a10.771 10.771 0 001.753 1.704 15.173 15.173 0 004.436 2.435c.491.152 1.008-.03 1.382-.366a4.3 4.3 0 00.863-1.051c.205-.316.14-.74-.148-1.011-.606-.546-1.331-1.016-2.016-1.445a.935.935 0 00-1.153.153c-.272.338-.524.782-1.024.745z" fill="#fff"/><circle cx="75.999" cy="11.999" r="11.999" fill="#25A4E4"/><path fill-rule="evenodd" clip-rule="evenodd" d="M68.929 11.171c3.23-1.51 6.453-3.043 9.734-4.44 1.395-.594 1.84-.725 2.164-.73.603-.012.723.558.68 1.041-.187 2.11-.997 7.232-1.41 9.596-.174 1-.517 1.335-.85 1.368-.722.071-1.271-.512-1.97-1.004-1.096-.77-1.715-1.25-2.778-2.001-1.228-.868-.432-1.346.268-2.126.183-.204 3.367-3.31 3.429-3.592.049-.222-.128-.308-.316-.262-.11.026-1.86 1.267-5.248 3.72-.497.366-.947.545-1.35.535-.444-.01-1.299-.27-1.934-.49-.78-.272-1.399-.416-1.345-.877.028-.24.337-.487.926-.738z" fill="#fff"/><rect x="95.998" width="23.998" height="23.998" rx="8" fill="#000"/><path d="M113.991 7.88c-1.897 0-3.435-1.506-3.454-3.38h-2.23l-.002 9.322c0 1.138-.967 2.055-2.136 1.991-1.05-.057-1.894-.912-1.91-1.96-.017-1.116.895-2.025 2.023-2.025.222 0 .436.036.636.101V9.691a4.44 4.44 0 00-.643-.047c-2.189 0-4.13 1.707-4.268 3.915-.151 2.417 1.903 4.44 4.268 4.44 2.282 0 4.267-1.874 4.276-4.16l-.011-4.926a5.726 5.726 0 003.457 1.161V7.88h-.006z" fill="#fff"/><path fill-rule="evenodd" clip-rule="evenodd" d="M129.682 1.687c-1.687 1.687-1.687 4.402-1.687 9.833v.96c0 5.43 0 8.146 1.687 9.833C131.369 24 134.085 24 139.515 24h.96c5.431 0 8.146 0 9.833-1.687 1.687-1.687 1.687-4.402 1.687-9.833v-.96c0-5.43 0-8.146-1.687-9.833C148.621 0 145.906 0 140.475 0h-.96c-5.43 0-8.146 0-9.833 1.687z" fill="#07F"/><path d="M134.686 8.75c.293 3.428 2.089 5.134 3.787 5.523l.917.21V8.75h.756v3.24l.824-.08c.911-.09 1.769-.595 2.443-1.245a5.98 5.98 0 001.324-1.915h.721c-.539 1.222-1.597 2.148-2.403 2.575l-1.385.734 1.44.618c.817.35 2.037 1.175 2.775 2.573h-.87c-.723-1.529-2.176-2.684-4.05-2.855l-.819-.076v2.918c-1.99-.093-3.496-.769-4.539-1.877-1.007-1.07-1.647-2.614-1.815-4.61h.894z" fill="#fff" stroke="#fff" stroke-width="1.5"/><circle cx="171.995" cy="12" r="12" fill="#000"/><path d="M183.99 12.36a14.337 14.337 0 000-.72c-4.86-.06-7.593-.394-9.417-2.218-1.824-1.824-2.157-4.557-2.218-9.417a12.222 12.222 0 00-.72 0c-.061 4.86-.394 7.593-2.218 9.417-1.824 1.824-4.556 2.157-9.417 2.218a14.337 14.337 0 000 .72c4.861.06 7.593.394 9.417 2.218 1.824 1.824 2.157 4.557 2.218 9.417a12.348 12.348 0 00.72 0c.061-4.86.394-7.593 2.218-9.417 1.824-1.824 4.557-2.157 9.417-2.218z" fill="#fff"/><path d="M191.995 11.52c0-5.428 0-8.156 1.682-9.838C195.373 0 198.087 0 203.515 0h.961c5.427 0 8.155 0 9.837 1.682 1.682 1.682 1.682 4.41 1.682 9.837v.962c0 5.427 0 8.155-1.682 9.837C212.631 24 209.903 24 204.476 24h-.961c-5.428 0-8.156 0-9.838-1.682-1.682-1.682-1.682-4.396-1.682-9.837v-.962z" fill="#F70"/><path d="M203.995 12a3.742 3.742 0 002.65-1.1 3.74 3.74 0 000-5.3 3.742 3.742 0 00-5.3 0 3.74 3.74 0 000 5.3 3.763 3.763 0 002.65 1.1zm-1.2-4.963a1.69 1.69 0 011.2-.5c.475 0 .9.188 1.2.5a1.694 1.694 0 010 2.4c-.313.313-.738.5-1.2.5-.475 0-.9-.187-1.2-.5a1.69 1.69 0 01-.5-1.2c0-.462.2-.887.5-1.2z" fill="#fff"/><path d="M208.647 13.533l-1.014-1.46c-.058-.086-.173-.098-.242-.025-.957.864-2.132 1.425-3.4 1.425-1.267 0-2.443-.56-3.399-1.425a.172.172 0 00-.242.024l-1.014 1.461a.192.192 0 00.023.232 7.01 7.01 0 002.881 1.485l-2.143 3.994c-.058.11.023.256.138.256h2.097a.15.15 0 00.15-.11l1.498-3.531 1.498 3.53c.023.062.081.11.15.11h2.097c.127 0 .196-.133.138-.255l-2.143-3.994a6.868 6.868 0 002.881-1.485c.092-.061.103-.159.046-.232z" fill="#fff"/><path fill-rule="evenodd" clip-rule="evenodd" d="M230.995 0c-3.866 0-7 3.009-7 6.72v10.56c0 3.711 3.134 6.72 7 6.72h10c3.866 0 7-3.009 7-6.72V6.72c0-3.711-3.134-6.72-7-6.72h-10z" fill="#FC0017"/><path fill-rule="evenodd" clip-rule="evenodd" d="M241 12l-8-4v8l8-4z" fill="#fff"/><path d="M268.494 0c5.422 0 8.134 0 9.816 1.684 1.685 1.685 1.685 4.394 1.685 9.815V12.5c0 5.421 0 8.13-1.685 9.815C276.626 24 273.916 24 268.494 24h-1c-5.422 0-8.132 0-9.816-1.685-1.683-1.684-1.683-4.396-1.683-9.817v-1c0-5.42 0-8.131 1.685-9.814C259.362 0 262.074 0 267.496 0h1.001-.003z" fill="#07F"/><mask id="mask0_4273_82083" style="mask-type:alpha" maskUnits="userSpaceOnUse" x="255" y="-1" width="25" height="25"><path d="M268.495 0c5.422 0 8.134 0 9.816 1.684 1.685 1.685 1.685 4.394 1.685 9.815V12.5c0 5.421 0 8.13-1.685 9.815C276.626 24 273.917 24 268.495 24h-1.001c-5.421 0-8.131 0-9.816-1.685-1.682-1.684-1.682-4.396-1.682-9.817v-1.001c0-5.419 0-8.13 1.685-9.813C259.363 0 262.075 0 267.497 0h1.001-.003z" fill="#07F"/></mask><g mask="url(#mask0_4273_82083)"><path d="M262.278 32.886c4.252 1.122 6.557 1.583 8.406.532 2.058-1.166 2.75-3.749 4.134-8.912l1.727-6.488c1.383-5.161 2.075-7.745.876-9.783-1.077-1.835-3.302-2.588-7.546-3.74-4.251-1.124-6.557-1.585-8.405-.535-2.059 1.169-2.751 3.75-4.135 8.913l-1.727 6.488c-1.384 5.164-2.076 7.744-.877 9.785.131.224.28.432.448.626.484.562 1.125 1.012 1.961 1.415.581.28 3.954 1.377 5.138 1.699z" fill="#D256FF"/></g><path d="M264.384 11.356a3.431 3.431 0 012.552.353c.818.484 1.312 1.284 1.535 2.034a1.185 1.185 0 01-1.994 1.156c-.452-.473-.399-1.236-1.208-1.27-.439-.018-.924.28-1.06 1.053l-.032.212c-.268 2.176 1.328 3.806 3.061 4.11a3.737 3.737 0 004.14-2.359c.266-.708.332-1.503.28-2.254a1.186 1.186 0 012.365-.163 8.52 8.52 0 01-.128 2.158 6.105 6.105 0 01-7.067 4.955c-2.848-.501-5.623-3.279-4.955-7.07.245-1.396 1.173-2.571 2.511-2.915zm6.584-6.481a1.368 1.368 0 112.614.811 17.153 17.153 0 01-1.012 2.502 24.13 24.13 0 01-1.166 2.076c-.4.641-1.244.837-1.885.437a1.382 1.382 0 01-.437-1.886 22.05 22.05 0 001.02-1.812c.342-.686.638-1.394.866-2.128zm-4.549-2.219a1.383 1.383 0 011.303 1.43c-.02.432-.042.865-.072 1.297-.075 1.087-.251 2.163-.461 3.231a1.368 1.368 0 01-1.606 1.08c-.778-.154-1.214-.912-1.069-1.664.046-.235.089-.47.131-.705.079-.437.159-.922.194-1.224.072-.634.104-1.274.137-1.91.023-.433.097-.829.422-1.146a1.366 1.366 0 011.021-.389z" fill="#fff"/><path d="M299.995 24c6.643 0 12-5.357 12-12s-5.357-12-12-12-12 5.357-12 12 5.357 12 12 12z" fill="#FED42B"/><mask id="mask1_4273_82083" style="mask-type:luminance" maskUnits="userSpaceOnUse" x="287" y="0" width="25" height="24"><path d="M299.995 24c6.643 0 12-5.357 12-12s-5.357-12-12-12-12 5.357-12 12 5.357 12 12 12z" fill="#fff"/></mask><g mask="url(#mask1_4273_82083)"><path d="M294.103 6.536l-10.5 13.714 2.785 3.214 7.822-10.285-.75 5.678 4.393 1.5 5.25-8.571c-.215 1.607-.643 5.25 2.892 6.321 5.465 1.714 10.286-8.25 12.536-13.178l-3.214-1.715c-2.464 5.143-6.322 10.929-7.822 10.5-1.5-.428-.107-5.25.75-8.357l-4.821-1.607-5.786 9.429.75-5.143-4.285-1.5z" fill="#000"/></g><rect x="319.995" width="24" height="24" rx="8" fill="#FF4F64"/><path d="M325 13l10-8-2 6h6l-10 8 2-6h-6z" fill="#fff"/><rect x="351.995" width="24" height="24" rx="6" fill="#000"/><path d="M366.781 7H358v10h2.444v-3.253h4.683L367.263 17H370l-2.356-3.268c.732-.12 1.258-.405 1.58-.855.322-.45.483-1.17.483-2.129v-.75c0-.57-.058-1.019-.161-1.364a2.294 2.294 0 00-.526-.914 2.382 2.382 0 00-.908-.555c-.351-.105-.79-.165-1.331-.165zm-.396 4.543h-5.941v-2.34h5.941c.337 0 .571.06.688.166.117.105.19.3.19.585v.84c0 .299-.073.494-.19.599-.117.105-.351.15-.688.15z" fill="#fff"/><path d="M370.5 7a1.5 1.5 0 100-3 1.5 1.5 0 000 3z" fill="#F41240"/><g clip-path="url(#clip0_4273_82083)"><path fill-rule="evenodd" clip-rule="evenodd" d="M391.195 0a7.2 7.2 0 00-7.2 7.2v9.6a7.2 7.2 0 007.2 7.2h9.6a7.2 7.2 0 007.2-7.2V7.2a7.2 7.2 0 00-7.2-7.2h-9.6z" fill="#005BFF"/><path d="M394.196 7.8c2.106-.564 5.176-1.082 6.6-.6 1.443.488 2.825 2.35 3 3 .174.651-.795 2.456-1.8 3.6-.993 1.13-2.276 2.334-4.383 2.898-2.107.565-4.993.482-6.417 0-1.443-.488-2.826-1.647-3-2.298-.175-.65.056-2.456 1.062-3.6.992-1.13 2.831-2.435 4.938-3z" fill="#F50057"/><path d="M388.407 16.698l-.711 6.396a7.17 7.17 0 003.5.906h9.6a7.203 7.203 0 006.722-4.615l-2.96-6.29c-1.132 2.152-3.683 4.068-6.945 4.942-3.672.984-7.224.374-9.206-1.339z" fill="#F50057"/><path fill-rule="evenodd" clip-rule="evenodd" d="M405.843 9.39c-.971-3.586-6.165-5.325-11.601-3.883-5.436 1.441-9.056 5.517-8.085 9.103.971 3.586 6.165 5.325 11.601 3.883 5.436-1.441 9.056-5.517 8.085-9.103zm-16.405 4.35c-.443-1.634 1.869-4.207 5.624-5.203 3.756-.996 7.057.087 7.5 1.723.443 1.636-1.869 4.207-5.624 5.203-3.756.996-7.058-.089-7.5-1.723z" fill="#fff"/></g><rect x="415.995" width="24" height="24" rx="7.199" fill="#BC0DA3"/><path d="M418.995 8l2.178 8h1.649l1.736-5.967 1.752 5.966h1.663L430.151 8h-1.428l-1.677 6.171L425.25 8h-1.339l-1.796 6.142L420.437 8h-1.442z" fill="#fff"/><path fill-rule="evenodd" clip-rule="evenodd" d="M436.288 15.341c.456-.41.721-1.009.707-1.623a2.05 2.05 0 00-1.134-1.872c.53-.366.854-.98.824-1.623a2.025 2.025 0 00-.691-1.58 2.507 2.507 0 00-1.693-.628h-3.238v7.984h3.488a2.455 2.455 0 001.737-.658zm-3.885-3.992V9.243h1.898a1.052 1.052 0 110 2.106h-1.898zm3.223 2.252a1.115 1.115 0 01-1.075 1.155l-2.148.015v-2.238h2.148c.574.015 1.06.483 1.075 1.068z" fill="#fff"/><path fill-rule="evenodd" clip-rule="evenodd" d="M471.995 12c0 6.627-5.372 12-12 12-6.627 0-12-5.373-12-12s5.373-12 12-12c6.628 0 12 5.373 12 12zm-10.364 7.014h2.372v-.004h-.016V4.986h-3.428c-3.443 0-5.261 1.834-5.261 4.532 0 2.158.998 3.437 2.773 4.747l-3.086 4.747h2.55l3.429-5.317-1.193-.832c-1.448-1-2.148-1.787-2.148-3.482 0-1.495 1.015-2.496 2.952-2.496h1.056v12.13z" fill="#FC3F1D"/><path fill-rule="evenodd" clip-rule="evenodd" d="M461.632 19.014h2.372v-.004h-.016V4.986h-3.429c-3.442 0-5.261 1.834-5.261 4.531 0 2.159.999 3.438 2.773 4.748l-3.086 4.747h2.551l3.428-5.317-1.193-.832c-1.447-1-2.147-1.787-2.147-3.482 0-1.495 1.014-2.496 2.951-2.496h1.057v12.13z" fill="#fff"/><path d="M503.995 12.03c0 4.126-1.929 6.058-4.356 6.058a3.928 3.928 0 01-3.332-1.844c-1.111 1.112-2.602 1.814-4.297 1.814a6.017 6.017 0 01-6.022-6.029A6.017 6.017 0 01492.01 6a6.017 6.017 0 016.022 6.03v1.96c0 .995.701 1.698 1.607 1.698 1.082 0 1.959-.908 1.959-3.659 0-5.297-4.297-9.6-9.588-9.6-5.291 0-9.618 4.303-9.618 9.6 0 5.298 4.297 9.6 9.589 9.6 3.069 0 5.174-1.522 5.174-1.522l1.578 1.815S496.044 24 491.981 24c-6.607 0-11.986-5.385-11.986-12s5.379-12 11.986-12c6.635.03 12.014 5.415 12.014 12.03zm-11.985 3.658a3.658 3.658 0 003.654-3.659 3.658 3.658 0 00-3.654-3.658 3.658 3.658 0 00-3.654 3.658 3.658 3.658 0 003.654 3.659z" fill="#FD9C24"/><circle cx="523.97" cy="11.999" r="11.999" fill="#E60019"/><path d="M520.429 23.467a12.003 12.003 0 01-.839-.293c-.106-.951-.191-2.434.041-3.45.217-.938 1.402-5.963 1.402-5.963s-.356-.72-.356-1.777c0-1.668.968-2.912 2.172-2.912 1.027 0 1.52.77 1.52 1.688 0 .661-.27 1.535-.554 2.456-.158.51-.32 1.032-.443 1.542-.286 1.195.603 2.172 1.777 2.172 2.133 0 3.771-2.251 3.771-5.489 0-2.872-2.063-4.876-5.015-4.876-3.415 0-5.419 2.556-5.419 5.202 0 1.027.395 2.132.888 2.734a.356.356 0 01.079.346 93.9 93.9 0 01-.22.894 36.47 36.47 0 00-.115.468c-.05.217-.178.267-.405.158-1.481-.71-2.409-2.902-2.409-4.66 0-3.78 2.745-7.255 7.927-7.255 4.156 0 7.394 2.962 7.394 6.93 0 4.136-2.606 7.463-6.219 7.463-1.214 0-2.359-.632-2.744-1.382l-.751 2.853c-.26 1.021-.989 2.345-1.482 3.15z" fill="#fff"/><circle cx="555.968" cy="11.999" r="11.999" fill="#1F7AEF"/><path d="M557.842 23.852v-8.29h2.796l.531-3.49h-3.327V9.807c0-.955.465-1.886 1.955-1.886h1.514v-2.97s-1.374-.237-2.686-.237c-2.741 0-4.533 1.673-4.533 4.698v2.66h-3.047v3.49h3.047v8.29a12.097 12.097 0 003.75 0z" fill="#fff"/><path d="M575.995 6a6 6 0 016-6h12a6 6 0 016 6v12a6 6 0 01-6 6h-12a6 6 0 01-6-6V6z" fill="#000"/><path d="M592.058 5.999h2.147l-4.69 5.083L595.033 18h-4.321l-3.384-4.196L583.456 18h-2.148l5.017-5.438L581.031 6h4.43l3.059 3.835L592.058 6zm-.753 10.782h1.189l-7.679-9.628h-1.277l7.767 9.628z" fill="#fff"/><path d="M630.112 16.963c-1.091-.536-4.192-2.52-3.575-4.17.16-.428.674-.748 1.403-1.262.9-.641 1.026-1.836.432-2.414-.282-.275-.725-.41-1.324-.283-.111.025-.994.291-.993.283.088-2.102.051-4.242-1.395-5.929-1.145-1.335-2.933-1.988-4.663-1.988-1.727 0-3.52.654-4.663 1.988-1.447 1.689-1.481 3.826-1.395 5.929 0 .025-.886-.258-.995-.283-.601-.13-1.045.007-1.326.283-.59.58-.463 1.775.434 2.414.719.518 1.234.837 1.398 1.263.633 1.644-2.486 3.636-3.571 4.169-.835.425-.935 1.31 0 1.733.712.323 1.754.436 2.072.854.262.344.114.79.536 1.086.805.561 2.217.24 3.147.554 1.556.52 2.56 1.61 4.356 1.61 1.796 0 2.803-1.088 4.358-1.608.927-.312 2.348.01 3.148-.553.42-.296.273-.746.536-1.084.317-.409 1.364-.522 2.08-.845.943-.425.841-1.32 0-1.747z" fill="#FFFC00"/><path fill-rule="evenodd" clip-rule="evenodd" d="M617.183 23.261c.746.375 1.641.736 2.804.737.998 0 1.934-.293 2.818-.737.639-.32 1.252-.705 1.934-.934.26-.087.601-.086 1.3-.121.539-.027 1.436-.081 2.156-.587.445-.313.69-.767.818-1.283.527-.2 1.086-.301 1.603-.534.775-.349 1.413-1.054 1.375-2.013-.034-.893-.646-1.553-1.324-1.897l-.007-.004-.008-.004a10.239 10.239 0 01-2.145-1.472c-.283-.261-.841-.733-.842-1.172.276-.295.647-.498.976-.73l.004-.003c1.351-.96 1.837-3.021.574-4.25-.517-.504-1.203-.712-1.93-.665-.036-1.724-.354-3.603-1.71-5.185C624.159.752 622.006 0 620.002 0h-.001c-2.085 0-4.216.803-5.592 2.407-1.356 1.582-1.674 3.46-1.71 5.185-.727-.047-1.413.161-1.93.664-1.263 1.23-.777 3.29.574 4.251l.004.003c.329.232.7.435.976.73-.001.44-.559.91-.842 1.172a10.239 10.239 0 01-2.145 1.472l-.008.004-.007.004c-.678.345-1.29 1.004-1.324 1.897-.038.959.6 1.664 1.375 2.013.517.233 1.076.333 1.603.534.128.516.373.97.818 1.283.72.506 1.617.56 2.156.587.699.035 1.04.034 1.3.121.682.228 1.295.613 1.934.934zm2.818-1.663c1.441-.002 2.651-1.104 3.974-1.546.569-.19 1.258-.216 1.723-.234.33-.012.678-.01.996-.109.159-.662.57-1.205 1.19-1.499.396-.188.823-.296 1.242-.42-.641-.363-1.509-.935-2.246-1.614-.468-.43-.944-.96-1.255-1.56-.317-.61-.517-1.408-.204-2.244.192-.513.558-.864.848-1.104.229-.189.515-.388.786-.578.23-.16.558-.375.485-.702-.822-.102-1.581.747-2.34-.038a1.197 1.197 0 01-.336-.891c.088-2.119-.001-3.8-1.108-5.09-.871-1.015-2.295-1.57-3.754-1.57h-.001c-1.39 0-2.845.493-3.769 1.57-1.107 1.29-1.196 2.971-1.108 5.09.085 1.764-1.752.814-2.676.929-.07.315.266.55.485.703.271.19.557.388.786.577.29.24.656.591.848 1.104.313.836.113 1.634-.204 2.244-.311.6-.787 1.13-1.255 1.56-.737.68-1.605 1.251-2.246 1.614.418.124.846.232 1.242.42.627.298 1.031.834 1.19 1.5.317.098.664.096.994.108h.001c.465.018 1.155.043 1.724.234 1.328.444 2.541 1.546 3.988 1.546z" fill="#000"/><path fill-rule="evenodd" clip-rule="evenodd" d="M650.905.018a33.03 33.03 0 018.762.88c1.811.403 3.412 1.612 3.84 3.504.647 3.05.651 8.267.01 11.318-.411 1.891-2.004 3.146-3.824 3.54a.583.583 0 00-.487.569c-.002 1.313.001 2.625-.001 3.938.022.22-.299.297-.451.175-1.336-1.064-2.495-2.347-3.835-3.417-.328-.283-.886-.535-1.33-.506-3.34.17-6.6-.057-9.827-.892-1.618-.457-2.919-1.78-3.273-3.342-.657-3.073-.659-8.317-.003-11.39.351-1.593 1.694-2.938 3.349-3.375a32.771 32.771 0 017.07-1.002z" fill="#DA3545"/><path fill-rule="evenodd" clip-rule="evenodd" d="M647.495 5.007a.58.58 0 00-.494.58c-.001.693-.002 1.387 0 2.08-.002.305.279.57.582.568.671.002 1.347 0 2.017 0 .325.014.652.218.634.595l.001 5.562a.595.595 0 00.599.606c.771.002 1.542.001 2.313 0a.595.595 0 00.618-.612v-5.56c-.015-.318.274-.599.589-.59.678-.003 1.357.002 2.036 0 .308.016.603-.242.608-.554.004-.7.002-1.401.001-2.102.013-.322-.291-.597-.606-.58-1.233.003-2.466.002-3.699.002a1066.26 1066.26 0 00-5.199.005z" fill="#fff"/><circle cx="683.995" cy="12" r="12" fill="#007AB9"/><path d="M685.278 10.508v.029h-.019l.01-.015.009-.014z" fill="#fff"/><path fill-rule="evenodd" clip-rule="evenodd" d="M691.165 17.913v-4.947c0-2.65-1.415-3.883-3.302-3.883-1.524 0-2.204.839-2.585 1.425V9.287h-2.869c.039.81 0 8.627 0 8.627h2.869v-4.818c0-.259.019-.515.095-.7.208-.515.678-1.048 1.471-1.048 1.038 0 1.453.791 1.453 1.95v4.616h2.868zm-13.38-11.295c0-.846.642-1.49 1.623-1.49.982 0 1.585.644 1.604 1.49 0 .828-.622 1.49-1.623 1.49h-.018c-.963 0-1.586-.662-1.586-1.49zm3.038 11.295h-2.867V9.286h2.867v8.627z" fill="#fff"/><rect x="703.995" width="24" height="24" rx="7.199" fill="url(#paint0_linear_4273_82083)"/><path fill-rule="evenodd" clip-rule="evenodd" d="M716 8.5a3.5 3.5 0 110 7 3.5 3.5 0 010-7zm0 1.75a1.75 1.75 0 110 3.5 1.75 1.75 0 010-3.5z" fill="#fff"/><path fill-rule="evenodd" clip-rule="evenodd" d="M713.667 5A4.667 4.667 0 00709 9.667v4.666A4.667 4.667 0 00713.667 19h4.666A4.667 4.667 0 00723 14.333V9.667A4.667 4.667 0 00718.333 5h-4.666zm4.666 1.75h-4.666a2.917 2.917 0 00-2.917 2.917v4.666a2.917 2.917 0 002.917 2.917h4.666a2.917 2.917 0 002.917-2.917V9.667c0-.725-.264-1.387-.701-1.897a.875.875 0 11-.319-.319 2.904 2.904 0 00-1.897-.701z" fill="#fff"/><path d="M753.395 24a6.6 6.6 0 100-13.2 6.6 6.6 0 000 13.2z" fill="#97CF26"/><path d="M741.396 20.4a3 3 0 10-.001-6.001 3 3 0 00.001 6.001z" fill="#A169F7"/><path d="M753.996 8.4a3.6 3.6 0 100-7.2 3.6 3.6 0 000 7.2z" fill="#FF6163"/><path d="M741.395 10.8a5.4 5.4 0 100-10.8 5.4 5.4 0 000 10.8z" fill="#0AF"/><path d="M791.485 12.27c0-.79-.07-1.54-.19-2.27h-11.3v4.51h6.47c-.29 1.48-1.14 2.73-2.4 3.58v3h3.86c2.26-2.09 3.56-5.17 3.56-8.82z" fill="#4285F4"/><path d="M779.995 24c3.24 0 5.95-1.08 7.93-2.91l-3.86-3c-1.08.72-2.45 1.16-4.07 1.16-3.13 0-5.78-2.11-6.73-4.96h-3.98v3.09c1.97 3.92 6.02 6.62 10.71 6.62z" fill="#34A853"/><path d="M773.265 14.29c-.25-.72-.38-1.49-.38-2.29s.14-1.57.38-2.29V6.62h-3.98a11.861 11.861 0 000 10.76l3.98-3.09z" fill="#FBBC05"/><path d="M779.995 4.75c1.77 0 3.35.61 4.6 1.8l3.42-3.42c-2.07-1.94-4.78-3.13-8.02-3.13-4.69 0-8.74 2.7-10.71 6.62l3.98 3.09c.95-2.85 3.6-4.96 6.73-4.96z" fill="#EA4335"/><g clip-path="url(#clip1_4273_82083)"><path d="M812.684 1.535a11.16 11.16 0 00-4.438.917L805.791 0h-.005a11.218 11.218 0 00-5.791 5.824l2.459 2.457-.001.002c-.594 1.363-.947 2.848-.947 4.43 0 6.177 5.004 11.18 11.178 11.18 6.172 0 11.178-5.005 11.178-11.18 0-6.172-5.005-11.178-11.178-11.178z" fill="#00B0EA"/><path d="M811.545 17.357a11.218 11.218 0 015.791-5.825h.001l-9.089-9.075-.004-.001a11.21 11.21 0 00-5.791 5.826l9.092 9.075zm6.441-2.725a6.524 6.524 0 00-3.364 3.383l4.245.878-.881-4.261z" fill="#15374C"/><path d="M817.986 14.633l-.649-3.1h-.003a11.222 11.222 0 00-5.79 5.825l3.078.657a6.558 6.558 0 013.364-3.382z" fill="#fff"/></g><rect x="831.995" width="23.998" height="23.998" rx="8" fill="#38B7EB"/><path fill-rule="evenodd" clip-rule="evenodd" d="M842.258 4c1.614 0 3.013.889 3.698 2.187a3 3 0 014.034 3.066 4.502 4.502 0 01-.991 8.72v.025h-.372a4.482 4.482 0 01-.254 0h-8.04v-.002a5.217 5.217 0 01-.148.002C837.321 17.998 835 15.76 835 13c0-2.058 1.289-3.825 3.132-4.592A3.917 3.917 0 01838.11 8c0-2.21 1.857-4 4.148-4z" fill="#fff"/><circle cx="844" cy="12" r="4" fill="#5FD634"/><path d="M844 10v2h2" stroke="#fff" stroke-width="1.2" stroke-linecap="round" stroke-linejoin="round"/><g clip-path="url(#clip2_4273_82083)"><rect x="863.995" width="24" height="24" rx="8" fill="#4B92FB"/><path d="M879.715 9.728l2.187-1.592c.434-.316 1.093-.046 1.093.448v6.832c0 .494-.659.764-1.093.448l-2.187-1.593c-.456-.332-.72-.823-.72-1.342v-1.858c0-.519.264-1.01.72-1.343zM869.789 8c-.438 0-.794.384-.794.857v4.857c0 1.263.948 2.286 2.118 2.286h6.088c.439 0 .794-.384.794-.857v-4.857c0-1.263-.948-2.286-2.118-2.286h-6.088z" fill="#fff"/></g><path fill-rule="evenodd" clip-rule="evenodd" d="M905.883.787a11.481 11.481 0 012.112-.195c6.301 0 11.408 5.108 11.408 11.408 0 .72-.066 1.423-.194 2.105a6.735 6.735 0 01-9.109 9.109c-.682.127-1.386.194-2.105.194-6.3 0-11.408-5.108-11.408-11.408 0-.722.067-1.428.195-2.112a6.728 6.728 0 019.101-9.101z" fill="#00AFF0"/><path fill-rule="evenodd" clip-rule="evenodd" d="M903 14.862c0 1.344 1.559 3.138 5.043 3.138 3.315 0 4.957-1.673 4.957-3.914 0-1.447-.637-2.983-3.149-3.57l-2.294-.533c-.872-.208-1.877-.483-1.877-1.344 0-.864.705-1.467 1.976-1.467 1.504 0 2.045.635 2.492 1.16.315.37.584.685 1.11.685.669 0 1.256-.412 1.256-1.121 0-1.655-2.529-2.896-4.673-2.896-2.329 0-4.808 1.035-4.808 3.793 0 1.328.453 2.74 2.949 3.396l3.099.81c.937.243 1.172.795 1.172 1.293 0 .83-.786 1.639-2.21 1.639-1.606 0-2.157-.747-2.622-1.379-.34-.462-.635-.863-1.265-.863-.67 0-1.156.483-1.156 1.173z" fill="#fff"/><rect x="927.995" width="24" height="24" rx="8" fill="#0D64FA"/><path fill-rule="evenodd" clip-rule="evenodd" d="M932.795 8.723L937.038 6l2.957 2.437-4.262 2.61-2.938-2.324zm14.4 0L942.952 6l-2.957 2.437 4.262 2.61 2.938-2.324zm-7.2 4.418l4.262-2.094 2.938 1.808-4.224 2.724-2.976-2.438zm0 0l-4.262-2.094-2.938 1.808 4.224 2.724 2.976-2.438zm-4.224 2.65v.895l4.224 2.514 4.243-2.495v-.899l-1.248.781-2.995-2.438-2.976 2.438-1.248-.797z" fill="#fff"/><rect x="959.995" width="24" height="24" rx="8" fill="#0C63D2"/><path fill-rule="evenodd" clip-rule="evenodd" d="M971.995 18a4.844 4.844 0 01-3.394-1.38 4.673 4.673 0 01-1.406-3.334V5.743c0-.25.101-.49.281-.667a.97.97 0 011.358 0c.18.177.281.417.281.667v3.792a4.837 4.837 0 012.063-.88 4.877 4.877 0 012.245.141c.726.221 1.388.61 1.932 1.132a4.7 4.7 0 011.193 1.872 4.635 4.635 0 01-.659 4.247 4.773 4.773 0 01-1.707 1.438 4.863 4.863 0 01-2.187.515zm0-7.543c-.57 0-1.127.166-1.6.477a2.83 2.83 0 00-1.061 1.27 2.782 2.782 0 00-.164 1.633c.111.55.386 1.053.788 1.449a2.9 2.9 0 001.475.774 2.93 2.93 0 001.664-.161 2.867 2.867 0 001.292-1.042 2.796 2.796 0 00.485-1.571c0-.75-.303-1.47-.843-2a2.907 2.907 0 00-2.036-.829z" fill="#fff"/><g clip-path="url(#clip3_4273_82083)"><path d="M1001.88.56l-.12.074c-.19.118-.38.25-.55.394l.35-.25h2.98l.54 4.131-2.7 2.727-2.705 1.896v2.186c0 1.527.795 2.942 2.085 3.733l2.84 1.738-6.005 3.538h-1.158l-2.159-1.32a4.373 4.373 0 01-2.083-3.732V8.323c0-1.527.791-2.943 2.084-3.734L1001.76.63c.04-.025.08-.048.12-.071z" fill="url(#paint1_radial_4273_82083)"/><path d="M1001.88.56l-.12.074c-.19.118-.38.25-.55.394l.35-.25h2.98l.54 4.131-2.7 2.727-2.705 1.896v2.186c0 1.527.795 2.942 2.085 3.733l2.84 1.738-6.005 3.538h-1.158l-2.159-1.32a4.373 4.373 0 01-2.083-3.732V8.323c0-1.527.791-2.943 2.084-3.734L1001.76.63c.04-.025.08-.048.12-.071z" fill="url(#paint2_linear_4273_82083)"/><path d="M1008.32 9.273v2.444c0 1.526-.79 2.942-2.09 3.733l-6.477 3.962a4.283 4.283 0 01-4.324.087l6.331 3.87c1.37.841 3.1.841 4.47 0l6.48-3.962a4.364 4.364 0 002.09-3.733V13.91l-.54-.818-5.94-3.818z" fill="url(#paint3_radial_4273_82083)"/><path d="M1008.32 9.273v2.444c0 1.526-.79 2.942-2.09 3.733l-6.477 3.962a4.283 4.283 0 01-4.324.087l6.331 3.87c1.37.841 3.1.841 4.47 0l6.48-3.962a4.364 4.364 0 002.09-3.733V13.91l-.54-.818-5.94-3.818z" fill="url(#paint4_linear_4273_82083)"/><path d="M1012.71 4.59l-6.48-3.959a4.277 4.277 0 00-4.34-.076l-.13.08a4.382 4.382 0 00-2.085 3.733V9.54l2.085-1.274a4.28 4.28 0 014.47 0l6.48 3.96a4.383 4.383 0 012.08 3.59V8.325c0-1.527-.79-2.943-2.08-3.734z" fill="url(#paint5_radial_4273_82083)"/><path d="M1012.71 4.59l-6.48-3.959a4.277 4.277 0 00-4.34-.076l-.13.08a4.382 4.382 0 00-2.085 3.733V9.54l2.085-1.274a4.28 4.28 0 014.47 0l6.48 3.96a4.383 4.383 0 012.08 3.59V8.325c0-1.527-.79-2.943-2.08-3.734z" fill="url(#paint6_linear_4273_82083)"/></g><g clip-path="url(#clip4_4273_82083)"><rect x="1024" width="24" height="24" rx="7" fill="#000"/><path d="M1040.02 11.969c.02 2.27 1.96 3.025 1.98 3.035-.02.053-.31 1.077-1.02 2.133-.61.914-1.25 1.825-2.26 1.843-.98.019-1.3-.595-2.43-.595-1.13 0-1.48.577-2.41.614-.97.037-1.71-.988-2.33-1.898-1.27-1.863-2.23-5.263-.93-7.558.64-1.14 1.79-1.862 3.05-1.88.95-.019 1.85.652 2.43.652.58 0 1.67-.806 2.82-.688.48.02 1.83.198 2.69 1.488-.07.044-1.6.956-1.59 2.854m-1.85-5.574c.51-.634.86-1.517.76-2.395-.74.03-1.63.503-2.17 1.137-.47.561-.89 1.46-.78 2.32.83.065 1.67-.428 2.19-1.062" fill="#fff"/></g><g clip-path="url(#clip5_4273_82083)"><rect x="1056" width="23.998" height="23.998" rx="7.199" fill="#FD9C24"/><path d="M1077 12.022c0 3.095-1.45 4.544-3.27 4.544-1.05 0-1.97-.549-2.5-1.383-.83.834-1.95 1.36-3.22 1.36-2.5 0-4.52-2.019-4.52-4.521a4.515 4.515 0 014.52-4.522c2.5 0 4.52 2.02 4.52 4.522v1.47c0 .747.52 1.274 1.2 1.274.81 0 1.47-.68 1.47-2.744 0-3.973-3.22-7.2-7.19-7.2s-7.21 3.227-7.21 7.2c0 3.973 3.22 7.2 7.19 7.2 2.3 0 3.88-1.142 3.88-1.142l1.18 1.362S1071.04 21 1067.99 21c-4.96 0-8.99-4.039-8.99-9s4.03-9 8.99-9c4.98.022 9.01 4.061 9.01 9.022zm-8.99 2.744a2.745 2.745 0 000-5.488 2.745 2.745 0 000 5.488z" fill="#FD9C24"/><path d="M1077 12.022c0 3.095-1.45 4.544-3.27 4.544-1.05 0-1.97-.549-2.5-1.383-.83.834-1.95 1.36-3.22 1.36-2.5 0-4.52-2.019-4.52-4.521a4.515 4.515 0 014.52-4.522c2.5 0 4.52 2.02 4.52 4.522v1.47c0 .747.52 1.274 1.2 1.274.81 0 1.47-.68 1.47-2.744 0-3.973-3.22-7.2-7.19-7.2s-7.21 3.227-7.21 7.2c0 3.973 3.22 7.2 7.19 7.2 2.3 0 3.88-1.142 3.88-1.142l1.18 1.362S1071.04 21 1067.99 21c-4.96 0-8.99-4.039-8.99-9s4.03-9 8.99-9c4.98.022 9.01 4.061 9.01 9.022zm-8.99 2.744a2.745 2.745 0 000-5.488 2.745 2.745 0 000 5.488z" fill="#fff"/></g><g clip-path="url(#clip6_4273_82083)"><path d="M1098.8 22.8V3.316l3.6-2.116v19.908l-3.6 1.692z" fill="#F07E2A"/><path d="M1097.6 7.2v2.708s-5.73.488-6.1 5.202c0 0-.81 4.115 6.1 5.415V22.8s-9.7-1.081-9.6-7.8c0 0-.1-6.825 9.6-7.8zm6 0v2.375s1.92-.026 3.52 1.286l-1.76.709 6.64 1.63V8.115l-2.27 1.257s-1.93-1.993-6.13-2.172z" fill="#AEAFB3"/></g><g clip-path="url(#clip7_4273_82083)"><rect x="1120" width="23.998" height="23.998" rx="4.8" fill="#3398DC"/><path d="M1128.39 6H1126v11.998h7.19v-2.4h-4.8V6zm7.2 0h2.4v11.998h-2.4V6z" fill="#fff"/></g><g clip-path="url(#clip8_4273_82083)"><rect x="1152" width="24" height="24" rx="4.8" fill="#FF4500"/><path fill-rule="evenodd" clip-rule="evenodd" d="M1169.96 11.41l-.1-.228-.18-.143c-.22-.185-1.14.013-1.44-.282-.22-.331-.33-.72-.32-1.115a3.243 3.243 0 00-.35-1.397 4.2 4.2 0 00-1.24-1.468 4.185 4.185 0 00-1.75-.778h-2.71a3.976 3.976 0 00-2.78 1.258c-.73.772-1.12 1.8-1.09 2.86v3.773a3.981 3.981 0 001.09 2.855 4.01 4.01 0 002.78 1.253h4.45c2.13 0 3.64-1.85 3.65-4.108l.02-2.298-.03-.183zm-8.43-2.64h3.06c.22.034.41.145.56.313.14.168.22.38.22.602 0 .22-.08.433-.22.601a.938.938 0 01-.56.313h-3.06a.91.91 0 01-.56-.313.942.942 0 01-.22-.601c0-.221.08-.434.22-.602a.91.91 0 01.56-.313zm4.94 6.467h-4.95a.921.921 0 01-.53-.333.926.926 0 01-.21-.595c0-.217.07-.427.21-.596a.921.921 0 01.53-.332h4.95a.96.96 0 01.74.928.96.96 0 01-.74.928z" fill="#fff"/></g><circle cx="9.599" cy="9.599" transform="matrix(-1 0 0 1 1203.2 4.8)" fill="#3AE7BC" r="9.599"/><circle cx="7.799" cy="7.799" transform="matrix(-1 0 0 1 1208 .001)" fill="#FF7188" r="7.799"/><path fill-rule="evenodd" clip-rule="evenodd" d="M1200.2 15.6a7.798 7.798 0 01-7.21-10.78c.2-.013.4-.02.61-.02 5.3 0 9.6 4.298 9.6 9.6 0 .205-.01.408-.02.61-.92.38-1.93.59-2.98.59z" fill="#2E57DB"/><g clip-path="url(#clip9_4273_82083)"><path d="M1228.01 23.976c6.53.096 11.9-5.273 12-11.988-.11-6.727-5.48-12.096-12-12-6.54-.096-11.91 5.273-12 12 .09 6.715 5.46 12.084 12 11.988z" fill="#FFC800"/><path d="M1233.16 20.925c-4.07 2.354-8.49 2.775-11.31 1.37a11.971 11.971 0 0012.14.083c3.74-2.114 6.04-6.174 5.99-10.57-.16 3.147-2.75 6.763-6.82 9.117zM1229.52.877c.83 1.43-1.16 4.132-4.46 6.03-3.29 1.898-6.61 2.282-7.44.853a2.085 2.085 0 01-.1-.216c-.15-.877.09-1.766.66-2.439.1-.144.21-.276.31-.42.97-1.25 2.17-2.294 3.52-3.075 1.36-.805 2.86-1.31 4.41-1.514.18-.024.35-.048.52-.06.86-.156 1.75.072 2.44.649.05.06.11.12.14.192z" fill="#000"/><path d="M1234.63 2.414c1.44 2.499-1.47 6.871-6.5 9.778s-10.28 3.231-11.71.733c-.24-.42-.38-.889-.4-1.382a11.93 11.93 0 00.9 5.01c.1.24.21.48.33.72l.01.036c.45.757 1.1 1.37 1.87 1.766 2.82 1.514 7.59.997 12.06-1.585 4.46-2.571 7.29-6.451 7.4-9.646a4.533 4.533 0 00-.59-2.499c-.17-.24-.33-.48-.51-.708a11.907 11.907 0 00-3.85-3.232c.41.253.75.601.99 1.01z" fill="#000"/><path d="M1228.01 23.976c6.53.096 11.9-5.273 12-11.988-.11-6.727-5.48-12.096-12-12-6.54-.096-11.91 5.273-12 12 .09 6.715 5.46 12.084 12 11.988z" fill="url(#paint7_radial_4273_82083)"/></g><path d="M1257.7 9.894a1.51 1.51 0 01-1.07-.44 1.39 1.39 0 01-.32-.486 1.425 1.425 0 010-1.149c.07-.182.18-.347.32-.487s.31-.25.49-.325a1.51 1.51 0 011.64.325 1.502 1.502 0 01-1.06 2.562zM1260 0c-6.63 0-12 5.372-12 12 0 5.75 4.04 10.557 9.44 11.727V12.96h.01c0-.25.1-.488.28-.666a.968.968 0 01.66-.293h1.51c.04 0 .07-.013.09-.037a.107.107 0 00.04-.089l.01-11.871m8.23 18.543c-.3 0-.59-.088-.84-.253a1.515 1.515 0 01-.55-.673 1.603 1.603 0 01-.09-.867c.06-.29.21-.558.42-.768.2-.21.47-.352.76-.41a1.488 1.488 0 011.54.637c.17.246.26.536.26.833a1.506 1.506 0 01-1.5 1.501zm-3.52 0c-.2 0-.39-.04-.57-.115a1.441 1.441 0 01-.49-.325 1.58 1.58 0 01-.33-.487 1.606 1.606 0 01-.11-.574c0-.197.04-.392.12-.574.07-.182.18-.348.32-.487s.31-.25.49-.325a1.498 1.498 0 011.63.327c.14.14.25.305.33.487.07.182.11.377.11.574 0 .197-.04.392-.11.574-.08.182-.19.347-.33.486-.14.14-.3.25-.49.325-.18.075-.37.114-.57.114zm-3.52 0c-.4 0-.78-.159-1.06-.44a1.507 1.507 0 01-.44-1.061 1.506 1.506 0 011.5-1.501 1.506 1.506 0 011.5 1.501 1.506 1.506 0 01-1.5 1.501zm.25-18.455V12.47l-.01.004a.94.94 0 01-.29.685.966.966 0 01-.68.282h-1.48c-.08 0-.13.06-.13.133v10.374c.36.034.73.052 1.11.052 6.62 0 12-5.373 12-12 0-6.126-4.59-11.18-10.52-11.91" fill="#00985F"/><path d="M1301.6 0h-19.2c-1.33 0-2.4 1.074-2.4 2.4v19.2c0 1.326 1.07 2.4 2.4 2.4h19.2c1.32 0 2.4-1.074 2.4-2.4V2.4c0-1.326-1.08-2.4-2.4-2.4z" fill="#E40523"/><path d="M1288.33 2.4l-1.92 3.985-1.92-3.985h-2.09v6.024h1.46v-4.31l1.88 3.64h1.34l1.87-3.64v4.31h1.48V2.4h-2.1zm6.73 0v1.199h2.62v4.815h1.46l.01-4.815h2.62V2.4h-6.71zm5.12 17.17a.999.999 0 01-.28.567c-.14.136-.33.231-.57.287-.23.054-.58.087-.94.087-.37 0-.71-.048-.99-.146a1.18 1.18 0 01-.64-.484c-.16-.228-.23-.56-.23-.982v-.597c0-.424.07-.754.23-.982.15-.229.36-.389.64-.484.28-.095.61-.145.99-.145s.71.03.94.086c.24.053.43.151.57.288.15.145.24.335.28.566h1.42c-.04-.48-.2-.89-.49-1.216-.26-.3-.62-.52-1.06-.653-.44-.13-1.01-.2-1.66-.2-.68 0-1.27.099-1.76.292-.49.196-.87.522-1.13.97-.25.43-.38 1.003-.39 1.707v.065l.08.003-.08.003v.065c.01.704.14 1.277.39 1.707.26.448.65.775 1.13.97.49.193 1.08.291 1.76.291.68 0 1.22-.068 1.66-.199.44-.133.8-.353 1.06-.652.29-.327.45-.736.49-1.217l-1.42.003z" fill="#fff"/><path d="M1330 0h-12c-3.32 0-6 2.686-6 6v12c0 3.314 2.68 6 6 6h12c3.31 0 6-2.686 6-6V6c0-3.314-2.69-6-6-6z" fill="#000"/><path d="M1317 8h-3v3h3V8z" fill="#FF3495"/><path d="M1320.53 15.298v-4.534h2.52V8.06h-2.52V5H1318v8.808c0 2.311 1.76 4.192 3.93 4.192h2.07v-2.702h-3.47zM1332 15h-7v3h7v-3zm0-4c0-2.206-1.79-4-4-4s-4 1.794-4 4h2.56c0-.795.65-1.442 1.44-1.442.79 0 1.44.647 1.44 1.442 0 .794-.65 1.441-1.44 1.441h-3V15h1.98l1.23-.006A4.006 4.006 0 001332 11z" fill="#fff"/><g clip-path="url(#clip10_4273_82083)"><path d="M1356 24c6.62 0 12-5.372 12-12s-5.38-12-12-12c-6.63 0-12 5.372-12 12s5.37 12 12 12z" fill="#D6001C"/><path d="M1350.82 6.584v4.082c.62-.74 1.37-1.114 2.23-1.114.45 0 .85.085 1.2.254.36.167.63.383.81.644.18.263.31.552.37.87.07.316.1.809.1 1.476v4.365h-1.93V13.23c0-.78-.04-1.274-.11-1.484a.93.93 0 00-.39-.5c-.18-.126-.41-.188-.69-.188-.32 0-.61.08-.86.24-.25.16-.44.399-.55.718-.12.32-.18.793-.18 1.418v3.727h-1.93V6.584h1.93m7.6 0v4.082c.63-.74 1.37-1.114 2.23-1.114.45 0 .85.085 1.21.254.35.167.62.383.8.644.18.261.31.557.37.87.07.316.1.809.1 1.476v4.365h-1.93V13.23c0-.78-.03-1.274-.11-1.484a.91.91 0 00-.38-.5c-.19-.126-.42-.188-.7-.188-.32 0-.61.08-.86.24-.25.16-.43.399-.55.718-.12.32-.18.793-.18 1.418v3.727h-1.92V6.584h1.92z" fill="#fff"/></g><path d="M1388 24c6.62 0 12-5.373 12-12s-5.38-12-12-12c-6.63 0-12 5.373-12 12s5.37 12 12 12z" fill="#FFCD28"/><path d="M1383 17.6v-2.015c0-.29.28-.486.52-.37 1.16.538 2.43.798 3.81.798 1.89 0 2.99-.56 2.99-1.546 0-.88-.72-1.307-2.19-1.307h-2.06c-.21 0-.38-.183-.38-.407v-1.905c0-.226.17-.408.38-.408h2.06c1.19 0 1.79-.4 1.79-1.173 0-.854-.85-1.28-2.54-1.28-1.3 0-2.48.216-3.52.664-.25.105-.51-.09-.51-.374V6.356c0-.25.14-.47.36-.565 1.21-.527 2.7-.791 4.44-.791 1.52 0 2.79.347 3.81 1.04 1.02.693 1.54 1.573 1.54 2.613 0 1.362-.51 2.286-1.54 2.754-.08.035-.08.16 0 .192 1.17.478 2.04 1.512 2.04 3.08 0 1.254-.57 2.295-1.72 3.12-1.12.801-2.61 1.201-4.45 1.201-1.79 0-3.27-.288-4.48-.842a.612.612 0 01-.35-.559z" fill="#212223"/><path fill-rule="evenodd" clip-rule="evenodd" d="M1412.8 0c-1.28 0-2.5.506-3.4 1.406-.9.9-1.4 2.121-1.4 3.394v14.4c0 1.273.5 2.494 1.4 3.394.9.9 2.12 1.406 3.4 1.406h14.4a4.805 4.805 0 004.8-4.8V4.8a4.805 4.805 0 00-4.8-4.8h-14.4z" fill="#00AA87"/><path fill-rule="evenodd" clip-rule="evenodd" d="M1416.74 6c.99 0 2.98.292 4.28 2.46l-1.8 1.114-.02-.036c-.3-.546-.89-1.612-2.58-1.612-.46 0-1.9.16-1.9 1.374 0 .728.69 1.082 1.85 1.375l1.16.291c1.72.435 3.41 1.149 3.41 3.346 0 2.83-2.56 3.688-4.52 3.688-1.84 0-3.64-.762-4.62-2.637l1.83-1.05c.58.97 1.49 1.682 3.07 1.682.95 0 2.07-.39 2.07-1.47 0-.777-.64-1.118-2.02-1.489l-1.4-.372c-1.94-.519-2.98-1.41-2.98-3.235 0-1.812 1.42-3.429 4.17-3.429zm8.18 7.841V6.333h2.08v8.028c0 1.666-.34 3.639-3.59 3.639-.27 0-.68 0-1.31-.147V15.8c.57.13.8.161 1.12.161 1.63 0 1.7-.939 1.7-2.12z" fill="#fff"/><path d="M1449 15.602v7.784c0 .477.46.77.84.526l5.89-3.892c.36-.232.36-.808 0-1.04l-5.89-3.892c-.36-.244-.84.05-.84.514zm0-15v7.784c0 .477.46.77.84.526l5.89-3.892c.36-.232.36-.808 0-1.04l-5.89-3.892c-.36-.244-.84.05-.84.514zm-8 7.068v8.647c0 .53.53.857.96.585l6.73-4.324c.41-.258.41-.897 0-1.156l-6.73-4.324c-.43-.272-.96.055-.96.571zm15 0v8.647c0 .53.53.857.96.585l6.73-4.324c.41-.258.41-.897 0-1.156l-6.73-4.324c-.43-.272-.96.055-.96.571z" fill="#E54A1E"/><g clip-path="url(#clip11_4273_82083)"><path d="M1472 11.41c0-5.379 0-8.068 1.67-9.739C1475.34 0 1478.03 0 1483.41 0h1.18c5.37 0 8.06 0 9.74 1.671 1.67 1.671 1.67 4.36 1.67 9.739v1.18c0 5.379 0 8.068-1.67 9.739-1.68 1.671-4.37 1.671-9.74 1.671h-1.18c-5.38 0-8.07 0-9.74-1.671s-1.67-4.36-1.67-9.739v-1.18z" fill="#07F"/><path fill-rule="evenodd" clip-rule="evenodd" d="M1475.65.523c-.63 1.5-.96 3.11-.95 4.736 0 6.321 4.79 11.522 10.93 12.172V21c4.25-.69 7.93-3.05 10.36-6.382.01-.63.01-1.305.01-2.028v-1.18c0-5.38 0-8.069-1.67-9.74-1.68-1.67-4.36-1.67-9.74-1.67h-1.18c-3.66 0-6.07 0-7.76.523z" fill="#00EAFF"/><path d="M1481.85 7.071A1.924 1.924 0 011479.92 9a1.92 1.92 0 01-1.92-1.929 1.92 1.92 0 011.92-1.929 1.925 1.925 0 011.93 1.929zm5.79 0a1.9 1.9 0 01-.57 1.364 1.92 1.92 0 01-2.72 0 1.9 1.9 0 01-.57-1.364c0-.511.2-1.002.57-1.363a1.92 1.92 0 012.72 0c.37.361.57.852.57 1.363zm5.78 0A1.92 1.92 0 011491.5 9c-.52 0-1.01-.203-1.37-.565a1.931 1.931 0 01-.56-1.364 1.924 1.924 0 011.93-1.928 1.92 1.92 0 011.92 1.928z" fill="#fff"/></g><path d="M1504 11.52c0-5.431 0-8.146 1.68-9.833C1507.37 0 1510.08 0 1515.52 0h.96c5.43 0 8.14 0 9.83 1.687C1528 3.374 1528 6.09 1528 11.52v.96c0 5.431 0 8.146-1.69 9.833-1.69 1.687-4.4 1.687-9.83 1.687h-.96c-5.44 0-8.15 0-9.84-1.687-1.68-1.687-1.68-4.402-1.68-9.833v-.96z" fill="#07F"/><path d="M1517.99 0c-4.43.014-6.79.163-8.31 1.685-1.69 1.687-1.69 4.401-1.69 9.833v.96c0 5.43 0 8.145 1.69 9.832 1.52 1.522 3.88 1.67 8.31 1.685 4.44-.014 6.8-.163 8.32-1.685 1.69-1.687 1.69-4.401 1.69-9.832v-.96c0-5.432 0-8.146-1.69-9.833-1.52-1.52-3.88-1.668-8.32-1.685z" fill="#FF2B42"/><path d="M1520.93 9.866c1.22.701 1.82 1.052 2.02 1.508.18.398.18.854 0 1.252-.2.459-.81.807-2.02 1.508l-3.32 1.92c-1.22.7-1.82 1.05-2.32.998a1.546 1.546 0 01-1.09-.626c-.29-.406-.29-1.107-.29-2.506v-3.84c0-1.402 0-2.102.29-2.506.26-.352.65-.58 1.09-.626.5-.053 1.1.298 2.32.998l3.32 1.92z" fill="#fff"/><g clip-path="url(#clip12_4273_82083)"><path d="M1554.64 24h-13.29a5.348 5.348 0 01-5.35-5.354V5.354A5.348 5.348 0 011541.35 0h13.29c2.96 0 5.36 2.397 5.36 5.354v13.293c0 2.956-2.4 5.353-5.36 5.353z" fill="#3857FC"/><path d="M1554.64 24h-13.29a5.348 5.348 0 01-5.35-5.354V5.354A5.348 5.348 0 011541.35 0h13.29c2.96 0 5.36 2.397 5.36 5.354v13.293c0 2.956-2.4 5.353-5.36 5.353z" fill="url(#paint8_linear_4273_82083)"/><path d="M1554.64 24h-13.29a5.348 5.348 0 01-5.35-5.354V5.354A5.348 5.348 0 011541.35 0h13.29c2.96 0 5.36 2.397 5.36 5.354v13.293c0 2.956-2.4 5.353-5.36 5.353z" fill="url(#paint9_linear_4273_82083)"/><path fill-rule="evenodd" clip-rule="evenodd" d="M1548.19 21.08c-1.8 0-2.63-.263-4.09-1.314-.92 1.183-3.83 2.107-3.96.526 0-1.188-.26-2.19-.56-3.286-.35-1.348-.76-2.85-.76-5.028 0-5.199 4.27-9.11 9.32-9.11 5.06 0 9.03 4.104 9.03 9.159.01 4.976-4 9.026-8.98 9.053zm.08-13.718c-2.46-.127-4.38 1.577-4.81 4.248-.35 2.212.27 4.906.8 5.046.26.061.9-.455 1.3-.854.66.455 1.42.729 2.22.793a4.685 4.685 0 004.9-4.367 4.683 4.683 0 00-4.41-4.862v-.004z" fill="#fff"/></g><path d="M1586 0h-12c-3.32 0-6 2.686-6 6v12c0 3.314 2.68 6 6 6h12c3.31 0 6-2.686 6-6V6c0-3.314-2.69-6-6-6z" fill="#00AEEF"/><path d="M1580 16.5c.82 0 1.5.672 1.5 1.5s-.68 1.5-1.5 1.5a1.499 1.499 0 110-3zm-.5-6.009l-.4-.08A4.496 4.496 0 011575.5 6V5c0-.276.22-.5.5-.5.27 0 .5.224.5.5v1c0 1.933 1.56 3.5 3.5 3.5 1.93 0 3.5-1.567 3.5-3.5V5c0-.276.22-.5.5-.5.27 0 .5.224.5.5v1a4.506 4.506 0 01-3.6 4.41l-.4.081v3.018l.4.08a4.506 4.506 0 013.6 4.411v1c0 .276-.23.5-.5.5-.28 0-.5-.224-.5-.5v-1c0-1.933-1.57-3.5-3.5-3.5-1.94 0-3.5 1.567-3.5 3.5v1c0 .276-.23.5-.5.5-.28 0-.5-.224-.5-.5v-1a4.496 4.496 0 013.6-4.41l.4-.081V10.49z" fill="#fff" stroke="#fff"/><defs><clipPath id="clip0_4273_82083"><rect x="383.995" width="24" height="24" rx="7" fill="#fff"/></clipPath><clipPath id="clip1_4273_82083"><path fill="#fff" transform="translate(799.995)" d="M0 0h24v24H0z"/></clipPath><clipPath id="clip2_4273_82083"><path fill="#fff" transform="translate(863.995)" d="M0 0h24v24H0z"/></clipPath><clipPath id="clip3_4273_82083"><path fill="#fff" transform="translate(991.995)" d="M0 0h24v24H0z"/></clipPath><clipPath id="clip4_4273_82083"><path fill="#fff" transform="translate(1024)" d="M0 0h24v24H0z"/></clipPath><clipPath id="clip5_4273_82083"><path fill="#fff" transform="translate(1056)" d="M0 0h24v24H0z"/></clipPath><clipPath id="clip6_4273_82083"><path fill="#fff" transform="translate(1088)" d="M0 0h24v24H0z"/></clipPath><clipPath id="clip7_4273_82083"><path fill="#fff" transform="translate(1120)" d="M0 0h24v24H0z"/></clipPath><clipPath id="clip8_4273_82083"><path fill="#fff" transform="translate(1152)" d="M0 0h24v24H0z"/></clipPath><clipPath id="clip9_4273_82083"><path fill="#fff" transform="translate(1216)" d="M0 0h24v24H0z"/></clipPath><clipPath id="clip10_4273_82083"><path fill="#fff" transform="translate(1344)" d="M0 0h24v24H0z"/></clipPath><clipPath id="clip11_4273_82083"><path fill="#fff" transform="translate(1472)" d="M0 0h24v24H0z"/></clipPath><clipPath id="clip12_4273_82083"><path fill="#fff" transform="translate(1536)" d="M0 0h24v24H0z"/></clipPath><linearGradient id="paint0_linear_4273_82083" x1="721.996" y1="0" x2="709.994" y2="24" gradientUnits="userSpaceOnUse"><stop stop-color="#9E42B4"/><stop offset=".067" stop-color="#9E42B4"/><stop offset=".473" stop-color="#E5566F"/><stop offset="1" stop-color="#FDC76D"/></linearGradient><linearGradient id="paint2_linear_4273_82083" x1="1000.49" y1="19.565" x2="997.882" y2="15.096" gradientUnits="userSpaceOnUse"><stop stop-color="#114A8B"/><stop offset="1" stop-color="#0078D4" stop-opacity="0"/></linearGradient><linearGradient id="paint4_linear_4273_82083" x1="1012.83" y1="12.751" x2="1010.04" y2="16.715" gradientUnits="userSpaceOnUse"><stop stop-color="#493474"/><stop offset="1" stop-color="#8C66BA" stop-opacity="0"/></linearGradient><linearGradient id="paint6_linear_4273_82083" x1="1000.2" y1=".576" x2="1004.26" y2=".576" gradientUnits="userSpaceOnUse"><stop stop-color="#2D3F80"/><stop offset="1" stop-color="#436DCD" stop-opacity="0"/></linearGradient><linearGradient id="paint8_linear_4273_82083" x1="1536.64" y1="23.269" x2="1548" y2="12" gradientUnits="userSpaceOnUse"><stop offset=".175" stop-color="#41C3FD"/><stop offset="1" stop-color="#44C4FD" stop-opacity="0"/></linearGradient><linearGradient id="paint9_linear_4273_82083" x1="1560" y1="12" x2="1544.7" y2="12" gradientUnits="userSpaceOnUse"><stop stop-color="#A24DDD"/><stop offset="1" stop-color="#A44FDD" stop-opacity="0"/></linearGradient><radialGradient id="paint1_radial_4273_82083" cx="0" cy="0" r="1" gradientTransform="matrix(-6.3181 17.0438 -29.4306 -11.1314 1000.44 4.712)" gradientUnits="userSpaceOnUse"><stop offset=".064" stop-color="#AE7FE2"/><stop offset="1" stop-color="#0078D4"/></radialGradient><radialGradient id="paint3_radial_4273_82083" cx="0" cy="0" r="1" gradientTransform="matrix(16.5887 -2.46454 1.61171 11.0686 996.668 18.737)" gradientUnits="userSpaceOnUse"><stop offset=".134" stop-color="#D59DFF"/><stop offset="1" stop-color="#5E438F"/></radialGradient><radialGradient id="paint5_radial_4273_82083" cx="0" cy="0" r="1" gradientTransform="matrix(-13.0455 -3.34121 5.56837 -22.1827 1013.2 13.366)" gradientUnits="userSpaceOnUse"><stop offset=".058" stop-color="#50E6FF"/><stop offset="1" stop-color="#436DCD"/></radialGradient><radialGradient id="paint7_radial_4273_82083" cx="0" cy="0" r="1" gradientUnits="userSpaceOnUse" gradientTransform="matrix(11.9925 0 0 11.9965 1228.01 11.986)"><stop offset=".5" stop-color="#fff" stop-opacity="0"/><stop offset="1" stop-color="#fff" stop-opacity=".35"/></radialGradient></defs></svg>