<svg xmlns="http://www.w3.org/2000/svg" width="0" height="0" class="hidden"><symbol xmlns="http://www.w3.org/2000/svg" viewBox="0 0 16 16" id="light-sm"><path fill-rule="evenodd" clip-rule="evenodd" d="M8 2a1 1 0 100-2 1 1 0 000 2zm6 1a1 1 0 11-2 0 1 1 0 012 0zm1 6a1 1 0 110-2 1 1 0 010 2zm-3 4a1 1 0 112 0 1 1 0 01-2 0zm-3 2a1 1 0 11-2 0 1 1 0 012 0zm-6-1a1 1 0 110-2 1 1 0 010 2zM1 9a1 1 0 110-2 1 1 0 010 2zm2-5a1 1 0 110-2 1 1 0 010 2zm5 8a4 4 0 110-8 4 4 0 010 8z"/></symbol><symbol xmlns="http://www.w3.org/2000/svg" viewBox="0 0 14 14" id="dark-sm"><path fill-rule="evenodd" clip-rule="evenodd" d="M13.772 8.779c.146-.558-.598-.873-1.083-.563a5 5 0 01-6.905-6.905C6.094.825 5.779.08 5.22.228a7 7 0 108.55 8.551z"/></symbol><symbol xmlns="http://www.w3.org/2000/svg" viewBox="0 0 20 20" id="light-md"><path fill-rule="evenodd" clip-rule="evenodd" d="M11 1a1 1 0 11-2 0 1 1 0 012 0zm-1 12a3 3 0 110-6 3 3 0 010 6zm0 2a5 5 0 110-10 5 5 0 010 10zM4 5a1 1 0 100-2 1 1 0 000 2zm15 6a1 1 0 110-2 1 1 0 010 2zm-3-6a1 1 0 100-2 1 1 0 000 2zm-5 14a1 1 0 11-2 0 1 1 0 012 0zm6-3a1 1 0 10-2 0 1 1 0 002 0zM1 11a1 1 0 110-2 1 1 0 010 2zm3 6a1 1 0 100-2 1 1 0 000 2z"/></symbol><symbol xmlns="http://www.w3.org/2000/svg" viewBox="0 0 18 18" id="dark-md"><path d="M8.58.021c-2.167.161-4.106.991-5.685 2.43a9.73 9.73 0 00-1.002 1.082c-.247.302-.68.985-.908 1.432A8.774 8.774 0 00.071 7.89C.033 8.163.019 8.465.019 9c0 .789.037 1.162.18 1.844a9.009 9.009 0 002.711 4.719c1.44 1.31 3.17 2.106 5.145 2.366.533.071 1.739.071 2.271.001 2.775-.365 5.12-1.82 6.632-4.115.417-.632.945-1.782 1.021-2.224.117-.675-.567-1.308-1.494-1.381a4.947 4.947 0 00-.668.032c-.979.103-1.728.026-2.617-.27-2.531-.841-4.174-3.251-3.988-5.852a5.615 5.615 0 01.595-2.181c.287-.587.327-.746.272-1.091a1.068 1.068 0 00-.56-.799c-.093-.047-.515-.06-.939-.028M7.527 2.272c-.059.154-.201.801-.256 1.163-.067.444-.076 1.588-.015 2.025a7.796 7.796 0 001.287 3.375c.319.466.537.729.935 1.126a7.465 7.465 0 002.087 1.485c.617.303.964.433 1.558.583.648.164 1.046.217 1.779.234.351.008.638.02.638.028 0 .07-.415.688-.691 1.029a7.268 7.268 0 01-4.139 2.523 7.82 7.82 0 01-3.06-.004c-.794-.164-1.808-.589-2.49-1.044a7.097 7.097 0 01-2.592-3.073c-.389-.893-.559-1.724-.557-2.735 0-.798.098-1.422.332-2.126.731-2.195 2.467-3.856 4.768-4.563.434-.133.458-.134.416-.026" fill-rule="evenodd"/></symbol><symbol xmlns="http://www.w3.org/2000/svg" viewBox="0 0 7 5" id="right-7-5"><path d="M0 4.5v-4C0 .09.514-.145.873.102l2.91 2.005c.29.2.29.6-.002.8L.872 4.9C.512 5.146 0 4.91 0 4.5z"/></symbol><symbol xmlns="http://www.w3.org/2000/svg" viewBox="0 0 7 5" id="down-7-5"><path d="M5.552.018H1.454A.5.5 0 001.041.8l2.043 2.998a.5.5 0 00.826.001L5.964.801a.5.5 0 00-.412-.783z"/></symbol><symbol viewBox="0 0 16 17" fill="none" xmlns="http://www.w3.org/2000/svg" id="left-16-17"><path d="M6 3.426l-4 5m0 0l4 5m-4-5h12" stroke-width="2" stroke-linecap="round" stroke-linejoin="round"/></symbol><symbol viewBox="0 0 16 16" fill="none" xmlns="http://www.w3.org/2000/svg" id="right-16-16"><path d="M10 3l4 5m0 0l-4 5m4-5H2" stroke-width="2" stroke-linecap="round" stroke-linejoin="round"/></symbol><symbol xmlns="http://www.w3.org/2000/svg" viewBox="0 0 14 12" fill="none" id="right-pointer"><path d="M9 1l4 5m0 0l-4 5m4-5H1" stroke-width="2" stroke-linecap="round" stroke-linejoin="round"/></symbol><svg xmlns="http://www.w3.org/2000/svg" viewBox="0 0 16 14" fill="none" id="left-pointer"><path d="M6 1L1 7m0 0l5 6M1 7h14" stroke-width="2" stroke-linecap="round" stroke-linejoin="round"/></svg><symbol xmlns="http://www.w3.org/2000/svg" viewBox="0 0 3 5" id="right"><path d="M0 5l3-2.5L0 0v5z"/></symbol><symbol xmlns="http://www.w3.org/2000/svg" viewBox="0 0 5 3" id="down"><path d="M.033 0l2.5 3 2.5-3h-5z"/></symbol><symbol xmlns="http://www.w3.org/2000/svg" viewBox="0 0 7 12" fill="none" id="left-7-12"><path d="M6 1L1 6l5 5" stroke-width="2" stroke-linecap="round" stroke-linejoin="round"/></symbol><symbol xmlns="http://www.w3.org/2000/svg" viewBox="0 0 7 12" fill="none" id="right-7-12"><path d="M1 1l5 5-5 5" stroke-width="2" stroke-linecap="round" stroke-linejoin="round"/></symbol><symbol xmlns="http://www.w3.org/2000/svg" viewBox="0 0 6 12" fill="none" id="left-hollow"><path d="M5 1L1 6l4 5" stroke-width="2" stroke-linecap="round" stroke-linejoin="round"/></symbol><symbol xmlns="http://www.w3.org/2000/svg" viewBox="0 0 6 12" fill="none" id="right-hollow"><path d="M1 1l4 5-4 5" stroke-width="2" stroke-linecap="round" stroke-linejoin="round"/></symbol><symbol xmlns="http://www.w3.org/2000/svg" viewBox="0 0 8 5" fill="none" id="down-hollow"><path d="M7 1L4 4 1 1" stroke-width="1.3" stroke-linecap="round" stroke-linejoin="round"/></symbol><symbol viewBox="0 0 16 16" fill="none" xmlns="http://www.w3.org/2000/svg" id="up-lg"><path d="M14 10L8 5l-6 5" stroke-width="2" stroke-linecap="round" stroke-linejoin="round"/></symbol><symbol viewBox="0 0 16 16" fill="none" xmlns="http://www.w3.org/2000/svg" id="down-lg"><path d="M14 6l-6 5-6-5" stroke-width="2" stroke-linecap="round" stroke-linejoin="round"/></symbol><symbol fill="none" viewBox="0 0 16 16" xmlns="http://www.w3.org/2000/svg" id="down-big"><path d="M12 6l-4 4-4-4" stroke-width="2" stroke-linecap="round" stroke-linejoin="round"/></symbol><symbol viewBox="0 0 16 16" fill="none" xmlns="http://www.w3.org/2000/svg" id="right-big"><path d="M6 4l3 4-3 4" stroke-width="2" stroke-linecap="round" stroke-linejoin="round"/></symbol><symbol viewBox="0 0 16 16" fill="none" xmlns="http://www.w3.org/2000/svg" id="left-big"><path d="M9 4L6 8l3 4" stroke-width="2" stroke-linecap="round" stroke-linejoin="round"/></symbol><symbol viewBox="0 0 4 8" fill="none" xmlns="http://www.w3.org/2000/svg" id="left-small"><path d="M3 1L1 4l2 3" stroke-width="2" stroke-linecap="round" stroke-linejoin="round"/></symbol><symbol viewBox="0 0 16 16" xmlns="http://www.w3.org/2000/svg" id="similar"><path fill-rule="evenodd" clip-rule="evenodd" d="M5 0a1 1 0 010 2H4a2 2 0 00-2 2v1a1 1 0 01-2 0V4a4 4 0 014-4h1zm5 1a1 1 0 011-1h1a4 4 0 014 4v1a1 1 0 11-2 0V4a2 2 0 00-2-2h-1a1 1 0 01-1-1zm0 14a1 1 0 001 1h1a4 4 0 004-4v-1a1 1 0 10-2 0v1a2 2 0 01-2 2h-1a1 1 0 00-1 1zm-4 0a1 1 0 01-1 1H4a4 4 0 01-4-4v-1a1 1 0 112 0v1a2 2 0 002 2h1a1 1 0 011 1zm0-7a2 2 0 114 0 2 2 0 01-4 0zm2-4a4 4 0 100 8 4 4 0 000-8z"/></symbol><symbol xmlns="http://www.w3.org/2000/svg" viewBox="0 0 15 3" id="dots-15-3"><path d="M0 1.5a1.5 1.5 0 103 0 1.5 1.5 0 00-3 0zm6 0a1.5 1.5 0 103 0 1.5 1.5 0 00-3 0zM13.5 3a1.5 1.5 0 110-3 1.5 1.5 0 010 3z"/></symbol><symbol xmlns="http://www.w3.org/2000/svg" viewBox="0 0 18 18" id="search-18-18"><path fill-rule="evenodd" clip-rule="evenodd" d="M2 8a6 6 0 1112 0A6 6 0 012 8zm6-8a8 8 0 104.906 14.32l3.387 3.387a1 1 0 001.414-1.414l-3.387-3.387A8 8 0 008 0z"/></symbol><symbol xmlns="http://www.w3.org/2000/svg" viewBox="0 0 14 12" fill="none" id="options"><circle cx="11" cy="3" r="2" stroke-width="2"/><circle cx="3" cy="9" r="2" stroke-width="2"/><path d="M1 3h8M5 9h8" stroke-width="2" stroke-linecap="round" stroke-linejoin="round"/></symbol><symbol xmlns="http://www.w3.org/2000/svg" viewBox="0 0 16 19" id="microphone"><path fill-rule="evenodd" clip-rule="evenodd" d="M8 0a4 4 0 00-4 4v5a4 4 0 008 0V4a4 4 0 00-4-4zM6 4a2 2 0 114 0v5a2 2 0 11-4 0V4zM1 9a1 1 0 011 1 5 5 0 005 5h2a5 5 0 005-5 1 1 0 112 0 7 7 0 01-7 7v1a1 1 0 11-2 0v-1a7 7 0 01-7-7 1 1 0 011-1z"/></symbol><symbol xmlns="http://www.w3.org/2000/svg" viewBox="0 0 16 19" id="microphone-active"><path fill-rule="evenodd" clip-rule="evenodd" d="M8 0a4 4 0 00-4 4v5a4 4 0 008 0V4a4 4 0 00-4-4zM1 9a1 1 0 011 1 5 5 0 005 5h2a5 5 0 005-5 1 1 0 112 0 7 7 0 01-7 7v1a1 1 0 11-2 0v-1a7 7 0 01-7-7 1 1 0 011-1z"/></symbol><symbol xmlns="http://www.w3.org/2000/svg" viewBox="0 0 18 18" id="region-md"><path d="M15.727.467C15.563.511 1.411 6.314 1.17 6.436a1.555 1.555 0 00-.546.507c-.52.804-.152 1.896.746 2.211.114.041 1.262.221 3.321.522a237.2 237.2 0 013.158.473c.007.007.215 1.395.461 3.084.247 1.69.464 3.142.482 3.229.076.373.391.789.736.975.686.369 1.595.13 1.983-.521.078-.132 5.788-13.976 5.987-14.516.081-.221.087-.692.012-.935C17.284.733 16.456.27 15.727.467m-.59 2.435c-.011.029-1.062 2.59-2.336 5.69-1.968 4.789-2.319 5.623-2.338 5.55-.012-.048-.171-1.12-.354-2.382-.182-1.262-.353-2.369-.378-2.46a1.498 1.498 0 00-1.076-1.047c-.083-.019-1.209-.189-2.502-.379A176.052 176.052 0 013.79 7.52c-.011-.011 11.296-4.666 11.341-4.668.014-.001.017.022.006.05" fill-rule="evenodd"/></symbol><symbol xmlns="http://www.w3.org/2000/svg" viewBox="0 0 16 12" id="burger-16-12"><path d="M0 1a1 1 0 011-1h14a1 1 0 110 2H1a1 1 0 01-1-1zm0 5a1 1 0 011-1h14a1 1 0 110 2H1a1 1 0 01-1-1zm0 5a1 1 0 011-1h14a1 1 0 110 2H1a1 1 0 01-1-1z"/></symbol><symbol xmlns="http://www.w3.org/2000/svg" viewBox="0 0 16 16" id="burger-16-16"><path fill-rule="evenodd" clip-rule="evenodd" d="M0 3a1 1 0 011-1h1a1 1 0 010 2H1a1 1 0 01-1-1zm5 0a1 1 0 011-1h9a1 1 0 110 2H6a1 1 0 01-1-1zM0 8a1 1 0 011-1h1a1 1 0 010 2H1a1 1 0 01-1-1zm5 0a1 1 0 011-1h9a1 1 0 110 2H6a1 1 0 01-1-1zm-5 5a1 1 0 011-1h1a1 1 0 110 2H1a1 1 0 01-1-1zm5 0a1 1 0 011-1h9a1 1 0 110 2H6a1 1 0 01-1-1z"/></symbol><symbol xmlns="http://www.w3.org/2000/svg" viewBox="0 0 14 14" id="burger"><path d="M1 0a1 1 0 100 2 1 1 0 000-2zm0 6a1 1 0 100 2 1 1 0 000-2zm0 6a1 1 0 100 2 1 1 0 000-2zM6 1a1 1 0 112 0 1 1 0 01-2 0zm0 6a1 1 0 112 0 1 1 0 01-2 0zm0 6a1 1 0 112 0 1 1 0 01-2 0zm6-12a1 1 0 112 0 1 1 0 01-2 0zm0 6a1 1 0 112 0 1 1 0 01-2 0zm0 6a1 1 0 112 0 1 1 0 01-2 0z"/></symbol><symbol xmlns="http://www.w3.org/2000/svg" viewBox="0 0 20 20" id="log-in"><path fill-rule="evenodd" clip-rule="evenodd" d="M5 6a5 5 0 1110 0A5 5 0 015 6zm5-3a3 3 0 100 6 3 3 0 000-6z"/><path d="M18.964 17.734A6.28 6.28 0 0012.877 13H7.123a6.28 6.28 0 00-6.093 4.758 1 1 0 101.94.485A4.28 4.28 0 017.123 15h5.754a4.28 4.28 0 014.149 3.224 1 1 0 101.938-.49z"/></symbol><symbol xmlns="http://www.w3.org/2000/svg" viewBox="0 0 18 18" id="log-out"><path fill-rule="evenodd" clip-rule="evenodd" d="M4 5a5 5 0 1110 0A5 5 0 014 5zm5-3a3 3 0 100 6 3 3 0 000-6z"/><path d="M17.964 16.734A6.28 6.28 0 0011.877 12H6.123A6.28 6.28 0 00.03 16.758a1 1 0 101.94.485A4.28 4.28 0 016.123 14h5.754a4.28 4.28 0 014.148 3.224 1 1 0 101.939-.49z"/></symbol><symbol xmlns="http://www.w3.org/2000/svg" viewBox="0 0 16 16" id="close"><path fill-rule="evenodd" clip-rule="evenodd" d="M.293.293a1 1 0 011.414 0L8 6.586 14.293.293a1 1 0 111.414 1.414L9.414 8l6.293 6.293a1 1 0 01-1.414 1.414L8 9.414l-6.293 6.293a1 1 0 01-1.414-1.414L6.586 8 .293 1.707a1 1 0 010-1.414z"/></symbol><symbol xmlns="http://www.w3.org/2000/svg" viewBox="0 0 16 16" id="close-16-16"><path fill-rule="evenodd" clip-rule="evenodd" d="M.293.293a1 1 0 011.414 0L8 6.586 14.293.293a1 1 0 111.414 1.414L9.414 8l6.293 6.293a1 1 0 01-1.414 1.414L8 9.414l-6.293 6.293a1 1 0 01-1.414-1.414L6.586 8 .293 1.707a1 1 0 010-1.414z"/></symbol><symbol xmlns="http://www.w3.org/2000/svg" viewBox="0 0 9 9" fill="none" id="close-9-9"><path d="M8 1L1 8m0-7l7 7" stroke="#999" stroke-width="2" stroke-linecap="round" stroke-linejoin="round"/></symbol><symbol xmlns="http://www.w3.org/2000/svg" viewBox="0 0 14 14" id="close-14-14"><path fill-rule="evenodd" clip-rule="evenodd" d="M.293.293a1 1 0 011.414 0L7 5.586 12.293.293a1 1 0 111.414 1.414L8.414 7l5.293 5.293a1 1 0 01-1.414 1.414L7 8.414l-5.293 5.293a1 1 0 01-1.414-1.414L5.586 7 .293 1.707a1 1 0 010-1.414z"/></symbol><symbol xmlns="http://www.w3.org/2000/svg" viewBox="0 0 11 9" fill="none" id="logout-11-9"><path d="M3.5 4.5h7m0 0l-2-2m2 2l-2 2m-3-6h-3a2 2 0 00-2 2v4a2 2 0 002 2h3" stroke-linecap="round" stroke-linejoin="round"/></symbol><symbol xmlns="http://www.w3.org/2000/svg" viewBox="0 0 14 18" id="phone-14-18"><path fill-rule="evenodd" clip-rule="evenodd" d="M6.631 7.978c.174.392.373.81.524 1.094.115.217.344.608.598 1.002l.027-.018c.645-.42 1.306-.374 1.552-.348.319.034.608.118.824.193.444.155.901.383 1.295.608.402.23.81.496 1.156.76.172.133.352.282.516.44.137.133.377.38.559.712.275.5.31 1.011.316 1.252a4.283 4.283 0 01-.377 1.866 2.797 2.797 0 01-.912 1.12c-.433.303-.608.402-1.139.703l-.196.112c-1.354.77-2.741.508-3.493.367l-.132-.025c-.992-.18-2.035-.876-2.94-1.729-.976-.92-2.012-2.232-2.952-3.987C-.033 8.57-.114 5.483.063 4.45a5.522 5.522 0 01.615-1.682c.298-.535.775-1.196 1.486-1.666.699-.461.923-.604 1.386-.835a2.707 2.707 0 011.3-.265c.335.011.657.074.94.16.502.15 1.235.482 1.749 1.141.31.398.425.835.465.992.06.233.099.473.126.692.054.442.076.948.068 1.432a8.673 8.673 0 01-.14 1.488 3.96 3.96 0 01-.25.824c-.1.228-.376.8-1.017 1.162-.054.03-.107.059-.159.085zm-2.263-.294c.185.607.714 1.75 1.019 2.324.305.576 1.084 1.838 1.518 2.277.434.44.783.334.993.235.098-.047.218-.157.364-.291a4.45 4.45 0 01.61-.497c.453-.294 2.761 1.114 3.056 1.65.172.315.025 1.364-.367 1.64-.353.246-.454.303-.983.604l-.193.11c-.704.4-1.426.268-2.276.113-.85-.155-2.79-1.524-4.487-4.693C1.925 7.988 1.939 5.35 2.036 4.787c.096-.563.538-1.559 1.231-2.016.693-.457.83-.541 1.176-.714.347-.173 1.197.066 1.516.475.319.41.364 3.328-.152 3.619-.263.148-.51.23-.713.297-.195.065-.35.116-.44.2a2.49 2.49 0 01-.007.006c-.184.172-.463.431-.28 1.03z"/></symbol><symbol xmlns="http://www.w3.org/2000/svg" viewBox="0 0 16 16" id="remove-16-16"><path fill-rule="evenodd" clip-rule="evenodd" d="M7 0a3 3 0 00-3 3v1H1a1 1 0 000 2h.595l.73 7.298A3 3 0 005.31 16h5.38a3 3 0 002.985-2.702L14.405 6H15a1 1 0 100-2h-3V3a3 3 0 00-3-3H7zm3 4V3a1 1 0 00-1-1H7a1 1 0 00-1 1v1h4zM3.605 6h8.79l-.71 7.1a1 1 0 01-.995.9H5.31a1 1 0 01-.995-.9L3.605 6z"/></symbol><symbol xmlns="http://www.w3.org/2000/svg" viewBox="0 0 18 18" id="remove"><path fill-rule="evenodd" clip-rule="evenodd" d="M1 4h4V3a3 3 0 013-3h2a3 3 0 013 3v1h4a1 1 0 110 2H1a1 1 0 010-2zm7-2a1 1 0 00-1 1v1h4V3a1 1 0 00-1-1H8z"/><path d="M4 8a1 1 0 00-2 0v7a3 3 0 003 3h8a3 3 0 003-3V8a1 1 0 10-2 0v7a1 1 0 01-1 1H5a1 1 0 01-1-1V8z"/></symbol><symbol xmlns="http://www.w3.org/2000/svg" viewBox="0 0 15 14" id="globe-sm"><path fill-rule="evenodd" clip-rule="evenodd" d="M.82 6h3.156c.097-1.811.458-3.224.982-4.386.216-.478.456-.908.71-1.3A7.008 7.008 0 00.822 6zm0 2a7.008 7.008 0 004.849 5.685 9.677 9.677 0 01-.71-1.3c-.526-1.16-.887-2.573-.984-4.385H.82zm9.011 5.685A7.008 7.008 0 0014.679 8h-3.155c-.097 1.81-.458 3.224-.982 4.386a9.677 9.677 0 01-.711 1.3zM14.679 6A7.008 7.008 0 009.831.314c.255.392.495.822.71 1.3.524 1.162.886 2.575.983 4.386h3.155zM9.083 2.272c.424.941.744 2.13.838 3.728H5.578c.095-1.597.414-2.787.839-3.728A8.7 8.7 0 017.75.199a8.7 8.7 0 011.333 2.073zM5.578 8h4.343c-.094 1.597-.414 2.787-.838 3.728A8.7 8.7 0 017.75 13.8a8.7 8.7 0 01-1.333-2.073c-.425-.941-.744-2.131-.839-3.728z"/></symbol><symbol xmlns="http://www.w3.org/2000/svg" viewBox="0 0 18 18" id="globe-md"><path d="M8.445.02c-.913.072-1.647.22-2.399.481A9.023 9.023 0 00.359 6.494c-.725 2.507-.315 5.26 1.102 7.416 1.98 3.011 5.517 4.559 9.039 3.958a8.99 8.99 0 007.004-5.929c.902-2.593.537-5.565-.965-7.849A8.991 8.991 0 009.678.031 9.86 9.86 0 008.445.02m.758 2.342c.742.84 1.359 2.407 1.613 4.096.114.758.23 2.399.173 2.454C10.951 8.95 9.813 9 9 9c-.818 0-1.951-.05-1.99-.088-.057-.056.058-1.685.174-2.454.253-1.687.889-3.298 1.622-4.111.093-.103.18-.187.193-.187.014 0 .105.091.204.202m-3.022.44C5.508 4.265 5.107 6.123 5.022 8.17l-.021.505-.108-.019a17.228 17.228 0 01-1.153-.27c-.743-.204-1.586-.57-1.604-.696-.014-.094.157-.747.283-1.087.149-.398.387-.894.594-1.233a7.488 7.488 0 012.162-2.235c.248-.164 1.037-.585 1.097-.585.014 0-.027.113-.091.252m5.974-.049a6.65 6.65 0 011.87 1.391 6.832 6.832 0 011.556 2.459c.126.34.297.993.283 1.087-.018.126-.861.492-1.604.696a17.56 17.56 0 01-1.158.271l-.112.02v-.221c-.001-.472-.087-1.486-.183-2.156-.177-1.239-.54-2.522-.988-3.498-.064-.139-.105-.252-.091-.252.014 0 .206.091.427.203m-8.547 7.656a19.6 19.6 0 001.025.226c.23.042.424.082.431.089.007.007.03.178.053.382.168 1.525.538 2.948 1.064 4.092.064.139.107.252.095.252-.052-.001-.648-.306-.906-.463a7.486 7.486 0 01-2.228-2.153 7.063 7.063 0 01-1.01-2.474c-.096-.473-.136-.447.404-.261.256.088.739.227 1.072.31m12.262-.056a7.1 7.1 0 01-1.012 2.481 7.486 7.486 0 01-2.228 2.153c-.258.157-.854.462-.906.463-.012 0 .031-.113.095-.252.525-1.142.896-2.571 1.064-4.092a4.07 4.07 0 01.053-.382c.007-.007.208-.048.446-.091.6-.109 1.611-.369 2.113-.544.358-.124.421-.139.429-.097.005.027-.019.189-.054.361M9 10.984c.487 0 1.111-.01 1.387-.021.448-.019.503-.016.503.026 0 .107-.123.874-.194 1.211-.314 1.488-.874 2.767-1.516 3.46l-.18.195-.181-.195c-.637-.685-1.201-1.974-1.515-3.46-.071-.337-.194-1.104-.194-1.211 0-.042.055-.045.502-.026.277.011.901.021 1.388.021" fill-rule="evenodd"/></symbol><symbol xmlns="http://www.w3.org/2000/svg" viewBox="0 0 20 20" id="compare"><path fill-rule="evenodd" clip-rule="evenodd" d="M0 6a6 6 0 016-6h8a6 6 0 016 6v8a6 6 0 01-6 6H6a6 6 0 01-6-6V6zm6-4h8a4 4 0 014 4v8a4 4 0 01-4 4H6a4 4 0 01-4-4V6a4 4 0 014-4z"/><path d="M10 5a1 1 0 00-1 1v8a1 1 0 102 0V6a1 1 0 00-1-1zm3 3a1 1 0 112 0v6a1 1 0 11-2 0V8zm-7 2a1 1 0 00-1 1v3a1 1 0 102 0v-3a1 1 0 00-1-1z"/></symbol><symbol xmlns="http://www.w3.org/2000/svg" viewBox="0 0 20 20" id="favorite"><path fill-rule="evenodd" clip-rule="evenodd" d="M6 3a4 4 0 00-2.597 7.043l.019.015L10 16.253l6.582-6.198.018-.015a4 4 0 10-5.8-5.44L10 5.664 9.2 4.6A3.992 3.992 0 006 3zM0 7a6 6 0 0110-4.472 6 6 0 117.92 9.015L10 19l-7.915-7.453A5.989 5.989 0 010 7z"/></symbol><symbol xmlns="http://www.w3.org/2000/svg" viewBox="0 0 11 14" id="question"><path fill-rule="evenodd" clip-rule="evenodd" d="M5.515 2.034c-1.055 0-2.27.627-2.545 2.142a1 1 0 01-1.968-.358C1.49 1.136 3.732.034 5.515.034c1.398 0 2.489.39 3.26 1.051a3.488 3.488 0 011.22 2.322c.08.857-.1 1.573-.457 2.183-.34.582-.815 1.021-1.235 1.373-.166.14-.317.26-.458.373-.255.205-.48.385-.71.604-.323.31-.553.61-.69.956a1 1 0 11-1.86-.733c.28-.71.724-1.243 1.17-1.67.29-.277.633-.553.927-.789.123-.1.238-.192.337-.274.377-.316.632-.575.793-.85.143-.245.234-.543.192-.987a1.49 1.49 0 00-.53-.988c-.34-.292-.938-.571-1.96-.571z"/><path d="M4 12.5a1.5 1.5 0 103 0 1.5 1.5 0 00-3 0z"/></symbol><symbol xmlns="http://www.w3.org/2000/svg" viewBox="0 0 13 12" id="remove_img"><path fill-rule="evenodd" clip-rule="evenodd" d="M1.5 3h10a1 1 0 100-2H9.232A2 2 0 007.5 0h-2a2 2 0 00-1.732 1H1.5a1 1 0 000 2zm2 2a1 1 0 00-2 0v4a3 3 0 003 3h4a3 3 0 003-3V5a1 1 0 10-2 0v4a1 1 0 01-1 1h-4a1 1 0 01-1-1V5z"/></symbol><symbol xmlns="http://www.w3.org/2000/svg" viewBox="0 0 8 7" id="plus"><path d="M6.501 4a.5.5 0 100-1v1zm-6-1a.5.5 0 000 1V3zm2.5 3.5a.5.5 0 001 0h-1zm1-6a.5.5 0 00-1 0h1zm2.5 2.5h-6v1h6V3zm-2.5 3.5v-6h-1v6h1z"/></symbol><symbol xmlns="http://www.w3.org/2000/svg" viewBox="0 0 20 18" id="cart-20-18"><path d="M.723.048C.009.24-.229 1.171.3 1.7c.281.281.288.282 1.658.294l1.208.01.017.073c.009.04.363 1.978.785 4.306.423 2.329.791 4.324.82 4.434.253.983 1.106 1.814 2.145 2.091l.284.075h4.5c5.082 0 4.649.023 5.25-.272.267-.131.364-.203.619-.458.513-.513.492-.454 1.287-3.62l.674-2.683.002-.45c.001-.381-.011-.488-.077-.7A2.532 2.532 0 0017.7 3.079c-.206-.059-.506-.062-6.271-.071l-6.055-.009-.057-.325C5.052 1.18 4.994 1.019 4.568.596A1.92 1.92 0 003.583.05C3.268-.016.967-.018.723.048m16.576 5.01a.484.484 0 01.267.439c-.002.219-1.243 5.156-1.325 5.266a.834.834 0 01-.175.162l-.111.076-4.286-.009-4.286-.009-.14-.075a1.603 1.603 0 01-.257-.177c-.24-.211-.25-.251-.752-3.015a408.9 408.9 0 00-.484-2.641L5.732 5h5.726c5.384 0 5.732.004 5.841.058M5.15 15.046c-.399.098-.815.423-.983.77-.219.453-.218.914.003 1.375.098.204.435.541.639.639.621.298 1.27.195 1.743-.278.579-.579.598-1.46.045-2.065a1.522 1.522 0 00-1.447-.441m10.992.005a1.518 1.518 0 00-1.118 1.232c-.163.952.741 1.856 1.693 1.693a1.518 1.518 0 001.259-1.259c.174-1.014-.838-1.934-1.834-1.666" fill-rule="evenodd"/></symbol><symbol xmlns="http://www.w3.org/2000/svg" viewBox="0 0 13 13" id="star-13-13"><path d="M6.052.289a.5.5 0 01.896 0l1.558 3.156a.5.5 0 00.377.274l3.483.506a.5.5 0 01.277.853l-2.52 2.457a.5.5 0 00-.144.442l.595 3.47a.5.5 0 01-.726.527l-3.115-1.638a.5.5 0 00-.466 0l-3.115 1.638a.5.5 0 01-.726-.527l.595-3.47a.5.5 0 00-.144-.442L.357 5.078a.5.5 0 01.277-.853l3.483-.506a.5.5 0 00.377-.274L6.052.29z"/></symbol><symbol xmlns="http://www.w3.org/2000/svg" viewBox="0 0 24 24" fill="none" id="star-big"><path d="M11.292 1.038c.233-.672 1.183-.672 1.416 0l2.412 6.939a.75.75 0 00.693.503l7.345.15c.71.014 1.004.918.437 1.347l-5.853 4.438a.75.75 0 00-.265.815l2.127 7.031c.206.68-.562 1.239-1.146.833l-6.03-4.196a.75.75 0 00-.856 0l-6.03 4.196c-.584.406-1.352-.152-1.146-.833l2.127-7.031a.75.75 0 00-.265-.815L.405 9.977C-.162 9.547.13 8.644.842 8.63l7.345-.15a.75.75 0 00.693-.503l2.412-6.939z" fill="#ECC358"/></symbol><symbol xmlns="http://www.w3.org/2000/svg" viewBox="0 0 16 16" id="like"><path fill-rule="evenodd" clip-rule="evenodd" d="M6 14h6a2 2 0 002-2V9a2 2 0 00-2-2h-1a2 2 0 01-2-2V2h-.764L6 6.472V14zM4 7v7H3a1 1 0 01-1-1V8a1 1 0 011-1h1zm.5-2l1.947-3.894A2 2 0 018.237 0H9a2 2 0 012 2v3h1a4 4 0 014 4v3a4 4 0 01-4 4H3a3 3 0 01-3-3V8a3 3 0 013-3h1.5z"/></symbol><symbol xmlns="http://www.w3.org/2000/svg" viewBox="0 0 16 16" id="dislike"><path fill-rule="evenodd" clip-rule="evenodd" d="M10 2H4a2 2 0 00-2 2v3a2 2 0 002 2h1a2 2 0 012 2v3h.764L10 9.528V2zm2 7V2h1a1 1 0 011 1v5a1 1 0 01-1 1h-1zm-.5 2l-1.947 3.894A2 2 0 017.763 16H7a2 2 0 01-2-2v-3H4a4 4 0 01-4-4V4a4 4 0 014-4h9a3 3 0 013 3v5a3 3 0 01-3 3h-1.5z"/></symbol><symbol xmlns="http://www.w3.org/2000/svg" viewBox="0 0 12 12" fill="none" id="reply"><path d="M11 11H6a2 2 0 01-2-2V1m0 0l3 3M4 1L1 4" stroke-width="2" stroke-linecap="round" stroke-linejoin="round"/></symbol><symbol xmlns="http://www.w3.org/2000/svg" viewBox="0 0 8 8" id="close-8-8"><path d="M1 1l6 6m0-6L1 7" stroke-width="2" stroke-linecap="round"/></symbol><symbol xmlns="http://www.w3.org/2000/svg" viewBox="0 0 16 16" id="share-16-16"><path d="M8.707.293a1 1 0 00-1.414 0l-3 3a1 1 0 001.414 1.414L7 3.414V10a1 1 0 102 0V3.414l1.293 1.293a1 1 0 101.414-1.414l-3-3z"/><path d="M2 10a1 1 0 011-1 1 1 0 000-2 3 3 0 00-3 3v3a3 3 0 003 3h10a3 3 0 003-3v-3a3 3 0 00-3-3 1 1 0 100 2 1 1 0 011 1v3a1 1 0 01-1 1H3a1 1 0 01-1-1v-3z"/></symbol><symbol xmlns="http://www.w3.org/2000/svg" viewBox="0 0 20 20" fill="none" id="share-20-20"><path d="M2 12v2a4 4 0 004 4h8a4 4 0 004-4v-2" stroke-width="2" stroke-linecap="round"/><path d="M10 12V2m0 0l4 3m-4-3L6 5" stroke-width="2" stroke-linecap="round" stroke-linejoin="round"/></symbol><symbol xmlns="http://www.w3.org/2000/svg" viewBox="0 0 18 11" id="table_sizes"><path d="M12 10a1 1 0 102 0h-2zm2-5a1 1 0 10-2 0h2zm-6 5a1 1 0 102 0H8zm2-3a1 1 0 00-2 0h2zm-6 3a1 1 0 102 0H4zm2-5a1 1 0 00-2 0h2zm12 3V3h-2v5h2zm0-5a3 3 0 00-3-3v2a1 1 0 011 1h2zm-3-3H3v2h12V0zM3 0a3 3 0 00-3 3h2a1 1 0 011-1V0zM0 3v5h2V3H0zm0 5a3 3 0 003 3V9a1 1 0 01-1-1H0zm3 3h12V9H3v2zm12 0a3 3 0 003-3h-2a1 1 0 01-1 1v2zm-1-1V5h-2v5h2zm-4 0V7H8v3h2zm-4 0V5H4v5h2z"/></symbol><symbol xmlns="http://www.w3.org/2000/svg" viewBox="0 0 14 14" id="rss-14-14"><path d="M1531 255a1 1 0 001-1v-1a10 10 0 0110-10h1a1 1 0 100-2h-1a12 12 0 00-12 12v1a1 1 0 001 1zm12-9h-1a7 7 0 00-7 7v1a1 1 0 102 0v-1a5 5 0 015-5h1a1 1 0 000-2zm-1 5a2 2 0 102 2 2 2 0 00-2-2z" transform="translate(-1530 -241)"/></symbol><symbol xmlns="http://www.w3.org/2000/svg" viewBox="0 0 12 12" id="star-12-12"><path d="M5.549.34a.47.47 0 01.902 0l1.116 3.49a.479.479 0 00.447.34l3.513.033c.457.004.647.614.28.9L8.982 7.29a.512.512 0 00-.171.55l1.056 3.51c.137.456-.359.833-.731.555L6.277 9.77a.459.459 0 00-.553 0l-2.861 2.135c-.372.278-.868-.1-.73-.555l1.055-3.51a.512.512 0 00-.17-.55L.193 5.101c-.368-.285-.178-.895.279-.9l3.513-.032a.479.479 0 00.447-.34L5.549.34z"/></symbol><symbol xmlns="http://www.w3.org/2000/svg" viewBox="0 0 8 9" id="bonus"><circle cx="3" cy="6" r="2.5" fill="none"/><circle cx="5" cy="4" r="2.5" fill="#CBF2CA"/></symbol><symbol xmlns="http://www.w3.org/2000/svg" viewBox="0 0 11 11" fill="none" id="review-11-11"><path d="M1 9a1 1 0 001 1h3.5A4.5 4.5 0 101 5.5V9z" stroke-width="2"/></symbol><symbol xmlns="http://www.w3.org/2000/svg" viewBox="0 0 13 12" fill="none" id="review"><path d="M2.5 10a1 1 0 001 1H7a4.5 4.5 0 10-4.5-4.5V10z" stroke-width="2"/></symbol><symbol xmlns="http://www.w3.org/2000/svg" viewBox="0 0 12 12" id="close-12-12"><path d="M9.293 1.293a1 1 0 011.414 1.414L7.414 6l3.293 3.293a1 1 0 01-1.414 1.414L6 7.414l-3.293 3.293a1 1 0 01-1.414-1.414L4.586 6 1.293 2.707a1 1 0 011.414-1.414L6 4.586l3.293-3.293z"/></symbol><symbol xmlns="http://www.w3.org/2000/svg" viewBox="0 0 12 12" id="sort"><path fill-rule="evenodd" clip-rule="evenodd" d="M4.383.076A1 1 0 015 1v10a1 1 0 11-2 0V3.414L1.707 4.707A1 1 0 01.293 3.293l3-3a1 1 0 011.09-.217zM8 0a1 1 0 011 1v7.586l1.293-1.293a1 1 0 111.414 1.414l-3 3A1 1 0 017 11V1a1 1 0 011-1z"/></symbol><symbol xmlns="http://www.w3.org/2000/svg" viewBox="0 0 13 12" id="filter"><path fill-rule="evenodd" clip-rule="evenodd" d="M3.5 4a1 1 0 110-2 1 1 0 010 2zm0-4c1.306 0 2.417.835 2.83 2h5.17a1 1 0 110 2H6.33A3.001 3.001 0 113.5 0zm6 10a1 1 0 100-2 1 1 0 000 2zm-2.83 0a3.001 3.001 0 100-2H1.5a1 1 0 100 2h5.17z"/></symbol><symbol xmlns="http://www.w3.org/2000/svg" viewBox="0 0 24 24" id="sale"><rect width="24" height="24" rx="12" fill="#FFECA8"/><path d="M6.358 12.108l7.05-5.809a.5.5 0 01.798.526l-1.03 3.53a.5.5 0 00.48.64h3.667a.5.5 0 01.318.885l-7.07 5.823a.5.5 0 01-.798-.526l1.031-3.543a.5.5 0 00-.48-.64H6.676a.5.5 0 01-.318-.886z" fill="#222228"/></symbol></svg>