<svg xmlns="http://www.w3.org/2000/svg" width="0" height="0" class="hidden"><symbol xmlns="http://www.w3.org/2000/svg" viewBox="0 0 11 11" fill="currentColor" id="region"><path d="M6.756 10.695L10.96.693a.498.498 0 00-.653-.653L.306 4.243c-.47.197-.377.887.128.953l4.367.573a.5.5 0 01.43.43l.571 4.367c.067.504.757.597.954.129z"/></symbol><symbol xmlns="http://www.w3.org/2000/svg" viewBox="0 0 16 16" id="theme-dark"><path fill-rule="evenodd" clip-rule="evenodd" d="M8 2a1 1 0 100-2 1 1 0 000 2zm6 1a1 1 0 11-2 0 1 1 0 012 0zm1 6a1 1 0 110-2 1 1 0 010 2zm-3 4a1 1 0 112 0 1 1 0 01-2 0zm-3 2a1 1 0 11-2 0 1 1 0 012 0zm-6-1a1 1 0 110-2 1 1 0 010 2zM1 9a1 1 0 110-2 1 1 0 010 2zm2-5a1 1 0 110-2 1 1 0 010 2zm5 8a4 4 0 110-8 4 4 0 010 8z"/></symbol><symbol xmlns="http://www.w3.org/2000/svg" viewBox="0 0 14 14" id="theme-light"><path fill-rule="evenodd" clip-rule="evenodd" d="M13.772 8.779c.146-.558-.598-.873-1.083-.563a5 5 0 01-6.905-6.905C6.094.825 5.779.08 5.22.228a7 7 0 108.55 8.551z"/></symbol><symbol id="logo" viewBox="0 0 168 32" xmlns="http://www.w3.org/2000/svg"><path fill="currentColor" d="M0 16C0 7.163 7.163 0 16 0h16v16c0 8.837-7.163 16-16 16H8V16a8 8 0 018-8h8v8a8 8 0 01-8 8v-4a4 4 0 004-4v-4h-4a4 4 0 00-4 4v12h4c6.627 0 12-5.373 12-12V4H16C9.373 4 4 9.373 4 16v8H0v-8z"/><path fill-rule="evenodd" clip-rule="evenodd" d="M71.49 8.61c2.06 0 3.82.77 5.28 2.31 1.46 1.52 2.19 3.38 2.19 5.58 0 2.22-.73 4.09-2.19 5.61-1.46 1.52-3.22 2.28-5.28 2.28-2.28 0-4.03-.84-5.25-2.52V30H63V9h3.24v2.16c1.22-1.7 2.97-2.55 5.25-2.55zm-3.9 11.34c.9.9 2.03 1.35 3.39 1.35 1.36 0 2.49-.45 3.39-1.35.9-.92 1.35-2.07 1.35-3.45 0-1.38-.45-2.52-1.35-3.42-.9-.92-2.03-1.38-3.39-1.38-1.36 0-2.49.46-3.39 1.38-.9.9-1.35 2.04-1.35 3.42s.45 2.53 1.35 3.45zm18.506.57c-.86-.62-1.41-1.5-1.65-2.64h11.94c.08-.56.12-1.01.12-1.35 0-2.2-.71-4.07-2.13-5.61-1.4-1.54-3.2-2.31-5.4-2.31-2.32 0-4.22.76-5.7 2.28-1.48 1.5-2.22 3.37-2.22 5.61 0 2.28.75 4.17 2.25 5.67 1.5 1.48 3.47 2.22 5.91 2.22 2.9 0 5.09-1.09 6.57-3.27l-2.67-1.56c-.86 1.24-2.15 1.86-3.87 1.86-1.24 0-2.29-.3-3.15-.9zm7.14-5.28h-8.82c.22-1.14.73-2.04 1.53-2.7.8-.66 1.8-.99 3-.99 1.06 0 1.98.31 2.76.93.8.62 1.31 1.54 1.53 2.76zm42.186 2.64c.24 1.14.79 2.02 1.65 2.64.86.6 1.91.9 3.15.9 1.72 0 3.01-.62 3.87-1.86l2.67 1.56c-1.48 2.18-3.67 3.27-6.57 3.27-2.44 0-4.41-.74-5.91-2.22-1.5-1.5-2.25-3.39-2.25-5.67 0-2.24.74-4.11 2.22-5.61 1.48-1.52 3.38-2.28 5.7-2.28 2.2 0 4 .77 5.4 2.31 1.42 1.54 2.13 3.41 2.13 5.61 0 .34-.04.79-.12 1.35h-11.94zm-.03-2.64h8.82c-.22-1.22-.73-2.14-1.53-2.76-.78-.62-1.7-.93-2.76-.93-1.2 0-2.2.33-3 .99-.8.66-1.31 1.56-1.53 2.7zm23.151-6.63c2.06 0 3.82.77 5.28 2.31 1.46 1.52 2.19 3.38 2.19 5.58 0 2.22-.73 4.09-2.19 5.61-1.46 1.52-3.22 2.28-5.28 2.28-2.28 0-4.03-.84-5.25-2.52V30h-3.24V9h3.24v2.16c1.22-1.7 2.97-2.55 5.25-2.55zm-3.9 11.34c.9.9 2.03 1.35 3.39 1.35 1.36 0 2.49-.45 3.39-1.35.9-.92 1.35-2.07 1.35-3.45 0-1.38-.45-2.52-1.35-3.42-.9-.92-2.03-1.38-3.39-1.38-1.36 0-2.49.46-3.39 1.38-.9.9-1.35 2.04-1.35 3.42s.45 2.53 1.35 3.45zm-26.121-4.47c-1.02-.92-2.33-1.38-3.93-1.38h-3.3V9h-3.24v15h6.54c1.6 0 2.91-.46 3.93-1.38 1.02-.92 1.53-2.11 1.53-3.57 0-1.48-.51-2.67-1.53-3.57zm-2.31 5.04c-.42.38-.95.57-1.59.57h-3.33v-4.08h3.33c.64 0 1.17.19 1.59.57.44.36.66.85.66 1.47 0 .6-.22 1.09-.66 1.47zM114.307 9v15h-3.15v-9.87l-4.32 6.87h-.39l-4.29-6.84V24h-3.15V9h3.3l4.35 6.93 4.35-6.93h3.3zM59.349 24V9H46v15h3.24V12.06h6.87V24h3.24z"/></symbol><symbol xmlns="http://www.w3.org/2000/svg" id="down" fill="currentColor"><path d="M.033 0l2.5 3 2.5-3h-5z"/></symbol><symbol id="sale" fill="currentColor" viewBox="0 0 13 12" xmlns="http://www.w3.org/2000/svg"><path d="M.858 6.108L7.908.3a.5.5 0 01.798.526l-1.03 3.53a.5.5 0 00.48.64h3.667a.5.5 0 01.318.885l-7.07 5.823a.5.5 0 01-.798-.526l1.031-3.543a.5.5 0 00-.48-.64H1.176a.5.5 0 01-.318-.886z"/></symbol><symbol id="search" xmlns="http://www.w3.org/2000/svg" viewBox="0 0 18 18"><path fill-rule="evenodd" clip-rule="evenodd" d="M2 8a6 6 0 1112 0A6 6 0 012 8zm6-8a8 8 0 104.906 14.32l3.387 3.387a1 1 0 001.414-1.414l-3.387-3.387A8 8 0 008 0z"/></symbol><symbol id="log-out" xmlns="http://www.w3.org/2000/svg" viewBox="0 0 18 18"><path fill-rule="evenodd" clip-rule="evenodd" d="M4 5a5 5 0 1110 0A5 5 0 014 5zm5-3a3 3 0 100 6 3 3 0 000-6z"/><path d="M17.964 16.734A6.28 6.28 0 0011.877 12H6.123A6.28 6.28 0 00.03 16.758a1 1 0 101.94.485A4.28 4.28 0 016.123 14h5.754a4.28 4.28 0 014.148 3.224 1 1 0 101.939-.49z"/></symbol><symbol id="compare" xmlns="http://www.w3.org/2000/svg" viewBox="0 0 20 20"><path fill-rule="evenodd" clip-rule="evenodd" d="M0 6a6 6 0 016-6h8a6 6 0 016 6v8a6 6 0 01-6 6H6a6 6 0 01-6-6V6zm6-4h8a4 4 0 014 4v8a4 4 0 01-4 4H6a4 4 0 01-4-4V6a4 4 0 014-4z"/><path d="M10 5a1 1 0 00-1 1v8a1 1 0 102 0V6a1 1 0 00-1-1zm3 3a1 1 0 112 0v6a1 1 0 11-2 0V8zm-7 2a1 1 0 00-1 1v3a1 1 0 102 0v-3a1 1 0 00-1-1z"/></symbol><symbol id="favorite" xmlns="http://www.w3.org/2000/svg" viewBox="0 0 20 20"><path fill-rule="evenodd" clip-rule="evenodd" d="M6 3a4 4 0 00-2.597 7.043l.019.015L10 16.253l6.582-6.198.018-.015a4 4 0 10-5.8-5.44L10 5.664 9.2 4.6A3.992 3.992 0 006 3zM0 7a6 6 0 0110-4.472 6 6 0 117.92 9.015L10 19l-7.915-7.453A5.989 5.989 0 010 7z"/></symbol><symbol id="cart" xmlns="http://www.w3.org/2000/svg" viewBox="0 0 20 18"><path d="M.723.048C.009.24-.229 1.171.3 1.7c.281.281.288.282 1.658.294l1.208.01.017.073c.009.04.363 1.978.785 4.306.423 2.329.791 4.324.82 4.434.253.983 1.106 1.814 2.145 2.091l.284.075h4.5c5.082 0 4.649.023 5.25-.272.267-.131.364-.203.619-.458.513-.513.492-.454 1.287-3.62l.674-2.683.002-.45c.001-.381-.011-.488-.077-.7A2.532 2.532 0 0017.7 3.079c-.206-.059-.506-.062-6.271-.071l-6.055-.009-.057-.325C5.052 1.18 4.994 1.019 4.568.596A1.92 1.92 0 003.583.05C3.268-.016.967-.018.723.048m16.576 5.01a.484.484 0 01.267.439c-.002.219-1.243 5.156-1.325 5.266a.834.834 0 01-.175.162l-.111.076-4.286-.009-4.286-.009-.14-.075a1.603 1.603 0 01-.257-.177c-.24-.211-.25-.251-.752-3.015a408.9 408.9 0 00-.484-2.641L5.732 5h5.726c5.384 0 5.732.004 5.841.058M5.15 15.046c-.399.098-.815.423-.983.77-.219.453-.218.914.003 1.375.098.204.435.541.639.639.621.298 1.27.195 1.743-.278.579-.579.598-1.46.045-2.065a1.522 1.522 0 00-1.447-.441m10.992.005a1.518 1.518 0 00-1.118 1.232c-.163.952.741 1.856 1.693 1.693a1.518 1.518 0 001.259-1.259c.174-1.014-.838-1.934-1.834-1.666" fill-rule="evenodd"/></symbol><symbol xmlns="http://www.w3.org/2000/svg" viewBox="0 0 14 14" id="catalog"><path d="M1 0a1 1 0 100 2 1 1 0 000-2zm0 6a1 1 0 100 2 1 1 0 000-2zm0 6a1 1 0 100 2 1 1 0 000-2zM6 1a1 1 0 112 0 1 1 0 01-2 0zm0 6a1 1 0 112 0 1 1 0 01-2 0zm0 6a1 1 0 112 0 1 1 0 01-2 0zm6-12a1 1 0 112 0 1 1 0 01-2 0zm0 6a1 1 0 112 0 1 1 0 01-2 0zm0 6a1 1 0 112 0 1 1 0 01-2 0z"/></symbol><symbol xmlns="http://www.w3.org/2000/svg" viewBox="0 0 16 16" id="close"><path fill-rule="evenodd" clip-rule="evenodd" d="M.293.293a1 1 0 011.414 0L8 6.586 14.293.293a1 1 0 111.414 1.414L9.414 8l6.293 6.293a1 1 0 01-1.414 1.414L8 9.414l-6.293 6.293a1 1 0 01-1.414-1.414L6.586 8 .293 1.707a1 1 0 010-1.414z"/></symbol></svg>