<svg width="1592" height="24" viewBox="0 0 1592 24" fill="none" xmlns="http://www.w3.org/2000/svg">
<path fill-rule="evenodd" clip-rule="evenodd" d="M0 24L1.69534 17.8373C0.647766 16.0295 0.0975668 13.9787 0.100198 11.8918C0.102842 5.33475 5.46369 0 12.0501 0C13.62 0.000277823 15.1745 0.308364 16.6248 0.906661C18.075 1.50496 19.3927 2.38174 20.5024 3.48693C21.6121 4.59212 22.4921 5.90406 23.0923 7.34782C23.6924 8.79157 24.0008 10.3388 24 11.9013C23.9973 18.4585 18.6362 23.7938 12.0503 23.7938H12.0453C10.0502 23.7937 8.08688 23.2961 6.33479 22.3463L0 24Z" fill="#26E67A"/>
<path fill-rule="evenodd" clip-rule="evenodd" d="M17.9606 14.4288C17.8928 14.3182 17.7125 14.2519 17.4419 14.1192C17.1713 13.9865 15.8407 13.3454 15.5926 13.2569C15.3445 13.1684 15.1641 13.1242 14.9837 13.3896C14.8033 13.6549 14.2846 14.2519 14.1267 14.4287C13.9687 14.6056 13.811 14.6277 13.5404 14.4951C13.2698 14.3624 12.3977 14.0825 11.3639 13.1797C10.5593 12.4769 10.0162 11.6091 9.85831 11.3437C9.70043 11.0784 9.84148 10.935 9.97695 10.8029C10.0987 10.6841 10.2479 10.4933 10.383 10.3386C10.518 10.1838 10.5634 10.0732 10.6536 9.89644C10.7439 9.71964 10.6987 9.56479 10.631 9.43212C10.5634 9.29946 10.0221 7.99492 9.79661 7.46427C9.57688 6.94755 9.35371 7.0175 9.18764 7.00934C9.02997 7.00168 8.84937 7 8.66898 7C8.53181 7.00351 8.39688 7.03479 8.27267 7.09187C8.14846 7.14895 8.03766 7.23059 7.94725 7.33166C7.69917 7.59698 7 8.23815 7 9.54254C7 10.8469 7.96981 12.1072 8.10513 12.2841C8.24045 12.461 10.0135 15.1378 12.7284 16.2858C13.2323 16.4984 13.7473 16.6848 14.2713 16.8441C14.9197 17.0458 15.5096 17.0175 15.976 16.9491C16.496 16.873 17.5772 16.3079 17.8027 15.6888C18.0283 15.0696 18.0283 14.5393 17.9606 14.4288Z" fill="white"/>
<path d="M53.3108 2.65637C52.6831 2.03022 50.1417 0.0446584 44.4849 0.0199419C44.4849 0.0199419 37.81 -0.416707 34.5338 2.79643C32.7196 4.74903 32.0843 7.59965 32.0154 11.1341C32.0101 11.4057 32.0047 11.6955 32.002 12C32.0047 12.3045 32.0101 12.5943 32.0154 12.8659C32.0843 16.4003 32.7196 19.251 34.5338 21.2036C37.81 24.4167 44.4849 23.9801 44.4849 23.9801C50.1417 23.9553 52.6831 21.9698 53.3108 21.3436C54.9824 19.7826 56.0569 16.6922 55.9998 12C56.0569 7.30776 54.9824 4.21738 53.3108 2.65637Z" fill="#7362EF"/>
<path d="M45.9522 12.4478C45.7731 12.448 45.6126 12.2995 45.604 12.1258C45.6258 11.8956 45.5963 11.6635 45.5174 11.4454C45.4386 11.2272 45.3122 11.0281 45.1471 10.8616C44.9819 10.6951 44.7817 10.5651 44.5601 10.4804C44.3386 10.3957 44.1008 10.3584 43.8631 10.3709C43.6784 10.3603 43.5246 10.192 43.5356 10.0127C43.5466 9.83337 43.7198 9.68405 43.9045 9.69473C44.2297 9.685 44.5534 9.74152 44.8547 9.86064C45.156 9.97976 45.4283 10.1588 45.654 10.3863C45.8797 10.6138 46.0538 10.8847 46.1651 11.1816C46.2765 11.4784 46.3226 11.7946 46.3004 12.1097C46.31 12.3002 46.1484 12.4717 45.9522 12.4478Z" fill="white"/>
<path d="M47.8405 12.4639C48.0124 12.4647 48.1644 12.3038 48.1476 12.1387C48.2042 11.056 47.8135 9.9958 47.0614 9.19031C46.2343 8.36464 45.1047 7.88467 43.9149 7.85341C43.739 7.81746 43.5488 7.95549 43.5358 8.12844C43.5229 8.30139 43.6905 8.46438 43.8699 8.4532C44.9006 8.47382 45.8809 8.88689 46.5969 9.60223C47.2461 10.2891 47.5898 11.2253 47.5333 12.1532C47.5293 12.3126 47.6752 12.4602 47.8405 12.4639Z" fill="white"/>
<path d="M49.3159 13.0591C49.4119 11.3376 48.7334 9.60585 47.4785 8.36926C46.2835 7.25201 44.6246 6.62433 42.9544 6.65749C42.7725 6.65749 42.6114 6.50333 42.6114 6.3292C42.6114 6.15507 42.7725 6.00092 42.9544 6.00092C44.8 5.97118 46.6306 6.66687 47.9522 7.90028C49.3252 9.25428 50.077 11.1426 49.9937 13.0278C49.9937 13.2019 49.8327 13.3561 49.6508 13.3561C49.4676 13.3561 49.3159 13.2536 49.3159 13.0591Z" fill="white"/>
<path d="M44.6105 14.9715C43.7412 14.7148 42.9505 14.2481 42.31 13.6138C41.6696 12.9794 41.1996 12.1973 40.9427 11.3385C40.9049 10.8383 41.352 10.594 41.6979 10.327C42.109 9.95229 42.0179 9.44249 41.7555 9.0132C41.3615 8.36848 40.8926 7.79996 40.4169 7.21301C40.1705 6.91418 39.7009 6.83943 39.3718 7.04666C38.7123 7.55731 37.7559 8.51906 38.0571 9.42877C38.6 11.0057 39.4715 12.5055 40.518 13.8071C41.0265 14.4381 41.6326 15.012 42.2709 15.5105C43.5879 16.5491 45.1152 17.4026 46.7073 17.9458C47.1983 18.0978 47.7149 17.9155 48.0894 17.5799C48.4316 17.2767 48.7229 16.9219 48.9524 16.5285C49.1566 16.2134 49.0914 15.7885 48.8045 15.5177C48.1978 14.9715 47.4729 14.5023 46.7882 14.0732C46.4289 13.848 45.9215 13.9154 45.6353 14.2263C45.3632 14.5641 45.1113 15.0084 44.6105 14.9715Z" fill="white"/>
<circle cx="75.9989" cy="11.9989" r="11.9989" fill="#25A4E4"/>
<path fill-rule="evenodd" clip-rule="evenodd" d="M68.929 11.1711C72.159 9.66168 75.3817 8.1276 78.6626 6.73096C80.0578 6.13702 80.5027 6.0063 80.8273 6.00017C81.4303 5.98878 81.5503 6.55859 81.5074 7.04219C81.3201 9.1526 80.5099 14.274 80.0976 16.6377C79.9232 17.6379 79.5797 17.9732 79.2472 18.006C78.5246 18.0774 77.9759 17.4938 77.2761 17.0017C76.1809 16.2317 75.5622 15.7524 74.4991 15.001C73.2706 14.1326 74.067 13.6554 74.7671 12.8754C74.9504 12.6713 78.1342 9.56511 78.1958 9.28334C78.2445 9.06085 78.0682 8.97483 77.8803 9.02059C77.7704 9.04733 76.0209 10.2877 72.6316 12.7416C72.135 13.1074 71.6852 13.2856 71.2822 13.2762C70.8379 13.2659 69.9833 13.0068 69.3479 12.7853C68.5687 12.5136 67.9493 12.3699 68.0033 11.9085C68.0314 11.6682 68.3399 11.4224 68.929 11.1711Z" fill="white"/>
<rect x="95.998" width="23.9978" height="23.9978" rx="8" fill="black"/>
<path d="M113.991 7.88064C112.094 7.88064 110.556 6.37355 110.537 4.50073H108.307L108.305 13.8221C108.305 14.96 107.338 15.8765 106.169 15.8131C105.119 15.7561 104.275 14.901 104.259 13.8522C104.242 12.7371 105.154 11.828 106.282 11.828C106.504 11.828 106.718 11.8639 106.918 11.9291V9.69126C106.707 9.66037 106.492 9.64426 106.275 9.64426C104.086 9.64426 102.145 11.3514 102.007 13.5589C101.856 15.9762 103.91 17.9995 106.275 17.9995C108.557 17.9995 110.542 16.1252 110.551 13.8393L110.54 8.91309C111.528 9.66619 112.756 10.0748 113.997 10.0744V7.88011L113.991 7.88064Z" fill="white"/>
<path fill-rule="evenodd" clip-rule="evenodd" d="M129.682 1.68707C127.995 3.37413 127.995 6.0894 127.995 11.52V12.48C127.995 17.9106 127.995 20.6259 129.682 22.313C131.369 24 134.085 24 139.515 24H140.475C145.906 24 148.621 24 150.308 22.313C151.995 20.6259 151.995 17.9106 151.995 12.48V11.52C151.995 6.0894 151.995 3.37413 150.308 1.68707C148.621 0 145.906 0 140.475 0H139.515C134.085 0 131.369 0 129.682 1.68707Z" fill="#0077FF"/>
<path d="M134.686 8.75C134.979 12.1779 136.775 13.8836 138.473 14.2725L139.39 14.4824V8.75H140.146V11.9902L140.97 11.9092C141.881 11.8194 142.739 11.3148 143.413 10.665C143.961 10.1361 144.427 9.471 144.737 8.75H145.458C144.919 9.97243 143.861 10.8982 143.055 11.3252L141.67 12.0586L143.11 12.6768C143.927 13.0273 145.147 13.8517 145.885 15.25H145.015C144.292 13.7212 142.839 12.5655 140.965 12.3945L140.146 12.3193V15.2373C138.156 15.1443 136.65 14.4683 135.607 13.3604C134.6 12.2899 133.96 10.7458 133.792 8.75H134.686Z" fill="white" stroke="white" stroke-width="1.49986"/>
<circle cx="171.995" cy="12" r="12" fill="black"/>
<path d="M183.99 12.3599C183.993 12.2404 183.995 12.1204 183.995 12C183.995 11.8796 183.993 11.7596 183.99 11.6401C179.13 11.5793 176.397 11.2463 174.573 9.42219C172.749 7.59819 172.416 4.86544 172.355 0.00529437C172.235 0.00177302 172.116 0 171.995 0C171.875 0 171.755 0.00177302 171.635 0.00529437C171.574 4.86544 171.241 7.59819 169.417 9.42219C167.593 11.2463 164.861 11.5793 160 11.6401C159.997 11.7596 159.995 11.8796 159.995 12C159.995 12.1204 159.997 12.2404 160 12.3599C164.861 12.4207 167.593 12.7538 169.417 14.5778C171.241 16.4018 171.574 19.1346 171.635 23.9947C171.755 23.9982 171.875 24 171.995 24C172.116 24 172.235 23.9982 172.355 23.9947C172.416 19.1346 172.749 16.4018 174.573 14.5778C176.397 12.7538 179.13 12.4207 183.99 12.3599Z" fill="white"/>
<path d="M191.995 11.5194C191.995 6.09187 191.995 3.36396 193.677 1.68198C195.373 1.34795e-07 198.087 0 203.515 0H204.476C209.903 0 212.631 1.34795e-07 214.313 1.68198C215.995 3.36396 215.995 6.09187 215.995 11.5194V12.4806C215.995 17.9081 215.995 20.636 214.313 22.318C212.631 24 209.903 24 204.476 24H203.515C198.087 24 195.359 24 193.677 22.318C191.995 20.636 191.995 17.9223 191.995 12.4806V11.5194Z" fill="#FF7700"/>
<path d="M203.995 11.9995C205.032 11.9995 205.97 11.5745 206.645 10.8995C207.32 10.2246 207.745 9.28716 207.745 8.24973C207.745 7.2123 207.32 6.27487 206.645 5.59992C205.97 4.92497 205.032 4.5 203.995 4.5C202.957 4.5 202.02 4.92497 201.345 5.59992C200.67 6.27487 200.245 7.2123 200.245 8.24973C200.245 9.28716 200.67 10.2246 201.345 10.8995C202.02 11.5745 202.97 11.9995 203.995 11.9995ZM202.795 7.03732C203.107 6.72484 203.532 6.53735 203.995 6.53735C204.47 6.53735 204.895 6.72484 205.195 7.03732C205.507 7.34979 205.695 7.77476 205.695 8.23723C205.695 8.7122 205.507 9.13717 205.195 9.43714C204.882 9.74962 204.457 9.93711 203.995 9.93711C203.52 9.93711 203.095 9.74962 202.795 9.43714C202.482 9.12467 202.295 8.6997 202.295 8.23723C202.295 7.77476 202.495 7.34979 202.795 7.03732Z" fill="white"/>
<path d="M208.647 13.5334L207.633 12.0723C207.575 11.9871 207.46 11.9749 207.391 12.048C206.434 12.9124 205.259 13.4725 203.991 13.4725C202.724 13.4725 201.548 12.9124 200.592 12.048C200.523 11.9871 200.408 11.9993 200.35 12.0723L199.336 13.5334C199.29 13.6065 199.301 13.7039 199.359 13.7647C200.212 14.4953 201.203 14.9945 202.24 15.2502L200.097 19.2438C200.039 19.3534 200.12 19.4995 200.235 19.4995H202.332C202.401 19.4995 202.459 19.4629 202.482 19.3899L203.98 15.8589L205.478 19.3899C205.501 19.4508 205.559 19.4995 205.628 19.4995H207.725C207.852 19.4995 207.921 19.3655 207.863 19.2438L205.72 15.2502C206.757 14.9945 207.748 14.5074 208.601 13.7647C208.693 13.7039 208.704 13.6065 208.647 13.5334Z" fill="white"/>
<path fill-rule="evenodd" clip-rule="evenodd" d="M230.995 0C227.129 0 223.995 3.00865 223.995 6.72V17.28C223.995 20.9914 227.129 24 230.995 24H240.995C244.861 24 247.995 20.9914 247.995 17.28V6.72C247.995 3.00865 244.861 0 240.995 0H230.995Z" fill="#FC0017"/>
<path fill-rule="evenodd" clip-rule="evenodd" d="M241 12L233 8V16L241 12Z" fill="white"/>
<path d="M268.494 -0.00012207C273.916 -0.00012207 276.628 -0.00012207 278.31 1.68444C279.995 3.369 279.995 6.07836 279.995 11.4995V12.5003C279.995 17.9214 279.995 20.6308 278.31 22.3153C276.626 23.9999 273.916 23.9999 268.494 23.9999H267.494C262.072 23.9999 259.362 23.9999 257.678 22.3153C255.995 20.6308 255.995 17.919 255.995 12.4979V11.4971C255.995 6.07836 255.995 3.3666 257.68 1.68444C259.362 -0.00012207 262.074 -0.00012207 267.496 -0.00012207H268.497H268.494Z" fill="#0077FF"/>
<mask id="mask0_4273_82083" style="mask-type:alpha" maskUnits="userSpaceOnUse" x="255" y="-1" width="25" height="25">
<path d="M268.495 -0.000244141C273.917 -0.000244141 276.629 -0.000244141 278.311 1.68432C279.996 3.36888 279.996 6.07824 279.996 11.4994V12.5002C279.996 17.9213 279.996 20.6306 278.311 22.3152C276.626 23.9998 273.917 23.9998 268.495 23.9998H267.494C262.073 23.9998 259.363 23.9998 257.678 22.3152C255.996 20.6306 255.996 17.9189 255.996 12.4978V11.497C255.996 6.07824 255.996 3.36648 257.681 1.68432C259.363 -0.000244141 262.075 -0.000244141 267.497 -0.000244141H268.498H268.495Z" fill="#0077FF"/>
</mask>
<g mask="url(#mask0_4273_82083)">
<path d="M262.278 32.8859C266.53 34.0081 268.835 34.4692 270.684 33.4184C272.742 32.2523 273.434 29.6693 274.818 24.5056L276.545 18.018C277.928 12.8566 278.62 10.2734 277.421 8.23472C276.344 6.40018 274.119 5.6472 269.875 4.49527C265.624 3.37072 263.318 2.90957 261.47 3.96038C259.411 5.12864 258.719 7.70943 257.335 12.8732L255.608 19.3608C254.224 24.5246 253.532 27.1051 254.731 29.1462C254.862 29.3701 255.011 29.5781 255.179 29.7724C255.663 30.3344 256.304 30.7843 257.14 31.1873C257.721 31.4674 261.094 32.5641 262.278 32.8859Z" fill="#D256FF"/>
</g>
<path d="M264.384 11.3562C265.229 11.1391 266.183 11.2629 266.936 11.7087C267.754 12.1926 268.248 12.9929 268.471 13.7429C268.658 14.3703 268.3 15.0299 267.673 15.2165C267.232 15.3477 266.775 15.2102 266.477 14.8991C266.025 14.4256 266.078 13.6634 265.269 13.6296C264.83 13.6113 264.345 13.9094 264.209 14.6824L264.177 14.8943C263.909 17.0699 265.505 18.6997 267.238 19.0046C269.029 19.3194 270.757 18.2967 271.378 16.6452C271.644 15.9366 271.71 15.1423 271.658 14.3913C271.613 13.7383 272.106 13.172 272.759 13.1267C273.412 13.0816 273.978 13.5751 274.023 14.2282C274.069 14.897 274.042 15.5495 273.895 16.3855C273.31 19.7168 270.133 21.9215 266.828 21.3406C263.98 20.8399 261.205 18.0621 261.873 14.2712C262.118 12.8754 263.046 11.6997 264.384 11.3562ZM270.968 4.87473C271.192 4.15314 271.959 3.74942 272.68 3.97337C273.402 4.19739 273.806 4.96449 273.582 5.68626C273.314 6.54768 272.969 7.38099 272.57 8.18821C272.218 8.89991 271.824 9.59168 271.404 10.2644C271.004 10.9053 270.16 11.1006 269.519 10.7009C268.887 10.3061 268.687 9.44792 269.082 8.81516C269.448 8.2267 269.793 7.62324 270.102 7.00266C270.444 6.31673 270.74 5.60853 270.968 4.87473ZM266.419 2.65598C267.166 2.69082 267.758 3.34783 267.722 4.08665C267.702 4.51821 267.68 4.95087 267.65 5.38255C267.575 6.46956 267.399 7.54566 267.189 8.61399C267.044 9.35565 266.324 9.83854 265.583 9.69309C264.805 9.54044 264.369 8.7825 264.514 8.03001C264.56 7.79537 264.603 7.56014 264.645 7.32493C264.724 6.88766 264.804 6.40342 264.839 6.1013C264.911 5.46706 264.943 4.82746 264.976 4.19016C264.999 3.75816 265.073 3.36228 265.398 3.04466C265.66 2.78853 266.024 2.63763 266.419 2.65598Z" fill="white"/>
<path d="M299.995 24C306.638 24 311.995 18.6429 311.995 12C311.995 5.35714 306.638 0 299.995 0C293.352 0 287.995 5.35714 287.995 12C287.995 18.6429 293.352 24 299.995 24Z" fill="#FED42B"/>
<mask id="mask1_4273_82083" style="mask-type:luminance" maskUnits="userSpaceOnUse" x="287" y="0" width="25" height="24">
<path d="M299.995 24C306.638 24 311.995 18.6429 311.995 12C311.995 5.35714 306.638 0 299.995 0C293.352 0 287.995 5.35714 287.995 12C287.995 18.6429 293.352 24 299.995 24Z" fill="white"/>
</mask>
<g mask="url(#mask1_4273_82083)">
<path d="M294.103 6.53572L283.603 20.25L286.388 23.4643L294.21 13.1786L293.46 18.8572L297.853 20.3572L303.103 11.7857C302.888 13.3929 302.46 17.0357 305.995 18.1072C311.46 19.8214 316.281 9.85715 318.531 4.92858L315.317 3.21429C312.853 8.35715 308.995 14.1429 307.495 13.7143C305.995 13.2857 307.388 8.46429 308.245 5.35715L303.424 3.75001L297.638 13.1786L298.388 8.03572L294.103 6.53572Z" fill="black"/>
</g>
<rect x="319.995" width="24" height="24" rx="8" fill="#FF4F64"/>
<path d="M325 13L335 5L333 11H339L329 19L331 13H325Z" fill="white"/>
<rect x="351.995" width="24" height="24" rx="6" fill="black"/>
<path d="M366.781 7H358V17H360.444V13.7466H365.127L367.263 17H370L367.644 13.7317C368.376 13.6117 368.902 13.3269 369.224 12.8771C369.546 12.4273 369.707 11.7077 369.707 10.7481V9.99853C369.707 9.42879 369.649 8.97903 369.546 8.63417C369.444 8.28935 369.268 7.9895 369.02 7.71964C368.756 7.46477 368.463 7.28486 368.112 7.16491C367.761 7.05997 367.322 7 366.781 7ZM366.385 11.5427H360.444V9.20388H366.385C366.722 9.20388 366.956 9.26387 367.073 9.36881C367.19 9.47375 367.263 9.66867 367.263 9.95353V10.7931C367.263 11.093 367.19 11.2879 367.073 11.3928C366.956 11.4977 366.722 11.5427 366.385 11.5427Z" fill="white"/>
<path d="M370.5 7C371.328 7 372 6.32843 372 5.5C372 4.67157 371.328 4 370.5 4C369.672 4 369 4.67157 369 5.5C369 6.32843 369.672 7 370.5 7Z" fill="#F41240"/>
<g clip-path="url(#clip0_4273_82083)">
<path fill-rule="evenodd" clip-rule="evenodd" d="M391.195 0C387.219 0 383.995 3.22355 383.995 7.2V16.8C383.995 20.7764 387.219 24 391.195 24H400.795C404.772 24 407.995 20.7764 407.995 16.8V7.2C407.995 3.22355 404.772 0 400.795 0H391.195Z" fill="#005BFF"/>
<path d="M394.196 7.8001C396.302 7.23557 399.372 6.7184 400.796 7.20012C402.239 7.6883 403.621 9.54931 403.796 10.2001C403.97 10.851 403.001 12.6558 401.996 13.8001C401.003 14.9293 399.72 16.1338 397.613 16.6983C395.506 17.2628 392.62 17.18 391.196 16.6983C389.753 16.2101 388.37 15.0509 388.196 14.4001C388.021 13.7493 388.252 11.9444 389.258 10.8001C390.25 9.67094 392.089 8.36462 394.196 7.8001Z" fill="#F50057"/>
<path d="M388.407 16.6983L387.696 23.094C388.732 23.6712 389.926 24.0001 391.196 24.0001H400.796C403.861 24.0001 406.479 22.0843 407.518 19.3847L404.558 13.0955C403.426 15.2474 400.875 17.1633 397.613 18.0374C393.941 19.0212 390.389 18.4114 388.407 16.6983Z" fill="#F50057"/>
<path fill-rule="evenodd" clip-rule="evenodd" d="M405.843 9.39018C404.872 5.80411 399.678 4.06534 394.242 5.50669C388.806 6.94804 385.186 11.0237 386.157 14.6098C387.128 18.1959 392.322 19.9347 397.758 18.4933C403.194 17.052 406.814 12.9763 405.843 9.39018ZM389.438 13.74C388.995 12.1056 391.307 9.53275 395.062 8.5369C398.818 7.54105 402.119 8.62438 402.562 10.26C403.005 11.8956 400.693 14.4673 396.938 15.4631C393.182 16.4589 389.88 15.3744 389.438 13.74Z" fill="white"/>
</g>
<rect x="415.995" width="24" height="24" rx="7.19933" fill="#BC0DA3"/>
<path d="M418.995 8L421.173 15.9994H422.822L424.558 10.0327L426.31 15.9994H427.973L430.151 8H428.723L427.046 14.1713L425.25 8H423.911L422.115 14.1421L420.437 8H418.995Z" fill="white"/>
<path fill-rule="evenodd" clip-rule="evenodd" d="M436.288 15.3413C436.744 14.9318 437.009 14.3322 436.995 13.718C437.009 12.9283 436.568 12.1971 435.861 11.8461C436.391 11.4805 436.715 10.8663 436.685 10.2229C436.7 9.62325 436.45 9.03829 435.994 8.64344C435.523 8.23396 434.919 8 434.301 8.0146H431.063V15.9994H434.551C435.199 16.014 435.817 15.78 436.288 15.3413ZM432.403 11.3489V9.24305H434.301C434.89 9.24305 435.361 9.71101 435.361 10.296C435.361 10.8809 434.89 11.3489 434.301 11.3489H432.403ZM435.626 13.601C435.655 14.2152 435.17 14.7271 434.551 14.7563L432.403 14.7709V12.5335H434.551C435.125 12.5481 435.611 13.016 435.626 13.601Z" fill="white"/>
<path fill-rule="evenodd" clip-rule="evenodd" d="M471.995 12C471.995 18.6274 466.623 24 459.995 24C453.368 24 447.995 18.6274 447.995 12C447.995 5.37258 453.368 0 459.995 0C466.623 0 471.995 5.37258 471.995 12ZM461.631 19.0143H464.003V19.0102H463.987V4.98574H460.559C457.116 4.98574 455.298 6.82042 455.298 9.51751C455.298 11.6756 456.296 12.9547 458.071 14.2649L454.985 19.0122H457.535L460.964 13.6948L459.771 12.8635C458.323 11.8622 457.623 11.0765 457.623 9.38068C457.623 7.88599 458.638 6.88469 460.575 6.88469H461.631V19.0143Z" fill="#FC3F1D"/>
<path fill-rule="evenodd" clip-rule="evenodd" d="M461.632 19.0143H464.004V19.0101H463.988V4.98572H460.559C457.117 4.98572 455.298 6.8204 455.298 9.51748C455.298 11.6756 456.297 12.9547 458.071 14.2649L454.985 19.0122H457.536L460.964 13.6948L459.771 12.8634C458.324 11.8621 457.624 11.0764 457.624 9.38066C457.624 7.88597 458.638 6.88467 460.575 6.88467H461.632V19.0143Z" fill="white"/>
<path d="M503.995 12.0293C503.995 16.1561 502.066 18.0878 499.639 18.0878C498.236 18.0878 497.009 17.3561 496.307 16.2439C495.196 17.3561 493.705 18.0585 492.01 18.0585C488.677 18.0585 485.988 15.3659 485.988 12.0293C485.988 8.69268 488.677 6 492.01 6C495.342 6 498.032 8.69268 498.032 12.0293V13.9902C498.032 14.9854 498.733 15.6878 499.639 15.6878C500.721 15.6878 501.598 14.7805 501.598 12.0293C501.598 6.73171 497.301 2.42927 492.01 2.42927C486.719 2.42927 482.392 6.73171 482.392 12.0293C482.392 17.3268 486.689 21.6293 491.981 21.6293C495.05 21.6293 497.155 20.1073 497.155 20.1073L498.733 21.9219C498.733 21.9219 496.044 24 491.981 24C485.374 24 479.995 18.6146 479.995 12C479.995 5.38537 485.374 0 491.981 0C498.616 0.0292683 503.995 5.41463 503.995 12.0293ZM492.01 15.6878C494.027 15.6878 495.664 14.0488 495.664 12.0293C495.664 10.0098 494.027 8.37073 492.01 8.37073C489.993 8.37073 488.356 10.0098 488.356 12.0293C488.356 14.0488 489.993 15.6878 492.01 15.6878Z" fill="#FD9C24"/>
<circle cx="523.97" cy="11.9989" r="11.9989" fill="#E60019"/>
<path d="M520.429 23.4668C520.145 23.3792 519.865 23.2812 519.59 23.1735C519.484 22.2228 519.399 20.7399 519.631 19.7234C519.848 18.7856 521.033 13.761 521.033 13.761C521.033 13.761 520.677 13.0403 520.677 11.9841C520.677 10.3158 521.645 9.07197 522.849 9.07197C523.876 9.07197 524.369 9.84195 524.369 10.76C524.369 11.4212 524.099 12.2952 523.815 13.216L523.815 13.2161C523.657 13.7251 523.495 14.2484 523.372 14.758C523.086 15.9525 523.975 16.9297 525.149 16.9297C527.282 16.9297 528.92 14.679 528.92 11.4411C528.92 8.56852 526.857 6.56459 523.905 6.56459C520.49 6.56459 518.486 9.12133 518.486 11.7669C518.486 12.7935 518.881 13.8992 519.374 14.5013C519.473 14.6198 519.483 14.7284 519.453 14.8468C519.401 15.066 519.309 15.437 519.233 15.741L519.233 15.7416C519.179 15.9574 519.134 16.1394 519.118 16.2091C519.068 16.4263 518.94 16.4756 518.713 16.3671C517.232 15.6563 516.304 13.4648 516.304 11.7077C516.304 7.92687 519.049 4.45208 524.231 4.45208C528.387 4.45208 531.625 7.41355 531.625 11.3819C531.625 15.5181 529.019 18.8448 525.406 18.8448C524.192 18.8448 523.047 18.213 522.662 17.4628L521.911 20.3157C521.651 21.3373 520.922 22.6606 520.429 23.4668Z" fill="white"/>
<circle cx="555.968" cy="11.9989" r="11.9989" fill="#1F7AEF"/>
<path d="M557.842 23.8523V15.5622H560.638L561.169 12.0718H557.842V9.80726C557.842 8.85152 558.307 7.92122 559.797 7.92122H561.311V4.95032C561.311 4.95032 559.937 4.71436 558.625 4.71436C555.884 4.71436 554.092 6.38653 554.092 9.41173V12.0719H551.045V15.5623H554.092V23.8523C554.703 23.9481 555.329 23.9979 555.967 23.9979C556.605 23.9979 557.231 23.9481 557.842 23.8523Z" fill="white"/>
<path d="M575.995 6C575.995 2.68629 578.681 0 581.995 0H593.995C597.309 0 599.995 2.68629 599.995 6V18C599.995 21.3137 597.309 24 593.995 24H581.995C578.681 24 575.995 21.3137 575.995 18V6Z" fill="black"/>
<path d="M592.058 5.99872H594.205L589.515 11.0823L595.033 17.9998H590.712L587.328 13.8044L583.456 17.9998H581.308L586.325 12.5624L581.031 5.99872H585.461L588.52 9.83353L592.058 5.99872ZM591.305 16.7813H592.494L584.815 7.15329H583.538L591.305 16.7813Z" fill="white"/>
<path d="M630.112 16.9627C629.021 16.4267 625.92 14.4423 626.537 12.7937C626.697 12.3653 627.211 12.045 627.94 11.5308C628.84 10.89 628.966 9.69512 628.372 9.11664C628.09 8.84236 627.647 8.70665 627.048 8.83424C626.937 8.85887 626.054 9.12497 626.055 9.11664C626.143 7.01478 626.106 4.87521 624.66 3.18829C623.515 1.85307 621.727 1.20001 619.997 1.20001C618.27 1.20001 616.477 1.85388 615.334 3.18829C613.887 4.87676 613.853 7.01386 613.939 9.11669C613.939 9.14171 613.053 8.85853 612.944 8.83424C612.343 8.7042 611.899 8.84058 611.618 9.11669C611.028 9.69645 611.155 10.8923 612.052 11.5308C612.771 12.0486 613.286 12.3681 613.45 12.7937C614.083 14.4376 610.964 16.4297 609.879 16.9627C609.044 17.3876 608.944 18.2723 609.879 18.6964C610.591 19.0192 611.633 19.1316 611.951 19.55C612.213 19.8941 612.065 20.3393 612.487 20.6364C613.292 21.1972 614.704 20.8767 615.634 21.1898C617.19 21.7099 618.194 22.8 619.99 22.8C621.786 22.8 622.793 21.712 624.348 21.1921C625.275 20.8801 626.696 21.2015 627.496 20.6386C627.916 20.3435 627.769 19.8934 628.032 19.5545C628.349 19.1461 629.396 19.0326 630.112 18.7099C631.055 18.2851 630.953 17.3907 630.112 16.9627Z" fill="#FFFC00"/>
<path fill-rule="evenodd" clip-rule="evenodd" d="M617.183 23.2611C617.929 23.6357 618.824 23.9967 619.987 23.9978C620.985 23.9978 621.921 23.7052 622.805 23.2611C623.444 22.9401 624.057 22.5556 624.739 22.3273C624.999 22.2399 625.34 22.2413 626.039 22.2058C626.578 22.1785 627.475 22.1248 628.195 21.6187C628.64 21.3064 628.885 20.8518 629.013 20.3362C629.54 20.1352 630.099 20.0349 630.616 19.8021C631.391 19.4533 632.029 18.7476 631.991 17.7893C631.957 16.8958 631.345 16.2365 630.667 15.8919L630.66 15.888L630.652 15.8842C630.184 15.6545 629.238 15.0854 628.507 14.4116C628.224 14.1509 627.666 13.6793 627.665 13.24C627.941 12.9446 628.312 12.742 628.641 12.5103L628.645 12.5073C629.996 11.5464 630.482 9.48572 629.219 8.25618C628.702 7.75336 628.016 7.54514 627.289 7.59243C627.253 5.86794 626.935 3.98889 625.579 2.40725C624.159 0.752417 622.006 0 620.002 0H620.001C617.916 0 615.785 0.803286 614.409 2.40725C613.053 3.98889 612.735 5.86794 612.699 7.59243C611.972 7.54514 611.286 7.75336 610.769 8.25618C609.506 9.48572 609.992 11.5464 611.343 12.5073L611.347 12.5103C611.676 12.742 612.047 12.9446 612.323 13.24C612.322 13.6793 611.764 14.1508 611.481 14.4116C610.75 15.0854 609.804 15.6545 609.336 15.8842L609.328 15.888L609.321 15.8919C608.643 16.2365 608.031 16.8958 607.997 17.7893C607.959 18.7476 608.597 19.4533 609.372 19.8021C609.889 20.0349 610.448 20.1352 610.975 20.3362C611.103 20.8518 611.348 21.3064 611.793 21.6187C612.513 22.1248 613.41 22.1785 613.949 22.2058C614.648 22.2413 614.989 22.2399 615.249 22.3273C615.931 22.5555 616.544 22.9401 617.183 23.2611ZM620.001 21.598C621.442 21.5957 622.652 20.4941 623.975 20.0521C624.544 19.8613 625.233 19.8356 625.698 19.8182C626.028 19.8059 626.376 19.8082 626.694 19.7093C626.853 19.0468 627.264 18.5043 627.884 18.21C628.28 18.0219 628.707 17.9137 629.126 17.7899C628.485 17.4273 627.617 16.8554 626.88 16.1763C626.412 15.7455 625.936 15.2167 625.625 14.6163C625.308 14.0059 625.108 13.2077 625.421 12.372C625.613 11.8593 625.979 11.5076 626.269 11.2681C626.498 11.0794 626.784 10.8801 627.055 10.6905C627.285 10.5305 627.613 10.3153 627.54 9.98782C626.718 9.88552 625.959 10.7348 625.2 9.95007C624.977 9.71968 624.847 9.39942 624.864 9.05876C624.952 6.93997 624.863 5.25963 623.756 3.96871C622.885 2.95362 621.461 2.39978 620.002 2.39978L620.001 2.39978C618.611 2.39978 617.156 2.8918 616.232 3.96871C615.125 5.25963 615.036 6.93997 615.124 9.05876C615.209 10.823 613.372 9.8729 612.448 9.98782C612.378 10.3029 612.714 10.5382 612.933 10.6905C613.204 10.8801 613.49 11.0794 613.719 11.2681C614.009 11.5076 614.375 11.8593 614.567 12.372C614.88 13.2077 614.68 14.0059 614.363 14.6163C614.052 15.2167 613.576 15.7455 613.108 16.1763C612.371 16.8554 611.503 17.4273 610.862 17.7899C611.28 17.9136 611.708 18.0222 612.104 18.21C612.731 18.5079 613.135 19.0441 613.294 19.7093C613.611 19.8079 613.958 19.8058 614.288 19.8181L614.289 19.8182C614.754 19.8356 615.444 19.8613 616.013 20.0521C617.341 20.4958 618.554 21.598 620.001 21.598Z" fill="black"/>
<path fill-rule="evenodd" clip-rule="evenodd" d="M650.905 0.0180815C653.85 -0.0789285 656.81 0.214393 659.667 0.898619C661.478 1.30113 663.079 2.51003 663.507 4.40176C664.154 7.4522 664.158 12.669 663.517 15.72C663.106 17.6113 661.513 18.8665 659.693 19.2601C659.412 19.3092 659.199 19.558 659.206 19.8288C659.204 21.1416 659.207 22.4544 659.205 23.7672C659.227 23.9866 658.906 24.0645 658.754 23.9421C657.418 22.8777 656.259 21.5953 654.919 20.5252C654.591 20.2417 654.033 19.9902 653.589 20.019C650.249 20.1888 646.989 19.9622 643.762 19.1267C642.144 18.67 640.843 17.3477 640.489 15.7847C639.832 12.7117 639.83 7.4678 640.486 4.39483C640.837 2.80176 642.18 1.45698 643.835 1.01989C646.14 0.4292 648.519 0.0948777 650.905 0.0180815Z" fill="#DA3545"/>
<path fill-rule="evenodd" clip-rule="evenodd" d="M647.495 5.0069C647.217 5.04433 646.99 5.30359 647.001 5.58651C647 6.28004 646.999 6.97357 647.001 7.66711C646.999 7.97204 647.28 8.2379 647.583 8.23459C648.254 8.23695 648.93 8.23459 649.6 8.23541C649.925 8.24876 650.252 8.45269 650.234 8.82961C650.235 10.6834 650.234 12.5373 650.235 14.3916C650.218 14.7147 650.51 15.012 650.834 14.9982C651.605 15.0004 652.376 14.9991 653.147 14.9988C653.479 15.0219 653.788 14.7197 653.765 14.3861C653.766 12.5325 653.764 10.6791 653.765 8.82519C653.75 8.5076 654.039 8.22744 654.354 8.23679C655.032 8.2335 655.711 8.2379 656.39 8.23515C656.698 8.2522 656.993 7.99351 656.998 7.68196C657.002 6.98147 657 6.28095 656.999 5.58045C657.012 5.25845 656.708 4.98269 656.393 5.00085C655.16 5.00314 653.927 5.00238 652.694 5.00163C650.961 5.00057 649.228 4.99951 647.495 5.0069Z" fill="white"/>
<circle cx="683.995" cy="12" r="12" fill="#007AB9"/>
<path d="M685.278 10.5085V10.5367H685.259C685.262 10.5319 685.265 10.5269 685.269 10.5219C685.272 10.5175 685.275 10.513 685.278 10.5085Z" fill="white"/>
<path fill-rule="evenodd" clip-rule="evenodd" d="M691.165 17.913V12.9657C691.165 10.3164 689.75 9.08343 687.863 9.08343C686.339 9.08343 685.659 9.92196 685.278 10.5085V9.286H682.409C682.448 10.0952 682.409 17.9128 682.409 17.9128H685.278V13.0947C685.278 12.8361 685.297 12.58 685.373 12.3956C685.581 11.8797 686.051 11.3468 686.844 11.3468C687.882 11.3468 688.297 12.1383 688.297 13.2973V17.913H691.165ZM677.785 6.61788C677.785 5.77165 678.427 5.12756 679.408 5.12756C680.39 5.12756 680.993 5.77165 681.012 6.61788C681.012 7.44615 680.39 8.10885 679.389 8.10885H679.371C678.408 8.10885 677.785 7.44615 677.785 6.61788ZM680.823 17.913H677.956V9.286H680.823V17.913Z" fill="white"/>
<rect x="703.995" width="24" height="24" rx="7.19933" fill="url(#paint0_linear_4273_82083)"/>
<path fill-rule="evenodd" clip-rule="evenodd" d="M716 8.5C717.933 8.5 719.5 10.067 719.5 12C719.5 13.933 717.933 15.5 716 15.5C714.067 15.5 712.5 13.933 712.5 12C712.5 10.067 714.067 8.5 716 8.5ZM716 10.25C716.966 10.25 717.75 11.0335 717.75 12C717.75 12.9665 716.966 13.75 716 13.75C715.034 13.75 714.25 12.9665 714.25 12C714.25 11.0335 715.034 10.25 716 10.25Z" fill="white"/>
<path fill-rule="evenodd" clip-rule="evenodd" d="M713.667 5C711.089 5 709 7.08934 709 9.66667V14.3333C709 16.9107 711.089 19 713.667 19H718.333C720.911 19 723 16.9107 723 14.3333V9.66667C723 7.08934 720.911 5 718.333 5H713.667ZM718.333 6.75H713.667C712.056 6.75 710.75 8.05584 710.75 9.66667V14.3333C710.75 15.9442 712.056 17.25 713.667 17.25H718.333C719.944 17.25 721.25 15.9442 721.25 14.3333V9.66667C721.25 8.94242 720.986 8.27983 720.549 7.76985C720.624 7.89877 720.667 8.04855 720.667 8.20833C720.667 8.69158 720.275 9.08333 719.792 9.08333C719.308 9.08333 718.917 8.69158 718.917 8.20833C718.917 7.72508 719.308 7.33333 719.792 7.33333C719.951 7.33333 720.101 7.37616 720.23 7.45096C719.72 7.01398 719.058 6.75 718.333 6.75Z" fill="white"/>
<path d="M753.395 24C757.04 24 759.995 21.0451 759.995 17.4C759.995 13.7549 757.04 10.8 753.395 10.8C749.75 10.8 746.795 13.7549 746.795 17.4C746.795 21.0451 749.75 24 753.395 24Z" fill="#97CF26"/>
<path d="M741.396 20.4C743.052 20.4 744.396 19.0569 744.396 17.4C744.396 15.7432 743.052 14.4 741.396 14.4C739.739 14.4 738.396 15.7432 738.396 17.4C738.396 19.0569 739.739 20.4 741.396 20.4Z" fill="#A169F7"/>
<path d="M753.996 8.40001C755.984 8.40001 757.596 6.78824 757.596 4.80001C757.596 2.81179 755.984 1.20001 753.996 1.20001C752.007 1.20001 750.396 2.81179 750.396 4.80001C750.396 6.78824 752.007 8.40001 753.996 8.40001Z" fill="#FF6163"/>
<path d="M741.395 10.8C744.377 10.8 746.795 8.38234 746.795 5.4C746.795 2.41766 744.377 0 741.395 0C738.413 0 735.995 2.41766 735.995 5.4C735.995 8.38234 738.413 10.8 741.395 10.8Z" fill="#00AAFF"/>
<path d="M791.485 12.2701C791.485 11.4801 791.415 10.7301 791.295 10.0001H779.995V14.5101H786.465C786.175 15.9901 785.325 17.2401 784.065 18.0901V21.0901H787.925C790.185 19.0001 791.485 15.9201 791.485 12.2701Z" fill="#4285F4"/>
<path d="M779.995 24C783.235 24 785.945 22.92 787.925 21.09L784.065 18.09C782.985 18.81 781.615 19.25 779.995 19.25C776.865 19.25 774.215 17.14 773.265 14.29H769.285V17.38C771.255 21.3 775.305 24 779.995 24Z" fill="#34A853"/>
<path d="M773.265 14.2901C773.015 13.5701 772.885 12.8001 772.885 12.0001C772.885 11.2001 773.025 10.4301 773.265 9.71006V6.62006H769.285C768.465 8.24006 767.995 10.0601 767.995 12.0001C767.995 13.9401 768.465 15.7601 769.285 17.3801L773.265 14.2901Z" fill="#FBBC05"/>
<path d="M779.995 4.75C781.765 4.75 783.345 5.36001 784.595 6.55001L788.015 3.13C785.945 1.19 783.235 0 779.995 0C775.305 0 771.255 2.7 769.285 6.62001L773.265 9.71001C774.215 6.86001 776.865 4.75 779.995 4.75Z" fill="#EA4335"/>
<g clip-path="url(#clip1_4273_82083)">
<path d="M812.684 1.5352C811.106 1.5352 809.607 1.864 808.246 2.452L805.791 0H805.786C803.194 1.1352 801.116 3.2232 799.995 5.824L802.454 8.2808L802.453 8.2832C801.859 9.6464 801.506 11.1312 801.506 12.7136C801.506 18.8896 806.51 23.8928 812.684 23.8928C818.856 23.8928 823.862 18.888 823.862 12.7136C823.862 6.5408 818.857 1.5352 812.684 1.5352Z" fill="#00B0EA"/>
<path d="M811.545 17.3567C812.665 14.7559 814.744 12.6679 817.336 11.5319H817.337L808.248 2.45673L808.244 2.45593C805.651 3.59193 803.573 5.67913 802.453 8.28153L811.545 17.3567Z" fill="#15374C"/>
<path d="M817.986 14.632C816.48 15.2912 815.274 16.5064 814.622 18.0152L818.867 18.8928L817.986 14.632Z" fill="#15374C"/>
<path d="M817.986 14.6335C817.645 13.0039 817.337 11.5327 817.337 11.5327L817.334 11.5335C814.743 12.6695 812.665 14.7567 811.544 17.3575L814.622 18.0151C815.276 16.5111 816.485 15.2911 817.986 14.6335Z" fill="white"/>
</g>
<rect x="831.995" width="23.9978" height="23.9978" rx="8" fill="#38B7EB"/>
<path fill-rule="evenodd" clip-rule="evenodd" d="M842.258 4C843.872 4 845.271 4.88887 845.956 6.18663C846.281 6.06594 846.633 6 847 6C848.657 6 850 7.34315 850 9C850 9.085 849.996 9.16917 849.99 9.25237C851.743 9.86716 853 11.5368 853 13.5C853 15.8168 851.249 17.7246 848.999 17.9727V17.9982H848.627C848.585 17.9994 848.542 18 848.5 18C848.458 18 848.415 17.9994 848.373 17.9982H840.333V17.9963C840.284 17.9977 840.234 17.9984 840.185 17.9984C837.321 17.9984 835 15.7601 835 12.999C835 10.9411 836.289 9.17369 838.132 8.40686C838.118 8.27292 838.11 8.13702 838.11 7.9995C838.11 5.79064 839.967 4 842.258 4Z" fill="white"/>
<circle cx="844" cy="12" r="4" fill="#5FD634"/>
<path d="M844 10V12H846" stroke="white" stroke-width="1.19989" stroke-linecap="round" stroke-linejoin="round"/>
<g clip-path="url(#clip2_4273_82083)">
<rect x="863.995" width="24" height="24" rx="8" fill="#4B92FB"/>
<path d="M879.715 9.72849L881.902 8.13613C882.336 7.81996 882.995 8.08975 882.995 8.58362V15.4164C882.995 15.9103 882.336 16.18 881.902 15.8639L879.715 14.2715C879.259 13.9395 878.995 13.4477 878.995 12.929V11.071C878.995 10.5523 879.259 10.0605 879.715 9.72849Z" fill="white"/>
<path d="M869.789 8C869.351 8 868.995 8.38376 868.995 8.85714V13.7143C868.995 14.9767 869.943 16 871.113 16H877.201C877.64 16 877.995 15.6162 877.995 15.1429V10.2857C877.995 9.02335 877.047 8 875.877 8H869.789Z" fill="white"/>
</g>
<path fill-rule="evenodd" clip-rule="evenodd" d="M905.883 0.787146C906.568 0.659037 907.274 0.59204 907.995 0.59204C914.296 0.59204 919.403 5.69957 919.403 12C919.403 12.7193 919.337 13.423 919.209 14.1053C919.711 15.0476 919.995 16.1232 919.995 17.2653C919.995 20.9848 916.98 24 913.26 24C912.118 24 911.043 23.7158 910.1 23.2142C909.418 23.3414 908.714 23.408 907.995 23.408C901.695 23.408 896.587 18.3005 896.587 12C896.587 11.2784 896.654 10.5725 896.782 9.8881C896.28 8.94581 895.995 7.86991 895.995 6.7275C895.995 3.01201 899.007 0 902.723 0C903.865 0 904.941 0.28475 905.883 0.787146Z" fill="#00AFF0"/>
<path fill-rule="evenodd" clip-rule="evenodd" d="M903 14.8619C903 16.2062 904.559 18 908.043 18C911.358 18 913 16.3267 913 14.0858C913 12.6389 912.363 11.1027 909.851 10.5165L907.557 9.98328C906.685 9.77524 905.68 9.50004 905.68 8.63861C905.68 7.77546 906.385 7.17235 907.656 7.17235C909.16 7.17235 909.701 7.80712 910.148 8.3319C910.463 8.70165 910.732 9.0168 911.258 9.0168C911.927 9.0168 912.514 8.60451 912.514 7.89566C912.514 6.24134 909.985 5 907.841 5C905.512 5 903.033 6.03537 903.033 8.79292C903.033 10.1211 903.486 11.5339 905.982 12.1894L909.081 12.9995C910.018 13.2416 910.253 13.7941 910.253 14.2925C910.253 15.1212 909.467 15.931 908.043 15.931C906.437 15.931 905.886 15.1837 905.421 14.552C905.081 14.0896 904.786 13.6891 904.156 13.6891C903.486 13.6891 903 14.1723 903 14.8619Z" fill="white"/>
<rect x="927.995" width="24" height="24" rx="8" fill="#0D64FA"/>
<path fill-rule="evenodd" clip-rule="evenodd" d="M932.795 8.72317L937.038 6L939.995 8.43745L935.733 11.0475L932.795 8.72317ZM947.195 8.72317L942.952 6L939.995 8.43745L944.257 11.0475L947.195 8.72317ZM939.995 13.1408L944.257 11.0475L947.195 12.8551L942.971 15.5792L939.995 13.1408ZM939.995 13.1408L935.733 11.0475L932.795 12.8551L937.019 15.5792L939.995 13.1408ZM935.771 15.7904V16.6862L939.995 19.2L944.238 16.705V15.8064L942.99 16.5872L939.995 14.1488L937.019 16.5872L935.771 15.7904Z" fill="white"/>
<rect x="959.995" width="24" height="24" rx="8" fill="#0C63D2"/>
<path fill-rule="evenodd" clip-rule="evenodd" d="M971.995 18C970.722 18 969.501 17.5033 968.601 16.6192C967.701 15.7351 967.195 14.536 967.195 13.2857V5.74284C967.195 5.49278 967.296 5.25298 967.476 5.07616C967.656 4.89934 967.901 4.79999 968.155 4.79999C968.41 4.79999 968.654 4.89934 968.834 5.07616C969.014 5.25298 969.115 5.49278 969.115 5.74284V9.53502C969.722 9.08501 970.429 8.78329 971.178 8.6548C971.927 8.52631 972.697 8.57473 973.423 8.79605C974.149 9.01737 974.811 9.40525 975.355 9.92763C975.898 10.45 976.307 11.0919 976.548 11.8003C976.789 12.5087 976.855 13.2632 976.741 14.0016C976.626 14.74 976.334 15.441 975.889 16.0467C975.444 16.6524 974.859 17.1454 974.182 17.4851C973.505 17.8247 972.755 18.0012 971.995 18ZM971.995 10.4571C971.425 10.4571 970.868 10.623 970.395 10.9338C969.921 11.2446 969.552 11.6864 969.334 12.2033C969.116 12.7201 969.059 13.2888 969.17 13.8375C969.281 14.3862 969.556 14.8902 969.958 15.2858C970.361 15.6814 970.874 15.9508 971.433 16.0599C971.991 16.1691 972.57 16.113 973.097 15.899C973.623 15.6849 974.073 15.3223 974.389 14.8572C974.705 14.392 974.874 13.8451 974.874 13.2857C974.874 12.5355 974.571 11.8161 974.031 11.2856C973.491 10.7551 972.758 10.4571 971.995 10.4571Z" fill="white"/>
<g clip-path="url(#clip3_4273_82083)">
<path d="M1001.88 0.55957L1001.76 0.633703C1001.57 0.75163 1001.38 0.883483 1001.21 1.02755L1001.56 0.778898H1004.54L1005.08 4.90909L1002.38 7.63636L999.675 9.53204V11.7179C999.675 13.2447 1000.47 14.6604 1001.76 15.451L1004.6 17.1889L998.595 20.7274H997.437L995.278 19.4075C993.985 18.6169 993.195 17.2012 993.195 15.6745V8.32396C993.195 6.79674 993.986 5.38064 995.279 4.59022L1001.76 0.631019C1001.8 0.606485 1001.84 0.58267 1001.88 0.55957Z" fill="url(#paint1_radial_4273_82083)"/>
<path d="M1001.88 0.55957L1001.76 0.633703C1001.57 0.75163 1001.38 0.883483 1001.21 1.02755L1001.56 0.778898H1004.54L1005.08 4.90909L1002.38 7.63636L999.675 9.53204V11.7179C999.675 13.2447 1000.47 14.6604 1001.76 15.451L1004.6 17.1889L998.595 20.7274H997.437L995.278 19.4075C993.985 18.6169 993.195 17.2012 993.195 15.6745V8.32396C993.195 6.79674 993.986 5.38064 995.279 4.59022L1001.76 0.631019C1001.8 0.606485 1001.84 0.58267 1001.88 0.55957Z" fill="url(#paint2_linear_4273_82083)"/>
<path d="M1008.32 9.27277V11.7166C1008.32 13.2433 1007.53 14.659 1006.23 15.4496L999.753 19.4116C998.427 20.2221 996.778 20.2513 995.429 19.4993L1001.76 23.3695C1003.13 24.2103 1004.86 24.2103 1006.23 23.3695L1012.71 19.4075C1014.01 18.6169 1014.8 17.2012 1014.8 15.6744V13.9091L1014.26 13.0909L1008.32 9.27277Z" fill="url(#paint3_radial_4273_82083)"/>
<path d="M1008.32 9.27277V11.7166C1008.32 13.2433 1007.53 14.659 1006.23 15.4496L999.753 19.4116C998.427 20.2221 996.778 20.2513 995.429 19.4993L1001.76 23.3695C1003.13 24.2103 1004.86 24.2103 1006.23 23.3695L1012.71 19.4075C1014.01 18.6169 1014.8 17.2012 1014.8 15.6744V13.9091L1014.26 13.0909L1008.32 9.27277Z" fill="url(#paint4_linear_4273_82083)"/>
<path d="M1012.71 4.59026L1006.23 0.631065C1004.9 -0.182791 1003.24 -0.208002 1001.89 0.555427L1001.76 0.634082C1000.47 1.42451 999.675 2.84059 999.675 4.36782V9.54086L1001.76 8.26744C1003.13 7.4276 1004.86 7.4276 1006.23 8.26744L1012.71 12.2266C1013.96 12.9924 1014.74 14.3452 1014.79 15.8175C1014.79 15.7699 1014.79 15.7223 1014.79 15.6745V8.324C1014.79 6.79678 1014 5.38068 1012.71 4.59026Z" fill="url(#paint5_radial_4273_82083)"/>
<path d="M1012.71 4.59026L1006.23 0.631065C1004.9 -0.182791 1003.24 -0.208002 1001.89 0.555427L1001.76 0.634082C1000.47 1.42451 999.675 2.84059 999.675 4.36782V9.54086L1001.76 8.26744C1003.13 7.4276 1004.86 7.4276 1006.23 8.26744L1012.71 12.2266C1013.96 12.9924 1014.74 14.3452 1014.79 15.8175C1014.79 15.7699 1014.79 15.7223 1014.79 15.6745V8.324C1014.79 6.79678 1014 5.38068 1012.71 4.59026Z" fill="url(#paint6_linear_4273_82083)"/>
</g>
<g clip-path="url(#clip4_4273_82083)">
<rect x="1024" width="24" height="24" rx="7" fill="black"/>
<path d="M1040.02 11.969C1040.04 14.239 1041.98 14.9944 1042 15.0041C1041.98 15.0573 1041.69 16.0805 1040.98 17.1375C1040.37 18.0512 1039.73 18.9617 1038.72 18.9805C1037.74 18.999 1037.42 18.3849 1036.29 18.3849C1035.16 18.3849 1034.81 18.9617 1033.88 18.999C1032.91 19.0364 1032.17 18.0109 1031.55 17.1005C1030.28 15.2382 1029.32 11.8381 1030.62 9.54294C1031.26 8.40315 1032.41 7.68144 1033.67 7.66293C1034.62 7.64447 1035.52 8.31475 1036.1 8.31475C1036.68 8.31475 1037.77 7.50869 1038.92 7.62705C1039.4 7.64743 1040.75 7.82457 1041.61 9.11494C1041.54 9.15897 1040.01 10.0712 1040.02 11.969M1038.17 6.39499C1038.68 5.76093 1039.03 4.87829 1038.93 4C1038.19 4.03034 1037.3 4.50315 1036.76 5.13683C1036.29 5.69805 1035.87 6.59623 1035.98 7.45711C1036.81 7.52224 1037.65 7.02944 1038.17 6.39499" fill="white"/>
</g>
<g clip-path="url(#clip5_4273_82083)">
<rect x="1056" width="23.9978" height="23.9978" rx="7.19933" fill="#FD9C24"/>
<path d="M1077 12.022C1077 15.1171 1075.55 16.5659 1073.73 16.5659C1072.68 16.5659 1071.76 16.0171 1071.23 15.1829C1070.4 16.0171 1069.28 16.5439 1068.01 16.5439C1065.51 16.5439 1063.49 14.5244 1063.49 12.022C1063.49 9.51951 1065.51 7.5 1068.01 7.5C1070.51 7.5 1072.53 9.51951 1072.53 12.022V13.4927C1072.53 14.239 1073.05 14.7659 1073.73 14.7659C1074.54 14.7659 1075.2 14.0854 1075.2 12.022C1075.2 8.04878 1071.98 4.82195 1068.01 4.82195C1064.04 4.82195 1060.8 8.04878 1060.8 12.022C1060.8 15.9951 1064.02 19.222 1067.99 19.222C1070.29 19.222 1071.87 18.0805 1071.87 18.0805L1073.05 19.4415C1073.05 19.4415 1071.04 21 1067.99 21C1063.03 21 1059 16.961 1059 12C1059 7.03902 1063.03 3 1067.99 3C1072.97 3.02195 1077 7.06098 1077 12.022ZM1068.01 14.7659C1069.52 14.7659 1070.75 13.5366 1070.75 12.022C1070.75 10.5073 1069.52 9.27805 1068.01 9.27805C1066.5 9.27805 1065.27 10.5073 1065.27 12.022C1065.27 13.5366 1066.5 14.7659 1068.01 14.7659Z" fill="#FD9C24"/>
<path d="M1077 12.022C1077 15.1171 1075.55 16.5659 1073.73 16.5659C1072.68 16.5659 1071.76 16.0171 1071.23 15.1829C1070.4 16.0171 1069.28 16.5439 1068.01 16.5439C1065.51 16.5439 1063.49 14.5244 1063.49 12.022C1063.49 9.51951 1065.51 7.5 1068.01 7.5C1070.51 7.5 1072.53 9.51951 1072.53 12.022V13.4927C1072.53 14.239 1073.05 14.7659 1073.73 14.7659C1074.54 14.7659 1075.2 14.0854 1075.2 12.022C1075.2 8.04878 1071.98 4.82195 1068.01 4.82195C1064.04 4.82195 1060.8 8.04878 1060.8 12.022C1060.8 15.9951 1064.02 19.222 1067.99 19.222C1070.29 19.222 1071.87 18.0805 1071.87 18.0805L1073.05 19.4415C1073.05 19.4415 1071.04 21 1067.99 21C1063.03 21 1059 16.961 1059 12C1059 7.03902 1063.03 3 1067.99 3C1072.97 3.02195 1077 7.06098 1077 12.022ZM1068.01 14.7659C1069.52 14.7659 1070.75 13.5366 1070.75 12.022C1070.75 10.5073 1069.52 9.27805 1068.01 9.27805C1066.5 9.27805 1065.27 10.5073 1065.27 12.022C1065.27 13.5366 1066.5 14.7659 1068.01 14.7659Z" fill="white"/>
</g>
<g clip-path="url(#clip6_4273_82083)">
<path d="M1098.8 22.8V3.31646L1102.4 1.20001V21.1081L1098.8 22.8Z" fill="#F07E2A"/>
<path d="M1097.6 7.20001V9.90829C1097.6 9.90829 1091.87 10.396 1091.5 15.1095C1091.5 15.1095 1090.69 19.2249 1097.6 20.5252V22.8C1097.6 22.8 1087.9 21.7188 1088 15.0009C1088 15.0009 1087.9 8.17548 1097.6 7.20001Z" fill="#AEAFB3"/>
<path d="M1103.6 7.20001V9.5747C1103.6 9.5747 1105.52 9.54921 1107.12 10.8605L1105.36 11.5697L1112 13.2V8.11491L1109.73 9.37168C1109.73 9.37168 1107.8 7.3793 1103.6 7.20001Z" fill="#AEAFB3"/>
</g>
<g clip-path="url(#clip7_4273_82083)">
<rect x="1120" width="23.9978" height="23.9978" rx="4.79956" fill="#3398DC"/>
<path d="M1128.39 5.99945H1126V17.9983H1133.19V15.5986H1128.39V5.99945Z" fill="white"/>
<path d="M1135.59 5.99945H1137.99V17.9983H1135.59V5.99945Z" fill="white"/>
</g>
<g clip-path="url(#clip8_4273_82083)">
<rect x="1152" width="24" height="24" rx="4.79956" fill="#FF4500"/>
<path fill-rule="evenodd" clip-rule="evenodd" d="M1169.96 11.4091L1169.86 11.1824L1169.68 11.039C1169.46 10.854 1168.54 11.052 1168.24 10.7568C1168.02 10.4259 1167.91 10.0371 1167.92 9.64197C1167.91 9.15659 1167.79 8.68001 1167.57 8.24491C1167.28 7.668 1166.85 7.16615 1166.33 6.77718C1165.82 6.38821 1165.22 6.12228 1164.58 5.99945H1161.87C1160.81 6.03379 1159.81 6.48594 1159.09 7.25723C1158.36 8.02851 1157.97 9.05637 1158 10.1166V13.8896C1157.97 14.9487 1158.36 15.9751 1159.09 16.7449C1159.82 17.5146 1160.82 17.9652 1161.87 17.9983H1166.32C1168.45 17.9983 1169.96 16.148 1169.97 13.8896L1169.99 11.5923L1169.96 11.4091ZM1161.53 8.77041H1164.59C1164.81 8.80449 1165 8.91534 1165.15 9.08295C1165.29 9.25056 1165.37 9.46391 1165.37 9.68452C1165.37 9.90513 1165.29 10.1185 1165.15 10.2861C1165 10.4537 1164.81 10.5645 1164.59 10.5986H1161.53C1161.31 10.5645 1161.11 10.4537 1160.97 10.2861C1160.83 10.1185 1160.75 9.90513 1160.75 9.68452C1160.75 9.46391 1160.83 9.25056 1160.97 9.08295C1161.11 8.91534 1161.31 8.80449 1161.53 8.77041ZM1166.47 15.2366H1161.52C1161.31 15.1901 1161.12 15.0727 1160.99 14.904C1160.85 14.7352 1160.78 14.5252 1160.78 14.3087C1160.78 14.0921 1160.85 13.8821 1160.99 13.7133C1161.12 13.5446 1161.31 13.4272 1161.52 13.3807H1166.47C1166.68 13.428 1166.86 13.5457 1167 13.7144C1167.13 13.883 1167.21 14.0927 1167.21 14.3087C1167.21 14.5247 1167.13 14.7343 1167 14.9029C1166.86 15.0716 1166.68 15.1893 1166.47 15.2366Z" fill="white"/>
</g>
<ellipse cx="9.59911" cy="9.59911" rx="9.59911" ry="9.59911" transform="matrix(-1 8.42937e-08 8.42937e-08 1 1203.2 4.80072)" fill="#3AE7BC"/>
<ellipse cx="7.79928" cy="7.79928" rx="7.79928" ry="7.79928" transform="matrix(-1 8.42937e-08 8.42937e-08 1 1208 0.00115967)" fill="#FF7188"/>
<path fill-rule="evenodd" clip-rule="evenodd" d="M1200.2 15.5997C1195.89 15.5997 1192.4 12.1079 1192.4 7.80045C1192.4 6.7448 1192.61 5.73814 1192.99 4.81986C1193.19 4.80717 1193.39 4.80073 1193.6 4.80073C1198.9 4.80073 1203.2 9.0984 1203.2 14.3998C1203.2 14.6047 1203.19 14.808 1203.18 15.0096C1202.26 15.3899 1201.25 15.5997 1200.2 15.5997Z" fill="#2E57DB"/>
<g clip-path="url(#clip9_4273_82083)">
<path d="M1228.01 23.9761C1234.54 24.0722 1239.91 18.7028 1240.01 11.9881C1239.9 5.26136 1234.53 -0.10801 1228.01 -0.0119136C1221.47 -0.10801 1216.1 5.26136 1216.01 11.9881C1216.1 18.7028 1221.47 24.0722 1228.01 23.9761Z" fill="#FFC800"/>
<path d="M1233.16 20.9249C1229.09 23.2793 1224.67 23.6997 1221.85 22.2943C1225.59 24.5285 1230.22 24.5525 1233.99 22.3784C1237.73 20.2643 1240.03 16.2042 1239.98 11.8078C1239.82 14.9549 1237.23 18.5706 1233.16 20.9249Z" fill="black"/>
<path d="M1229.52 0.877007C1230.35 2.30644 1228.36 5.00914 1225.06 6.90704C1221.77 8.80494 1218.45 9.18932 1217.62 7.75989C1217.58 7.68782 1217.55 7.61575 1217.52 7.54367C1217.37 6.6668 1217.61 5.77791 1218.18 5.10524C1218.28 4.96109 1218.39 4.82896 1218.49 4.68482C1219.46 3.43557 1220.66 2.39052 1222.01 1.60974C1223.37 0.804935 1224.87 0.300431 1226.42 0.0962265C1226.6 0.0722025 1226.77 0.0481785 1226.94 0.0361665C1227.8 -0.11999 1228.69 0.108239 1229.38 0.684815C1229.43 0.744875 1229.49 0.804935 1229.52 0.877007Z" fill="black"/>
<path d="M1234.63 2.4144C1236.07 4.9129 1233.16 9.28527 1228.13 12.1922C1223.1 15.0991 1217.85 15.4234 1216.42 12.9249C1216.18 12.5045 1216.04 12.036 1216.02 11.5435C1215.96 13.2613 1216.26 14.967 1216.92 16.5525C1217.02 16.7928 1217.13 17.033 1217.25 17.2733L1217.26 17.3093C1217.71 18.0661 1218.36 18.6787 1219.13 19.0751C1221.95 20.5886 1226.72 20.0721 1231.19 17.4895C1235.65 14.9189 1238.48 11.039 1238.59 7.84383C1238.64 6.96696 1238.43 6.10209 1238 5.34534C1237.83 5.1051 1237.67 4.86486 1237.49 4.63663C1236.44 3.29128 1235.13 2.18618 1233.64 1.4054C1234.05 1.65765 1234.39 2.006 1234.63 2.4144Z" fill="black"/>
<path d="M1228.01 23.9761C1234.54 24.0722 1239.91 18.7028 1240.01 11.9881C1239.9 5.26136 1234.53 -0.10801 1228.01 -0.0119136C1221.47 -0.10801 1216.1 5.26136 1216.01 11.9881C1216.1 18.7028 1221.47 24.0722 1228.01 23.9761Z" fill="url(#paint7_radial_4273_82083)"/>
</g>
<path d="M1257.7 9.89439C1257.5 9.89439 1257.3 9.85557 1257.12 9.78014C1256.94 9.70472 1256.77 9.59417 1256.63 9.4548C1256.49 9.31544 1256.38 9.14999 1256.31 8.9679C1256.23 8.78581 1256.19 8.59064 1256.19 8.39355C1256.19 8.19646 1256.23 8.0013 1256.31 7.81921C1256.38 7.63712 1256.49 7.47167 1256.63 7.3323C1256.77 7.19294 1256.94 7.08239 1257.12 7.00696C1257.3 6.93154 1257.5 6.89272 1257.7 6.89272C1258.09 6.89272 1258.48 7.05084 1258.76 7.3323C1259.04 7.61376 1259.2 7.99551 1259.2 8.39355C1259.2 8.7916 1259.04 9.17334 1258.76 9.4548C1258.48 9.73626 1258.09 9.89439 1257.7 9.89439ZM1260 0C1253.37 0 1248 5.37187 1248 11.9993C1248 17.7506 1252.04 22.557 1257.44 23.7273V12.9591L1257.45 12.9583C1257.45 12.7088 1257.55 12.4707 1257.73 12.2927C1257.9 12.1146 1258.14 12.0099 1258.39 12H1259.9C1259.94 12 1259.97 11.987 1259.99 11.9635C1260.02 11.94 1260.03 11.908 1260.03 11.874L1260.04 0.00296461M1268.27 18.5459C1267.97 18.5459 1267.68 18.4579 1267.43 18.2931C1267.19 18.1283 1266.99 17.8941 1266.88 17.62C1266.77 17.3459 1266.74 17.0444 1266.79 16.7534C1266.85 16.4624 1267 16.1951 1267.21 15.9853C1267.41 15.7755 1267.68 15.6326 1267.97 15.5746C1268.26 15.5166 1268.57 15.5462 1268.84 15.6596C1269.11 15.7731 1269.35 15.9652 1269.51 16.2118C1269.68 16.4584 1269.77 16.7484 1269.77 17.045C1269.77 17.4429 1269.61 17.8246 1269.33 18.106C1269.05 18.3875 1268.66 18.5457 1268.27 18.5459ZM1264.75 18.5459C1264.55 18.5457 1264.36 18.5068 1264.18 18.4312C1263.99 18.3557 1263.83 18.2451 1263.69 18.1057C1263.55 17.9663 1263.44 17.8009 1263.36 17.6188C1263.29 17.4367 1263.25 17.2416 1263.25 17.0447C1263.25 16.8477 1263.29 16.6526 1263.37 16.4707C1263.44 16.2887 1263.55 16.1234 1263.69 15.9843C1263.83 15.8451 1264 15.7347 1264.18 15.6594C1264.36 15.5842 1264.56 15.5455 1264.75 15.5457C1264.95 15.5458 1265.14 15.5848 1265.33 15.6603C1265.51 15.7358 1265.67 15.8464 1265.81 15.9858C1265.95 16.1252 1266.06 16.2907 1266.14 16.4727C1266.21 16.6548 1266.25 16.8499 1266.25 17.0469C1266.25 17.2439 1266.21 17.4389 1266.14 17.6209C1266.06 17.8028 1265.95 17.9681 1265.81 18.1073C1265.67 18.2465 1265.51 18.3568 1265.32 18.4321C1265.14 18.5073 1264.95 18.546 1264.75 18.5459ZM1261.23 18.5459C1260.83 18.5457 1260.45 18.3875 1260.17 18.1061C1259.89 17.8246 1259.73 17.443 1259.73 17.045C1259.73 16.647 1259.89 16.2652 1260.17 15.9838C1260.45 15.7023 1260.83 15.5442 1261.23 15.5442C1261.63 15.5442 1262.01 15.7023 1262.29 15.9838C1262.57 16.2652 1262.73 16.647 1262.73 17.045C1262.73 17.4431 1262.57 17.8248 1262.29 18.1063C1262.01 18.3877 1261.63 18.5459 1261.23 18.5459ZM1261.48 0.0911618V12.4699L1261.47 12.4736C1261.47 12.7313 1261.37 12.9776 1261.18 13.1589C1261 13.3402 1260.75 13.4417 1260.5 13.4415H1259.02C1258.94 13.4415 1258.89 13.5008 1258.89 13.5742V23.9481C1259.25 23.9815 1259.62 24 1260 24C1266.62 24 1272 18.6266 1272 11.9993C1272 5.87438 1267.41 0.820456 1261.48 0.0904206" fill="#00985F"/>
<path d="M1301.6 0H1282.4C1281.07 0 1280 1.07442 1280 2.39978V21.6002C1280 22.9256 1281.07 24 1282.4 24H1301.6C1302.92 24 1304 22.9256 1304 21.6002V2.39978C1304 1.07442 1302.92 0 1301.6 0Z" fill="#E40523"/>
<path d="M1288.33 2.40002L1286.41 6.38524L1284.49 2.40002H1282.4V8.42391H1283.86V4.11324L1285.74 7.75459H1287.08L1288.95 4.11324V8.42391H1290.43V2.40002H1288.33Z" fill="white"/>
<path d="M1295.06 2.40002V3.59852H1297.68L1297.68 8.41394H1299.14L1299.15 3.59852H1301.77V2.40002H1295.06Z" fill="white"/>
<path d="M1300.18 19.5696C1300.14 19.8011 1300.05 19.9911 1299.9 20.1365C1299.76 20.273 1299.57 20.368 1299.33 20.4244C1299.1 20.4778 1298.75 20.5105 1298.39 20.5105C1298.02 20.5105 1297.68 20.463 1297.4 20.365C1297.12 20.273 1296.91 20.1098 1296.76 19.8813C1296.6 19.6527 1296.53 19.3203 1296.53 18.8988V18.3023C1296.53 17.8778 1296.6 17.5484 1296.76 17.3199C1296.91 17.0913 1297.12 16.9311 1297.4 16.8361C1297.68 16.7411 1298.01 16.6906 1298.39 16.6906C1298.77 16.6906 1299.1 16.7203 1299.33 16.7767C1299.57 16.8301 1299.76 16.9281 1299.9 17.0646C1300.05 17.21 1300.14 17.4 1300.18 17.6315H1301.6C1301.56 17.1507 1301.4 16.7411 1301.11 16.4146C1300.85 16.1149 1300.49 15.8952 1300.05 15.7617C1299.61 15.6311 1299.04 15.5628 1298.39 15.5628C1297.71 15.5628 1297.12 15.6607 1296.63 15.8537C1296.14 16.0496 1295.76 16.376 1295.5 16.8242C1295.25 17.2546 1295.12 17.8274 1295.11 18.5308V18.5961L1295.19 18.5991L1295.11 18.602V18.6673C1295.12 19.3708 1295.25 19.9436 1295.5 20.3739C1295.76 20.8221 1296.15 21.1486 1296.63 21.3445C1297.12 21.5374 1297.71 21.6353 1298.39 21.6353C1299.07 21.6353 1299.61 21.5671 1300.05 21.4365C1300.49 21.3029 1300.85 21.0833 1301.11 20.7835C1301.4 20.457 1301.56 20.0475 1301.6 19.5666L1300.18 19.5696Z" fill="white"/>
<path d="M1330 0H1318C1314.68 0 1312 2.68604 1312 5.99944V18.0006C1312 21.314 1314.68 24 1318 24H1330C1333.31 24 1336 21.314 1336 18.0006V5.99944C1336 2.68604 1333.31 0 1330 0Z" fill="black"/>
<path d="M1317 8H1314V11H1317V8Z" fill="#FF3495"/>
<path d="M1320.53 15.2977V13.8169C1320.53 13.8138 1320.53 13.8107 1320.53 13.8076V10.7636H1323.05V8.06011H1320.53V5H1318V13.8076C1318 16.1193 1319.76 18 1321.93 18H1324V15.2977H1320.53H1320.53Z" fill="white"/>
<path d="M1332 15H1325V18H1332V15Z" fill="white"/>
<path d="M1332 10.9997C1332 8.79415 1330.21 7 1328 7C1325.79 7 1324 8.79415 1324 10.9997H1326.56C1326.56 10.205 1327.21 9.55829 1328 9.55829C1328.79 9.55829 1329.44 10.205 1329.44 10.9997C1329.44 11.7944 1328.79 12.4411 1328 12.4411H1325V15H1326.98L1328.21 14.9941C1330.32 14.8826 1332 13.1337 1332 10.9997Z" fill="white"/>
<g clip-path="url(#clip10_4273_82083)">
<path d="M1356 24C1362.62 24 1368 18.6275 1368 12C1368 5.3725 1362.62 0 1356 0C1349.37 0 1344 5.3725 1344 12C1344 18.6275 1349.37 24 1356 24Z" fill="#D6001C"/>
<path d="M1350.82 6.58447V10.6665C1351.44 9.92547 1352.19 9.55247 1353.05 9.55247C1353.5 9.55247 1353.9 9.63747 1354.25 9.80597C1354.61 9.97347 1354.88 10.1885 1355.06 10.4495C1355.24 10.713 1355.37 11.0015 1355.43 11.3195C1355.5 11.636 1355.53 12.1285 1355.53 12.7965V17.161H1353.6V13.23C1353.6 12.45 1353.56 11.956 1353.49 11.746C1353.42 11.5403 1353.29 11.364 1353.1 11.246C1352.92 11.1205 1352.69 11.0585 1352.41 11.0585C1352.09 11.0585 1351.8 11.1385 1351.55 11.2975C1351.3 11.4575 1351.11 11.6965 1351 12.016C1350.88 12.336 1350.82 12.8085 1350.82 13.434L1350.82 17.161H1348.89V6.58447H1350.82M1358.42 6.58447V10.6665C1359.05 9.92547 1359.79 9.55247 1360.65 9.55247C1361.1 9.55247 1361.5 9.63747 1361.86 9.80597C1362.21 9.97347 1362.48 10.1885 1362.66 10.4495C1362.84 10.7112 1362.97 11.0072 1363.03 11.3195C1363.1 11.636 1363.13 12.1285 1363.13 12.7965V17.161H1361.2V13.23C1361.2 12.45 1361.17 11.956 1361.09 11.746C1361.03 11.54 1360.89 11.3636 1360.71 11.246C1360.52 11.1205 1360.29 11.0585 1360.01 11.0585C1359.69 11.0585 1359.4 11.1385 1359.15 11.2975C1358.9 11.4575 1358.72 11.6965 1358.6 12.016C1358.48 12.336 1358.42 12.8085 1358.42 13.434V17.161H1356.5V6.58447H1358.42Z" fill="white"/>
</g>
<path d="M1388 24C1394.62 24 1400 18.6274 1400 12C1400 5.37258 1394.62 0 1388 0C1381.37 0 1376 5.37258 1376 12C1376 18.6274 1381.37 24 1388 24Z" fill="#FFCD28"/>
<path d="M1383 17.5993V15.5848C1383 15.2945 1383.28 15.0992 1383.52 15.2144C1384.68 15.7533 1385.95 16.0134 1387.33 16.0134C1389.22 16.0134 1390.32 15.4538 1390.32 14.4671C1390.32 13.5868 1389.6 13.1601 1388.13 13.1601H1386.07C1385.86 13.1601 1385.69 12.9775 1385.69 12.7528V10.8475C1385.69 10.6225 1385.86 10.4398 1386.07 10.4398H1388.13C1389.32 10.4398 1389.92 10.0403 1389.92 9.26691C1389.92 8.41342 1389.07 7.98681 1387.38 7.98681C1386.08 7.98681 1384.9 8.2029 1383.86 8.65105C1383.61 8.75593 1383.35 8.56061 1383.35 8.27738V6.35584C1383.35 6.1058 1383.49 5.8854 1383.71 5.79116C1384.92 5.26372 1386.41 5 1388.15 5C1389.67 5 1390.94 5.34656 1391.96 6.03994C1392.98 6.73281 1393.5 7.61314 1393.5 8.65333C1393.5 10.0147 1392.99 10.9394 1391.96 11.4066C1391.88 11.4423 1391.88 11.5667 1391.96 11.5994C1393.13 12.0769 1394 13.111 1394 14.6794C1394 15.9334 1393.43 16.9736 1392.28 17.7992C1391.16 18.6002 1389.67 19 1387.83 19C1386.04 19 1384.56 18.7122 1383.35 18.1584C1383.14 18.0624 1383 17.8448 1383 17.5993Z" fill="#212223"/>
<path fill-rule="evenodd" clip-rule="evenodd" d="M1412.8 0C1411.52 0 1410.3 0.505713 1409.4 1.40589C1408.5 2.30606 1408 3.52696 1408 4.8V19.2C1408 20.473 1408.5 21.6939 1409.4 22.5941C1410.3 23.4943 1411.52 24 1412.8 24H1427.2C1428.47 24 1429.69 23.4943 1430.59 22.5941C1431.49 21.6939 1432 20.473 1432 19.2V4.8C1432 3.52696 1431.49 2.30606 1430.59 1.40589C1429.69 0.505713 1428.47 0 1427.2 0H1412.8Z" fill="#00AA87"/>
<path fill-rule="evenodd" clip-rule="evenodd" d="M1416.74 6C1417.73 6 1419.72 6.29164 1421.02 8.45931L1419.22 9.57439L1419.2 9.53763C1418.9 8.99234 1418.31 7.92627 1416.62 7.92627C1416.16 7.92627 1414.72 8.0868 1414.72 9.29991C1414.72 10.0278 1415.41 10.3819 1416.57 10.6748L1417.73 10.9664C1419.45 11.4014 1421.14 12.1146 1421.14 14.3117C1421.14 17.1422 1418.58 18 1416.62 18C1414.78 18 1412.98 17.2378 1412 15.363L1413.83 14.3129C1414.41 15.2821 1415.32 15.9953 1416.9 15.9953C1417.85 15.9953 1418.97 15.6056 1418.97 14.5249C1418.97 13.748 1418.33 13.4073 1416.95 13.036L1415.55 12.6635C1413.61 12.1452 1412.57 11.2544 1412.57 9.42857C1412.57 7.61748 1413.99 6 1416.74 6ZM1424.92 13.8411V6.3333H1427V14.3607C1427 16.0272 1426.66 18 1423.41 18C1423.14 18 1422.73 18 1422.1 17.853V15.8005C1422.67 15.9291 1422.9 15.961 1423.22 15.961C1424.85 15.961 1424.92 15.0224 1424.92 13.8411Z" fill="white"/>
<path d="M1449 15.6023V23.3856C1449 23.8629 1449.46 24.1566 1449.84 23.9118L1455.73 20.0202C1456.09 19.7877 1456.09 19.2125 1455.73 18.98L1449.84 15.0884C1449.48 14.8436 1449 15.1373 1449 15.6023Z" fill="#E54A1E"/>
<path d="M1449 0.602335V8.38562C1449 8.86287 1449.46 9.15659 1449.84 8.91186L1455.73 5.02019C1456.09 4.78767 1456.09 4.21248 1455.73 3.98L1449.84 0.0883456C1449.48 -0.156411 1449 0.137299 1449 0.602335Z" fill="#E54A1E"/>
<path d="M1441 7.66927V16.3173C1441 16.8477 1441.53 17.174 1441.96 16.902L1448.69 12.578C1449.1 12.3197 1449.1 11.6806 1448.69 11.4222L1441.96 7.09817C1441.53 6.8262 1441 7.15255 1441 7.66927Z" fill="#E54A1E"/>
<path d="M1456 7.66927V16.3173C1456 16.8477 1456.53 17.174 1456.96 16.902L1463.69 12.578C1464.1 12.3197 1464.1 11.6806 1463.69 11.4222L1456.96 7.09817C1456.53 6.8262 1456 7.15255 1456 7.66927Z" fill="#E54A1E"/>
<g clip-path="url(#clip11_4273_82083)">
<path d="M1472 11.4099C1472 6.03129 1472 3.342 1473.67 1.671C1475.34 0 1478.03 0 1483.41 0H1484.59C1489.96 0 1492.65 0 1494.33 1.671C1496 3.342 1496 6.03129 1496 11.4099V12.5901C1496 17.9687 1496 20.658 1494.33 22.329C1492.65 24 1489.96 24 1484.59 24H1483.41C1478.03 24 1475.34 24 1473.67 22.329C1472 20.658 1472 17.9687 1472 12.5901V11.4099Z" fill="#0077FF"/>
<path fill-rule="evenodd" clip-rule="evenodd" d="M1475.65 0.522857C1475.02 2.02264 1474.69 3.63306 1474.7 5.25943C1474.7 11.58 1479.49 16.7811 1485.63 17.4309V21.0009C1489.88 20.3104 1493.56 17.9516 1495.99 14.6194C1496 13.9894 1496 13.3144 1496 12.5906V11.4103C1496 6.03171 1496 3.34243 1494.33 1.67143C1492.65 0 1489.97 0 1484.59 0H1483.41C1479.75 0 1477.34 0 1475.65 0.522857Z" fill="#00EAFF"/>
<path d="M1481.85 7.07145C1481.85 7.58294 1481.65 8.07348 1481.29 8.43516C1480.93 8.79684 1480.44 9.00003 1479.92 9.00003C1479.41 9.00003 1478.92 8.79684 1478.56 8.43516C1478.2 8.07348 1478 7.58294 1478 7.07145C1478 6.55997 1478.2 6.06943 1478.56 5.70775C1478.92 5.34607 1479.41 5.14288 1479.92 5.14288C1480.44 5.14288 1480.93 5.34607 1481.29 5.70775C1481.65 6.06943 1481.85 6.55997 1481.85 7.07145ZM1487.64 7.07145C1487.64 7.58294 1487.44 8.07348 1487.07 8.43516C1486.71 8.79684 1486.22 9.00003 1485.71 9.00003C1485.2 9.00003 1484.71 8.79684 1484.35 8.43516C1483.98 8.07348 1483.78 7.58294 1483.78 7.07145C1483.78 6.55997 1483.98 6.06943 1484.35 5.70775C1484.71 5.34607 1485.2 5.14288 1485.71 5.14288C1486.22 5.14288 1486.71 5.34607 1487.07 5.70775C1487.44 6.06943 1487.64 6.55997 1487.64 7.07145ZM1493.42 7.07145C1493.42 7.58294 1493.22 8.07348 1492.86 8.43516C1492.5 8.79684 1492.01 9.00003 1491.5 9.00003C1490.98 9.00003 1490.49 8.79684 1490.13 8.43516C1489.77 8.07348 1489.57 7.58294 1489.57 7.07145C1489.57 6.55997 1489.77 6.06943 1490.13 5.70775C1490.49 5.34607 1490.98 5.14288 1491.5 5.14288C1492.01 5.14288 1492.5 5.34607 1492.86 5.70775C1493.22 6.06943 1493.42 6.55997 1493.42 7.07145Z" fill="white"/>
</g>
<path d="M1504 11.52C1504 6.0888 1504 3.3744 1505.68 1.6872C1507.37 0 1510.08 0 1515.52 0H1516.48C1521.91 0 1524.62 0 1526.31 1.6872C1528 3.3744 1528 6.0888 1528 11.52V12.48C1528 17.9112 1528 20.6256 1526.31 22.3128C1524.62 24 1521.91 24 1516.48 24H1515.52C1510.08 24 1507.37 24 1505.68 22.3128C1504 20.6256 1504 17.9112 1504 12.48V11.52Z" fill="#0077FF"/>
<path d="M1517.99 0C1513.56 0.0144 1511.2 0.1632 1509.68 1.6848C1507.99 3.372 1507.99 6.0864 1507.99 11.5176V12.4776C1507.99 17.9088 1507.99 20.6232 1509.68 22.3104C1511.2 23.832 1513.56 23.9808 1517.99 23.9952C1522.43 23.9808 1524.79 23.832 1526.31 22.3104C1528 20.6232 1528 17.9088 1528 12.4776V11.5176C1528 6.0864 1528 3.372 1526.31 1.6848C1524.79 0.1656 1522.43 0.0168 1517.99 0Z" fill="#FF2B42"/>
<path d="M1520.93 9.86641C1522.15 10.5672 1522.75 10.9176 1522.95 11.3736C1523.13 11.772 1523.13 12.228 1522.95 12.6264C1522.75 13.0848 1522.14 13.4328 1520.93 14.1336L1517.61 16.0536C1516.39 16.7544 1515.79 17.1048 1515.29 17.052C1514.85 17.0064 1514.46 16.7784 1514.2 16.4256C1513.91 16.02 1513.91 15.3192 1513.91 13.92V10.08C1513.91 8.67841 1513.91 7.97761 1514.2 7.57441C1514.46 7.22161 1514.85 6.99361 1515.29 6.94801C1515.79 6.89521 1516.39 7.24561 1517.61 7.94641L1520.93 9.86641Z" fill="white"/>
<g clip-path="url(#clip12_4273_82083)">
<path d="M1554.64 24H1541.35C1538.39 24 1536 21.6032 1536 18.6465V5.3535C1536 2.39684 1538.39 0 1541.35 0H1554.64C1557.6 0 1560 2.39684 1560 5.3535V18.6465C1560 21.6032 1557.6 24 1554.64 24Z" fill="#3857FC"/>
<path d="M1554.64 24H1541.35C1538.39 24 1536 21.6032 1536 18.6465V5.3535C1536 2.39684 1538.39 0 1541.35 0H1554.64C1557.6 0 1560 2.39684 1560 5.3535V18.6465C1560 21.6032 1557.6 24 1554.64 24Z" fill="url(#paint8_linear_4273_82083)"/>
<path d="M1554.64 24H1541.35C1538.39 24 1536 21.6032 1536 18.6465V5.3535C1536 2.39684 1538.39 0 1541.35 0H1554.64C1557.6 0 1560 2.39684 1560 5.3535V18.6465C1560 21.6032 1557.6 24 1554.64 24Z" fill="url(#paint9_linear_4273_82083)"/>
<path fill-rule="evenodd" clip-rule="evenodd" d="M1548.19 21.0799C1546.39 21.0799 1545.56 20.8171 1544.1 19.7659C1543.18 20.9485 1540.27 21.8726 1540.14 20.2915C1540.14 19.1045 1539.88 18.1015 1539.58 17.0065C1539.23 15.6575 1538.82 14.1551 1538.82 11.9783C1538.82 6.77929 1543.09 2.86798 1548.14 2.86798C1553.2 2.86798 1557.17 6.97201 1557.17 12.0265C1557.18 17.0028 1553.17 21.0533 1548.19 21.0799ZM1548.27 7.36182C1545.81 7.2348 1543.89 8.93861 1543.46 11.6104C1543.11 13.8223 1543.73 16.5159 1544.26 16.6561C1544.52 16.7174 1545.16 16.2006 1545.56 15.802C1546.22 16.2573 1546.98 16.5308 1547.78 16.5948C1550.33 16.7175 1552.51 14.7757 1552.68 12.228C1552.78 9.67481 1550.82 7.51231 1548.27 7.3662L1548.27 7.36182Z" fill="white"/>
</g>
<path d="M1586 0H1574C1570.68 0 1568 2.68604 1568 5.99944V18.0006C1568 21.314 1570.68 24 1574 24H1586C1589.31 24 1592 21.314 1592 18.0006V5.99944C1592 2.68604 1589.31 0 1586 0Z" fill="#00AEEF"/>
<path d="M1580 16.5C1580.82 16.5 1581.5 17.1716 1581.5 18C1581.5 18.8284 1580.82 19.5 1580 19.5C1579.17 19.5 1578.5 18.8284 1578.5 18C1578.5 17.1716 1579.17 16.5 1580 16.5ZM1579.5 10.4912L1579.1 10.4102C1577.04 9.99326 1575.5 8.17648 1575.5 6V5C1575.5 4.72386 1575.72 4.5 1576 4.5C1576.27 4.5 1576.5 4.72386 1576.5 5V6C1576.5 7.933 1578.06 9.5 1580 9.5C1581.93 9.5 1583.5 7.933 1583.5 6V5C1583.5 4.72386 1583.72 4.5 1584 4.5C1584.27 4.5 1584.5 4.72386 1584.5 5V6C1584.5 8.17648 1582.95 9.99326 1580.9 10.4102L1580.5 10.4912V13.5088L1580.9 13.5898C1582.95 14.0067 1584.5 15.8235 1584.5 18V19C1584.5 19.2761 1584.27 19.5 1584 19.5C1583.72 19.5 1583.5 19.2761 1583.5 19V18C1583.5 16.067 1581.93 14.5 1580 14.5C1578.06 14.5 1576.5 16.067 1576.5 18V19C1576.5 19.2761 1576.27 19.5 1576 19.5C1575.72 19.5 1575.5 19.2761 1575.5 19V18C1575.5 15.8235 1577.04 14.0067 1579.1 13.5898L1579.5 13.5088V10.4912Z" fill="white" stroke="white"/>
<defs>
<linearGradient id="paint0_linear_4273_82083" x1="721.996" y1="-9.58406e-08" x2="709.994" y2="24" gradientUnits="userSpaceOnUse">
<stop stop-color="#9E42B4"/>
<stop offset="0.067" stop-color="#9E42B4"/>
<stop offset="0.473" stop-color="#E5566F"/>
<stop offset="1" stop-color="#FDC76D"/>
</linearGradient>
<radialGradient id="paint1_radial_4273_82083" cx="0" cy="0" r="1" gradientTransform="matrix(-6.3181 17.0438 -29.4306 -11.1314 1000.44 4.7118)" gradientUnits="userSpaceOnUse">
<stop offset="0.06441" stop-color="#AE7FE2"/>
<stop offset="1" stop-color="#0078D4"/>
</radialGradient>
<linearGradient id="paint2_linear_4273_82083" x1="1000.49" y1="19.5646" x2="997.882" y2="15.0962" gradientUnits="userSpaceOnUse">
<stop stop-color="#114A8B"/>
<stop offset="1" stop-color="#0078D4" stop-opacity="0"/>
</linearGradient>
<radialGradient id="paint3_radial_4273_82083" cx="0" cy="0" r="1" gradientTransform="matrix(16.5887 -2.46454 1.61171 11.0686 996.668 18.737)" gradientUnits="userSpaceOnUse">
<stop offset="0.133928" stop-color="#D59DFF"/>
<stop offset="1" stop-color="#5E438F"/>
</radialGradient>
<linearGradient id="paint4_linear_4273_82083" x1="1012.83" y1="12.751" x2="1010.04" y2="16.7146" gradientUnits="userSpaceOnUse">
<stop stop-color="#493474"/>
<stop offset="1" stop-color="#8C66BA" stop-opacity="0"/>
</linearGradient>
<radialGradient id="paint5_radial_4273_82083" cx="0" cy="0" r="1" gradientTransform="matrix(-13.0455 -3.34121 5.56837 -22.1827 1013.2 13.3659)" gradientUnits="userSpaceOnUse">
<stop offset="0.0584996" stop-color="#50E6FF"/>
<stop offset="1" stop-color="#436DCD"/>
</radialGradient>
<linearGradient id="paint6_linear_4273_82083" x1="1000.2" y1="0.576394" x2="1004.26" y2="0.576394" gradientUnits="userSpaceOnUse">
<stop stop-color="#2D3F80"/>
<stop offset="1" stop-color="#436DCD" stop-opacity="0"/>
</linearGradient>
<radialGradient id="paint7_radial_4273_82083" cx="0" cy="0" r="1" gradientUnits="userSpaceOnUse" gradientTransform="translate(1228.01 11.9863) scale(11.9925 11.9965)">
<stop offset="0.5" stop-color="white" stop-opacity="0"/>
<stop offset="1" stop-color="white" stop-opacity="0.35"/>
</radialGradient>
<linearGradient id="paint8_linear_4273_82083" x1="1536.64" y1="23.2692" x2="1548" y2="12" gradientUnits="userSpaceOnUse">
<stop offset="0.174599" stop-color="#41C3FD"/>
<stop offset="1" stop-color="#44C4FD" stop-opacity="0"/>
</linearGradient>
<linearGradient id="paint9_linear_4273_82083" x1="1560" y1="12" x2="1544.7" y2="12" gradientUnits="userSpaceOnUse">
<stop stop-color="#A24DDD"/>
<stop offset="1" stop-color="#A44FDD" stop-opacity="0"/>
</linearGradient>
<clipPath id="clip0_4273_82083">
<rect x="383.995" width="24" height="24" rx="7" fill="white"/>
</clipPath>
<clipPath id="clip1_4273_82083">
<rect width="24" height="24" fill="white" transform="translate(799.995)"/>
</clipPath>
<clipPath id="clip2_4273_82083">
<rect width="24" height="24" fill="white" transform="translate(863.995)"/>
</clipPath>
<clipPath id="clip3_4273_82083">
<rect width="24" height="24" fill="white" transform="translate(991.995)"/>
</clipPath>
<clipPath id="clip4_4273_82083">
<rect width="24" height="24" fill="white" transform="translate(1024)"/>
</clipPath>
<clipPath id="clip5_4273_82083">
<rect width="24" height="24" fill="white" transform="translate(1056)"/>
</clipPath>
<clipPath id="clip6_4273_82083">
<rect width="24" height="24" fill="white" transform="translate(1088)"/>
</clipPath>
<clipPath id="clip7_4273_82083">
<rect width="24" height="24" fill="white" transform="translate(1120)"/>
</clipPath>
<clipPath id="clip8_4273_82083">
<rect width="24" height="24" fill="white" transform="translate(1152)"/>
</clipPath>
<clipPath id="clip9_4273_82083">
<rect width="24" height="24" fill="white" transform="translate(1216)"/>
</clipPath>
<clipPath id="clip10_4273_82083">
<rect width="24" height="24" fill="white" transform="translate(1344)"/>
</clipPath>
<clipPath id="clip11_4273_82083">
<rect width="24" height="24" fill="white" transform="translate(1472)"/>
</clipPath>
<clipPath id="clip12_4273_82083">
<rect width="24" height="24" fill="white" transform="translate(1536)"/>
</clipPath>
</defs>
</svg>
