<svg xmlns="http://www.w3.org/2000/svg" width="0" height="0" class="hidden">
    <symbol xmlns="http://www.w3.org/2000/svg" viewBox="0 0 16 16" id="light-sm">
        <path fill-rule="evenodd" clip-rule="evenodd"
              d="M8 2C8.55229 2 9 1.55228 9 1C9 0.447715 8.55229 0 8 0C7.44772 0 7 0.447715 7 1C7 1.55228 7.44772 2 8 2ZM14 3C14 3.55228 13.5523 4 13 4C12.4477 4 12 3.55228 12 3C12 2.44772 12.4477 2 13 2C13.5523 2 14 2.44772 14 3ZM15 9C14.4477 9 14 8.55228 14 8C14 7.44772 14.4477 7 15 7C15.5523 7 16 7.44772 16 8C16 8.55229 15.5523 9 15 9ZM12 13C12 12.4477 12.4477 12 13 12C13.5523 12 14 12.4477 14 13C14 13.5523 13.5523 14 13 14C12.4477 14 12 13.5523 12 13ZM9 15C9 15.5523 8.55229 16 8 16C7.44772 16 7 15.5523 7 15C7 14.4477 7.44772 14 8 14C8.55229 14 9 14.4477 9 15ZM3 14C2.44772 14 2 13.5523 2 13C2 12.4477 2.44772 12 3 12C3.55228 12 4 12.4477 4 13C4 13.5523 3.55228 14 3 14ZM1 9C0.447715 9 0 8.55228 0 8C0 7.44772 0.447715 7 1 7C1.55228 7 2 7.44772 2 8C2 8.55229 1.55228 9 1 9ZM3 4C2.44772 4 2 3.55228 2 3C2 2.44772 2.44772 2 3 2C3.55228 2 4 2.44772 4 3C4 3.55228 3.55228 4 3 4ZM8 12C5.79086 12 4 10.2091 4 8C4 5.79086 5.79086 4 8 4C10.2091 4 12 5.79086 12 8C12 10.2091 10.2091 12 8 12Z"/>
    </symbol>

    <symbol xmlns="http://www.w3.org/2000/svg" viewBox="0 0 14 14" id="dark-sm">
        <path fill-rule="evenodd" clip-rule="evenodd"
              d="M13.7718 8.77902C13.918 8.22146 13.1743 7.90592 12.6887 8.21628C11.9123 8.7124 10.9897 8.99996 10 8.99996C7.23858 8.99996 5 6.76138 5 3.99996C5 3.01008 5.28765 2.08739 5.78393 1.31091C6.09433 0.825248 5.77886 0.0816066 5.22129 0.227657C2.21672 1.01467 0 3.7483 0 6.99967C0 10.8657 3.13401 13.9997 7 13.9997C10.2511 13.9997 12.9846 11.7833 13.7718 8.77902Z"/>
    </symbol>

    <symbol xmlns="http://www.w3.org/2000/svg" viewBox="0 0 20 20" id="light-md">
        <path fill-rule="evenodd" clip-rule="evenodd"
              d="M11 1C11 1.55228 10.5523 2 10 2C9.44771 2 9 1.55228 9 1C9 0.447715 9.44771 0 10 0C10.5523 0 11 0.447715 11 1ZM10 13C8.34315 13 7 11.6569 7 10C7 8.34315 8.34315 7 10 7C11.6569 7 13 8.34315 13 10C13 11.6569 11.6569 13 10 13ZM10 15C7.23858 15 5 12.7614 5 10C5 7.23858 7.23858 5 10 5C12.7614 5 15 7.23858 15 10C15 12.7614 12.7614 15 10 15ZM4 5C4.55228 5 5 4.55228 5 4C5 3.44772 4.55228 3 4 3C3.44772 3 3 3.44772 3 4C3 4.55228 3.44772 5 4 5ZM19 11C18.4477 11 18 10.5523 18 10C18 9.44771 18.4477 9 19 9C19.5523 9 20 9.44771 20 10C20 10.5523 19.5523 11 19 11ZM16 5C16.5523 5 17 4.55228 17 4C17 3.44772 16.5523 3 16 3C15.4477 3 15 3.44772 15 4C15 4.55228 15.4477 5 16 5ZM11 19C11 19.5523 10.5523 20 10 20C9.44771 20 9 19.5523 9 19C9 18.4477 9.44771 18 10 18C10.5523 18 11 18.4477 11 19ZM17 16C17 15.4477 16.5523 15 16 15C15.4477 15 15 15.4477 15 16C15 16.5523 15.4477 17 16 17C16.5523 17 17 16.5523 17 16ZM1 11C0.447715 11 0 10.5523 0 10C0 9.44771 0.447715 9 1 9C1.55228 9 2 9.44771 2 10C2 10.5523 1.55228 11 1 11ZM4 17C4.55228 17 5 16.5523 5 16C5 15.4477 4.55228 15 4 15C3.44772 15 3 15.4477 3 16C3 16.5523 3.44772 17 4 17Z"/>
    </symbol>

    <symbol xmlns="http://www.w3.org/2000/svg" viewBox="0 0 18 18" id="dark-md">
        <path d="M8.58.021c-2.167.161-4.106.991-5.685 2.43a9.73 9.73 0 0 0-1.002 1.082c-.247.302-.68.985-.908 1.432A8.774 8.774 0 0 0 .071 7.89C.033 8.163.019 8.465.019 9c0 .789.037 1.162.18 1.844a9.009 9.009 0 0 0 2.711 4.719c1.44 1.31 3.17 2.106 5.145 2.366.533.071 1.739.071 2.271.001 2.775-.365 5.12-1.82 6.632-4.115.417-.632.945-1.782 1.021-2.224.117-.675-.567-1.308-1.494-1.381a4.947 4.947 0 0 0-.668.032c-.979.103-1.728.026-2.617-.27-2.531-.841-4.174-3.251-3.988-5.852a5.615 5.615 0 0 1 .595-2.181c.287-.587.327-.746.272-1.091a1.068 1.068 0 0 0-.56-.799c-.093-.047-.515-.06-.939-.028M7.527 2.272c-.059.154-.201.801-.256 1.163-.067.444-.076 1.588-.015 2.025a7.796 7.796 0 0 0 1.287 3.375c.319.466.537.729.935 1.126a7.465 7.465 0 0 0 2.087 1.485c.617.303.964.433 1.558.583.648.164 1.046.217 1.779.234.351.008.638.02.638.028 0 .07-.415.688-.691 1.029a7.268 7.268 0 0 1-4.139 2.523 7.82 7.82 0 0 1-3.06-.004c-.794-.164-1.808-.589-2.49-1.044a7.097 7.097 0 0 1-2.592-3.073c-.389-.893-.559-1.724-.557-2.735 0-.798.098-1.422.332-2.126.731-2.195 2.467-3.856 4.768-4.563.434-.133.458-.134.416-.026"
              fill-rule="evenodd"/>
    </symbol>

    <symbol xmlns="http://www.w3.org/2000/svg" viewBox="0 0 7 5" id="right-7-5">
        <path d="M-2.18874e-08 4.49927L-1.9667e-07 0.500725C-2.14687e-07 0.0885367 0.513827 -0.14647 0.873321 0.101273L3.78241 2.10621C4.07302 2.3065 4.07243 2.70635 3.78123 2.90592L0.872131 4.89953C0.512454 5.14603 -3.89741e-09 4.91084 -2.18874e-08 4.49927Z"/>
    </symbol>

    <symbol xmlns="http://www.w3.org/2000/svg" viewBox="0 0 7 5" width="7" height="5" id="down-7-5">
        <path d="M5.55157 0.0181274H1.45448C1.05285 0.0181274 0.815132 0.46773 1.04127 0.799648L3.08402 3.79799C3.28217 4.08883 3.71079 4.08939 3.90971 3.79907L5.96405 0.800736C6.19139 0.468921 5.9538 0.0181274 5.55157 0.0181274Z"/>
    </symbol>

    <symbol width="16" height="17" viewBox="0 0 16 17" fill="none" xmlns="http://www.w3.org/2000/svg" id="left-16-17">
        <path d="M6 3.42627L2 8.42627M2 8.42627L6 13.4263M2 8.42627H14" stroke-width="2" stroke-linecap="round"
              stroke-linejoin="round"/>
    </symbol>

    <symbol width="16" height="16" viewBox="0 0 16 16" fill="none" xmlns="http://www.w3.org/2000/svg" id="right-16-16">
        <path d="M10 3L14 8M14 8L10 13M14 8H2" stroke-width="2" stroke-linecap="round" stroke-linejoin="round"/>
    </symbol>

    <!-- pointer arrows -->
    <symbol xmlns="http://www.w3.org/2000/svg" viewBox="0 0 14 12" fill="none" id="right-pointer">
        <path d="M9 1L13 6M13 6L9 11M13 6H1" stroke-width="2" stroke-linecap="round" stroke-linejoin="round"/>
    </symbol>
    <svg xmlns="http://www.w3.org/2000/svg" viewBox="0 0 16 14" fill="none" id="left-pointer">
        <path d="M6 1L1 7M1 7L6 13M1 7H15" stroke-width="2" stroke-linecap="round" stroke-linejoin="round"/>
    </svg>


    <!-- dropdown arrows -->
    <symbol xmlns="http://www.w3.org/2000/svg" viewBox="0 0 3 5" id="right">
        <path d="M2.98043e-07 5L3 2.50006L0 3.57746e-08L2.98043e-07 5Z"/>
    </symbol>

    <symbol xmlns="http://www.w3.org/2000/svg" viewBox="0 0 5 3" id="down">
        <path d="M0.0332029 5.1656e-07L2.53314 3L5.0332 4.76837e-07L0.0332029 5.1656e-07Z"/>
    </symbol>

    <symbol xmlns="http://www.w3.org/2000/svg" viewBox="0 0 7 12" fill="none" id="left-7-12">
        <path d="M6 1L1 6L6 11" stroke-width="2" stroke-linecap="round" stroke-linejoin="round"/>
    </symbol>

    <symbol xmlns="http://www.w3.org/2000/svg" viewBox="0 0 7 12" fill="none" id="right-7-12">
        <path d="M1 1L6 6L1 11" stroke-width="2" stroke-linecap="round" stroke-linejoin="round"/>
    </symbol>

    <symbol xmlns="http://www.w3.org/2000/svg" viewBox="0 0 6 12" fill="none" id="left-hollow">
        <path d="M5 1L1 6L5 11" stroke-width="2" stroke-linecap="round" stroke-linejoin="round"/>
    </symbol>

    <symbol xmlns="http://www.w3.org/2000/svg" viewBox="0 0 6 12" fill="none" id="right-hollow">
        <path d="M1 1L5 6L1 11" stroke-width="2" stroke-linecap="round" stroke-linejoin="round"/>
    </symbol>

    <symbol xmlns="http://www.w3.org/2000/svg" viewBox="0 0 8 5" fill="none" id="down-hollow">
        <path d="M7 1L4 4L1 1" stroke-width="1.3" stroke-linecap="round" stroke-linejoin="round"/>
    </symbol>

    <symbol width="16" height="16" viewBox="0 0 16 16" fill="none" xmlns="http://www.w3.org/2000/svg" id="up-lg">
        <path d="M14 10L8 5L2 10" stroke-width="2" stroke-linecap="round" stroke-linejoin="round"/>
    </symbol>

    <symbol width="16" height="16" viewBox="0 0 16 16" fill="none" xmlns="http://www.w3.org/2000/svg" id="down-lg">
        <path d="M14 6L8 11L2 6" stroke-width="2" stroke-linecap="round" stroke-linejoin="round"/>
    </symbol>

    <symbol width="16" height="16" fill="none" viewBox="0 0 16 16" xmlns="http://www.w3.org/2000/svg" id="down-big">
        <path d="M12 6L8 10L4 6" stroke-width="2" stroke-linecap="round" stroke-linejoin="round"/>
    </symbol>

    <symbol width="16" height="16" viewBox="0 0 16 16" fill="none" xmlns="http://www.w3.org/2000/svg" id="right-big">
        <path d="M6 4L9 8L6 12" stroke-width="2" stroke-linecap="round" stroke-linejoin="round"/>
    </symbol>

    <symbol width="16" height="16" viewBox="0 0 16 16" fill="none" xmlns="http://www.w3.org/2000/svg" id="left-big">
        <path d="M9 4L6 8L9 12" stroke-width="2" stroke-linecap="round" stroke-linejoin="round"/>
    </symbol>

    <symbol width="4" height="8" viewBox="0 0 4 8" fill="none" xmlns="http://www.w3.org/2000/svg" id="left-small">
        <path d="M3 1L1 4L3 7" stroke-width="2" stroke-linecap="round" stroke-linejoin="round"/>
    </symbol>

    <symbol width="16" height="16" viewBox="0 0 16 16" xmlns="http://www.w3.org/2000/svg" id="similar">
        <path fill-rule="evenodd" clip-rule="evenodd"
              d="M5 0C5.55228 0 6 0.447715 6 1C6 1.55228 5.55228 2 5 2H4C2.89543 2 2 2.89543 2 4V5C2 5.55228 1.55228 6 1 6C0.447715 6 0 5.55228 0 5V4C0 1.79086 1.79086 0 4 0H5ZM10 1C10 0.447715 10.4477 0 11 0H12C14.2091 0 16 1.79086 16 4V5C16 5.55228 15.5523 6 15 6C14.4477 6 14 5.55228 14 5V4C14 2.89543 13.1046 2 12 2H11C10.4477 2 10 1.55228 10 1ZM10 15C10 15.5523 10.4477 16 11 16H12C14.2091 16 16 14.2091 16 12V11C16 10.4477 15.5523 10 15 10C14.4477 10 14 10.4477 14 11V12C14 13.1046 13.1046 14 12 14H11C10.4477 14 10 14.4477 10 15ZM6 15C6 15.5523 5.55228 16 5 16H4C1.79086 16 0 14.2091 0 12V11C0 10.4477 0.447715 10 1 10C1.55228 10 2 10.4477 2 11V12C2 13.1046 2.89543 14 4 14H5C5.55228 14 6 14.4477 6 15ZM6 8C6 6.89543 6.89543 6 8 6C9.10457 6 10 6.89543 10 8C10 9.10457 9.10457 10 8 10C6.89543 10 6 9.10457 6 8ZM8 4C5.79086 4 4 5.79086 4 8C4 10.2091 5.79086 12 8 12C10.2091 12 12 10.2091 12 8C12 5.79086 10.2091 4 8 4Z"/>
    </symbol>

    <symbol xmlns="http://www.w3.org/2000/svg" viewBox="0 0 15 3" id="dots-15-3">
        <path d="M0 1.5C0 2.32843 0.671573 3 1.5 3C2.32843 3 3 2.32843 3 1.5C3 0.671574 2.32843 0 1.5 0C0.671573 0 0 0.671574 0 1.5Z"/>
        <path d="M6 1.5C6 2.32843 6.67157 3 7.5 3C8.32843 3 9 2.32843 9 1.5C9 0.671574 8.32843 0 7.5 0C6.67157 0 6 0.671574 6 1.5Z"/>
        <path d="M13.5 3C12.6716 3 12 2.32843 12 1.5C12 0.671574 12.6716 0 13.5 0C14.3284 0 15 0.671574 15 1.5C15 2.32843 14.3284 3 13.5 3Z"/>
    </symbol>

    <symbol xmlns="http://www.w3.org/2000/svg" viewBox="0 0 18 18" id="search-18-18">
        <path fill-rule="evenodd" clip-rule="evenodd"
              d="M2 8C2 4.68629 4.68629 2 8 2C11.3137 2 14 4.68629 14 8C14 11.3137 11.3137 14 8 14C4.68629 14 2 11.3137 2 8ZM8 0C3.58172 0 0 3.58172 0 8C0 12.4183 3.58172 16 8 16C9.84871 16 11.551 15.3729 12.9056 14.3199L16.2929 17.7071C16.6834 18.0976 17.3166 18.0976 17.7071 17.7071C18.0976 17.3166 18.0976 16.6834 17.7071 16.2929L14.3199 12.9056C15.3729 11.551 16 9.84871 16 8C16 3.58172 12.4183 0 8 0Z"/>
    </symbol>

    <symbol xmlns="http://www.w3.org/2000/svg" viewBox="0 0 14 12" fill="none" id="options">
        <circle cx="11" cy="3" r="2" stroke-width="2"/>
        <circle cx="3" cy="9" r="2" stroke-width="2"/>
        <path d="M1 3H9" stroke-width="2" stroke-linecap="round" stroke-linejoin="round"/>
        <path d="M5 9H13" stroke-width="2" stroke-linecap="round" stroke-linejoin="round"/>
    </symbol>

    <symbol xmlns="http://www.w3.org/2000/svg" viewBox="0 0 16 19" id="microphone">
        <path fill-rule="evenodd" clip-rule="evenodd"
              d="M8 0C5.79086 0 4 1.79086 4 4V9C4 11.2091 5.79086 13 8 13C10.2091 13 12 11.2091 12 9V4C12 1.79086 10.2091 0 8 0ZM6 4C6 2.89543 6.89543 2 8 2C9.10457 2 10 2.89543 10 4V9C10 10.1046 9.10457 11 8 11C6.89543 11 6 10.1046 6 9V4ZM1 9C1.55228 9 2 9.44771 2 10C2 12.7614 4.23858 15 7 15H9C11.7614 15 14 12.7614 14 10C14 9.44771 14.4477 9 15 9C15.5523 9 16 9.44771 16 10C16 13.866 12.866 17 9 17V18C9 18.5523 8.55229 19 8 19C7.44772 19 7 18.5523 7 18V17C3.13401 17 0 13.866 0 10C0 9.44771 0.447715 9 1 9Z"/>
    </symbol>

    <symbol xmlns="http://www.w3.org/2000/svg" viewBox="0 0 16 19" id="microphone-active">
        <path fill-rule="evenodd" clip-rule="evenodd"
              d="M8 0C5.79086 0 4 1.79086 4 4V9C4 11.2091 5.79086 13 8 13C10.2091 13 12 11.2091 12 9V4C12 1.79086 10.2091 0 8 0ZM1 9C1.55228 9 2 9.44771 2 10C2 12.7614 4.23858 15 7 15H9C11.7614 15 14 12.7614 14 10C14 9.44771 14.4477 9 15 9C15.5523 9 16 9.44771 16 10C16 13.866 12.866 17 9 17V18C9 18.5523 8.55229 19 8 19C7.44772 19 7 18.5523 7 18V17C3.13401 17 0 13.866 0 10C0 9.44771 0.447715 9 1 9Z"/>
    </symbol>



    <symbol xmlns="http://www.w3.org/2000/svg" viewBox="0 0 18 18" id="region-md">
        <path d="M15.727.467C15.563.511 1.411 6.314 1.17 6.436a1.555 1.555 0 0 0-.546.507c-.52.804-.152 1.896.746 2.211.114.041 1.262.221 3.321.522a237.2 237.2 0 0 1 3.158.473c.007.007.215 1.395.461 3.084.247 1.69.464 3.142.482 3.229.076.373.391.789.736.975.686.369 1.595.13 1.983-.521.078-.132 5.788-13.976 5.987-14.516.081-.221.087-.692.012-.935C17.284.733 16.456.27 15.727.467m-.59 2.435c-.011.029-1.062 2.59-2.336 5.69-1.968 4.789-2.319 5.623-2.338 5.55-.012-.048-.171-1.12-.354-2.382-.182-1.262-.353-2.369-.378-2.46a1.498 1.498 0 0 0-1.076-1.047c-.083-.019-1.209-.189-2.502-.379A176.052 176.052 0 0 1 3.79 7.52c-.011-.011 11.296-4.666 11.341-4.668.014-.001.017.022.006.05"
              fill-rule="evenodd"/>
    </symbol>

    <symbol xmlns="http://www.w3.org/2000/svg" viewBox="0 0 16 12" id="burger-16-12">
        <path d="M0 1C0 0.447716 0.447716 0 1 0H15C15.5523 0 16 0.447716 16 1C16 1.55228 15.5523 2 15 2H1C0.447716 2 0 1.55228 0 1Z"/>
        <path d="M0 6C0 5.44772 0.447716 5 1 5H15C15.5523 5 16 5.44772 16 6C16 6.55228 15.5523 7 15 7H1C0.447716 7 0 6.55228 0 6Z"/>
        <path d="M0 11C0 10.4477 0.447716 10 1 10H15C15.5523 10 16 10.4477 16 11C16 11.5523 15.5523 12 15 12H1C0.447716 12 0 11.5523 0 11Z"/>
    </symbol>

    <symbol xmlns="http://www.w3.org/2000/svg" viewBox="0 0 16 16" id="burger-16-16">
        <path fill-rule="evenodd" clip-rule="evenodd"
              d="M0 3C0 2.44772 0.447715 2 1 2H2C2.55228 2 3 2.44772 3 3C3 3.55228 2.55228 4 2 4H1C0.447715 4 0 3.55228 0 3ZM5 3C5 2.44772 5.44772 2 6 2H15C15.5523 2 16 2.44772 16 3C16 3.55228 15.5523 4 15 4H6C5.44772 4 5 3.55228 5 3ZM0 8C0 7.44772 0.447715 7 1 7H2C2.55228 7 3 7.44772 3 8C3 8.55228 2.55228 9 2 9H1C0.447715 9 0 8.55228 0 8ZM5 8C5 7.44772 5.44772 7 6 7H15C15.5523 7 16 7.44772 16 8C16 8.55228 15.5523 9 15 9H6C5.44772 9 5 8.55228 5 8ZM0 13C0 12.4477 0.447715 12 1 12H2C2.55228 12 3 12.4477 3 13C3 13.5523 2.55228 14 2 14H1C0.447715 14 0 13.5523 0 13ZM5 13C5 12.4477 5.44772 12 6 12H15C15.5523 12 16 12.4477 16 13C16 13.5523 15.5523 14 15 14H6C5.44772 14 5 13.5523 5 13Z"/>
    </symbol>

    <symbol xmlns="http://www.w3.org/2000/svg" viewBox="0 0 14 14" id="burger">
        <path d="M1 0C0.447715 0 0 0.447715 0 1C0 1.55228 0.447715 2 1 2C1.55228 2 2 1.55228 2 1C2 0.447715 1.55228 0 1 0Z"/>
        <path d="M1 6C0.447715 6 0 6.44772 0 7C0 7.55228 0.447715 8 1 8C1.55228 8 2 7.55228 2 7C2 6.44772 1.55228 6 1 6Z"/>
        <path d="M1 12C0.447715 12 0 12.4477 0 13C0 13.5523 0.447715 14 1 14C1.55228 14 2 13.5523 2 13C2 12.4477 1.55228 12 1 12Z"/>
        <path d="M6 1C6 0.447715 6.44772 0 7 0C7.55228 0 8 0.447715 8 1C8 1.55228 7.55228 2 7 2C6.44772 2 6 1.55228 6 1Z"/>
        <path d="M6 7C6 6.44772 6.44772 6 7 6C7.55228 6 8 6.44772 8 7C8 7.55228 7.55228 8 7 8C6.44772 8 6 7.55228 6 7Z"/>
        <path d="M6 13C6 12.4477 6.44772 12 7 12C7.55228 12 8 12.4477 8 13C8 13.5523 7.55228 14 7 14C6.44772 14 6 13.5523 6 13Z"/>
        <path d="M12 1C12 0.447715 12.4477 0 13 0C13.5523 0 14 0.447715 14 1C14 1.55228 13.5523 2 13 2C12.4477 2 12 1.55228 12 1Z"/>
        <path d="M12 7C12 6.44772 12.4477 6 13 6C13.5523 6 14 6.44772 14 7C14 7.55228 13.5523 8 13 8C12.4477 8 12 7.55228 12 7Z"/>
        <path d="M12 13C12 12.4477 12.4477 12 13 12C13.5523 12 14 12.4477 14 13C14 13.5523 13.5523 14 13 14C12.4477 14 12 13.5523 12 13Z"/>
    </symbol>

    <symbol xmlns="http://www.w3.org/2000/svg" viewBox="0 0 20 20" id="log-in">
        <path fill-rule="evenodd" clip-rule="evenodd"
              d="M5.00024 6C5.00024 3.23858 7.23881 1 10.0002 1C12.7617 1 15.0002 3.23858 15.0002 6C15.0002 8.76142 12.7617 11 10.0002 11C7.23881 11 5.00024 8.76142 5.00024 6ZM10.0002 3C8.34338 3 7.00024 4.34315 7.00024 6C7.00024 7.65685 8.34338 9 10.0002 9C11.6571 9 13.0002 7.65685 13.0002 6C13.0002 4.34315 11.6571 3 10.0002 3Z"/>
        <path d="M18.9644 17.7337C18.2571 14.9504 15.751 13 12.8771 13H7.12334C4.2413 13 1.72909 14.9615 1.03009 17.7575C0.896145 18.2933 1.22191 18.8362 1.7577 18.9701C2.2935 19.1041 2.83643 18.7783 2.97038 18.2425C3.44679 16.3369 5.15903 15 7.12334 15H12.8771C14.8352 15 16.5428 16.3284 17.0255 18.2243C17.1273 18.6686 17.5251 19 18.0002 19C18.5525 19 19.0002 18.5523 19.0002 18C19.0002 17.9078 18.9878 17.8185 18.9644 17.7337Z"/>
    </symbol>
    <symbol xmlns="http://www.w3.org/2000/svg" viewBox="0 0 18 18" id="log-out">
        <path fill-rule="evenodd" clip-rule="evenodd"
              d="M3.99975 5C3.99975 2.23858 6.23832 0 8.99975 0C11.7612 0 13.9997 2.23858 13.9997 5C13.9997 7.76142 11.7612 10 8.99975 10C6.23832 10 3.99975 7.76142 3.99975 5ZM8.99975 2C7.34289 2 5.99975 3.34315 5.99975 5C5.99975 6.65685 7.34289 8 8.99975 8C10.6566 8 11.9997 6.65685 11.9997 5C11.9997 3.34315 10.6566 2 8.99975 2Z"/>
        <path d="M17.9639 16.7337C17.2566 13.9504 14.7505 12 11.8766 12H6.12285C3.24081 12 0.728605 13.9615 0.0296059 16.7575C-0.104343 17.2933 0.221418 17.8362 0.757212 17.9701C1.29301 18.1041 1.83594 17.7783 1.96989 17.2425C2.44631 15.3369 4.15854 14 6.12285 14H11.8766C13.8347 14 15.5423 15.3284 16.025 17.2243C16.1268 17.6686 16.5246 18 16.9997 18C17.552 18 17.9997 17.5523 17.9997 17C17.9997 16.9078 17.9873 16.8185 17.9639 16.7337Z"/>
    </symbol>
    <symbol xmlns="http://www.w3.org/2000/svg" viewBox="0 0 16 16" id="close">
        <path fill-rule="evenodd" clip-rule="evenodd"
              d="M0.292893 0.292893C0.683417 -0.0976311 1.31658 -0.0976311 1.70711 0.292893L8 6.58579L14.2929 0.292893C14.6834 -0.0976311 15.3166 -0.0976311 15.7071 0.292893C16.0976 0.683417 16.0976 1.31658 15.7071 1.70711L9.41421 8L15.7071 14.2929C16.0976 14.6834 16.0976 15.3166 15.7071 15.7071C15.3166 16.0976 14.6834 16.0976 14.2929 15.7071L8 9.41421L1.70711 15.7071C1.31658 16.0976 0.683417 16.0976 0.292893 15.7071C-0.0976311 15.3166 -0.0976311 14.6834 0.292893 14.2929L6.58579 8L0.292893 1.70711C-0.0976311 1.31658 -0.0976311 0.683417 0.292893 0.292893Z"/>
    </symbol>
    <symbol xmlns="http://www.w3.org/2000/svg" viewBox="0 0 16 16" id="close-16-16">
        <path fill-rule="evenodd" clip-rule="evenodd"
              d="M0.292893 0.292893C0.683417 -0.0976311 1.31658 -0.0976311 1.70711 0.292893L8 6.58579L14.2929 0.292893C14.6834 -0.0976311 15.3166 -0.0976311 15.7071 0.292893C16.0976 0.683417 16.0976 1.31658 15.7071 1.70711L9.41421 8L15.7071 14.2929C16.0976 14.6834 16.0976 15.3166 15.7071 15.7071C15.3166 16.0976 14.6834 16.0976 14.2929 15.7071L8 9.41421L1.70711 15.7071C1.31658 16.0976 0.683417 16.0976 0.292893 15.7071C-0.0976311 15.3166 -0.0976311 14.6834 0.292893 14.2929L6.58579 8L0.292893 1.70711C-0.0976311 1.31658 -0.0976311 0.683417 0.292893 0.292893Z"/>
    </symbol>
    <symbol xmlns="http://www.w3.org/2000/svg" viewBox="0 0 9 9" fill="none" id="close-9-9">
        <path d="M8 1L1 8M1 1L8 8" stroke="#999999" stroke-width="2" stroke-linecap="round" stroke-linejoin="round"/>
    </symbol>
    <symbol xmlns="http://www.w3.org/2000/svg" viewBox="0 0 14 14" id="close-14-14">
        <path fill-rule="evenodd" clip-rule="evenodd"
              d="M0.292893 0.292893C0.683417 -0.0976311 1.31658 -0.0976311 1.70711 0.292893L7 5.58579L12.2929 0.292893C12.6834 -0.0976311 13.3166 -0.0976311 13.7071 0.292893C14.0976 0.683417 14.0976 1.31658 13.7071 1.70711L8.41421 7L13.7071 12.2929C14.0976 12.6834 14.0976 13.3166 13.7071 13.7071C13.3166 14.0976 12.6834 14.0976 12.2929 13.7071L7 8.41421L1.70711 13.7071C1.31658 14.0976 0.683417 14.0976 0.292893 13.7071C-0.0976311 13.3166 -0.0976311 12.6834 0.292893 12.2929L5.58579 7L0.292893 1.70711C-0.0976311 1.31658 -0.0976311 0.683417 0.292893 0.292893Z"/>
    </symbol>
    <symbol xmlns="http://www.w3.org/2000/svg" viewBox="0 0 11 9" fill="none" id="logout-11-9">
        <path d="M3.5 4.5H10.5M10.5 4.5L8.5 2.5M10.5 4.5L8.5 6.5" stroke-linecap="round" stroke-linejoin="round"/>
        <path d="M5.5 0.5H2.5C1.39543 0.5 0.5 1.39543 0.5 2.5V6.5C0.5 7.60457 1.39543 8.5 2.5 8.5H5.5"
              stroke-linecap="round" stroke-linejoin="round"/>
    </symbol>
    <symbol xmlns="http://www.w3.org/2000/svg" viewBox="0 0 14 18" id="phone-14-18">
        <path fill-rule="evenodd" clip-rule="evenodd"
              d="M6.63104 7.97841C6.80463 8.37048 7.0041 8.78717 7.15518 9.07225C7.27009 9.28907 7.49877 9.67951 7.75313 10.0735C7.76214 10.0675 7.77119 10.0616 7.78029 10.0557C8.42453 9.63686 9.0857 9.68158 9.33213 9.70774C9.65095 9.7416 9.94005 9.82627 10.1562 9.90146C10.5996 10.0556 11.0572 10.2844 11.4507 10.5088C11.8534 10.7384 12.2607 11.0047 12.6067 11.2698C12.7791 11.4018 12.9587 11.5506 13.1228 11.7095C13.2598 11.8422 13.4996 12.0889 13.6819 12.4208C13.9567 12.9214 13.9912 13.4324 13.9984 13.6733C14.0076 13.9837 13.9774 14.2994 13.9216 14.5917C13.8662 14.8818 13.7732 15.2138 13.6215 15.5388C13.4853 15.8308 13.2157 16.3046 12.7088 16.6593C12.2763 16.9621 12.101 17.0614 11.5704 17.3623C11.5097 17.3967 11.4445 17.4337 11.3736 17.4739C10.0199 18.2431 8.63271 17.9822 7.88102 17.8407C7.83467 17.832 7.79075 17.8237 7.74939 17.8162C6.75715 17.6353 5.7137 16.9402 4.80916 16.0871C3.83349 15.1669 2.7972 13.855 1.8574 12.1001C-0.0332021 8.56968 -0.11428 5.48344 0.0632851 4.44905C0.155366 3.91264 0.377274 3.31038 0.67849 2.76835C0.975733 2.23348 1.45254 1.57218 2.16387 1.10241C2.86272 0.640891 3.08665 0.498187 3.5503 0.267086C4.05424 0.0159067 4.54851 -0.00825558 4.84873 0.00182873C5.18399 0.01309 5.50575 0.0758517 5.78987 0.161581C6.29082 0.312738 7.02383 0.643641 7.53773 1.30319C7.84738 1.70061 7.96266 2.13768 8.0032 2.29536C8.0629 2.52757 8.10186 2.76842 8.12854 2.98699C8.18252 3.42919 8.20461 3.93488 8.19668 4.4186C8.1889 4.89393 8.15099 5.42764 8.05633 5.9073C8.00998 6.14217 7.93607 6.43773 7.80765 6.73085C7.7078 6.95878 7.43069 7.53172 6.78987 7.89289C6.7363 7.92309 6.68325 7.95156 6.63104 7.97841ZM4.36756 7.68433C4.55311 8.29107 5.08198 9.4331 5.38688 10.0084C5.69177 10.5837 6.4713 11.8462 6.90539 12.2852C7.33947 12.7242 7.68815 12.619 7.8981 12.5196C7.99603 12.4732 8.11572 12.3629 8.26158 12.2285C8.42842 12.0748 8.62948 11.8895 8.87134 11.7322C9.32463 11.4376 11.633 12.8464 11.9276 13.3829C12.1 13.6969 11.9533 14.7465 11.561 15.0211C11.208 15.2682 11.1075 15.3251 10.5781 15.6255C10.5193 15.6588 10.4551 15.6952 10.3847 15.7353C9.68103 16.1351 8.95879 16.0037 8.10853 15.8487C7.25828 15.6936 5.31836 14.3246 3.62164 11.1563C1.92491 7.98792 1.93885 5.3504 2.03552 4.78725C2.13219 4.22409 2.57448 3.22841 3.267 2.77107C3.95952 2.31373 4.09679 2.22961 4.44334 2.05688C4.78989 1.88414 5.64012 2.12285 5.95894 2.53204C6.27777 2.94122 6.32266 5.86013 5.80696 6.15079C5.54379 6.29912 5.29676 6.38092 5.09355 6.44822C4.89855 6.5128 4.74389 6.56401 4.65399 6.64783C4.65164 6.65003 4.64927 6.65224 4.64688 6.65446C4.4631 6.8257 4.18439 7.08538 4.36756 7.68433Z"/>
    </symbol>
    <symbol xmlns="http://www.w3.org/2000/svg" viewBox="0 0 16 16" id="remove-16-16">
        <path fill-rule="evenodd" clip-rule="evenodd"
              d="M7 0C5.34315 0 4 1.34315 4 3V4H1C0.447715 4 0 4.44772 0 5C0 5.55228 0.447715 6 1 6H1.59494L2.32478 13.2984C2.47814 14.832 3.76864 15.9999 5.3099 15.9999H10.6899C12.2312 15.9999 13.5217 14.832 13.6751 13.2984L14.4049 6H15C15.5523 6 16 5.55228 16 5C16 4.44772 15.5523 4 15 4H12V3C12 1.34315 10.6569 0 9 0H7ZM10 4V3C10 2.44772 9.55228 2 9 2H7C6.44772 2 6 2.44772 6 3V4H10ZM3.60492 6H12.3949L11.685 13.0994C11.6339 13.6106 11.2037 13.9999 10.6899 13.9999H5.3099C4.79614 13.9999 4.36598 13.6106 4.31486 13.0994L3.60492 6Z"/>
    </symbol>
    <symbol xmlns="http://www.w3.org/2000/svg" width="18" height="18" viewBox="0 0 18 18" id="remove">
        <path fill-rule="evenodd" clip-rule="evenodd"
              d="M1 4H5V3C5 1.34315 6.34315 0 8 0H10C11.6569 0 13 1.34315 13 3V4H17C17.5523 4 18 4.44772 18 5C18 5.55228 17.5523 6 17 6H1C0.447715 6 0 5.55228 0 5C0 4.44772 0.447715 4 1 4ZM8 2C7.44772 2 7 2.44772 7 3V4H11V3C11 2.44772 10.5523 2 10 2H8Z"/>
        <path d="M4 8C4 7.44772 3.55228 7 3 7C2.44772 7 2 7.44772 2 8V15C2 16.6569 3.34315 18 5 18H13C14.6569 18 16 16.6569 16 15V8C16 7.44772 15.5523 7 15 7C14.4477 7 14 7.44772 14 8V15C14 15.5523 13.5523 16 13 16H5C4.44772 16 4 15.5523 4 15V8Z"/>
    </symbol>
    <!-- region -->
    <symbol xmlns="http://www.w3.org/2000/svg" viewBox="0 0 15 14" id="globe-sm">
        <path fill-rule="evenodd" clip-rule="evenodd"
              d="M0.820801 5.99981H3.97592C4.07282 4.1887 4.43435 2.77592 4.9581 1.61416C5.17364 1.13607 5.41411 0.706354 5.66882 0.314345C3.12709 1.1047 1.20631 3.30463 0.820801 5.99981ZM0.820805 7.99981C1.20632 10.695 3.12708 12.8949 5.6688 13.6852C5.41409 13.2932 5.17363 12.8635 4.9581 12.3855C4.43435 11.2237 4.07282 9.81092 3.97592 7.99981H0.820805ZM9.83102 13.6852C12.3727 12.8949 14.2935 10.695 14.679 7.99981H11.5239C11.427 9.81092 11.0655 11.2237 10.5417 12.3855C10.3262 12.8635 10.0857 13.2932 9.83102 13.6852ZM14.679 5.99981C14.2935 3.30462 12.3727 1.10469 9.83099 0.314341C10.0857 0.706351 10.3262 1.13607 10.5417 1.61416C11.0655 2.77592 11.427 4.1887 11.5239 5.99981H14.679ZM9.08309 2.27175C9.50744 3.21302 9.82715 4.40274 9.92138 5.99981H5.57843C5.67267 4.40274 5.99238 3.21302 6.41673 2.27175C6.78668 1.45112 7.24716 0.793944 7.74991 0.19873C8.25266 0.793944 8.71313 1.45112 9.08309 2.27175ZM5.57843 7.99981H9.92139C9.82715 9.59688 9.50744 10.7866 9.08309 11.7279C8.71313 12.5485 8.25266 13.2057 7.74991 13.8009C7.24716 13.2057 6.78668 12.5485 6.41673 11.7279C5.99238 10.7866 5.67267 9.59688 5.57843 7.99981Z"/>
    </symbol>
    <symbol xmlns="http://www.w3.org/2000/svg" viewBox="0 0 18 18" id="globe-md">
        <path d="M8.445.02c-.913.072-1.647.22-2.399.481A9.023 9.023 0 0 0 .359 6.494c-.725 2.507-.315 5.26 1.102 7.416 1.98 3.011 5.517 4.559 9.039 3.958a8.99 8.99 0 0 0 7.004-5.929c.902-2.593.537-5.565-.965-7.849A8.991 8.991 0 0 0 9.678.031 9.86 9.86 0 0 0 8.445.02m.758 2.342c.742.84 1.359 2.407 1.613 4.096.114.758.23 2.399.173 2.454C10.951 8.95 9.813 9 9 9c-.818 0-1.951-.05-1.99-.088-.057-.056.058-1.685.174-2.454.253-1.687.889-3.298 1.622-4.111.093-.103.18-.187.193-.187.014 0 .105.091.204.202m-3.022.44C5.508 4.265 5.107 6.123 5.022 8.17l-.021.505-.108-.019a17.228 17.228 0 0 1-1.153-.27c-.743-.204-1.586-.57-1.604-.696-.014-.094.157-.747.283-1.087.149-.398.387-.894.594-1.233a7.488 7.488 0 0 1 2.162-2.235c.248-.164 1.037-.585 1.097-.585.014 0-.027.113-.091.252m5.974-.049a6.65 6.65 0 0 1 1.87 1.391 6.832 6.832 0 0 1 1.556 2.459c.126.34.297.993.283 1.087-.018.126-.861.492-1.604.696a17.56 17.56 0 0 1-1.158.271l-.112.02v-.221c-.001-.472-.087-1.486-.183-2.156-.177-1.239-.54-2.522-.988-3.498-.064-.139-.105-.252-.091-.252.014 0 .206.091.427.203m-8.547 7.656a19.6 19.6 0 0 0 1.025.226c.23.042.424.082.431.089.007.007.03.178.053.382.168 1.525.538 2.948 1.064 4.092.064.139.107.252.095.252-.052-.001-.648-.306-.906-.463a7.486 7.486 0 0 1-2.228-2.153 7.063 7.063 0 0 1-1.01-2.474c-.096-.473-.136-.447.404-.261.256.088.739.227 1.072.31m12.262-.056a7.1 7.1 0 0 1-1.012 2.481 7.486 7.486 0 0 1-2.228 2.153c-.258.157-.854.462-.906.463-.012 0 .031-.113.095-.252.525-1.142.896-2.571 1.064-4.092a4.07 4.07 0 0 1 .053-.382c.007-.007.208-.048.446-.091.6-.109 1.611-.369 2.113-.544.358-.124.421-.139.429-.097.005.027-.019.189-.054.361M9 10.984c.487 0 1.111-.01 1.387-.021.448-.019.503-.016.503.026 0 .107-.123.874-.194 1.211-.314 1.488-.874 2.767-1.516 3.46l-.18.195-.181-.195c-.637-.685-1.201-1.974-1.515-3.46-.071-.337-.194-1.104-.194-1.211 0-.042.055-.045.502-.026.277.011.901.021 1.388.021"
              fill-rule="evenodd"/>
    </symbol>

        <symbol xmlns="http://www.w3.org/2000/svg" width="20" height="20" viewBox="0 0 20 20" id="compare">
            <path fill-rule="evenodd" clip-rule="evenodd" d="M0 6C0 2.68629 2.68629 0 6 0H14C17.3137 0 20 2.68629 20 6V14C20 17.3137 17.3137 20 14 20H6C2.68629 20 0 17.3137 0 14V6ZM6 2H14C16.2091 2 18 3.79086 18 6V14C18 16.2091 16.2091 18 14 18H6C3.79086 18 2 16.2091 2 14V6C2 3.79086 3.79086 2 6 2Z"/>
            <path d="M10 5C9.44771 5 9 5.44772 9 6V14C9 14.5523 9.44771 15 10 15C10.5523 15 11 14.5523 11 14V6C11 5.44772 10.5523 5 10 5Z"/>
            <path d="M13 8C13 7.44772 13.4477 7 14 7C14.5523 7 15 7.44772 15 8V14C15 14.5523 14.5523 15 14 15C13.4477 15 13 14.5523 13 14V8Z"/>
            <path d="M6 10C5.44772 10 5 10.4477 5 11V14C5 14.5523 5.44772 15 6 15C6.55228 15 7 14.5523 7 14V11C7 10.4477 6.55228 10 6 10Z"/>
        </symbol>
        <symbol xmlns="http://www.w3.org/2000/svg" width="20" height="20" viewBox="0 0 20 20" id="favorite">
            <path fill-rule="evenodd" clip-rule="evenodd" d="M6 3C3.79086 3 2 4.79086 2 7C2 8.21767 2.54286 9.30748 3.40329 10.0427L3.42165 10.0584L9.99989 16.2528L16.5824 10.0549L16.6003 10.0396C17.4586 9.30445 18 8.21598 18 7C18 4.79086 16.2091 3 14 3C12.6922 3 11.531 3.6266 10.7995 4.60019L10 5.66431L9.20051 4.60019C8.46903 3.6266 7.30784 3 6 3ZM0 7C0 3.68629 2.68629 1 6 1C7.53707 1 8.93917 1.57863 10 2.52791C11.0608 1.57863 12.4629 1 14 1C17.3137 1 20 3.68629 20 7C20 8.81571 19.1923 10.4438 17.9199 11.5426L9.99983 18.9998L2.0849 11.5468C0.809798 10.448 0 8.81802 0 7Z"/>
        </symbol>

        <symbol xmlns="http://www.w3.org/2000/svg" viewBox="0 0 11 14" width="11" height="14" id="question">
            <path fill-rule="evenodd" clip-rule="evenodd" d="M5.5146 2.03369C4.45959 2.03372 3.24533 2.6612 2.96994 4.1758C2.87115 4.71917 2.35056 5.07957 1.80719 4.98078C1.26381 4.88198 0.903408 4.3614 1.0022 3.81802C1.48987 1.1359 3.73124 0.0337409 5.51455 0.0336914C6.91272 0.0336525 8.00391 0.424602 8.77565 1.0855C9.54192 1.74172 9.92076 2.60395 9.99565 3.40728C10.0755 4.26352 9.89492 4.97988 9.5382 5.59011C9.19794 6.17216 8.72305 6.61131 8.30289 6.96322C8.13689 7.10226 7.9863 7.22296 7.8451 7.33614C7.58986 7.54072 7.36528 7.72073 7.13574 7.94003C6.81177 8.24954 6.58179 8.54922 6.44498 8.8965C6.24256 9.41035 5.6619 9.66281 5.14805 9.46038C4.6342 9.25796 4.38174 8.6773 4.58417 8.16345C4.86418 7.45264 5.30859 6.9196 5.75417 6.49391C6.04464 6.2164 6.3881 5.94027 6.68162 5.70428C6.80544 5.60473 6.92038 5.51232 7.01871 5.42997C7.39599 5.11397 7.65129 4.85495 7.81157 4.58077C7.95537 4.33477 8.04567 4.03685 8.00429 3.59293C7.97431 3.27137 7.82011 2.90036 7.47473 2.60458C7.13481 2.31348 6.53574 2.03366 5.5146 2.03369Z"/>
            <path d="M3.99999 12.5C3.99999 13.3284 4.67156 14 5.49999 14C6.32842 14 6.99999 13.3284 6.99999 12.5C6.99999 11.6716 6.32842 11 5.49999 11C4.67156 11 3.99999 11.6716 3.99999 12.5Z"/>
        </symbol>
        <symbol xmlns="http://www.w3.org/2000/svg" viewBox="0 0 13 12" width="13" height="12" id="remove_img">
            <path fill-rule="evenodd" clip-rule="evenodd" d="M1.5 3H4.5H8.5H11.5C12.0523 3 12.5 2.55228 12.5 2C12.5 1.44772 12.0523 1 11.5 1H9.23244C8.88663 0.402199 8.24028 0 7.5 0H5.5C4.75972 0 4.11337 0.402199 3.76756 1H1.5C0.947715 1 0.5 1.44772 0.5 2C0.5 2.55228 0.947715 3 1.5 3ZM3.5 5C3.5 4.44772 3.05228 4 2.5 4C1.94772 4 1.5 4.44772 1.5 5V9C1.5 10.6569 2.84315 12 4.5 12H8.5C10.1569 12 11.5 10.6569 11.5 9V5C11.5 4.44772 11.0523 4 10.5 4C9.94772 4 9.5 4.44772 9.5 5V9C9.5 9.55228 9.05228 10 8.5 10H4.5C3.94772 10 3.5 9.55228 3.5 9V5Z"/>
        </symbol>
        <symbol xmlns="http://www.w3.org/2000/svg" viewBox="0 0 8 7" width="8" height="7" id="plus">
            <path d="M6.50146 4C6.77761 4 7.00146 3.77614 7.00146 3.5C7.00146 3.22386 6.77761 3 6.50146 3V4ZM0.501474 3C0.225332 3 0.00147379 3.22386 0.00147413 3.5C0.00147379 3.77614 0.225332 4 0.501474 4V3ZM3.00147 6.5C3.00147 6.77614 3.22533 7 3.50147 7C3.77761 7 4.00147 6.77614 4.00147 6.5L3.00147 6.5ZM4.00147 0.500005C4.00147 0.223862 3.77761 4.50307e-06 3.50147 4.65059e-06C3.22533 4.43985e-06 3.00147 0.223862 3.00147 0.500005L4.00147 0.500005ZM6.50146 3L0.501474 3V4L6.50146 4V3ZM4.00147 6.5V0.500005L3.00147 0.500005V6.5L4.00147 6.5Z"/>
        </symbol>

        <symbol xmlns="http://www.w3.org/2000/svg" viewBox="0 0 20 18" id="cart-20-18">
            <path d="M0.723 0.048 C 0.009 0.240,-0.229 1.171,0.300 1.700 C 0.581 1.981,0.588 1.982,1.958 1.994 L 3.166 2.004 3.183 2.077 C 3.192 2.117,3.546 4.055,3.968 6.383 C 4.391 8.712,4.759 10.707,4.788 10.817 C 5.041 11.800,5.894 12.631,6.933 12.908 L 7.217 12.983 11.717 12.983 C 16.799 12.983,16.366 13.006,16.967 12.711 C 17.234 12.580,17.331 12.508,17.586 12.253 C 18.099 11.740,18.078 11.799,18.873 8.633 L 19.547 5.950 19.549 5.500 C 19.550 5.119,19.538 5.012,19.472 4.800 C 19.204 3.942,18.569 3.325,17.700 3.079 C 17.494 3.020,17.194 3.017,11.429 3.008 L 5.374 2.999 5.317 2.674 C 5.052 1.180,4.994 1.019,4.568 0.596 C 4.273 0.304,3.956 0.128,3.583 0.050 C 3.268 -0.016,0.967 -0.018,0.723 0.048 M17.299 5.058 C 17.465 5.142,17.567 5.309,17.566 5.497 C 17.564 5.716,16.323 10.653,16.241 10.763 C 16.206 10.811,16.127 10.884,16.066 10.925 L 15.955 11.001 11.669 10.992 L 7.383 10.983 7.243 10.908 C 7.165 10.867,7.050 10.787,6.986 10.731 C 6.746 10.520,6.736 10.480,6.234 7.716 C 5.978 6.305,5.760 5.116,5.750 5.075 L 5.732 5.000 11.458 5.000 C 16.842 5.000,17.190 5.004,17.299 5.058 M5.150 15.046 C 4.751 15.144,4.335 15.469,4.167 15.816 C 3.948 16.269,3.949 16.730,4.170 17.191 C 4.268 17.395,4.605 17.732,4.809 17.830 C 5.430 18.128,6.079 18.025,6.552 17.552 C 7.131 16.973,7.150 16.092,6.597 15.487 C 6.242 15.098,5.662 14.922,5.150 15.046 M16.142 15.051 C 15.550 15.211,15.128 15.676,15.024 16.283 C 14.861 17.235,15.765 18.139,16.717 17.976 C 17.373 17.864,17.864 17.373,17.976 16.717 C 18.150 15.703,17.138 14.783,16.142 15.051 " stroke="none" fill-rule="evenodd"/>
        </symbol>
        <symbol xmlns="http://www.w3.org/2000/svg" viewBox="0 0 13 13" id="star-13-13">
            <path d="M6.05163 0.288589C6.23504 -0.0830334 6.76496 -0.0830334 6.94837 0.288589L8.50624 3.44518C8.57907 3.59275 8.71986 3.69504 8.88271 3.7187L12.3662 4.22488C12.7763 4.28448 12.9401 4.78846 12.6433 5.07773L10.1226 7.53479C10.0048 7.64966 9.95102 7.81516 9.97884 7.97736L10.5739 11.4468C10.6439 11.8552 10.2152 12.1667 9.84842 11.9739L6.73267 10.3358C6.58701 10.2593 6.41299 10.2593 6.26733 10.3358L3.15159 11.9739C2.78478 12.1667 2.35606 11.8552 2.42612 11.4468L3.02117 7.97736C3.04899 7.81516 2.99521 7.64966 2.87737 7.53479L0.356683 5.07773C0.0599248 4.78846 0.22368 4.28448 0.63379 4.22488L4.1173 3.7187C4.28015 3.69504 4.42093 3.59275 4.49376 3.44518L6.05163 0.288589Z"/>
        </symbol>
        <symbol xmlns="http://www.w3.org/2000/svg" width="24" height="24" viewBox="0 0 24 24" fill="none" id="star-big">
            <path d="M11.2916 1.03804C11.525 0.366372 12.4749 0.366371 12.7084 1.03804L15.1202 7.97654C15.2232 8.27284 15.4998 8.47375 15.8134 8.48014L23.1576 8.6298C23.8685 8.64429 24.1621 9.5477 23.5954 9.9773L17.7418 14.4152C17.4918 14.6047 17.3862 14.9298 17.477 15.23L19.6042 22.261C19.8101 22.9417 19.0416 23.5 18.4579 23.0938L12.4284 18.8981C12.1709 18.7189 11.8291 18.7189 11.5716 18.8981L5.54206 23.0938C4.95838 23.5 4.1899 22.9417 4.39581 22.261L6.52295 15.23C6.61379 14.9298 6.50817 14.6047 6.2582 14.4152L0.404587 9.9773C-0.162063 9.5477 0.131472 8.64429 0.842415 8.6298L8.18661 8.48014C8.50024 8.47375 8.77676 8.27284 8.87976 7.97654L11.2916 1.03804Z" fill="#ECC358"/>
        </symbol>
        <symbol xmlns="http://www.w3.org/2000/svg" viewBox="0 0 16 16" id="like">
            <path fill-rule="evenodd" clip-rule="evenodd" d="M6 14H12C13.1046 14 14 13.1046 14 12V9C14 7.89543 13.1046 7 12 7H11C9.89543 7 9 6.10457 9 5V2L8.23607 2L6 6.47214V14ZM4 7V14H3C2.44772 14 2 13.5523 2 13V8C2 7.44772 2.44772 7 3 7H4ZM4.5 5L6.44721 1.10557C6.786 0.428005 7.47852 0 8.23607 0H9C10.1046 0 11 0.89543 11 2V5H12C14.2091 5 16 6.79086 16 9V12C16 14.2091 14.2091 16 12 16H3C1.34315 16 0 14.6569 0 13V8C0 6.34315 1.34315 5 3 5H4.5Z"/>
        </symbol>
        <symbol xmlns="http://www.w3.org/2000/svg" viewBox="0 0 16 16" id="dislike">
            <path fill-rule="evenodd" clip-rule="evenodd" d="M10 2H4C2.89543 2 2 2.89543 2 4V7C2 8.10457 2.89543 9 4 9H5C6.10457 9 7 9.89543 7 11V14L7.76393 14L10 9.52786V2ZM12 9V2H13C13.5523 2 14 2.44771 14 3V8C14 8.55228 13.5523 9 13 9H12ZM11.5 11L9.55279 14.8944C9.214 15.572 8.52148 16 7.76393 16H7C5.89543 16 5 15.1046 5 14V11H4C1.79086 11 0 9.20914 0 7V4C0 1.79086 1.79086 0 4 0H13C14.6569 0 16 1.34315 16 3V8C16 9.65685 14.6569 11 13 11H11.5Z"/>
        </symbol>
        <symbol xmlns="http://www.w3.org/2000/svg" viewBox="0 0 12 12" fill="none" id="reply">
            <path d="M11 11H6C4.89543 11 4 10.1046 4 9V1M4 1L7 4M4 1L1 4" stroke-width="2" stroke-linecap="round" stroke-linejoin="round"/>
        </symbol>
        <symbol xmlns="http://www.w3.org/2000/svg" viewBox="0 0 8 8" id="close-8-8">
            <path d="M1 1L7 7M7 1L1 7" stroke-width="2" stroke-linecap="round"/>
        </symbol>
        <symbol xmlns="http://www.w3.org/2000/svg" viewBox="0 0 16 16" id="share-16-16">
            <path d="M8.70711 0.292894C8.31658 -0.0976312 7.68342 -0.0976312 7.29289 0.292894L4.29289 3.29289C3.90237 3.68342 3.90237 4.31658 4.29289 4.70711C4.68342 5.09763 5.31658 5.09763 5.70711 4.70711L7 3.41421V10C7 10.5523 7.44772 11 8 11C8.55228 11 9 10.5523 9 10V3.41421L10.2929 4.70711C10.6834 5.09763 11.3166 5.09763 11.7071 4.70711C12.0976 4.31658 12.0976 3.68342 11.7071 3.29289L8.70711 0.292894Z"/>
            <path d="M2 10C2 9.44772 2.44771 9 3 9C3.55228 9 4 8.55228 4 8C4 7.44772 3.55228 7 3 7C1.34315 7 0 8.34315 0 10V13C0 14.6569 1.34315 16 3 16H13C14.6569 16 16 14.6569 16 13V10C16 8.34315 14.6569 7 13 7C12.4477 7 12 7.44772 12 8C12 8.55228 12.4477 9 13 9C13.5523 9 14 9.44772 14 10V13C14 13.5523 13.5523 14 13 14H3C2.44772 14 2 13.5523 2 13V10Z"/>
        </symbol>
        <symbol xmlns="http://www.w3.org/2000/svg" viewBox="0 0 20 20" fill="none" id="share-20-20">
            <path d="M2 12V14C2 16.2091 3.79086 18 6 18H14C16.2091 18 18 16.2091 18 14V12" stroke-width="2" stroke-linecap="round"/>
            <path d="M10 12V2M10 2L14 5M10 2L6 5" stroke-width="2" stroke-linecap="round" stroke-linejoin="round"/>
        </symbol>
        <symbol xmlns="http://www.w3.org/2000/svg" viewBox="0 0 18 11" id="table_sizes">
            <path d="M12 10C12 10.5523 12.4477 11 13 11C13.5523 11 14 10.5523 14 10H12ZM14 5C14 4.44772 13.5523 4 13 4C12.4477 4 12 4.44772 12 5H14ZM8 10C8 10.5523 8.44772 11 9 11C9.55228 11 10 10.5523 10 10H8ZM10 7C10 6.44772 9.55228 6 9 6C8.44772 6 8 6.44772 8 7H10ZM4 10C4 10.5523 4.44772 11 5 11C5.55228 11 6 10.5523 6 10H4ZM6 5C6 4.44772 5.55228 4 5 4C4.44772 4 4 4.44772 4 5H6ZM18 8V3H16V8H18ZM18 3C18 1.34312 16.6569 0 15 0V2C15.5523 2 16 2.44768 16 3H18ZM15 0H3V2H15V0ZM3 0C1.34312 0 0 1.34312 0 3H2C2 2.44768 2.44768 2 3 2V0ZM0 3V8H2V3H0ZM0 8C0 9.65688 1.34312 11 3 11V9C2.44768 9 2 8.55232 2 8H0ZM3 11H15V9H3V11ZM15 11C16.6569 11 18 9.65688 18 8H16C16 8.55232 15.5523 9 15 9V11ZM14 10V5H12V10H14ZM10 10V7H8V10H10ZM6 10V5H4V10H6Z"/>
        </symbol>
        <symbol xmlns="http://www.w3.org/2000/svg" viewBox="0 0 14 14" id="rss-14-14">
            <path d="M1531,255a1,1,0,0,0,1-1v-1a10,10,0,0,1,10-10h1a1,1,0,1,0,0-2h-1a12,12,0,0,0-12,12v1A1,1,0,0,0,1531,255Zm12-9h-1a7,7,0,0,0-7,7v1a1,1,0,1,0,2,0v-1a5,5,0,0,1,5-5h1A1,1,0,0,0,1543,246Zm-1,5a2,2,0,1,0,2,2A2,2,0,0,0,1542,251Z" transform="translate(-1530 -241)"/>
        </symbol>
        <symbol xmlns="http://www.w3.org/2000/svg" viewBox="0 0 12 12" id="star-12-12">
            <path d="M5.54852 0.340247C5.69361 -0.113416 6.30639 -0.113415 6.45148 0.340247L7.56713 3.82855C7.63163 4.03023 7.81122 4.16686 8.01433 4.16878L11.5273 4.2019C11.9841 4.20621 12.1735 4.81648 11.8063 5.10117L8.98286 7.29018C8.81962 7.41674 8.75103 7.63781 8.81205 7.84068L9.86753 11.3495C10.0048 11.8058 9.50904 12.1829 9.13701 11.9052L6.27638 9.76981C6.11099 9.64635 5.88901 9.64635 5.72362 9.76981L2.86299 11.9052C2.49096 12.1829 1.99521 11.8058 2.13247 11.3495L3.18795 7.84068C3.24897 7.63781 3.18038 7.41674 3.01714 7.29018L0.193694 5.10117C-0.173502 4.81648 0.0158591 4.20621 0.472727 4.2019L3.98567 4.16878C4.18878 4.16686 4.36837 4.03023 4.43287 3.82855L5.54852 0.340247Z"/>
        </symbol>
        <symbol xmlns="http://www.w3.org/2000/svg" viewBox="0 0 8 9" id="bonus">
            <circle cx="3" cy="6" r="2.5" fill="none"/>
            <circle cx="5" cy="4" r="2.5" fill="#CBF2CA"/>
        </symbol>
        <symbol xmlns="http://www.w3.org/2000/svg" viewBox="0 0 11 11" fill="none" id="review-11-11">
            <path d="M1 9C1 9.55228 1.44772 10 2 10H5.5C7.98528 10 10 7.98528 10 5.5C10 3.01472 7.98528 1 5.5 1C3.01472 1 1 3.01472 1 5.5V9Z" stroke-width="2"/>
        </symbol>
        <symbol xmlns="http://www.w3.org/2000/svg" width="13" height="12" viewBox="0 0 13 12" fill="none" id="review">
            <path d="M2.5 10C2.5 10.5523 2.94772 11 3.5 11H7C9.48528 11 11.5 8.98528 11.5 6.5C11.5 4.01472 9.48528 2 7 2C4.51472 2 2.5 4.01472 2.5 6.5V10Z" stroke-width="2"/>
        </symbol>
        <symbol xmlns="http://www.w3.org/2000/svg" width="12" height="12" viewBox="0 0 12 12" id="close-12-12">
            <path d="M9.29289 1.29289C9.68342 0.902369 10.3166 0.902369 10.7071 1.29289C11.0976 1.68342 11.0976 2.31658 10.7071 2.70711L7.41422 6L10.7071 9.29289C11.0976 9.68342 11.0976 10.3166 10.7071 10.7071C10.3166 11.0976 9.68342 11.0976 9.29289 10.7071L6 7.41421L2.70711 10.7071C2.31658 11.0976 1.68342 11.0976 1.29289 10.7071C0.902369 10.3166 0.902369 9.68342 1.29289 9.29289L4.58579 6L1.29289 2.70711C0.90237 2.31658 0.90237 1.68342 1.29289 1.29289C1.68342 0.902369 2.31658 0.902369 2.70711 1.29289L6 4.58579L9.29289 1.29289Z"/>
        </symbol>
        <symbol xmlns="http://www.w3.org/2000/svg" width="12" height="12" viewBox="0 0 12 12" id="sort">
            <path fill-rule="evenodd" clip-rule="evenodd" d="M4.38268 0.0761497C4.75636 0.230931 5 0.595567 5 1.00003V11C5 11.5523 4.55228 12 4 12C3.44772 12 3 11.5523 3 11V3.41424L1.70711 4.70714C1.31658 5.09766 0.683417 5.09766 0.292893 4.70714C-0.0976311 4.31661 -0.0976311 3.68345 0.292893 3.29292L3.29289 0.292922C3.57889 0.00692445 4.00901 -0.0786313 4.38268 0.0761497ZM8 2.91966e-05C8.55228 2.91966e-05 9 0.447744 9 1.00003V8.58582L10.2929 7.29292C10.6834 6.9024 11.3166 6.9024 11.7071 7.29292C12.0976 7.68345 12.0976 8.31661 11.7071 8.70714L8.70711 11.7071C8.42111 11.9931 7.99099 12.0787 7.61732 11.9239C7.24364 11.7691 7 11.4045 7 11V1.00003C7 0.447744 7.44772 2.91966e-05 8 2.91966e-05Z"/>
        </symbol>
        <symbol xmlns="http://www.w3.org/2000/svg" width="13" height="12" viewBox="0 0 13 12" id="filter">
            <path fill-rule="evenodd" clip-rule="evenodd" d="M3.5 4C2.94772 4 2.5 3.55228 2.5 3C2.5 2.44772 2.94772 2 3.5 2C4.05228 2 4.5 2.44772 4.5 3C4.5 3.55228 4.05228 4 3.5 4ZM3.5 0C4.80622 0 5.91746 0.834808 6.32929 2H11.5C12.0523 2 12.5 2.44772 12.5 3C12.5 3.55228 12.0523 4 11.5 4H6.32929C5.91746 5.16519 4.80622 6 3.5 6C1.84315 6 0.5 4.65685 0.5 3C0.5 1.34315 1.84315 0 3.5 0ZM9.5 10C10.0523 10 10.5 9.55228 10.5 9C10.5 8.44772 10.0523 8 9.5 8C8.94772 8 8.5 8.44772 8.5 9C8.5 9.55228 8.94772 10 9.5 10ZM6.67071 10C7.08254 11.1652 8.19378 12 9.5 12C11.1569 12 12.5 10.6569 12.5 9C12.5 7.34315 11.1569 6 9.5 6C8.19378 6 7.08254 6.83481 6.67071 8H1.5C0.947715 8 0.5 8.44771 0.5 9C0.5 9.55229 0.947715 10 1.5 10H6.67071Z"/>
        </symbol>
        <symbol xmlns="http://www.w3.org/2000/svg" viewBox="0 0 24 24" id="sale">
            <rect width="24" height="24" rx="12" fill="#FFECA8"/>
            <path d="M6.35823 12.1083L13.4076 6.29935C13.7874 5.98637 14.3433 6.35268 14.2056 6.82516L13.1767 10.3542C13.0834 10.6742 13.3234 10.9942 13.6567 10.9942H17.3231C17.7922 10.9942 18.003 11.5819 17.6409 11.8801L10.5711 17.7026C10.1914 18.0153 9.63576 17.6493 9.77318 17.1769L10.804 13.6339C10.8971 13.3139 10.6571 12.9942 10.3239 12.9942H6.6762C6.20718 12.9942 5.99627 12.4066 6.35823 12.1083Z" fill="#222228"/>
        </symbol>
</svg>